<?xml version="1.0" standalone="no"?><!DOCTYPE svg PUBLIC "-//W3C//DTD SVG 1.1//EN" "http://www.w3.org/Graphics/SVG/1.1/DTD/svg11.dtd"><svg t="1636508375023" class="icon" viewBox="0 0 1045 1024" version="1.1" xmlns="http://www.w3.org/2000/svg" p-id="7086" width="130.625" height="128" xmlns:xlink="http://www.w3.org/1999/xlink"><defs><style type="text/css"></style></defs><path d="M326.857143 799.428571l-28.571429 28.571429q-5.714286 5.714286-13.142857 5.714286t-13.142857-5.714286L5.714286 561.714286q-5.714286-5.714286-5.714286-13.142857t5.714286-13.142858l266.285714-266.285714q5.714286-5.714286 13.142857-5.714286t13.142857 5.714286l28.571429 28.571429q5.714286 5.714286 5.714286 13.142857t-5.714286 13.142857L102.285714 548.571429l224.571429 224.571428q5.714286 5.714286 5.714286 13.142857t-5.714286 13.142857z m337.714286-609.714285L451.428571 927.428571q-2.285714 7.428571-8.857142 11.142858T429.142857 940l-35.428571-9.714286q-7.428571-2.285714-11.142857-8.857143T381.142857 907.428571l213.142857-737.714285q2.285714-7.428571 8.857143-11.142857t13.428572-1.428572l35.428571 9.714286q7.428571 2.285714 11.142857 8.857143t1.428572 14z m375.428571 372l-266.285714 266.285714q-5.714286 5.714286-13.142857 5.714286t-13.142858-5.714286l-28.571428-28.571429q-5.714286-5.714286-5.714286-13.142857t5.714286-13.142857l224.571428-224.571428-224.571428-224.571429q-5.714286-5.714286-5.714286-13.142857t5.714286-13.142857l28.571428-28.571429q5.714286-5.714286 13.142858-5.714286t13.142857 5.714286l266.285714 266.285714q5.714286 5.714286 5.714286 13.142858t-5.714286 13.142857z" p-id="7087"></path></svg>