<?xml version="1.0" encoding="UTF-8"?>
<svg width="1080px" height="1080px" viewBox="0 0 1080 1080" version="1.1" xmlns="http://www.w3.org/2000/svg" xmlns:xlink="http://www.w3.org/1999/xlink">
    <!-- Generator: Sketch 52.5 (67469) - http://www.bohemiancoding.com/sketch -->
    <title>上海</title>
    <desc>Created with Sketch.</desc>
    <defs>
        <linearGradient x1="50%" y1="0%" x2="50%" y2="100%" id="linearGradient-1">
            <stop stop-color="#68B75C" offset="0%"></stop>
            <stop stop-color="#37802F" offset="100%"></stop>
        </linearGradient>
        <path d="M3.49611769,69.0000006 C1.23951869,63.2711311 0,57.0303181 0,50.5 C0,22.6096201 22.6096201,0 50.5,0 C78.3903799,0 101,22.6096201 101,50.5 C101,57.0303179 99.7604814,63.2711307 97.5038825,69 L3.49611337,69 L3.49611769,69.0000006 Z" id="path-2"></path>
        <circle id="path-4" cx="58.5" cy="58.5" r="58.5"></circle>
    </defs>
    <g id="上海" stroke="none" stroke-width="1" fill="none" fill-rule="evenodd">
        <g id="Group" transform="translate(186.000000, 251.000000)">
            <polygon id="Path-14" fill="#6A9CA1" points="0 31.5859375 51.2890625 0 51.2890625 679.136719 0 679.136719"></polygon>
            <polygon id="Path-15" fill="#A5C6C9" points="51.0634766 0.262695312 291.089355 0.262695312 291.089355 679.142578 51.0634766 679.142578"></polygon>
            <rect id="Rectangle-2" fill="#F9F9F9" x="63" y="36" width="20" height="17"></rect>
            <rect id="Rectangle-2-Copy-58" fill="#F9F9F9" x="63" y="66" width="20" height="17"></rect>
            <rect id="Rectangle-2-Copy-59" fill="#F9F9F9" x="63" y="94" width="20" height="17"></rect>
            <rect id="Rectangle-2-Copy-60" fill="#F9F9F9" x="63" y="150" width="20" height="17"></rect>
            <rect id="Rectangle-2-Copy-61" fill="#F9F9F9" x="63" y="179" width="20" height="17"></rect>
            <rect id="Rectangle-2-Copy-62" fill="#F9F9F9" x="63" y="207" width="20" height="17"></rect>
            <rect id="Rectangle-2-Copy-63" fill="#F9F9F9" x="63" y="235" width="20" height="17"></rect>
            <rect id="Rectangle-2-Copy-64" fill="#F9F9F9" x="63" y="291" width="20" height="17"></rect>
            <rect id="Rectangle-2-Copy-65" fill="#F9F9F9" x="63" y="320" width="20" height="17"></rect>
            <rect id="Rectangle-2-Copy-66" fill="#F9F9F9" x="63" y="377" width="20" height="17"></rect>
            <rect id="Rectangle-2-Copy-67" fill="#F9F9F9" x="63" y="406" width="20" height="17"></rect>
            <rect id="Rectangle-2-Copy-68" fill="#F9F9F9" x="63" y="434" width="20" height="17"></rect>
            <rect id="Rectangle-2-Copy-69" fill="#F9F9F9" x="63" y="463" width="20" height="17"></rect>
            <rect id="Rectangle-2-Copy-70" fill="#F9F9F9" x="63" y="519" width="20" height="17"></rect>
            <rect id="Rectangle-2-Copy-71" fill="#F9F9F9" x="63" y="545" width="20" height="17"></rect>
            <rect id="Rectangle-2-Copy-72" fill="#F9F9F9" x="63" y="575" width="20" height="17"></rect>
            <rect id="Rectangle-2-Copy" fill="#F9F9F9" x="103" y="36" width="20" height="17"></rect>
            <rect id="Rectangle-2-Copy-73" fill="#F9F9F9" x="103" y="93" width="20" height="17"></rect>
            <rect id="Rectangle-2-Copy-74" fill="#F9F9F9" x="103" y="121" width="20" height="17"></rect>
            <rect id="Rectangle-2-Copy-75" fill="#F9F9F9" x="103" y="149" width="20" height="17"></rect>
            <rect id="Rectangle-2-Copy-76" fill="#F9F9F9" x="103" y="177" width="20" height="17"></rect>
            <rect id="Rectangle-2-Copy-77" fill="#F9F9F9" x="103" y="205" width="20" height="17"></rect>
            <rect id="Rectangle-2-Copy-78" fill="#F9F9F9" x="103" y="263" width="20" height="17"></rect>
            <rect id="Rectangle-2-Copy-79" fill="#F9F9F9" x="103" y="291" width="20" height="17"></rect>
            <rect id="Rectangle-2-Copy-80" fill="#F9F9F9" x="103" y="319" width="20" height="17"></rect>
            <rect id="Rectangle-2-Copy-81" fill="#F9F9F9" x="103" y="347" width="20" height="17"></rect>
            <rect id="Rectangle-2-Copy-82" fill="#F9F9F9" x="103" y="376" width="20" height="17"></rect>
            <rect id="Rectangle-2-Copy-83" fill="#F9F9F9" x="103" y="433" width="20" height="17"></rect>
            <rect id="Rectangle-2-Copy-84" fill="#F9F9F9" x="103" y="461" width="20" height="17"></rect>
            <rect id="Rectangle-2-Copy-85" fill="#F9F9F9" x="103" y="489" width="20" height="17"></rect>
            <rect id="Rectangle-2-Copy-86" fill="#F9F9F9" x="103" y="547" width="20" height="17"></rect>
            <rect id="Rectangle-2-Copy-87" fill="#F9F9F9" x="103" y="575" width="20" height="17"></rect>
            <rect id="Rectangle-2-Copy-2" fill="#F9F9F9" x="142" y="36" width="20" height="17"></rect>
            <rect id="Rectangle-2-Copy-16" fill="#F9F9F9" x="222" y="36" width="20" height="17"></rect>
            <rect id="Rectangle-2-Copy-21" fill="#F9F9F9" x="222" y="65" width="20" height="17"></rect>
            <rect id="Rectangle-2-Copy-22" fill="#F9F9F9" x="222" y="119" width="20" height="17"></rect>
            <rect id="Rectangle-2-Copy-23" fill="#F9F9F9" x="222" y="149" width="20" height="17"></rect>
            <rect id="Rectangle-2-Copy-24" fill="#F9F9F9" x="222" y="207" width="20" height="17"></rect>
            <rect id="Rectangle-2-Copy-25" fill="#F9F9F9" x="222" y="264" width="20" height="17"></rect>
            <rect id="Rectangle-2-Copy-26" fill="#F9F9F9" x="222" y="319" width="20" height="17"></rect>
            <rect id="Rectangle-2-Copy-27" fill="#F9F9F9" x="222" y="348" width="20" height="17"></rect>
            <rect id="Rectangle-2-Copy-28" fill="#F9F9F9" x="222" y="377" width="20" height="17"></rect>
            <rect id="Rectangle-2-Copy-29" fill="#F9F9F9" x="222" y="405" width="20" height="17"></rect>
            <rect id="Rectangle-2-Copy-30" fill="#F9F9F9" x="222" y="434" width="20" height="17"></rect>
            <rect id="Rectangle-2-Copy-31" fill="#F9F9F9" x="222" y="488" width="20" height="17"></rect>
            <rect id="Rectangle-2-Copy-32" fill="#F9F9F9" x="222" y="548" width="20" height="17"></rect>
            <rect id="Rectangle-2-Copy-17" fill="#F9F9F9" x="260" y="36" width="20" height="17"></rect>
            <rect id="Rectangle-2-Copy-18" fill="#F9F9F9" x="260" y="93" width="20" height="17"></rect>
            <rect id="Rectangle-2-Copy-19" fill="#F9F9F9" x="260" y="121" width="20" height="17"></rect>
            <rect id="Rectangle-2-Copy-48" fill="#F9F9F9" x="260" y="179" width="20" height="17"></rect>
            <rect id="Rectangle-2-Copy-47" fill="#F9F9F9" x="260" y="207" width="20" height="17"></rect>
            <rect id="Rectangle-2-Copy-49" fill="#F9F9F9" x="260" y="236" width="20" height="17"></rect>
            <rect id="Rectangle-2-Copy-50" fill="#F9F9F9" x="260" y="290" width="20" height="17"></rect>
            <rect id="Rectangle-2-Copy-51" fill="#F9F9F9" x="260" y="349" width="20" height="17"></rect>
            <rect id="Rectangle-2-Copy-52" fill="#F9F9F9" x="260" y="407" width="20" height="17"></rect>
            <rect id="Rectangle-2-Copy-53" fill="#F9F9F9" x="260" y="463" width="20" height="17"></rect>
            <rect id="Rectangle-2-Copy-54" fill="#F9F9F9" x="260" y="492" width="20" height="17"></rect>
            <rect id="Rectangle-2-Copy-55" fill="#F9F9F9" x="260" y="521" width="20" height="17"></rect>
            <rect id="Rectangle-2-Copy-56" fill="#F9F9F9" x="260" y="545" width="20" height="17"></rect>
            <rect id="Rectangle-2-Copy-57" fill="#F9F9F9" x="260" y="576" width="20" height="17"></rect>
            <rect id="Rectangle-2-Copy-3" fill="#F9F9F9" x="142" y="65" width="20" height="17"></rect>
            <rect id="Rectangle-2-Copy-20" fill="#F9F9F9" x="182" y="65" width="20" height="17"></rect>
            <rect id="Rectangle-2-Copy-33" fill="#F9F9F9" x="182" y="93" width="20" height="17"></rect>
            <rect id="Rectangle-2-Copy-34" fill="#F9F9F9" x="182" y="121" width="20" height="17"></rect>
            <rect id="Rectangle-2-Copy-35" fill="#F9F9F9" x="182" y="149" width="20" height="17"></rect>
            <rect id="Rectangle-2-Copy-36" fill="#F9F9F9" x="182" y="206" width="20" height="17"></rect>
            <rect id="Rectangle-2-Copy-37" fill="#F9F9F9" x="182" y="235" width="20" height="17"></rect>
            <rect id="Rectangle-2-Copy-38" fill="#F9F9F9" x="182" y="263" width="20" height="17"></rect>
            <rect id="Rectangle-2-Copy-39" fill="#F9F9F9" x="182" y="290" width="20" height="17"></rect>
            <rect id="Rectangle-2-Copy-40" fill="#F9F9F9" x="182" y="320" width="20" height="17"></rect>
            <rect id="Rectangle-2-Copy-41" fill="#F9F9F9" x="182" y="377" width="20" height="17"></rect>
            <rect id="Rectangle-2-Copy-42" fill="#F9F9F9" x="182" y="405" width="20" height="17"></rect>
            <rect id="Rectangle-2-Copy-43" fill="#F9F9F9" x="182" y="462" width="20" height="17"></rect>
            <rect id="Rectangle-2-Copy-44" fill="#F9F9F9" x="182" y="518" width="20" height="17"></rect>
            <rect id="Rectangle-2-Copy-45" fill="#F9F9F9" x="182" y="546" width="20" height="17"></rect>
            <rect id="Rectangle-2-Copy-46" fill="#F9F9F9" x="182" y="575" width="20" height="17"></rect>
            <rect id="Rectangle-2-Copy-4" fill="#F9F9F9" x="142" y="121" width="20" height="17"></rect>
            <rect id="Rectangle-2-Copy-5" fill="#F9F9F9" x="142" y="178" width="20" height="17"></rect>
            <rect id="Rectangle-2-Copy-6" fill="#F9F9F9" x="142" y="235" width="20" height="17"></rect>
            <rect id="Rectangle-2-Copy-7" fill="#F9F9F9" x="142" y="263" width="20" height="17"></rect>
            <rect id="Rectangle-2-Copy-8" fill="#F9F9F9" x="142" y="320" width="20" height="17"></rect>
            <rect id="Rectangle-2-Copy-9" fill="#F9F9F9" x="142" y="348" width="20" height="17"></rect>
            <rect id="Rectangle-2-Copy-10" fill="#F9F9F9" x="142" y="405" width="20" height="17"></rect>
            <rect id="Rectangle-2-Copy-11" fill="#F9F9F9" x="142" y="434" width="20" height="17"></rect>
            <rect id="Rectangle-2-Copy-12" fill="#F9F9F9" x="142" y="462" width="20" height="17"></rect>
            <rect id="Rectangle-2-Copy-13" fill="#F9F9F9" x="142" y="490" width="20" height="17"></rect>
            <rect id="Rectangle-2-Copy-14" fill="#F9F9F9" x="142" y="518" width="20" height="17"></rect>
            <rect id="Rectangle-2-Copy-15" fill="#F9F9F9" x="142" y="575" width="20" height="17"></rect>
        </g>
        <g id="Group-5" transform="translate(59.000000, 703.000000)">
            <circle id="Oval-2" fill="#336D2C" cx="85" cy="97" r="56"></circle>
            <path d="M85,126 L85,126 C87.209139,126 89,127.790861 89,130 L89,227 L81,227 L81,130 C81,127.790861 82.790861,126 85,126 Z" id="Rectangle-6-Copy" fill="#6E5B21"></path>
            <circle id="Combined-Shape" fill="url(#linearGradient-1)" cx="65.5" cy="65.5" r="65.5"></circle>
            <path d="M67,53 L67,53 C69.209139,53 71,54.790861 71,57 L71,227 L63,227 L63,57 C63,54.790861 64.790861,53 67,53 Z" id="Rectangle-6" fill="#6E5B21"></path>
            <path d="M66.0415088,80.1408685 L105.784859,80.1408685 C107.441713,80.1408685 108.784859,81.4840142 108.784859,83.1408685 L108.784859,84.1408685 C108.784859,85.7977227 107.441713,87.1408685 105.784859,87.1408685 L66.0415088,87.1408685 C64.3846545,87.1408685 63.0415088,85.7977227 63.0415088,84.1408685 L63.0415088,83.1408685 C63.0415088,81.4840142 64.3846545,80.1408685 66.0415088,80.1408685 Z" id="Rectangle-7" fill="#6E5B21" transform="translate(85.913184, 83.640868) rotate(-36.000000) translate(-85.913184, -83.640868) "></path>
        </g>
        <rect id="Rectangle" fill="#63577E" x="78" y="930" width="898" height="31"></rect>
        <g id="Group-3" transform="translate(628.000000, 187.000000)">
            <rect id="Rectangle-3" fill="#A5BEB4" x="2" y="0" width="210" height="30"></rect>
            <g id="Group-2" transform="translate(0.000000, 32.000000)">
                <polygon id="Path-16" fill="#A5BEB4" points="97.9094238 589.120605 101.0625 589.120605 212.557617 17.8583984 212.557617 0.951171875 1.02441406 0.951171875 1.02441406 17.8583984"></polygon>
                <polygon id="Path-17" fill="#7EBDBA" points="0.860351562 74.8857422 2.79150391 74.8857422 94.4321289 619.772461 94.4321289 711.063965 0.860351562 711.063965"></polygon>
                <polygon id="Path-17-Copy" fill="#7EBDBA" transform="translate(158.646240, 392.974854) scale(-1, 1) translate(-158.646240, -392.974854) " points="103.860352 74.8857422 105.791504 74.8857422 213.432129 619.772461 213.432129 711.063965 103.860352 711.063965"></polygon>
            </g>
            <path d="M1.27282852,51.3636364 L41.0164548,51.3636364 L39.8888391,43 L1,43 L1,41 L39.6191919,41 L38.6132812,33.5390625 L168.574219,33.5390625 L167.564158,41 L213,41 L213,43 L167.293399,43 L166.161131,51.3636364 L212.192715,51.3636364 L211.802337,53.3636364 L165.890371,53.3636364 L164.758104,61.7272727 L210.16985,61.7272727 L209.779473,63.7272727 L164.487344,63.7272727 L163.355077,72.0909091 L208.146985,72.0909091 L207.756608,74.0909091 L163.084317,74.0909091 L161.952049,82.4545455 L206.12412,82.4545455 L205.733743,84.4545455 L161.68129,84.4545455 L160.549022,92.8181818 L204.101256,92.8181818 L203.710878,94.8181818 L160.278262,94.8181818 L159.145995,103.181818 L202.078391,103.181818 L201.688013,105.181818 L10.4043506,105.181818 L10.0650035,103.181818 L48.0027697,103.181818 L46.875154,94.8181818 L8.6459156,94.8181818 L8.30656849,92.8181818 L46.6055067,92.8181818 L45.477891,84.4545455 L6.8874806,84.4545455 L6.5481335,82.4545455 L45.2082438,82.4545455 L44.080628,74.0909091 L5.12904561,74.0909091 L4.78969851,72.0909091 L43.8109808,72.0909091 L42.683365,63.7272727 L3.37061062,63.7272727 L3.03126351,61.7272727 L42.4137178,61.7272727 L41.2861021,53.3636364 L1.61217563,53.3636364 L1.27282852,51.3636364 Z M3.97892999,113.545455 L4.31525865,115.545455 L1,115.545455 L1,113.545455 L3.97892999,113.545455 Z M11.8234385,113.545455 L200.055526,113.545455 L199.665149,115.545455 L12.1627856,115.545455 L11.8234385,113.545455 Z M210.199415,113.545455 L213,113.545455 L213,115.545455 L209.804532,115.545455 L210.199415,113.545455 Z M5.72172395,123.909091 L6.05805261,125.909091 L1,125.909091 L1,123.909091 L5.72172395,123.909091 Z M13.5818735,123.909091 L198.032661,123.909091 L197.642284,125.909091 L13.9212206,125.909091 L13.5818735,123.909091 Z M208.153203,123.909091 L213,123.909091 L213,125.909091 L207.75832,125.909091 L208.153203,123.909091 Z M7.46451791,134.272727 L7.80084657,136.272727 L1,136.272727 L1,134.272727 L7.46451791,134.272727 Z M15.3403085,134.272727 L196.009796,134.272727 L195.619419,136.272727 L15.6796556,136.272727 L15.3403085,134.272727 Z M206.106991,134.272727 L213,134.272727 L213,136.272727 L205.712108,136.272727 L206.106991,134.272727 Z M9.20731187,144.636364 L9.54364053,146.636364 L1,146.636364 L1,144.636364 L9.20731187,144.636364 Z M17.0987435,144.636364 L193.986932,144.636364 L193.596554,146.636364 L17.4380906,146.636364 L17.0987435,144.636364 Z M204.060778,144.636364 L213,144.636364 L213,146.636364 L203.665895,146.636364 L204.060778,144.636364 Z M10.9501058,155 L11.2864345,157 L1,157 L1,155 L10.9501058,155 Z M18.8571784,155 L191.964067,155 L191.573689,157 L19.1965256,157 L18.8571784,155 Z M202.014566,155 L213,155 L213,157 L201.619683,157 L202.014566,155 Z M12.6928998,165.363636 L13.0292284,167.363636 L1,167.363636 L1,165.363636 L12.6928998,165.363636 Z M20.6156134,165.363636 L189.941202,165.363636 L189.550824,167.363636 L20.9549605,167.363636 L20.6156134,165.363636 Z M199.968354,165.363636 L213,165.363636 L213,167.363636 L199.573471,167.363636 L199.968354,165.363636 Z M14.4356937,175.727273 L14.7720224,177.727273 L1,177.727273 L1,175.727273 L14.4356937,175.727273 Z M22.3740484,175.727273 L187.918337,175.727273 L187.52796,177.727273 L22.7133955,177.727273 L22.3740484,175.727273 Z M197.922141,175.727273 L213,175.727273 L213,177.727273 L197.527258,177.727273 L197.922141,175.727273 Z M16.1784877,186.090909 L16.5148164,188.090909 L1,188.090909 L1,186.090909 L16.1784877,186.090909 Z M24.1324834,186.090909 L185.895472,186.090909 L185.505095,188.090909 L24.4718305,188.090909 L24.1324834,186.090909 Z M195.875929,186.090909 L213,186.090909 L213,188.090909 L195.481046,188.090909 L195.875929,186.090909 Z M17.9212817,196.454545 L18.2576103,198.454545 L1,198.454545 L1,196.454545 L17.9212817,196.454545 Z M25.8909184,196.454545 L183.872607,196.454545 L183.48223,198.454545 L26.2302655,198.454545 L25.8909184,196.454545 Z M193.829717,196.454545 L213,196.454545 L213,198.454545 L193.434834,198.454545 L193.829717,196.454545 Z M19.6640756,206.818182 L20.0004043,208.818182 L1,208.818182 L1,206.818182 L19.6640756,206.818182 Z M27.6493534,206.818182 L181.849743,206.818182 L181.459365,208.818182 L27.9887005,208.818182 L27.6493534,206.818182 Z M191.783505,206.818182 L213,206.818182 L213,208.818182 L191.388622,208.818182 L191.783505,206.818182 Z M21.4068696,217.181818 L21.7431982,219.181818 L1,219.181818 L1,217.181818 L21.4068696,217.181818 Z M29.4077884,217.181818 L179.826878,217.181818 L179.4365,219.181818 L29.7471355,219.181818 L29.4077884,217.181818 Z M189.737292,217.181818 L213,217.181818 L213,219.181818 L189.342409,219.181818 L189.737292,217.181818 Z M23.1496635,227.545455 L23.4859922,229.545455 L1,229.545455 L1,227.545455 L23.1496635,227.545455 Z M31.1662234,227.545455 L177.804013,227.545455 L177.413636,229.545455 L31.5055705,229.545455 L31.1662234,227.545455 Z M187.69108,227.545455 L213,227.545455 L213,229.545455 L187.296197,229.545455 L187.69108,227.545455 Z M24.8924575,237.909091 L25.2287862,239.909091 L1,239.909091 L1,237.909091 L24.8924575,237.909091 Z M32.9246584,237.909091 L175.781148,237.909091 L175.390771,239.909091 L33.2640055,239.909091 L32.9246584,237.909091 Z M185.644868,237.909091 L213,237.909091 L213,239.909091 L185.249985,239.909091 L185.644868,237.909091 Z M26.6352515,248.272727 L26.9715801,250.272727 L1,250.272727 L1,248.272727 L26.6352515,248.272727 Z M34.6830934,248.272727 L173.758283,248.272727 L173.367906,250.272727 L35.0224405,250.272727 L34.6830934,248.272727 Z M183.598655,248.272727 L213,248.272727 L213,250.272727 L183.203772,250.272727 L183.598655,248.272727 Z M28.3780454,258.636364 L28.7143741,260.636364 L1,260.636364 L1,258.636364 L28.3780454,258.636364 Z M36.4415284,258.636364 L171.735418,258.636364 L171.345041,260.636364 L36.7808755,260.636364 L36.4415284,258.636364 Z M181.552443,258.636364 L213,258.636364 L213,260.636364 L181.15756,260.636364 L181.552443,258.636364 Z M30.1208394,269 L30.457168,271 L1,271 L1,269 L30.1208394,269 Z M38.1999634,269 L169.712554,269 L169.322176,271 L38.5393105,271 L38.1999634,269 Z M179.506231,269 L213,269 L213,271 L179.111348,271 L179.506231,269 Z M31.8636333,279.363636 L32.199962,281.363636 L1,281.363636 L1,279.363636 L31.8636333,279.363636 Z M39.9583984,279.363636 L167.689689,279.363636 L167.299311,281.363636 L40.2977455,281.363636 L39.9583984,279.363636 Z M177.460019,279.363636 L213,279.363636 L213,281.363636 L177.065136,281.363636 L177.460019,279.363636 Z M33.6064273,289.727273 L33.9427559,291.727273 L1,291.727273 L1,289.727273 L33.6064273,289.727273 Z M41.7168334,289.727273 L165.666824,289.727273 L165.276447,291.727273 L42.0561805,291.727273 L41.7168334,289.727273 Z M175.413806,289.727273 L213,289.727273 L213,291.727273 L175.018923,291.727273 L175.413806,289.727273 Z M35.3492212,300.090909 L35.6855499,302.090909 L1,302.090909 L1,300.090909 L35.3492212,300.090909 Z M43.4752683,300.090909 L163.643959,300.090909 L163.253582,302.090909 L43.8146155,302.090909 L43.4752683,300.090909 Z M173.367594,300.090909 L213,300.090909 L213,302.090909 L172.972711,302.090909 L173.367594,300.090909 Z M37.0920152,310.454545 L37.4283439,312.454545 L1,312.454545 L1,310.454545 L37.0920152,310.454545 Z M45.2337033,310.454545 L161.621094,310.454545 L161.230717,312.454545 L45.5730504,312.454545 L45.2337033,310.454545 Z M171.321382,310.454545 L213,310.454545 L213,312.454545 L170.926499,312.454545 L171.321382,310.454545 Z M38.8348092,320.818182 L39.1711378,322.818182 L1,322.818182 L1,320.818182 L38.8348092,320.818182 Z M46.9921383,320.818182 L159.59823,320.818182 L159.207852,322.818182 L47.3314854,322.818182 L46.9921383,320.818182 Z M169.275169,320.818182 L213,320.818182 L213,322.818182 L168.880286,322.818182 L169.275169,320.818182 Z M40.5776031,331.181818 L40.9139318,333.181818 L1,333.181818 L1,331.181818 L40.5776031,331.181818 Z M48.7505733,331.181818 L157.575365,331.181818 L157.184987,333.181818 L49.0899204,333.181818 L48.7505733,331.181818 Z M167.228957,331.181818 L213,331.181818 L213,333.181818 L166.834074,333.181818 L167.228957,331.181818 Z M42.3203971,341.545455 L42.6567257,343.545455 L1,343.545455 L1,341.545455 L42.3203971,341.545455 Z M50.5090083,341.545455 L155.5525,341.545455 L155.162122,343.545455 L50.8483554,343.545455 L50.5090083,341.545455 Z M165.182745,341.545455 L213,341.545455 L213,343.545455 L164.787862,343.545455 L165.182745,341.545455 Z M44.063191,351.909091 L44.3995197,353.909091 L1,353.909091 L1,351.909091 L44.063191,351.909091 Z M52.2674433,351.909091 L153.529635,351.909091 L153.139258,353.909091 L52.6067904,353.909091 L52.2674433,351.909091 Z M163.136533,351.909091 L213,351.909091 L213,353.909091 L162.741649,353.909091 L163.136533,351.909091 Z M45.805985,362.272727 L46.1423137,364.272727 L1,364.272727 L1,362.272727 L45.805985,362.272727 Z M54.0258783,362.272727 L151.50677,362.272727 L151.116393,364.272727 L54.3652254,364.272727 L54.0258783,362.272727 Z M161.09032,362.272727 L213,362.272727 L213,364.272727 L160.695437,364.272727 L161.09032,362.272727 Z M47.548779,372.636364 L47.8851076,374.636364 L1,374.636364 L1,372.636364 L47.548779,372.636364 Z M55.7843133,372.636364 L149.483905,372.636364 L149.093528,374.636364 L56.1236604,374.636364 L55.7843133,372.636364 Z M159.044108,372.636364 L213,372.636364 L213,374.636364 L158.649225,374.636364 L159.044108,372.636364 Z M49.2915729,383 L49.6279016,385 L1,385 L1,383 L49.2915729,383 Z M57.5427483,383 L147.461041,383 L147.070663,385 L57.8820954,385 L57.5427483,383 Z M156.997896,383 L213,383 L213,385 L156.603013,385 L156.997896,383 Z M51.0343669,393.363636 L51.3706955,395.363636 L1,395.363636 L1,393.363636 L51.0343669,393.363636 Z M59.3011833,393.363636 L145.438176,393.363636 L145.047798,395.363636 L59.6405304,395.363636 L59.3011833,393.363636 Z M154.951683,393.363636 L213,393.363636 L213,395.363636 L154.5568,395.363636 L154.951683,393.363636 Z M52.7771608,403.727273 L53.1134895,405.727273 L1,405.727273 L1,403.727273 L52.7771608,403.727273 Z M61.0596183,403.727273 L143.415311,403.727273 L143.024934,405.727273 L61.3989654,405.727273 L61.0596183,403.727273 Z M152.905471,403.727273 L213,403.727273 L213,405.727273 L152.510588,405.727273 L152.905471,403.727273 Z M54.5199548,414.090909 L54.8562834,416.090909 L1,416.090909 L1,414.090909 L54.5199548,414.090909 Z M62.8180533,414.090909 L141.392446,414.090909 L141.002069,416.090909 L63.1574004,416.090909 L62.8180533,414.090909 Z M150.859259,414.090909 L213,414.090909 L213,416.090909 L150.464376,416.090909 L150.859259,414.090909 Z M56.2627487,424.454545 L56.5990774,426.454545 L1,426.454545 L1,424.454545 L56.2627487,424.454545 Z M64.5764883,424.454545 L139.369581,424.454545 L138.979204,426.454545 L64.9158354,426.454545 L64.5764883,424.454545 Z M148.813047,424.454545 L213,424.454545 L213,426.454545 L148.418163,426.454545 L148.813047,424.454545 Z M58.0055427,434.818182 L58.3418714,436.818182 L1,436.818182 L1,434.818182 L58.0055427,434.818182 Z M66.3349233,434.818182 L137.346717,434.818182 L136.956339,436.818182 L66.6742704,436.818182 L66.3349233,434.818182 Z M146.766834,434.818182 L213,434.818182 L213,436.818182 L146.371951,436.818182 L146.766834,434.818182 Z M59.7483367,445.181818 L60.0846653,447.181818 L1,447.181818 L1,445.181818 L59.7483367,445.181818 Z M68.0933582,445.181818 L135.323852,445.181818 L134.933474,447.181818 L68.4327053,447.181818 L68.0933582,445.181818 Z M144.720622,445.181818 L213,445.181818 L213,447.181818 L144.325739,447.181818 L144.720622,445.181818 Z M61.4911306,455.545455 L61.8274593,457.545455 L1,457.545455 L1,455.545455 L61.4911306,455.545455 Z M69.8517932,455.545455 L133.300987,455.545455 L132.910609,457.545455 L70.1911403,457.545455 L69.8517932,455.545455 Z M142.67441,455.545455 L213,455.545455 L213,457.545455 L142.279527,457.545455 L142.67441,455.545455 Z M63.2339246,465.909091 L63.5702532,467.909091 L1,467.909091 L1,465.909091 L63.2339246,465.909091 Z M71.6102282,465.909091 L131.278122,465.909091 L130.887745,467.909091 L71.9495753,467.909091 L71.6102282,465.909091 Z M140.628197,465.909091 L213,465.909091 L213,467.909091 L140.233314,467.909091 L140.628197,465.909091 Z M64.9767185,476.272727 L65.3130472,478.272727 L1,478.272727 L1,476.272727 L64.9767185,476.272727 Z M73.3686632,476.272727 L129.255257,476.272727 L128.86488,478.272727 L73.7080103,478.272727 L73.3686632,476.272727 Z M138.581985,476.272727 L213,476.272727 L213,478.272727 L138.187102,478.272727 L138.581985,476.272727 Z M66.7195125,486.636364 L67.0558412,488.636364 L1,488.636364 L1,486.636364 L66.7195125,486.636364 Z M75.1270982,486.636364 L127.232392,486.636364 L126.842015,488.636364 L75.4664453,488.636364 L75.1270982,486.636364 Z M136.535773,486.636364 L213,486.636364 L213,488.636364 L136.14089,488.636364 L136.535773,486.636364 Z M68.4623065,497 L68.7986351,499 L1,499 L1,497 L68.4623065,497 Z M76.8855332,497 L125.209528,497 L124.81915,499 L77.2248803,499 L76.8855332,497 Z M134.489561,497 L213,497 L213,499 L134.094677,499 L134.489561,497 Z M70.2051004,507.363636 L70.5414291,509.363636 L1,509.363636 L1,507.363636 L70.2051004,507.363636 Z M78.6439682,507.363636 L123.186663,507.363636 L122.796285,509.363636 L78.9833153,509.363636 L78.6439682,507.363636 Z M132.443348,507.363636 L213,507.363636 L213,509.363636 L132.048465,509.363636 L132.443348,507.363636 Z M71.9478944,517.727273 L72.284223,519.727273 L1,519.727273 L1,517.727273 L71.9478944,517.727273 Z M80.4024032,517.727273 L121.163798,517.727273 L120.773421,519.727273 L80.7417503,519.727273 L80.4024032,517.727273 Z M130.397136,517.727273 L213,517.727273 L213,519.727273 L130.002253,519.727273 L130.397136,517.727273 Z M73.6906883,528.090909 L74.027017,530.090909 L1,530.090909 L1,528.090909 L73.6906883,528.090909 Z M82.1608382,528.090909 L119.140933,528.090909 L118.750556,530.090909 L82.5001853,530.090909 L82.1608382,528.090909 Z M128.350924,528.090909 L213,528.090909 L213,530.090909 L127.956041,530.090909 L128.350924,528.090909 Z M75.4334823,538.454545 L75.7698109,540.454545 L1,540.454545 L1,538.454545 L75.4334823,538.454545 Z M83.9192732,538.454545 L117.118068,538.454545 L116.727691,540.454545 L84.2586203,540.454545 L83.9192732,538.454545 Z M126.304711,538.454545 L213,538.454545 L213,540.454545 L125.909828,540.454545 L126.304711,538.454545 Z M77.1762762,548.818182 L77.5126049,550.818182 L1,550.818182 L1,548.818182 L77.1762762,548.818182 Z M85.6777082,548.818182 L115.095203,548.818182 L114.704826,550.818182 L86.0170553,550.818182 L85.6777082,548.818182 Z M124.258499,548.818182 L213,548.818182 L213,550.818182 L123.863616,550.818182 L124.258499,548.818182 Z M78.9190702,559.181818 L79.2553989,561.181818 L1,561.181818 L1,559.181818 L78.9190702,559.181818 Z M87.4361432,559.181818 L113.072339,559.181818 L112.681961,561.181818 L87.7754903,561.181818 L87.4361432,559.181818 Z M122.212287,559.181818 L213,559.181818 L213,561.181818 L121.817404,561.181818 L122.212287,559.181818 Z M80.6618642,569.545455 L80.9981928,571.545455 L1,571.545455 L1,569.545455 L80.6618642,569.545455 Z M89.1945782,569.545455 L111.049474,569.545455 L110.659096,571.545455 L89.5339253,571.545455 L89.1945782,569.545455 Z M120.166075,569.545455 L213,569.545455 L213,571.545455 L119.771191,571.545455 L120.166075,569.545455 Z M82.4046581,579.909091 L82.7409868,581.909091 L1,581.909091 L1,579.909091 L82.4046581,579.909091 Z M90.9530132,579.909091 L109.026609,579.909091 L108.636232,581.909091 L91.2923603,581.909091 L90.9530132,579.909091 Z M118.119862,579.909091 L213,579.909091 L213,581.909091 L117.724979,581.909091 L118.119862,579.909091 Z M84.1474521,590.272727 L84.4837807,592.272727 L1,592.272727 L1,590.272727 L84.1474521,590.272727 Z M92.7114481,590.272727 L107.003744,590.272727 L106.613367,592.272727 L93.0507952,592.272727 L92.7114481,590.272727 Z M116.07365,590.272727 L213,590.272727 L213,592.272727 L115.678767,592.272727 L116.07365,590.272727 Z M85.890246,600.636364 L86.2265747,602.636364 L1,602.636364 L1,600.636364 L85.890246,600.636364 Z M94.4698831,600.636364 L104.980879,600.636364 L104.590502,602.636364 L94.8092302,602.636364 L94.4698831,600.636364 Z M114.027438,600.636364 L213,600.636364 L213,602.636364 L113.632555,602.636364 L114.027438,600.636364 Z M87.63304,611 L87.9693687,613 L1,613 L1,611 L87.63304,611 Z M96.2283181,611 L102.958015,611 L102.567637,613 L96.5676652,613 L96.2283181,611 Z M111.981225,611 L213,611 L213,613 L111.586342,613 L111.981225,611 Z M89.5439983,622.363636 L89.8803269,624.363636 L1,624.363636 L1,622.363636 L89.5439983,622.363636 Z M109.737572,622.363636 L213,622.363636 L213,624.363636 L109.342688,624.363636 L109.737572,622.363636 Z M91.2867922,632.727273 L91.6231209,634.727273 L1,634.727273 L1,632.727273 L91.2867922,632.727273 Z M107.691359,632.727273 L213,632.727273 L213,634.727273 L107.296476,634.727273 L107.691359,632.727273 Z M93.0295862,643.090909 L93.3659149,645.090909 L1,645.090909 L1,643.090909 L93.0295862,643.090909 Z M105.645147,643.090909 L213,643.090909 L213,645.090909 L105.250264,645.090909 L105.645147,643.090909 Z M94.515625,653.454545 L94.515625,655.454545 L1,655.454545 L1,653.454545 L94.515625,653.454545 Z M103.900391,653.454545 L213,653.454545 L213,655.454545 L103.900391,655.454545 L103.900391,653.454545 Z M94.515625,663.818182 L94.515625,665.818182 L1,665.818182 L1,663.818182 L94.515625,663.818182 Z M103.900391,663.818182 L213,663.818182 L213,665.818182 L103.900391,665.818182 L103.900391,663.818182 Z M94.515625,674.181818 L94.515625,676.181818 L1,676.181818 L1,674.181818 L94.515625,674.181818 Z M103.900391,674.181818 L213,674.181818 L213,676.181818 L103.900391,676.181818 L103.900391,674.181818 Z M94.515625,684.545455 L94.515625,686.545455 L1,686.545455 L1,684.545455 L94.515625,684.545455 Z M103.900391,684.545455 L213,684.545455 L213,686.545455 L103.900391,686.545455 L103.900391,684.545455 Z M94.515625,694.909091 L94.515625,696.909091 L1,696.909091 L1,694.909091 L94.515625,694.909091 Z M103.900391,694.909091 L213,694.909091 L213,696.909091 L103.900391,696.909091 L103.900391,694.909091 Z M94.515625,705.272727 L94.515625,707.272727 L1,707.272727 L1,705.272727 L94.515625,705.272727 Z M103.900391,705.272727 L213,705.272727 L213,707.272727 L103.900391,707.272727 L103.900391,705.272727 Z M94.515625,715.636364 L94.515625,717.636364 L1,717.636364 L1,715.636364 L94.515625,715.636364 Z M103.900391,715.636364 L213,715.636364 L213,717.636364 L103.900391,717.636364 L103.900391,715.636364 Z M94.515625,726 L94.515625,728 L1,728 L1,726 L94.515625,726 Z M103.900391,726 L213,726 L213,728 L103.900391,728 L103.900391,726 Z M94.515625,736 L94.515625,738 L1,738 L1,736 L94.515625,736 Z M103.900391,736 L213,736 L213,738 L103.900391,738 L103.900391,736 Z" id="Combined-Shape" fill="#FFFFFF"></path>
        </g>
        <g id="Group-5-Copy" transform="translate(821.000000, 703.000000)">
            <circle id="Oval-2" fill="#336D2C" cx="85" cy="97" r="56"></circle>
            <path d="M85,126 L85,126 C87.209139,126 89,127.790861 89,130 L89,227 L81,227 L81,130 C81,127.790861 82.790861,126 85,126 Z" id="Rectangle-6-Copy" fill="#6E5B21"></path>
            <circle id="Combined-Shape" fill="url(#linearGradient-1)" cx="65.5" cy="65.5" r="65.5"></circle>
            <path d="M67,53 L67,53 C69.209139,53 71,54.790861 71,57 L71,227 L63,227 L63,57 C63,54.790861 64.790861,53 67,53 Z" id="Rectangle-6" fill="#6E5B21"></path>
            <path d="M66.0415088,80.1408685 L105.784859,80.1408685 C107.441713,80.1408685 108.784859,81.4840142 108.784859,83.1408685 L108.784859,84.1408685 C108.784859,85.7977227 107.441713,87.1408685 105.784859,87.1408685 L66.0415088,87.1408685 C64.3846545,87.1408685 63.0415088,85.7977227 63.0415088,84.1408685 L63.0415088,83.1408685 C63.0415088,81.4840142 64.3846545,80.1408685 66.0415088,80.1408685 Z" id="Rectangle-7" fill="#6E5B21" transform="translate(85.913184, 83.640868) rotate(-36.000000) translate(-85.913184, -83.640868) "></path>
        </g>
        <g id="Group-4" transform="translate(496.000000, 46.000000)">
            <rect id="Rectangle-9" fill="#F76D6B" x="30" y="416" width="58" height="338"></rect>
            <rect id="Rectangle-10" fill="#F8E71C" x="48" y="251" width="21" height="481"></rect>
            <rect id="Rectangle-12" fill="#E3367B" x="45" y="315" width="26" height="8" rx="4"></rect>
            <rect id="Rectangle-11" fill="#E74840" x="45" y="469" width="27" height="16"></rect>
            <rect id="Rectangle-11-Copy" fill="#E74840" x="45" y="519" width="27" height="16"></rect>
            <rect id="Rectangle-11-Copy-2" fill="#E74840" x="45" y="569" width="27" height="16"></rect>
            <rect id="Rectangle-11-Copy-3" fill="#E74840" x="45" y="619" width="27" height="16"></rect>
            <rect id="Rectangle-11-Copy-4" fill="#E74840" x="45" y="668" width="27" height="16"></rect>
            <rect id="Rectangle-11-Copy-5" fill="#E74840" x="45" y="718" width="27" height="16"></rect>
            <circle id="Oval-3" fill="#2D68A0" cx="59" cy="245" r="18"></circle>
            <rect id="Rectangle-15" fill="#D4DBCE" x="52" y="171" width="12" height="56"></rect>
            <rect id="Rectangle-12-Copy" fill="#0C7C6A" x="45" y="225" width="27" height="8" rx="4"></rect>
            <rect id="Rectangle-15-Copy" fill="#D4DBCE" x="55" y="112" width="7" height="57"></rect>
            <rect id="Rectangle-12-Copy-2" fill="#0C7C6A" x="50" y="165" width="17" height="6" rx="3"></rect>
            <path d="M58.5,0 L58.5,0 C59.8807119,-2.53632657e-16 61,1.11928813 61,2.5 L61,110 L56,110 L56,2.5 C56,1.11928813 57.1192881,2.53632657e-16 58.5,0 Z" id="Rectangle-15-Copy-2" fill="#D4DBCE"></path>
            <rect id="Rectangle-12-Copy-3" fill="#B8BBBB" x="52" y="107" width="14" height="5" rx="2.5"></rect>
            <path d="M44.0310981,255 L73.9689019,255 C70.7398565,259.823943 65.2408322,263 59,263 C52.7591678,263 47.2601435,259.823943 44.0310981,255 Z" id="Combined-Shape" fill="#D33574"></path>
            <circle id="Oval" fill="#C3316B" cx="58.5" cy="386.5" r="50.5"></circle>
            <g id="Rectangle-8" transform="translate(8.000000, 336.000000)">
                <mask id="mask-3" fill="white">
                    <use xlink:href="#path-2"></use>
                </mask>
                <use id="Mask" fill="#2D68A0" xlink:href="#path-2"></use>
                <rect fill="#F8E71C" mask="url(#mask-3)" x="-6" y="20" width="110" height="11"></rect>
            </g>
            <polygon id="Path-20" fill="#64AFBF" points="8.04589844 884.256836 108.147461 884.256836 58.0966797 788.782227"></polygon>
            <g id="Rectangle-14-+-Rectangle-5-Mask" transform="translate(0.000000, 732.000000)">
                <mask id="mask-5" fill="white">
                    <use xlink:href="#path-4"></use>
                </mask>
                <use id="Mask" fill="#CF5681" xlink:href="#path-4"></use>
                <rect id="Rectangle-14" fill="#2475C7" mask="url(#mask-5)" x="-1" y="38" width="119" height="47"></rect>
                <rect id="Rectangle-5" fill="#F8E71C" mask="url(#mask-5)" x="-1" y="56" width="120" height="7"></rect>
            </g>
        </g>
    </g>
</svg>