<svg id="图层_1" data-name="图层 1" xmlns="http://www.w3.org/2000/svg" xmlns:xlink="http://www.w3.org/1999/xlink" viewBox="0 0 200.94 211.53"><defs><style>.cls-1{fill:#352f2d;}.cls-2{fill:#999;}.cls-3{fill:#231815;}.cls-4{fill:#ebc3a9;}.cls-5{fill:#423531;}.cls-6{fill:#b64c66;}.cls-7{fill:#1e130e;}.cls-8{fill:#302c21;}.cls-9{fill:#ea6590;}.cls-10{fill:#eaddc2;}.cls-11{fill:#efe2ca;}.cls-12,.cls-13,.cls-14,.cls-15,.cls-36,.cls-54{fill:none;}.cls-12,.cls-13{stroke:#fff;}.cls-12,.cls-13,.cls-15,.cls-36,.cls-54{stroke-miterlimit:10;}.cls-13{stroke-linecap:round;}.cls-15{stroke:#231815;}.cls-16{fill:#59b99f;}.cls-17{fill:#4bb199;}.cls-18{fill:#f29e9a;}.cls-19{fill:#e5938b;}.cls-20{fill:#ee9585;}.cls-21{fill:#dc918d;}.cls-22{fill:#975b5b;}.cls-23{fill:#d2867c;}.cls-24{fill:#af6a66;}.cls-25{fill:#ed9490;}.cls-26{fill:#84cab6;}.cls-27{fill:#85c6ae;}.cls-28{fill:#3f967e;}.cls-29{fill:#6db498;}.cls-30{fill:#42a59b;}.cls-31{fill:#6bc2af;}.cls-32{fill:#135c53;}.cls-33{fill:#459281;}.cls-34{fill:#61b194;}.cls-35{fill:#d9617c;}.cls-36{stroke:#b1b1b2;}.cls-37{fill:#4f3d31;}.cls-38{fill:#f5c21e;}.cls-39{fill:#d03433;}.cls-40{fill:#c01f32;}.cls-41{fill:#c03345;}.cls-42{fill:url(#未命名的渐变_117);}.cls-43{fill:url(#未命名的渐变_117-2);}.cls-44{fill:url(#未命名的渐变_117-3);}.cls-45{fill:url(#未命名的渐变_117-4);}.cls-46{fill:url(#未命名的渐变_117-5);}.cls-47{fill:#c76218;}.cls-48{fill:url(#未命名的渐变_117-6);}.cls-49{fill:url(#未命名的渐变_117-7);}.cls-50{fill:url(#未命名的渐变_117-8);}.cls-51{fill:url(#未命名的渐变_117-9);}.cls-52{fill:url(#未命名的渐变_117-10);}.cls-53{fill:#7e4c39;}.cls-54{stroke:#352f2d;stroke-width:7px;}</style><linearGradient id="未命名的渐变_117" x1="168.36" y1="131.88" x2="180.27" y2="131.88" gradientUnits="userSpaceOnUse"><stop offset="0" stop-color="#eebb60"/><stop offset="1" stop-color="#ed6e1c"/></linearGradient><linearGradient id="未命名的渐变_117-2" x1="56.35" y1="98.89" x2="66.6" y2="98.89" xlink:href="#未命名的渐变_117"/><linearGradient id="未命名的渐变_117-3" x1="164.37" y1="139.58" x2="171.2" y2="139.58" xlink:href="#未命名的渐变_117"/><linearGradient id="未命名的渐变_117-4" x1="158.76" y1="133.32" x2="172.08" y2="133.32" xlink:href="#未命名的渐变_117"/><linearGradient id="未命名的渐变_117-5" x1="57.85" y1="118.32" x2="56.89" y2="100.94" xlink:href="#未命名的渐变_117"/><linearGradient id="未命名的渐变_117-6" x1="178.91" y1="141.24" x2="186.73" y2="141.24" xlink:href="#未命名的渐变_117"/><linearGradient id="未命名的渐变_117-7" x1="65.98" y1="106.02" x2="72.72" y2="106.02" xlink:href="#未命名的渐变_117"/><linearGradient id="未命名的渐变_117-8" x1="176.29" y1="146.29" x2="180.77" y2="146.29" xlink:href="#未命名的渐变_117"/><linearGradient id="未命名的渐变_117-9" x1="172.61" y1="142.19" x2="181.35" y2="142.19" xlink:href="#未命名的渐变_117"/><linearGradient id="未命名的渐变_117-10" x1="66.97" y1="118.78" x2="66.34" y2="107.37" xlink:href="#未命名的渐变_117"/></defs><rect class="cls-1" x="159.24" y="153.2" width="49.64" height="0.68" transform="translate(-160.35 45.7) rotate(-23.26)"/><rect class="cls-1" x="153.35" y="149.71" width="49.64" height="0.68" transform="translate(-159.45 43.08) rotate(-23.26)"/><rect class="cls-1" x="148.3" y="145.68" width="49.64" height="0.68" transform="translate(-158.27 40.76) rotate(-23.26)"/><rect class="cls-1" x="143.26" y="141.66" width="49.64" height="0.68" transform="translate(-157.09 38.44) rotate(-23.26)"/><rect class="cls-1" x="138.21" y="137.63" width="49.64" height="0.68" transform="translate(-155.91 36.12) rotate(-23.26)"/><rect class="cls-1" x="134.69" y="132.6" width="49.64" height="0.68" transform="translate(-154.21 34.33) rotate(-23.26)"/><rect class="cls-1" x="131.44" y="128.7" width="49.64" height="0.68" transform="translate(-152.93 32.72) rotate(-23.26)"/><rect class="cls-1" x="128.59" y="123.27" width="49.64" height="0.68" transform="translate(-151.02 31.16) rotate(-23.26)"/><rect class="cls-1" x="125.7" y="118.89" width="49.64" height="0.68" transform="translate(-149.53 29.66) rotate(-23.26)"/><rect class="cls-1" x="123.64" y="112.78" width="49.64" height="0.68" transform="translate(-147.28 28.35) rotate(-23.26)"/><rect class="cls-1" x="122.5" y="108.54" width="45.11" height="0.68" transform="translate(-145.88 26.66) rotate(-23.26)"/><rect class="cls-1" x="121.32" y="106" width="30.58" height="0.68" transform="translate(-146.57 27.16) rotate(-24.64)"/><rect class="cls-1" x="120.87" y="101.48" width="21.4" height="0.68" transform="translate(-143.34 17.6) rotate(-22.13)"/><path class="cls-1" d="M242.61,166.56c4.59,9.11,8.83,21.63,10.68,38.41a7.85,7.85,0,0,1,4-.49,8.27,8.27,0,0,1,1.1.23c-2-18.16-6.65-31.63-11.7-41.36l-6.51,3.83Z" transform="translate(-114.67 -39.48)"/><path class="cls-2" d="M254,212.9l-.12-1.8a4.18,4.18,0,0,0-.37,1.73,5.79,5.79,0,0,0,3.83,5.48,2.64,2.64,0,0,0,2.36-.35,3.4,3.4,0,0,0,1.23-2.69h0a6,6,0,0,0-2-4.59c0,.64.09,1.27.13,1.91Z" transform="translate(-114.67 -39.48)"/><path class="cls-2" d="M256.21,209.52a2.44,2.44,0,0,0-1.63.59,2.81,2.81,0,0,0-.73,1l.12,1.8,5.1-.31c0-.64-.09-1.27-.13-1.91a4.46,4.46,0,0,0-2.32-1.14Z" transform="translate(-114.67 -39.48)"/><path class="cls-1" d="M263.45,215.37c-.16,4-3.31,6.36-6.81,5.41a8.38,8.38,0,0,1-5.72-8,5.93,5.93,0,0,1,2.65-5.11c-.09-.92-.18-1.82-.28-2.72a7.78,7.78,0,0,0-2.06,1.28,8.67,8.67,0,0,0-2.86,6.53,10.87,10.87,0,0,0,7.6,10.46,8.33,8.33,0,0,0,2.2.3,7.62,7.62,0,0,0,4.52-1.46,8.47,8.47,0,0,0,3.31-6.62h0a10.77,10.77,0,0,0-7.6-10.75c.1.92.2,1.86.28,2.8A8.43,8.43,0,0,1,263.45,215.37Z" transform="translate(-114.67 -39.48)"/><path class="cls-1" d="M253.29,205c.1.9.19,1.8.28,2.72A5.09,5.09,0,0,1,257,207a6.52,6.52,0,0,1,1.72.5c-.08-.94-.18-1.88-.28-2.8a8.27,8.27,0,0,0-1.1-.23A7.85,7.85,0,0,0,253.29,205Z" transform="translate(-114.67 -39.48)"/><path class="cls-1" d="M250.92,212.8a8.38,8.38,0,0,0,5.72,8c3.5.95,6.65-1.41,6.81-5.41a8.43,8.43,0,0,0-4.77-7.86c.1,1.05.18,2.1.26,3.17a6,6,0,0,1,2,4.59h0a3.4,3.4,0,0,1-1.23,2.69,2.64,2.64,0,0,1-2.36.35,5.79,5.79,0,0,1-3.83-5.48,4.18,4.18,0,0,1,.37-1.73c-.08-1.15-.18-2.29-.28-3.41A5.93,5.93,0,0,0,250.92,212.8Z" transform="translate(-114.67 -39.48)"/><path class="cls-1" d="M254.58,210.11a2.44,2.44,0,0,1,1.63-.59l.41,0a4.46,4.46,0,0,1,2.32,1.14c-.08-1.07-.16-2.12-.26-3.17A6.52,6.52,0,0,0,257,207a5.09,5.09,0,0,0-3.39.68c.1,1.12.2,2.26.28,3.41A2.81,2.81,0,0,1,254.58,210.11Z" transform="translate(-114.67 -39.48)"/><path class="cls-3" d="M178.1,89c7.21-19,2-31.22,2-31.22-1.83-11.24-11.46-7.29-11.53-7.26a18.59,18.59,0,0,0-6.21,5.87s.27,1.58-.89,2.19c0,0-4.45,3.94.78,18,0,0,.65,6.41-1.15,10.38,0,0-4.66,18-4.17,20.47,0,0,1.64-5.88,3.07-6.58,0,0,1.76,7.77,6.78,9.4,0,0-3.39-5.76-3-8.54,0,0,7,7.08,7.08,10.88,0,0,.76-4.08-3.1-9.44,0,0-3.43-4.43-1.16-8.76,0,0,.2,5.37,2.39,8.73C174.39,100.69,178.1,89,178.1,89Z" transform="translate(-114.67 -39.48)"/><path class="cls-4" d="M163.37,61.72h-.74c-1.62.81-3.23,9,6.1,14.23a11.23,11.23,0,0,0,14.1-2.68s3.13,2.65-4.32-11.69c0,0-10-9.52-15.65-.58C162.86,61,163.45,61.57,163.37,61.72Z" transform="translate(-114.67 -39.48)"/><path class="cls-3" d="M163.37,61.72s-.18-2.58,1.49-2.48c3.7.21,9.5.33,10.31-1.48.43-.67-8.52,0-11.84.49C160.8,58.61,163.37,61.72,163.37,61.72Z" transform="translate(-114.67 -39.48)"/><path class="cls-3" d="M166.5,55.68a31.62,31.62,0,0,1,12.41,7s-7.08-5.16-12.24-5.85Z" transform="translate(-114.67 -39.48)"/><path class="cls-3" d="M163.45,56.14a31.68,31.68,0,0,1,13.16,5.4s-7.65-4.26-12.85-4.31Z" transform="translate(-114.67 -39.48)"/><path class="cls-3" d="M163.12,57.84a31.58,31.58,0,0,0,14.15,1.51s-8.77.11-13.36-2.33Z" transform="translate(-114.67 -39.48)"/><path class="cls-3" d="M166.25,57.39a31.55,31.55,0,0,0,14.14,1.51S171.63,59,167,56.57Z" transform="translate(-114.67 -39.48)"/><path class="cls-3" d="M165.1,57.27a31.67,31.67,0,0,0,14.15,1.52s-8.77.1-13.37-2.33Z" transform="translate(-114.67 -39.48)"/><path class="cls-3" d="M165,57.84a31.61,31.61,0,0,0,14.15,1.51s-8.76.11-13.36-2.33Z" transform="translate(-114.67 -39.48)"/><path class="cls-3" d="M167.17,56.8a31.5,31.5,0,0,0,14.15,1.52s-8.77.1-13.37-2.33Z" transform="translate(-114.67 -39.48)"/><path class="cls-5" d="M164.78,68.65c.29-.33.65-.58,1-.93l0-.07-.38,0a1.56,1.56,0,0,0-.37.1c-.12,0-.24.1-.36.15s-.22.14-.33.21a2.94,2.94,0,0,0-.89,1.25,5,5,0,0,0-.3.93l.26.5a5.22,5.22,0,0,1,.52-1.18A6.87,6.87,0,0,1,164.78,68.65Z" transform="translate(-114.67 -39.48)"/><path class="cls-5" d="M168.86,60.54a6.77,6.77,0,0,0-1.19,2.39c-.11.4.08.79-.1,1.09a9.94,9.94,0,0,1-.75,1.31l-.19,0a1.85,1.85,0,0,1-1.06-1.52,2.34,2.34,0,0,1,.66-1.63,4.66,4.66,0,0,1,1.14-1.16,5.44,5.44,0,0,1,1.38-.7Z" transform="translate(-114.67 -39.48)"/><path class="cls-3" d="M163.37,61.72A2.9,2.9,0,0,0,162,64.28c.44,5.2,6.36,8,5.86,8.82-1.68,5.75-7.15-2.91-7.49-9.63C160.25,60.91,163.37,61.72,163.37,61.72Z" transform="translate(-114.67 -39.48)"/><path class="cls-6" d="M166.33,68a6.55,6.55,0,0,0,.42-3.57s-.53-6.31,4.31-5.41l9.54-5.7.29.83-8,5.93s1.68.94,1.11,4.84a4.05,4.05,0,0,1-5.79,2.8l-.18.7A5.15,5.15,0,0,1,170.61,73a3.54,3.54,0,0,1-3.85,3.29,3.86,3.86,0,0,1-3.31-4.09A5.15,5.15,0,0,1,166.33,68Z" transform="translate(-114.67 -39.48)"/><path class="cls-3" d="M164.62,72.09s0-2.77,2.51-3c0,0,2.45.05,2.59,3.51,0,0,.11,3-2.42,2.55S164.65,73.36,164.62,72.09Z" transform="translate(-114.67 -39.48)"/><path class="cls-3" d="M167.68,64.17s-.15-2.76,2.32-3c0,0,2.77,0,2.71,3.39,0,0,0,2.75-2.52,2.76C170.19,67.3,167.65,67.3,167.68,64.17Z" transform="translate(-114.67 -39.48)"/><path class="cls-7" d="M189.32,80.21l-2.2-26.9s-4.85-6.62-15.88-4a14.74,14.74,0,0,0-2.68,1.27c.07,0,9.7-4,11.53,7.26,0,0,5.22,12.22-2,31.22,0,0-3.71,11.65-9.1,14.16a5.26,5.26,0,0,0,3.86,2.62c5.85.6,19.18-6.7,19.18-6.7Z" transform="translate(-114.67 -39.48)"/><path class="cls-8" d="M218.69,232.29s-.55,8.86,11.34,10.88c0,0,11.3.69,16.31,2.06l-10.88-11.41Z" transform="translate(-114.67 -39.48)"/><path class="cls-9" d="M255.47,225.18s-.64,4.74.18,6.64c0,0,.17,6.07-.42,6.85,0,0-1.48,2.39-7.14,1.14,0,0-13.66-3.78-14.88-4.21a24,24,0,0,1-10.64-6.93s-3-2.94-1.84-5.85c0,0,.8-2.18,5.89.46a9.13,9.13,0,0,1,2.56.2s5.8-.62,6.33-1.5l13.64-1.54Z" transform="translate(-114.67 -39.48)"/><path class="cls-10" d="M245.62,222.64s2.43,4,9.85,2.54c0,0,3.84-2.71-3.8-5.73S245.62,222.64,245.62,222.64Z" transform="translate(-114.67 -39.48)"/><path class="cls-4" d="M245.62,222.64s1.59,2.85,6.62,2.85c0,0-.18-2.79-.57-6S245.62,222.64,245.62,222.64Z" transform="translate(-114.67 -39.48)"/><path class="cls-11" d="M226.62,223.28c-5.09-2.64-5.89-.46-5.89-.46-1.13,2.91,1.84,5.85,1.84,5.85s.13.15.19.22l3.9-5.61Z" transform="translate(-114.67 -39.48)"/><ellipse class="cls-12" cx="113.62" cy="189.9" rx="0.47" ry="0.37"/><ellipse class="cls-12" cx="116.16" cy="190.46" rx="0.47" ry="0.37"/><ellipse class="cls-12" cx="119.18" cy="190.74" rx="0.47" ry="0.37"/><ellipse class="cls-12" cx="237.1" cy="229.57" rx="0.47" ry="0.37" transform="translate(-150.66 4.77) rotate(-9.91)"/><ellipse class="cls-12" cx="240.05" cy="228.47" rx="0.47" ry="0.37" transform="translate(-201.28 133.11) rotate(-33.88)"/><path class="cls-13" d="M228.37,229.29s-1.39-3.87,1.16-6.25" transform="translate(-114.67 -39.48)"/><path class="cls-13" d="M230.83,229.94s-2.46-4.76-1.3-6.87" transform="translate(-114.67 -39.48)"/><path class="cls-13" d="M233.86,230.08s-3.83-3.31-2.28-6.92" transform="translate(-114.67 -39.48)"/><path class="cls-13" d="M237.1,229.5a6.69,6.69,0,0,1-3.18-6.8" transform="translate(-114.67 -39.48)"/><path class="cls-13" d="M240,228.34s-3.85-2.11-4.09-6.12" transform="translate(-114.67 -39.48)"/><path class="cls-13" d="M228.37,229.29s0-4.54,3.19-6.13" transform="translate(-114.67 -39.48)"/><path class="cls-13" d="M230.83,229.75s-.17-5.45,3-7.05" transform="translate(-114.67 -39.48)"/><path class="cls-13" d="M233.85,230.17s-.48-5.38,2.09-7.95" transform="translate(-114.67 -39.48)"/><path class="cls-13" d="M237.1,229.57s0-4.61,1.59-6.44" transform="translate(-114.67 -39.48)"/><circle class="cls-12" cx="132.32" cy="191.83" r="3.34"/><path class="cls-14" d="M224.71,222.43l.28.11Z" transform="translate(-114.67 -39.48)"/><path class="cls-14" d="M224.19,222.26l.38.12Z" transform="translate(-114.67 -39.48)"/><path class="cls-14" d="M225.15,222.6l.29.12Z" transform="translate(-114.67 -39.48)"/><path class="cls-14" d="M255.65,231.84v0Z" transform="translate(-114.67 -39.48)"/><path class="cls-14" d="M226.1,223l.52.26Z" transform="translate(-114.67 -39.48)"/><path class="cls-14" d="M223.82,222.16l.36.1Z" transform="translate(-114.67 -39.48)"/><path class="cls-14" d="M222.06,222h0Z" transform="translate(-114.67 -39.48)"/><path class="cls-14" d="M223.48,222.08l.23,0Z" transform="translate(-114.67 -39.48)"/><path class="cls-14" d="M221.66,222.09l.15,0Z" transform="translate(-114.67 -39.48)"/><path class="cls-14" d="M221.86,222l.15,0Z" transform="translate(-114.67 -39.48)"/><path class="cls-14" d="M222.86,222l.2,0Z" transform="translate(-114.67 -39.48)"/><path class="cls-14" d="M223.17,222l.2,0Z" transform="translate(-114.67 -39.48)"/><path class="cls-14" d="M255.66,232.33v0Z" transform="translate(-114.67 -39.48)"/><path class="cls-14" d="M255.35,238.41a29.35,29.35,0,0,0,.31-5.92A29.35,29.35,0,0,1,255.35,238.41Z" transform="translate(-114.67 -39.48)"/><path class="cls-14" d="M255.66,232.17v0Z" transform="translate(-114.67 -39.48)"/><path class="cls-14" d="M221.64,222.1a2.08,2.08,0,0,0-.3.12h0A2.08,2.08,0,0,1,221.64,222.1Z" transform="translate(-114.67 -39.48)"/><path class="cls-14" d="M222.78,222a2.84,2.84,0,0,0-.5,0A2.84,2.84,0,0,1,222.78,222Z" transform="translate(-114.67 -39.48)"/><path class="cls-14" d="M255.65,231.88c0,.06,0,.15,0,.28C255.66,232,255.65,231.94,255.65,231.88Z" transform="translate(-114.67 -39.48)"/><path class="cls-11" d="M255.35,238.41a.91.91,0,0,1-.12.26s-1.48,2.39-7.14,1.14c0,0-13.66-3.78-14.88-4.21a24,24,0,0,1-10.64-6.93s-3-2.94-1.84-5.85a1.27,1.27,0,0,1,.61-.6,2.53,2.53,0,0,0-3,1l-1.59,2.23s-.84,1.88.76,4.81c0,0,4,9.07,15.85,11a40.52,40.52,0,0,1,11.49,3.27s5.56,3,9.39,0c0,0,1.78-.9,1.09-6.2Z" transform="translate(-114.67 -39.48)"/><path class="cls-12" d="M255.65,231.82v0Z" transform="translate(-114.67 -39.48)"/><path class="cls-12" d="M255.66,232.16h0Z" transform="translate(-114.67 -39.48)"/><path class="cls-12" d="M255.65,231.86v0Z" transform="translate(-114.67 -39.48)"/><path class="cls-12" d="M255.66,232.46v0Z" transform="translate(-114.67 -39.48)"/><path class="cls-12" d="M255.66,232.29v0Z" transform="translate(-114.67 -39.48)"/><path class="cls-15" d="M255.47,225.18s-.64,4.74.18,6.64c0,0,.17,6.07-.42,6.85,0,0-1.48,2.39-7.14,1.14,0,0-13.66-3.78-14.88-4.21a24,24,0,0,1-10.64-6.93s-3-2.94-1.84-5.85c0,0,.8-2.18,5.89.46" transform="translate(-114.67 -39.48)"/><path class="cls-3" d="M251,243.86a21,21,0,0,1-6.29-1.2c-6.11-2.57-8.21-2.48-8.23-2.48a27.14,27.14,0,0,1-11.14-3.7l.19-.29a26.6,26.6,0,0,0,10.95,3.65c.06,0,2.15-.11,8.36,2.5.07,0,7.9,2.58,10.62-.54l-.09.63C254.3,243.66,252.75,243.86,251,243.86Z" transform="translate(-114.67 -39.48)"/><path class="cls-16" d="M190.55,52.67c.23-.73,6.46-8.93,8.3-10.44a19.36,19.36,0,0,1,2.37-1.7,3.22,3.22,0,0,0-4.94.24,76.34,76.34,0,0,0-8.91,12.17,7.68,7.68,0,0,0-1.19,5.68C186.52,55,190.55,52.67,190.55,52.67Z" transform="translate(-114.67 -39.48)"/><path class="cls-17" d="M224,58.64s-.81-3.71-1.51-4.68c0,0-3.33-4.58-7.21-5.58a2.58,2.58,0,0,1-.83-.37c-2.25-1.45-12.34-7.9-13.16-7.39l-.08-.09a19.36,19.36,0,0,0-2.37,1.7c-1.37,1.12-5.16,5.94-7.11,8.64a15.66,15.66,0,0,1-2.58,2.81,7.8,7.8,0,0,0-3,4.94s.1,4-1,5.08c0,0,10.13-8.1,26.35-5,0,0,8,1.28,11.39,2.63C222.9,61.36,224.76,61.11,224,58.64Z" transform="translate(-114.67 -39.48)"/><path class="cls-18" d="M229.13,122.12a3.53,3.53,0,0,0,.63,2.35c.61.83-1.35,2.61-1.67,3.51,0,0-1,22.24-2.31,24.12,0,0-.78,1.35.94,5.32,0,0-.74,38.78,5.31,52.75l.26,8.51s2.08,5.34,7.08,4.35a40.59,40.59,0,0,1,6-.06s7.39-2.36,10-7.69a10.12,10.12,0,0,0-2.08-9.9s.11-29.78-1-38.28c0,0,8.4-36.78,8.64-44.62,0,0,6.77-4.94,8.93-15.71l-7.52-3.23-30.28,14Z" transform="translate(-114.67 -39.48)"/><path class="cls-18" d="M270.06,106.43a27.26,27.26,0,0,1-8.93,15.71s-5.17,30-5.75,31.54c0,0,.32,6.25,3,10,0,0,1.44,3.74,8.34,3.8,0,0,5.34.29,6.91-2.1,0,0,9.82-9.73,11.78-10.37,0,0,5.67-3,8.25-6.62,0,0,5.05-4.85,5.94-5,0,0,.1-2.68-2.63-.8,0,0-6.47-1.19-9.14-12.5,0,0-6.53-9.16.92-16.09l-2.17,1a11.38,11.38,0,0,0-5,4.68,7,7,0,0,0-.76,1.63s-.94-9-2-11l-.14-5.64-3.7-.34-4.41.63Z" transform="translate(-114.67 -39.48)"/><path class="cls-19" d="M227,157.08a43.58,43.58,0,0,0,18-14.9,76.48,76.48,0,0,0,12-29.6l-1.61.83S242.5,152.86,225.86,153A10.32,10.32,0,0,0,227,157.08Z" transform="translate(-114.67 -39.48)"/><path class="cls-20" d="M253.53,114.13s-9,23.89-16.74,29.77c0,0-2.29,5.8-10.77,7.87a2.84,2.84,0,0,0-.16,1.27s14.82,2.39,29.52-39.63Z" transform="translate(-114.67 -39.48)"/><path class="cls-21" d="M232.26,117.24l-2.88,4.54a3.58,3.58,0,0,0,.62,2.35s.86.16-1.67,3.51c0,0,7,3.78,10.44-2.39,0,0,6.17-7.61,10.47-9.36,0,0,4.36.3,5.7-2.31,0,0,.55,5.66,6.94-1.47,0,0,1.91-1.83,1.22,1.3s-1.65,8.41-2,8.73c0,0,3.94-4.68,8-15.46Z" transform="translate(-114.67 -39.48)"/><path class="cls-19" d="M236.79,143.9c6.73-5.12,14.43-23.9,16.31-28.66a9.23,9.23,0,0,1-3.86.65c-4.3,1.75-10.47,9.36-10.47,9.36-3.47,6.17-10.44,2.39-10.44,2.39s-1,22.25-2.31,24.13C234.5,149.7,236.79,143.9,236.79,143.9Z" transform="translate(-114.67 -39.48)"/><path class="cls-22" d="M268.83,110.84a33.06,33.06,0,0,0,5.28-5.1l-1,.1s-3,3.54-3.86,3.69A3.69,3.69,0,0,1,268.83,110.84Z" transform="translate(-114.67 -39.48)"/><path class="cls-23" d="M271.22,156h0a66.45,66.45,0,0,0,2.37-9.74c3.8-17.39,7.09-24.91,7.12-25H281c0,.07-3.31,7.7-7.1,25.05A86.66,86.66,0,0,1,271.22,156Z" transform="translate(-114.67 -39.48)"/><path class="cls-23" d="M261.13,143.66a9.12,9.12,0,0,1,1.58-2.53,8.2,8.2,0,0,1,2.34-1.95,8.18,8.18,0,0,0,2.23-1.61,16,16,0,0,0,1.87-2.19,6.72,6.72,0,0,1-1.29,2.71,7.81,7.81,0,0,1-1,1.12,6.9,6.9,0,0,1-1.3.85,12.79,12.79,0,0,0-2.26,1.61C262.54,142.3,261.84,143,261.13,143.66Z" transform="translate(-114.67 -39.48)"/><path class="cls-23" d="M266.64,141.49a12,12,0,0,1-1,2.47l-1.25,2.31a2.68,2.68,0,0,1-.1-1.43,4.43,4.43,0,0,1,.46-1.34,5.26,5.26,0,0,1,.8-1.13A3.65,3.65,0,0,1,266.64,141.49Z" transform="translate(-114.67 -39.48)"/><path class="cls-23" d="M260.5,151a34.81,34.81,0,0,1,1.71-4.77,9.35,9.35,0,0,1,1.22-2.26,4.76,4.76,0,0,1,1-.93,1.61,1.61,0,0,1,1.33-.35v.1a2,2,0,0,0-.85.76c-.22.31-.43.65-.63,1-.4.7-.91,1.35-1.33,2.06-.83,1.43-1.6,2.92-2.33,4.43Z" transform="translate(-114.67 -39.48)"/><path class="cls-23" d="M259.59,165.12h0c-.3-.7,1.37-5.56,1.39-5.59l.3.16A35.27,35.27,0,0,0,259.59,165.12Z" transform="translate(-114.67 -39.48)"/><path class="cls-23" d="M263.83,145.1a8.64,8.64,0,0,0-1.26.68,12.35,12.35,0,0,0-1.18.87,10,10,0,0,0-2,2.22A10.07,10.07,0,0,1,261,146.3a12,12,0,0,1,2.32-2.09Z" transform="translate(-114.67 -39.48)"/><path class="cls-23" d="M281.28,121.67a118.91,118.91,0,0,0-11.41,21.11,120.76,120.76,0,0,1,10.58-21.68Z" transform="translate(-114.67 -39.48)"/><path class="cls-23" d="M275.82,129.92a36.46,36.46,0,0,0-5.84,6.14,23.19,23.19,0,0,0-3.75,7.44,17.71,17.71,0,0,0-.43,2c-.09.69-.1,1.38-.16,2.08a28.81,28.81,0,0,1-.73,4.3,24.06,24.06,0,0,1-3.52,7.89l-.29.41-.24-.41a5.52,5.52,0,0,1-.6-2,14.65,14.65,0,0,1-.14-2,30,30,0,0,1,.21-3.91c0,1.3,0,2.6.17,3.89.06.64.16,1.28.28,1.91a4.9,4.9,0,0,0,.61,1.71h-.52a26.18,26.18,0,0,0,3.1-7.77,25.51,25.51,0,0,0,.67-4.11c.06-.72.08-1.46.19-2.18a17.41,17.41,0,0,1,.48-2.14,21.47,21.47,0,0,1,4.15-7.59A28.4,28.4,0,0,1,275.82,129.92Z" transform="translate(-114.67 -39.48)"/><path class="cls-24" d="M270.06,106.43a21.75,21.75,0,0,1-.79,3.1s.61.32,3.86-3.69Z" transform="translate(-114.67 -39.48)"/><path class="cls-25" d="M259.14,149.13c-.36-5.58,7.6-12.93,7.6-12.93,5.4-4.84,12.18-25.85,12.18-25.85l-.14-5.64-3.7-.35-4.41.64-.51,1.39a27.26,27.26,0,0,1-8.93,15.71s-5.17,30-5.75,31.54c0,0,.32,6.25,3,10a4.44,4.44,0,0,0,1.09,1.46C260.1,159.42,259.51,154.63,259.14,149.13Z" transform="translate(-114.67 -39.48)"/><path class="cls-26" d="M185.16,63.7A20.18,20.18,0,0,0,184,69.27s-1.26,2.09,5.33,10.94a68,68,0,0,0,5.88,6.26A8.43,8.43,0,0,0,192.37,90s-3.94-2.33-4.74,3.68c0,0-2.27,1.12-3.86.53s-1.55.39-1.55.39v6s.69.72,2.13-.49a5.73,5.73,0,0,1,4-.06l2.27,0s-.92,8.19,4.71,8.28c0,0,5.46.95,8.81-5,0,0,2-4,6.34-3.9,0,0,8.64-.92,12.59-7l1.4-.26s-4.49,21.3,1.72,26.65a5.18,5.18,0,0,1,3,1.27s-.53,4.14,3.74,3.86c0,0,2.94,0,4.29-4.73,0,0,1.69-4.69,8.71-3.93A20.39,20.39,0,0,0,258,112s11.43-7.94,20.72-6c0,0,2.68.57.34,1.47,0,0,2.17.23,1.54-1.9,0,0-1.51-1.27-.95-6.37,0,0-7.09-23.08-24.93-28.84a26.14,26.14,0,0,0-6-.92s-10.07-6.22-25.82-8.07C222.9,61.36,196,50.79,185.16,63.7Z" transform="translate(-114.67 -39.48)"/><path class="cls-27" d="M185.16,63.7a70.71,70.71,0,0,1,8.09,13.57s-.93.68-.93,2.76c0,0-.12-4.6-2.17-6.22,0,0-4.76-8.26-5.43-8.75Z" transform="translate(-114.67 -39.48)"/><path class="cls-28" d="M229.19,101.85l-.92,4-.75-2.23c.69-11-.86-12.77-2.08-15.12a14.61,14.61,0,0,1-.64-1.35c-.7-1.86-.44-5.24-.25-6.9a2.58,2.58,0,0,0-.41-1.69l-3.55-5.31a1.34,1.34,0,0,0-1.38-.58,11.76,11.76,0,0,1-7.35-1.26c-11.82-3.46-18.54,5.8-18.61,5.89h0c.07-.1,5.94-9.71,18.72-6.21l0,0,6.4.73a3.9,3.9,0,0,1,2.78,1.69L225,79.23v.07s-.8,5.31.11,7.7a12.56,12.56,0,0,0,.62,1.31A17.79,17.79,0,0,1,228.05,98C228.05,100,228.31,99.77,229.19,101.85Z" transform="translate(-114.67 -39.48)"/><path class="cls-29" d="M231.94,117.73a3.79,3.79,0,0,1-2.31-2.33,7.58,7.58,0,0,1-.42-3.37,18.59,18.59,0,0,1,.66-3.32,29.16,29.16,0,0,1,1.17-3.16l0,0a82.59,82.59,0,0,0,2.63-12.4,63.36,63.36,0,0,0,.54-6.32,54.3,54.3,0,0,0-.2-6.37,36.33,36.33,0,0,1,.78,6.37,47.67,47.67,0,0,1-.23,6.43,62.06,62.06,0,0,1-1,6.35,56.7,56.7,0,0,1-1.67,6.23v.05c-.45,1-.89,2-1.25,3a16.31,16.31,0,0,0-.82,3.14,8.15,8.15,0,0,0,.16,3.19A3.77,3.77,0,0,0,231.94,117.73Z" transform="translate(-114.67 -39.48)"/><path class="cls-30" d="M233.77,79.77c-7.66-8.57-7.6-2.8-11.3-6.71-1.41-3.92-4.21-5.92-5.21-6.23-5.69-1.75-8.92-1.58-8.77-1.57,5.32.32,2.57-4.81,2.57-4.81s1.76,4.06,9.39,7a35.83,35.83,0,0,1,13.61,12.12Z" transform="translate(-114.67 -39.48)"/><path class="cls-31" d="M279.62,99.19c-4.83-3.18-13.92,1.33-13.92,1.33-9,2.7-20.22,10-20.22,10-1.72,2.08-11.24,7.88-11.24,7.88-9.53,1.1-11.24-8.38-11.26-8.53.29,3.76,1.18,7.11,3.17,8.82a5.18,5.18,0,0,1,3,1.27s-.53,4.14,3.74,3.86c0,0,2.94,0,4.29-4.73,0,0,1.69-4.69,8.71-3.93A20.39,20.39,0,0,0,258,112s11.43-7.94,20.72-6c0,0,2.68.57.34,1.47,0,0,2.17.23,1.54-1.9C280.57,105.56,279.06,104.29,279.62,99.19Z" transform="translate(-114.67 -39.48)"/><path class="cls-32" d="M209.55,78.59s-.59,2.18-11.66,2.73c0,0-2.6-.19-.07,4.3,0,0,1.83,3.19,6.75,3.93,5.27.79,1.25-.39,1.25-.39s-8.44-1.7-7.94-6.63c0,0,.53-1,4.36-.81C202.24,81.72,208.64,81.18,209.55,78.59Z" transform="translate(-114.67 -39.48)"/><path class="cls-33" d="M190.58,100a8.83,8.83,0,0,0-.85-3.79,1.21,1.21,0,0,1-.17-.89c.07-.31.28-.6.86-.53,0,0,.73.19.7,1.45C191.12,96.22,191.18,99.31,190.58,100Z" transform="translate(-114.67 -39.48)"/><path class="cls-33" d="M188.31,100a14.27,14.27,0,0,0-.47-5.25s.9,1.29,1.06,5.22Z" transform="translate(-114.67 -39.48)"/><path class="cls-34" d="M193,95.84a7.45,7.45,0,0,0-1.33-2.78c-.56-.5,0-2.85,0-2.85s-2-.4-2.4,1.1c0,0,1.33.12,1.89,2A33.75,33.75,0,0,1,193.64,105c0,.28,1.14,1.5,1.21-.46S193.25,96.49,193,95.84Z" transform="translate(-114.67 -39.48)"/><polygon class="cls-4" points="174.98 96.62 179.36 104.52 183.57 103.69 184.36 101.38 181.1 95.29 175.38 93.85 174.98 96.62"/><path class="cls-11" d="M291.68,111s2.92-2.94,4.26-3c0,0-2,1.13-1.08,4.21a31.08,31.08,0,0,0,3.94,9.19s4,5.85,4.77,11.36A58.29,58.29,0,0,0,305,140.9s2.61,9,2.76,9.5c0,0,1.47,5.85,4.2,4.87,0,0-3.4,1.47-5.91-1,0,0-2.81-3-4.87-9.9S287.24,121,291.68,111Z" transform="translate(-114.67 -39.48)"/><path class="cls-35" d="M291.68,111l-7.41,7.66.73,9.16,1.5,5.18,1.48,3.49,2.32-.49a3.77,3.77,0,0,1,4.85,2.34s3.65,5.64,6,6a38.46,38.46,0,0,1-2.37-9,69.53,69.53,0,0,0-5.39-14.06A16,16,0,0,1,291.68,111Z" transform="translate(-114.67 -39.48)"/><circle class="cls-36" cx="178.54" cy="86.8" r="0.52"/><circle class="cls-36" cx="181.01" cy="92.04" r="0.52"/><path class="cls-12" d="M296.4,136.81c0,.21-.24.18-.46.05a1.17,1.17,0,0,1-.39-.41c-.1-.18-.09-.35.1-.35A.91.91,0,0,1,296.4,136.81Z" transform="translate(-114.67 -39.48)"/><path class="cls-12" d="M294,134.45c0,.21-.24.19-.46.05a1.24,1.24,0,0,1-.39-.4c-.1-.18-.09-.36.1-.36A.91.91,0,0,1,294,134.45Z" transform="translate(-114.67 -39.48)"/><path class="cls-12" d="M291.47,132.07c0,.21-.24.18-.45.05a1.2,1.2,0,0,1-.4-.41c-.09-.17-.09-.35.1-.35A.89.89,0,0,1,291.47,132.07Z" transform="translate(-114.67 -39.48)"/><path class="cls-13" d="M295.94,136.53a4.22,4.22,0,0,1-.7,1.91" transform="translate(-114.67 -39.48)"/><path class="cls-13" d="M293.57,134.19a2.84,2.84,0,0,1-.52,1.81" transform="translate(-114.67 -39.48)"/><path class="cls-13" d="M291,131.85s.38,3-.25,3.91" transform="translate(-114.67 -39.48)"/><path class="cls-3" d="M301.47,138l-.34,0c.76-9.26-5-16.15-5.06-16.22-4.79-7.41-2.5-12.45-2.48-12.5l.33-.23s-1.9,4.49,1.42,10.82a18.81,18.81,0,0,0,1.45,2.29A24.61,24.61,0,0,1,301.47,138Z" transform="translate(-114.67 -39.48)"/><path class="cls-37" d="M311.91,155.27s3.36-.85,3.69-10A31.45,31.45,0,0,0,311.55,129c-3.31-4.17-6.58-12.55-6.58-12.55-4.61-11.4-9-8.54-9-8.54s-2,1.14-1.08,4.21c.38,1.26,2,6.47,3.94,9.19,0,0,4,5.85,4.77,11.36A58.29,58.29,0,0,0,305,140.9s2.61,9,2.76,9.5C307.71,150.4,309.18,156.25,311.91,155.27Z" transform="translate(-114.67 -39.48)"/><path class="cls-38" d="M207,139c-2.15-2.2-9.38-2.82-9.38-2.82a30.17,30.17,0,0,0-4.35-6.56c-2.64-2.88-3.5.07-11.53,5.22a7.29,7.29,0,0,0-3.35,8.74c1.58-.06,9.41-2.7,17.27-7.64,0,0,1.56-.52,0,1.57s-10.11,9.59-16.11,8.3c.28.35.48.55.48.55s-4.39,4.84-2.36,6,9.13,0,11.61-2.21a16.46,16.46,0,0,1,8.68-4.2c3.46-.55,9.8-4.81,9.8-4.81S209.09,141.19,207,139Z" transform="translate(-114.67 -39.48)"/><polygon class="cls-39" points="40.41 95.24 46.05 99.76 46.05 119.19 40.83 112.63 40.41 95.24"/><polygon class="cls-40" points="46.05 119.19 69 116.64 69 99.55 46.05 99.76 46.05 119.19"/><polygon class="cls-41" points="40.41 95.24 63.02 94.83 69 99.55 46.05 99.76 40.41 95.24"/><path class="cls-42" d="M177.93,128.71c-4.92-.12-9.57,5.42-9.57,5.42,8.68,2.28,10.13-.33,10.13-.33S182.84,128.83,177.93,128.71ZM177,133s-.69,1.24-4.85.16c0,0,2.23-2.66,4.58-2.6S177,133,177,133Z" transform="translate(-114.67 -39.48)"/><polygon class="cls-43" points="56.35 98.29 61.73 102.77 66.6 99.81 56.35 95.02 56.35 98.29"/><path class="cls-44" d="M166.44,137.53l-2.07,4.17s2.74-.31,4.1,1.53c0,0,3.61-5.4,2.53-7.08C170.39,135.2,166.44,137.53,166.44,137.53Z" transform="translate(-114.67 -39.48)"/><path class="cls-45" d="M172,134.78a2.25,2.25,0,0,0-1.19-.88,5.53,5.53,0,0,1-2.55-1.89,9.13,9.13,0,0,0-6.6-2.89s-3.35-.15-2.84,2.84c0,0,.92,5.57,7.62,5.57S172,134.78,172,134.78Zm-6.41.12c-5.56-2.15-3.6-3.73-3.6-3.73,3.16,0,5.58,3.42,5.58,3.42C168.27,135.43,165.59,134.9,165.59,134.9Z" transform="translate(-114.67 -39.48)"/><polygon class="cls-46" points="55.11 101.53 55.47 118.19 60.18 117.62 59.01 100.5 57.98 99.65 55.99 99.67 55.11 101.53"/><polygon class="cls-47" points="56.42 98.34 55.99 99.67 57.98 99.65 56.42 98.34"/><polygon class="cls-39" points="55.52 103.63 59.22 106.59 59.22 119.36 55.79 115.05 55.52 103.63"/><polygon class="cls-40" points="59.22 119.36 74.29 117.68 74.29 106.45 59.22 106.59 59.22 119.36"/><polygon class="cls-41" points="55.52 103.63 70.36 103.35 74.29 106.45 59.22 106.59 55.52 103.63"/><path class="cls-48" d="M185.19,139.15c-3.23-.08-6.28,3.57-6.28,3.57,5.7,1.49,6.65-.22,6.65-.22S188.42,139.23,185.19,139.15Zm-.59,2.79s-.45.82-3.18.11c0,0,1.46-1.74,3-1.7S184.6,141.94,184.6,141.94Z" transform="translate(-114.67 -39.48)"/><polygon class="cls-49" points="65.98 105.62 69.52 108.57 72.72 106.63 65.98 103.48 65.98 105.62"/><path class="cls-50" d="M177.65,145l-1.36,2.74a3.2,3.2,0,0,1,2.69,1s2.37-3.54,1.66-4.65C180.24,143.42,177.65,145,177.65,145Z" transform="translate(-114.67 -39.48)"/><path class="cls-51" d="M181.3,143.14a1.51,1.51,0,0,0-.78-.58,3.62,3.62,0,0,1-1.68-1.24,5.93,5.93,0,0,0-4.34-1.89s-2.19-.11-1.86,1.86c0,0,.6,3.66,5,3.66S181.3,143.14,181.3,143.14Zm-4.21.08c-3.65-1.41-2.36-2.45-2.36-2.45,2.07,0,3.66,2.25,3.66,2.25C178.85,143.57,177.09,143.22,177.09,143.22Z" transform="translate(-114.67 -39.48)"/><polygon class="cls-52" points="65.17 107.76 65.4 118.69 68.5 118.32 67.73 107.08 67.06 106.52 65.75 106.53 65.17 107.76"/><polygon class="cls-47" points="66.03 105.66 65.75 106.53 67.06 106.52 66.03 105.66"/><path class="cls-1" d="M229.38,121.78a5.1,5.1,0,0,1-.19-1.8c0-.38-1.39-.87-1.39-.87l-2.32,4.56-4.76,1.18,2.31-4.62,4.21-1.33-1.05-.22-2.75.73,1.27-2.54-.38-.76-1.77,3.54-2.49.66,2.7-5.08,1.11-.3-.19-.66-.48.13.33-.7-.18-.86-1.05,1.81-2.24.6,2.23-4.2.76-.19-.06-.69-.26.07.23-.5-.07-1.12-1.06,1.85-2.28.59,2.07-3.91,1.23-.36V106l-.81.31.84-1.65.07-1.42-1.79,3.28-2.43.58,2.11-4,2.15-.46.05-.74-1.78.41,2.08-3.94-.09-.05.16,0c.07-.52.38-2.73.38-2.73l-20.47,3c3.88-4.47,10-4.9,10-4.9l11.28-1.57c2-2.76-1.18-3.1-1.18-3.1l-12.37,1.81c-8.28.06-12.21,7.66-12.79,8.9L133.75,97l25.69-3.25.66-2.7-39.85,5.37h-.07l.07,1.31c.76,13.34,4,25.4,9.62,35.86a73.77,73.77,0,0,0,18,21.89,78.63,78.63,0,0,0,15.4,10c-5.81,2.5-11.56,6.83-12,14.24l5.1.3c.39-6.76,8.22-10,13.91-11.55l.61.22,0,0c.08,0,7.69,3.58,15.63,14.09a69,69,0,0,1,4.43,6.65l-44.27,11.39a34.74,34.74,0,0,0-11.34,4.33c-7.73,4.68-12,11.81-12.33,20.63l5.1.19c.27-7.06,3.55-12.57,9.73-16.37a29.63,29.63,0,0,1,9.75-3.75l.13,0L193.42,194c5.3,10.49,10.11,25.5,11.37,46.34l5.09-.3c-1.34-22.37-6.68-38.4-12.5-49.51L226.77,169l-.06-4.25-31,22.84a75.52,75.52,0,0,0-5.43-8.19A60,60,0,0,0,177.83,167l48.87-8.06,0-1.5-1.08-3.68L192,159.4l23.32-10.68a4.71,4.71,0,0,0,1.27-.85l9.15,4.23a11.74,11.74,0,0,0,.75-3.16l-8.08-4,10.79-21.51Zm-7.23-1.32-2.3,4.61-2.66.66,2.45-4.6Zm-58.24,7.39-7.83,5.87a49.5,49.5,0,0,1-3.55-6.61l8.86-4.52A47.41,47.41,0,0,0,163.91,127.85Zm-1.6-5.73,7.61-3.89A37.59,37.59,0,0,0,171.7,122l-7,5.21A45.36,45.36,0,0,1,162.31,122.12Zm1.77,6a37.43,37.43,0,0,0,4.79,6.65l-6,7a40.38,40.38,0,0,1-6.59-7.8Zm.83-.62,7-5.22a32.38,32.38,0,0,0,3.41,5L169.54,134A36.63,36.63,0,0,1,164.91,127.53Zm10.58.08a27.66,27.66,0,0,0,4.41,4.19l-4.2,7.4a28.54,28.54,0,0,1-5.93-4.93Zm4.68,4.4a26.72,26.72,0,0,0,3.78,2.34l-3,7.37a26.89,26.89,0,0,1-4.92-2.34Zm13.26,5.79,3.21-1-2.12,4L191.23,142Zm-3.15,4.48-2.41.86,2.23-4.28,2.4-.76Zm14-12.62,2.08-.52-2.44,4.61-2.17.69Zm-3.46,5.07-2.77.89,2.69-5.08,2.65-.66Zm3.89-5.88,2.3-4.35,2.1-.56-2.33,4.39Zm1.84-4.93-2.68.72,2.65-5,2.68-.72Zm-.44.82-2.29,4.33-2.65.66,2.26-4.27ZM200.25,130l-3.08.77,2.23-4.2,3.11-.82Zm-.43.81-2.72,5.15-3.22,1,2.87-5.41Zm-2.25,5.72,2.77-.89-2,3.85-2.83,1Zm3.7-1.18,2.16-.69-2,3.7-2.22.79Zm3.09-1,2.6-.83L205.08,137l-2.66.95Zm.45-.86,2.4-4.53,2.48-.62-2.28,4.32Zm2.83-5.34,2.33-4.4,2.5-.67-2.35,4.45Zm1.87-5-2.1.56,2.66-5,2.1-.57Zm.1-5-2.69.73,2.3-4.35,2.67-.69Zm-3.59,1-3.12.85,2.33-4.4,3.1-.8Zm-.43.83-2.65,5-3.11.82,2.64-5Zm-6.66,6.06-2.44.65,2.59-5,2.49-.67Zm-.43.82-2.21,4.18-2.37.59,2.15-4.12Zm-2.64,5L193,137.24l-2.41.77,3-5.67Zm-6.24,6.55-2.79.89,3.08-6,2.71-.67Zm-.44.86-2.25,4.31-2.83,1,2.29-4.42Zm-5.48,4.61,1.39-3.31.38-.12Zm2.76.59-2.28,4.37-3.07,1.19.92-2.19.3.16,1.31-2.53Zm.95-.34,2.4-.85-2.25,4.26-2.41.93Zm3.35-1.19,3.29-1.16-2.16,4.08-3.36,1.3Zm4.24-1.5,2.83-1-2.08,3.93-2.89,1.12Zm3.78-1.34,2.22-.79L199,143l-2.26.88Zm3.17-1.12,2.66-1-1.93,3.66L200,142.64Zm3.61-1.28,2.27-.81-1.89,3.54-2.29.89Zm.47-.89,1.85-3.51,2.24-.72-1.82,3.42Zm2.31-4.37,2.24-4.25,2.17-.54-2.17,4.07Zm2.67-5.06,2.36-4.47,2.22-.59-2.41,4.52Zm1.89-5-2.49.67,2.66-5,2.5-.67Zm-.29-5-2.1.57,2.28-4.31,2.09-.54Zm-.28-4.32-2.67.7,2.19-4.15,2.64-.64Zm-3.57.93-3.1.81,2.25-4.24,3.06-.74Zm-4,1-2.53.66,2.25-4.31,2.53-.61Zm-.43.82-2.34,4.4-2.49.68,2.3-4.43Zm-5.73,5.32-2.8.76,2.31-4.46,2.8-.74Zm-.43.82-2.58,5-2.76.74,2.55-4.93Zm-3,5.77-2.14,4.1-2.71.67,2.09-4Zm-5.73,5-1.2.3,1.63-3.88,1.65-.44Zm-.42.81-3.12,6-.47.16,2.48-5.91Zm-4.68,0a25.26,25.26,0,0,1-3.67-2.28l5.06-8.92a16.16,16.16,0,0,0,2.42,2Zm-.64,16.24-2,3.75-2.54,1.05,1.54-3.65Zm1-.37,2.4-.93L185.15,152l-2.42,1ZM188,148l3.36-1.3-1.84,3.49-3.43,1.42Zm4.33-1.67,2.89-1.12-1.77,3.35-3,1.22Zm3.86-1.5,2.27-.87-1.72,3.24-2.3,1Zm3.24-1.25,2.73-1.05-1.64,3.1-2.79,1.16Zm3.7-1.43,2.28-.88-1.59,3-2.32,1Zm3.26-1.26,2.46-1-1.53,2.88-2.51,1Zm.48-.92,1.87-3.5,2.41-.85-1.81,3.4Zm2.34-4.39,1.8-3.38,2.35-.74-1.74,3.27Zm2.26-4.24,2.13-4,2.23-.56-2,3.81Zm2.56-4.8,2.42-4.54,2.25-.6L216.3,126Zm2-5.12-2.23.59,2.66-5,2.27-.61Zm0-5-2.49.68,2.26-4.27,2.47-.65Zm-.69-4.18-2.09.55,2.15-4.07,2.06-.49Zm-.4-4.11-2.63.64,2.2-4.17,2.6-.56Zm-3.52.85-3.06.73,2.27-4.28,3-.65Zm-3.94,1-2.55.61,2.28-4.37,2.55-.55Zm-3.42.82-2.81.67,2.31-4.47,2.79-.6Zm-.42.8-2.26,4.33-2.81.73,2.27-4.39Zm-6,5.29-2.92.77,1.83-4.37,3.37-.81Zm-.42.82-2.31,4.47-2.37.64,1.84-4.37Zm-2.73,5.29L192,127.8l-1.74.47,2-4.77Zm-5.94.33a16.09,16.09,0,0,1-2.3-1.94l3.14-5.52a16.79,16.79,0,0,0,1.62,1.51ZM186,121a23.37,23.37,0,0,1-2.35-2.93l3.94-4.59a17.44,17.44,0,0,0,1.54,2Zm-.53.93-5.09,9a26.94,26.94,0,0,1-4.23-4.09l6.79-7.91A23.31,23.31,0,0,0,185.49,122ZM176,126.56a32.33,32.33,0,0,1-3.26-4.87l8.21-6.15c.57,1,1.19,2.09,1.86,3.08Zm-3.42-5.17a36.56,36.56,0,0,1-1.69-3.62l8.91-4.56c.31.68.64,1.35,1,2Zm-1.82-3.94c-.5-1.28-.92-2.53-1.27-3.71l-.27-.94,9.16-3c.38,1,.81,2.07,1.28,3.12Zm-1.62-5a50,50,0,0,1-1.06-5.06l9.13-1.13c.3,1,.65,2.07,1.06,3.18Zm-.64,1.53c.4,1.36.85,2.66,1.34,3.92l-7.61,3.88c-.53-1.32-1-2.61-1.38-3.86-.22-.73-.43-1.45-.63-2.17l8-2.65C168.28,113.41,168.36,113.71,168.45,114Zm-7.19,8.27-8.87,4.53a56.22,56.22,0,0,1-2-5.28c-.25-.77-.48-1.53-.7-2.29l9.51-3.14c.19.71.4,1.42.62,2.13C160.26,119.62,160.75,121,161.26,122.27Zm-9.78,5-8.21,4.19a76.75,76.75,0,0,1-3.32-7.22c-.22-.53-.42-1.06-.62-1.58l9.39-3.11q.32,1.13.69,2.25A57.47,57.47,0,0,0,151.48,127.27Zm.14.31a49.89,49.89,0,0,0,3.63,6.75l-7,5.25a69.56,69.56,0,0,1-4.83-7.82Zm3.82,7a41.41,41.41,0,0,0,6.74,8L156.66,149a57.39,57.39,0,0,1-8.2-9.16Zm7,8.19a36.77,36.77,0,0,0,8.09,5.5l-4.26,7.51a51,51,0,0,1-9.35-6.58Zm.67-.78,6-7a30.18,30.18,0,0,0,6.09,5L171,147.42A35.9,35.9,0,0,1,163.11,142Zm12.37-1.76a27.7,27.7,0,0,0,5,2.39l-3,7.29a38.78,38.78,0,0,1-6.17-2.38ZM179,154.89l.13.31,2.1-.87L179,158.71l-1.93.87Zm3.21-1,2.41-1-2.25,4.25L180,158.26Zm3.39-1.4,3.43-1.42-2.15,4.06-3.5,1.57Zm4.41-1.83,3-1.22-2.05,3.88-3,1.35Zm3.94-1.63,2.3-.95-2,3.73L192,152.9Zm3.29-1.36,2.79-1.15-1.88,3.55-2.86,1.29Zm3.78-1.56,2.3-1-1.82,3.42-2.34,1.05Zm3.29-1.37,2.52-1L205.13,147l-2.58,1.17Zm3.51-1.45,3.63-1.5-1.49,3-3.84,1.72Zm.5-.94,1.51-2.84,3.42-1.33L212,140.89Zm2-3.76,1.79-3.37,3.19-1.13-1.6,3.19Zm2.26-4.26,1.72-3.23,3-.95-1.53,3.06Zm2.17-4.09,2-3.73,2.69-.67-1.73,3.46Zm7.09-14.8-2.7,5.08-2.24.6,2.7-5.07Zm-.46-4.18-2.24,4.21-2.27.61,2.23-4.23Zm-.66-3.93-2.08,3.94-2.47.64,2.12-4Zm-2.89,0-2.06.5,2.15-4.07,2-.44Zm4.68-8.85-2.14,4.06-2,.43,2.19-4.14Zm-2.83.5-2.21,4.18-2.6.56,2.27-4.3Zm-3.38.59-2.3,4.34-3,.65,2.37-4.47Zm-3.8.67-2.39,4.5-2.55.55L210,100.7Zm-3.38.59-2.42,4.65-2.79.6,2.46-4.77Zm-8,1.4,4.41-.77-2.49,4.8-4,.86Zm-2.38,5.66,3.9-.84-2.32,4.49-3.46.83Zm-1.48-5.82L192,114.93c-4.78-4.32-5.27-10.73-5.25-13.3Zm-9.88,11.11-3.94,4.59a30.91,30.91,0,0,1-1.71-2.89l4.66-3.5A17.66,17.66,0,0,0,187.41,113.2Zm-1.14-2.11-4.67,3.5c-.32-.61-.62-1.23-.91-1.86l5.16-2.63Q186,110.6,186.27,111.09Zm-.54-1.31-5.18,2.64c-.44-1-.85-2-1.21-3l5.69-1.88A20.22,20.22,0,0,0,185.73,109.78Zm-.78-2.55-5.73,1.9c-.38-1-.72-2-1-3l6.38-.79C184.68,106,184.8,106.58,185,107.23Zm-.61-5.7a22.91,22.91,0,0,0,.21,3.49l-6.44.8c-.58-1.92-1-3.55-1.21-4.61Zm-8.5-.37c.22,1,.61,2.75,1.22,4.79L168,107.07a54.39,54.39,0,0,1-.58-6.27Zm-7.72,11.63-8,2.65a69.59,69.59,0,0,1-1.47-6.87l8.4-1A51.38,51.38,0,0,0,168.12,112.79Zm-1.75-12a51.81,51.81,0,0,0,.59,6.45l-8.4,1a72.1,72.1,0,0,1-.83-7.86Zm-7.26,15-9.51,3.14a76.5,76.5,0,0,1-1.89-9l9.89-1.22C158,110.86,158.44,113.26,159.11,115.77Zm-2.4-15.44a73.47,73.47,0,0,0,.83,8l-9.87,1.22a73.93,73.93,0,0,1-.77-9.67Zm-8.08,18.9-9.42,3.11a95.79,95.79,0,0,1-3.34-11l10.83-1.34A74.64,74.64,0,0,0,148.63,119.23Zm-2.76-19.36a77.35,77.35,0,0,0,.78,9.84l-10.86,1.34a94.9,94.9,0,0,1-2-11.71Zm-23.15-1,10,.44a94.62,94.62,0,0,0,2,11.88l-10.1,1.25A92.46,92.46,0,0,1,122.72,98.86Zm2,13.9,10.1-1.25a95.72,95.72,0,0,0,3.39,11.15l-9.37,3.09A78.26,78.26,0,0,1,124.75,112.76ZM129,126.07l9.36-3.09c.2.53.41,1.07.63,1.61,1,2.56,2.15,5,3.36,7.34l-8.18,4.18A72.59,72.59,0,0,1,129,126.07Zm5.34,10.33,8.17-4.17a70,70,0,0,0,4.91,8l-6.63,5A71.37,71.37,0,0,1,134.34,136.4Zm14.93,17.12a71.49,71.49,0,0,1-8.26-8.09l6.6-5a59.63,59.63,0,0,0,4,5,53.11,53.11,0,0,0,4.38,4.37l-4.62,5.38C150.66,154.66,150,154.1,149.27,153.52Zm2.35,1.88,4.61-5.36a51.59,51.59,0,0,0,9.54,6.67l-3.22,5.66A76.15,76.15,0,0,1,151.62,155.4Zm20.61,7.3a48.69,48.69,0,0,0-5.87,1.53c-1.08-.49-2.26-1.06-3.5-1.7l3.21-5.66a51.58,51.58,0,0,0,7.25,3.19ZM166.57,156l4.26-7.52a39.59,39.59,0,0,0,6.28,2.43l-3.39,8.22A50.94,50.94,0,0,1,166.57,156Zm10.75,5.9-1.33.23.87-2.08.14.32,1.47-.66Zm1.78-.29-.93.15,1.3-2.5,2.41-1.08L180.37,161Zm2.29-1.05,1.5-2.83,3.5-1.58-1.47,2.79Zm4.55-2.09,1.46-2.77,3-1.35L189,157.06ZM190,156.6l1.44-2.72,2.36-1.06-1.42,2.69Zm3.39-1.56,1.42-2.68,2.87-1.28-1.4,2.64Zm3.91-1.79,1.39-2.62,2.33-1-1.39,2.6Zm3.35-1.53,1.38-2.59,2.59-1.17-1.35,2.56Zm3.64-1.67,1.35-2.54,3.88-1.74-1.22,2.45Zm10.36-5.1a1.49,1.49,0,0,1-.7.68l-4.67,2.13,1.22-2.43,5.13-2.3Zm1.48-2.89L211,144.37l1.47-3,5.07-2.1Zm1.87-3.67-5.08,2.1,1.32-2.64,5-1.94Zm1.72-3.39-5,1.94,1.57-3.15,5-1.76Zm2-3.85-5,1.77,1.51-3,4.91-1.56Zm1.87-3.68L218.63,129l1.69-3.38,4.75-1.19Z" transform="translate(-114.67 -39.48)"/><path class="cls-2" d="M129.75,227.24c-.15,4-3.3,6.36-6.8,5.41a8.36,8.36,0,0,1-5.72-8c0-3.62,2.64-6.25,6-5.8C126.9,219.37,129.91,223.16,129.75,227.24Z" transform="translate(-114.67 -39.48)"/><path class="cls-1" d="M124.47,235.41a8.39,8.39,0,0,1-2.2-.3,10.86,10.86,0,0,1-7.59-10.46,8.64,8.64,0,0,1,2.86-6.53,7.59,7.59,0,0,1,6.06-1.77c5,.68,8.91,5.6,8.71,11h0A8.5,8.5,0,0,1,129,234,7.63,7.63,0,0,1,124.47,235.41Zm-2-14a2.44,2.44,0,0,0-1.63.59,3.6,3.6,0,0,0-1.1,2.72,5.81,5.81,0,0,0,3.84,5.49,2.68,2.68,0,0,0,2.36-.36,3.36,3.36,0,0,0,1.22-2.69h0c.11-2.73-1.89-5.4-4.28-5.72A2.83,2.83,0,0,0,122.51,221.39Z" transform="translate(-114.67 -39.48)"/><path class="cls-2" d="M160.87,179.67c-.2,3.27-3.35,5.33-6.86,4.7-3.34-.59-5.88-3.42-5.83-6.4s2.76-5.32,6.23-5C158.09,173.28,161.06,176.33,160.87,179.67Z" transform="translate(-114.67 -39.48)"/><path class="cls-1" d="M155.26,187a9.85,9.85,0,0,1-1.7-.15c-4.59-.82-8-4.67-7.94-9a7.42,7.42,0,0,1,2.48-5.45,8.51,8.51,0,0,1,6.54-2.07c5.12.46,9.05,4.68,8.78,9.41h0a7.4,7.4,0,0,1-2.84,5.44A8.57,8.57,0,0,1,155.26,187Zm-1.48-11.56a3.3,3.3,0,0,0-2.26.8,2.3,2.3,0,0,0-.79,1.73c0,1.75,1.65,3.48,3.73,3.85a3.73,3.73,0,0,0,3-.61,2.34,2.34,0,0,0,.9-1.73c.11-1.94-1.82-3.81-4.13-4Z" transform="translate(-114.67 -39.48)"/><path class="cls-2" d="M214.27,242.83c-.16,4-3.31,6.37-6.81,5.41a8.35,8.35,0,0,1-5.72-8c0-3.62,2.65-6.25,6-5.79C211.41,235,214.42,238.75,214.27,242.83Z" transform="translate(-114.67 -39.48)"/><path class="cls-1" d="M209,251a8.73,8.73,0,0,1-2.19-.29,10.87,10.87,0,0,1-7.6-10.47,8.69,8.69,0,0,1,2.86-6.53,7.56,7.56,0,0,1,6.07-1.76c5,.67,8.91,5.6,8.7,11h0a8.47,8.47,0,0,1-3.31,6.61A7.63,7.63,0,0,1,209,251ZM207,237a2.46,2.46,0,0,0-1.64.59,3.64,3.64,0,0,0-1.09,2.72,5.79,5.79,0,0,0,3.83,5.49,2.7,2.7,0,0,0,2.36-.35,3.4,3.4,0,0,0,1.22-2.7h0c.11-2.73-1.89-5.4-4.27-5.72Z" transform="translate(-114.67 -39.48)"/><path class="cls-4" d="M182.22,100.56s-2.21-.41-3.33,1.07a.86.86,0,0,0-.16,1.11c.81,1.32,2.94,4.14,1.22,3.83,0,0,.86,2.61-.48,3,0,0-.92.21-.95-1.07,0,0,0,2.33-1.66,2.13,0,0-.86,0-.51-1.34a5.48,5.48,0,0,0-1.93-4.56c-2.3-2.1-2.46-4.19-1.39-5.3s3-3.19,3.28-3.65c0,0,.7-1.93,4.06-1.14l1.85.1Z" transform="translate(-114.67 -39.48)"/><path class="cls-53" d="M180.12,106.74a20,20,0,0,1-3.57-3.38c-1.45-1.62.93-5,1-5.12s.23-.21.18.13c0,0-2.3,3.41-1,4.82,0,0,2.49,2.69,3.39,3.55Z" transform="translate(-114.67 -39.48)"/><path class="cls-53" d="M178.51,108.56a9.36,9.36,0,0,0-3.76-4.3c-1.68-1-.49-3.84-.55-3.76s.2-.15.2.08-1,2.54.47,3.52a7.67,7.67,0,0,1,3.64,4.46Z" transform="translate(-114.67 -39.48)"/><path class="cls-26" d="M182.22,99.05v1.51s.69.72,2.13-.49a5.73,5.73,0,0,1,4-.06s0-.26.05-.69Z" transform="translate(-114.67 -39.48)"/><path class="cls-33" d="M188.86,99.34l-.5,0c0,.43-.05.69-.05.69l.59,0C188.89,99.76,188.88,99.55,188.86,99.34Z" transform="translate(-114.67 -39.48)"/><path class="cls-54" d="M216.63,147.87S181.34,140.44,169.11,99" transform="translate(-114.67 -39.48)"/></svg>