<svg xml:space="preserve" style="enable-background:new 0 0 500 500;" viewBox="0 0 500 500" y="0px" x="0px" xmlns:xlink="http://www.w3.org/1999/xlink" xmlns="http://www.w3.org/2000/svg" id="图层_1" version="1.1">
<style type="text/css">
	.st0{fill:#D03D52;}
	.st1{fill:#ED757F;}
	.st2{fill:#FFA4B3;}
	.st3{fill:#43676B;}
	.st4{fill:#54A281;}
	.st5{fill:#5E8187;}
	.st6{fill:#AECCCC;}
	.st7{fill:#362118;}
	.st8{fill:#369064;}
	.st9{fill:#7FCCA6;}
	.st10{fill:#8AB5B4;}
	.st11{fill:#32755F;}
	.st12{fill:#EFC478;}
	.st13{fill:#60B287;}
	.st14{fill:#E0B663;}
	.st15{fill:#26774D;}
	.st16{fill:#BA2F4A;}
	.st17{fill:#5E3B2F;}
	.st18{fill:#83B0B2;}
	.st19{fill:none;stroke:#87B2B1;stroke-width:2.6599;stroke-linecap:round;stroke-linejoin:round;stroke-miterlimit:10;}
	.st20{fill:none;stroke:#441737;stroke-width:5.3197;stroke-linecap:round;stroke-linejoin:round;stroke-miterlimit:10;}
	.st21{fill:none;stroke:#441737;stroke-width:5.1618;stroke-linecap:round;stroke-linejoin:round;stroke-miterlimit:10;}
	.st22{fill:none;stroke:#43676B;stroke-width:2.6599;stroke-miterlimit:10;}
	.st23{fill:none;stroke:#441737;stroke-width:2.5809;stroke-linecap:round;stroke-linejoin:round;stroke-miterlimit:10;}
</style>
<g id="XMLID_42_">
	<g>
		<path d="M428.55,261.23c2.87,10.53-3.35,21.33-13.88,24.15l-20.53,5.53l-7.13-7.13l25.43-6.86
			c10.48-2.82,16.7-13.57,13.88-24.05L428.55,261.23z" class="st0"></path>
		<path d="M426.32,252.88c2.39,10.32-3.78,20.75-14.04,23.51l-25.43,6.86l-11.65-43.2l12.18-3.3
			c1.81,6.86,8.83,10.91,15.69,9.04c6.81-1.86,10.91-8.88,9.04-15.69l7.55-2.02l6.49,24.15
			C426.21,252.45,426.26,252.66,426.32,252.88z" class="st1"></path>
		<path d="M419.67,228.09l-7.55,2.02c-1.86-6.86-8.88-10.91-15.75-9.04c-6.81,1.81-10.85,8.88-8.99,15.69l-12.18,3.3
			l-12.87-47.93l6.76-1.81c0.69,2.45,3.19,3.94,5.69,3.25c2.45-0.64,3.94-3.19,3.25-5.64c-0.53-2.07-2.45-3.46-4.47-3.46l4.47-4.95
			c1.22,1.28,3.03,1.86,4.84,1.33c0.53-0.16,1.06-0.37,1.49-0.69h7.08c-1.28,1.22-1.86,3.03-1.38,4.84c0.74,2.66,3.46,4.2,6.06,3.46
			c2.61-0.69,4.15-3.4,3.46-6.01l7.23-1.97L419.67,228.09z M388.49,201.7c2.61-0.69,4.15-3.4,3.46-6.01
			c-0.69-2.66-3.4-4.2-6.01-3.51c-2.66,0.74-4.2,3.4-3.46,6.06C383.17,200.85,385.89,202.39,388.49,201.7z" class="st1"></path>
		<path d="M412.11,230.11c1.86,6.81-2.23,13.83-9.04,15.69c-6.86,1.86-13.88-2.18-15.69-9.04
			c-1.86-6.81,2.18-13.88,8.99-15.69C403.23,219.2,410.25,223.24,412.11,230.11z" class="st2"></path>
		<path d="M402.64,165.05l4.15,15.43l-7.23,1.97c-0.69-2.61-3.4-4.15-6.01-3.46c-0.85,0.21-1.54,0.64-2.13,1.17h-7.08
			c1.7-1.12,2.55-3.25,1.97-5.32c-0.69-2.61-3.4-4.15-6.01-3.46c-2.61,0.69-4.15,3.4-3.46,6.01c0.21,0.8,0.64,1.54,1.17,2.13
			l-4.47,4.95c-0.37,0-0.8,0.05-1.17,0.16c-2.5,0.69-3.94,3.25-3.3,5.69l-6.76,1.81l-9.2-34.1l25.43-6.86
			C389.03,148.34,399.77,154.57,402.64,165.05z" class="st1"></path>
		<path d="M399.56,182.44c0.69,2.61-0.85,5.32-3.46,6.01c-2.61,0.74-5.32-0.8-6.06-3.46c-0.48-1.81,0.11-3.62,1.38-4.84
			c0.59-0.53,1.28-0.96,2.13-1.17C396.15,178.29,398.87,179.84,399.56,182.44z" class="st2"></path>
		<path d="M394.13,290.91l-92.19,24.9c-0.05-0.27-0.11-0.48-0.16-0.74l-1.81-7.82L387,283.78L394.13,290.91z" class="st3"></path>
		<path d="M391.95,195.69c0.69,2.61-0.85,5.32-3.46,6.01c-2.61,0.69-5.32-0.85-6.01-3.46c-0.74-2.66,0.8-5.32,3.46-6.06
			C388.55,191.49,391.26,193.03,391.95,195.69z" class="st4"></path>
		<path d="M375.19,240.06l11.65,43.2l-204.33,55.11l-12.08-44.9l-13.51-50.22l-8.14-30.11l204.33-55.11l9.2,34.1
			L375.19,240.06z M362.59,276.87c2.82-0.74,4.47-3.62,3.72-6.44l-24.26-89.9c-0.74-2.82-3.67-4.47-6.49-3.72l-163.58,44.15
			c-2.82,0.74-4.47,3.67-3.72,6.44l24.26,89.9c0.74,2.82,3.62,4.47,6.44,3.72L362.59,276.87z" class="st5"></path>
		<path d="M386.31,174.84c0.59,2.07-0.27,4.2-1.97,5.32c-0.43,0.32-0.96,0.53-1.49,0.69c-1.81,0.53-3.62-0.05-4.84-1.33
			c-0.53-0.59-0.96-1.33-1.17-2.13c-0.69-2.61,0.85-5.32,3.46-6.01C382.91,170.69,385.62,172.23,386.31,174.84z" class="st2"></path>
		<path d="M378.01,187.92c0.69,2.45-0.8,5-3.25,5.64c-2.5,0.69-5-0.8-5.69-3.25c-0.64-2.45,0.8-5,3.3-5.69
			c0.37-0.11,0.8-0.16,1.17-0.16C375.57,184.46,377.48,185.85,378.01,187.92z" class="st2"></path>
		<path d="M366.31,270.43c0.74,2.82-0.9,5.69-3.72,6.44l-163.64,44.15c-2.82,0.74-5.69-0.9-6.44-3.72l-24.26-89.9
			c-0.74-2.77,0.9-5.69,3.72-6.44l163.58-44.15c2.82-0.74,5.75,0.9,6.49,3.72L366.31,270.43z" class="st6"></path>
		<path d="M301.94,315.81c0.11,0.59,0.16,1.17,0.16,1.76c0,4.31-2.82,8.19-7.18,9.42c-4.89,1.33-10-1.44-11.65-6.17
			L301.94,315.81z" class="st7"></path>
		<path d="M301.78,315.06c0.05,0.27,0.11,0.48,0.16,0.74l-18.67,5c-0.11-0.21-0.21-0.43-0.27-0.69l-2.34-7.66
			l19.31-5.21L301.78,315.06z" class="st7"></path>
		<path d="M283,320.12c0.05,0.27,0.16,0.48,0.27,0.69l-103.15,27.88l2.55-9.79l97.99-26.44L283,320.12z" class="st3"></path>
		<path d="M182.67,338.9l-2.55,9.79l-18.99,5.11c-10.48,2.82-21.28-3.4-24.15-13.88l-2.23-8.46
			c0.11,0.37,0.21,0.74,0.32,1.06c3.25,9.84,13.67,15.53,23.78,12.82L182.67,338.9z" class="st8"></path>
		<path d="M170.44,293.47l12.08,44.9l-23.78,6.44c-10,2.66-20.22-2.77-23.67-12.29c-0.11-0.32-0.21-0.69-0.32-1.06
			c-0.05-0.16-0.11-0.37-0.16-0.53l-7.08-26.17l6.65-1.81c0.64,2.5,3.19,3.94,5.64,3.3c2.5-0.69,3.94-3.19,3.3-5.69
			c-0.59-2.02-2.45-3.4-4.47-3.4l4.47-4.95c1.17,1.22,3.03,1.81,4.84,1.33c0.53-0.16,1.06-0.37,1.49-0.69h7.02
			c-1.22,1.17-1.86,3.03-1.33,4.84c0.69,2.61,3.4,4.15,6.01,3.46c2.61-0.74,4.2-3.4,3.46-6.06L170.44,293.47z M153.52,314.32
			c2.61-0.69,4.2-3.4,3.46-6.01c-0.69-2.61-3.4-4.15-6.01-3.46c-2.61,0.69-4.15,3.4-3.46,6.01
			C148.2,313.47,150.91,315.06,153.52,314.32z" class="st4"></path>
		<path d="M156.93,243.25l13.51,50.22l-5.85,1.6c-0.69-2.61-3.4-4.15-6.01-3.46c-0.8,0.27-1.54,0.64-2.13,1.22h-7.02
			c1.65-1.12,2.5-3.25,1.97-5.32c-0.74-2.66-3.4-4.2-6.06-3.51c-2.61,0.74-4.15,3.4-3.46,6.06c0.27,0.8,0.69,1.54,1.22,2.13
			l-4.47,4.95c-0.43,0-0.8,0.05-1.22,0.16c-2.5,0.64-3.94,3.19-3.25,5.64l-6.65,1.81l-13.46-49.95l9.52-2.55
			c1.86,6.86,8.88,10.91,15.69,9.04c6.86-1.81,10.91-8.88,9.04-15.69L156.93,243.25z" class="st4"></path>
		<path d="M164.59,295.06c0.74,2.66-0.85,5.32-3.46,6.06c-2.61,0.69-5.32-0.85-6.01-3.46
			c-0.53-1.81,0.11-3.67,1.33-4.84c0.59-0.59,1.33-0.96,2.13-1.22C161.18,290.91,163.89,292.45,164.59,295.06z" class="st9"></path>
		<path d="M156.98,308.31c0.74,2.61-0.85,5.32-3.46,6.01c-2.61,0.74-5.32-0.85-6.01-3.46
			c-0.69-2.61,0.85-5.32,3.46-6.01C153.57,304.16,156.29,305.7,156.98,308.31z" class="st1"></path>
		<path d="M156.93,243.25l-8.62,2.34c-1.81-6.86-8.88-10.91-15.69-9.04c-6.86,1.86-10.91,8.88-9.04,15.69l-9.52,2.55
			l-3.03-11.12c-2.82-10.48,3.4-21.23,13.88-24.1l23.89-6.44L156.93,243.25z" class="st4"></path>
		<path d="M151.39,287.51c0.53,2.07-0.32,4.2-1.97,5.32c-0.43,0.32-0.96,0.53-1.49,0.69c-1.81,0.48-3.67-0.11-4.84-1.33
			c-0.53-0.59-0.96-1.33-1.22-2.13c-0.69-2.66,0.85-5.32,3.46-6.06C147.99,283.3,150.65,284.85,151.39,287.51z" class="st9"></path>
		<path d="M148.31,245.59c1.86,6.81-2.18,13.88-9.04,15.69c-6.81,1.86-13.83-2.18-15.69-9.04
			c-1.86-6.81,2.18-13.83,9.04-15.69C139.42,234.68,146.5,238.73,148.31,245.59z" class="st9"></path>
		<path d="M143.09,300.54c0.64,2.5-0.8,5-3.3,5.69c-2.45,0.64-5-0.8-5.64-3.3c-0.69-2.45,0.74-5,3.25-5.64
			c0.43-0.11,0.8-0.16,1.22-0.16C140.65,297.14,142.51,298.52,143.09,300.54z" class="st9"></path>
	</g>
</g>
<polygon points="354.7,164 158.77,217.5 188.53,330.31 386.51,276.71 388.61,284.52 184.28,339.63 148.76,213.16" class="st3"></polygon>
<circle r="3.96" cy="250.95" cx="168.73" class="st3"></circle>
<circle r="1.49" cy="238.32" cx="167.21" class="st3"></circle>
<path d="M339.93,177.58l-156.78,46.91c-4.06,1.33-6.37,5.59-5.29,9.72l19.95,72.81c1.1,4.19,5.29,6.77,9.52,5.85
	l131.02-28.29l-135.51,37.45c-4.29,1.19-8.73-1.37-9.85-5.68l-23.05-88.29c-0.66-2.54,0.85-5.13,3.38-5.81L339.93,177.58z" class="st10"></path>
<circle r="5.3" cy="224.96" cx="188.45" class="st10"></circle>
<circle r="2.83" cy="228.06" cx="200.79" class="st10"></circle>
<path d="M123.59,245.52c0,0-4.45,12.01,4.06,18.03c9.9,7,26.03-1.42,21.58-16.05c-0.15,3.77-2.06,19.41-18.52,13.1
	C125.87,258.58,123.07,255.51,123.59,245.52z" class="st11"></path>
<path d="M129.72,239.81c0,0,14.16-5.65,19.05,11.14C149.81,245.87,143.31,229.76,129.72,239.81z" class="st12"></path>
<path d="M124.81,242.57c0,0,4.6,17.13,24.06,10.16c-2.41,5.84-7.98,12.66-18.59,7.68
	C119.67,255.43,124.81,242.57,124.81,242.57z" class="st13"></path>
<circle r="1.91" cy="250.83" cx="130.19" class="st13"></circle>
<circle r="0.85" cy="249.1" cx="134.82" class="st13"></circle>
<path d="M123.59,248.61c0,0,4.75,16.55,22.43,9.02C144,260.75,126.62,268.6,123.59,248.61z" class="st9"></path>
<path d="M143.23,285.77c0,0-5.09,8.39,1.43,10.69c6.81,2.4,10.2-4.75,6.72-8.97c0.63,1.76-0.61,6.78-4.75,6.19
	C142.5,293.08,142.62,288.49,143.23,285.77z" class="st11"></path>
<path d="M135.24,299.65c0,0-4.79,5.26,0.38,8.58c5.17,3.32,10.5-3.13,7.6-6.95c0.03,2.89-2.27,6.93-6.12,4.8
	C133.25,303.96,135.24,299.65,135.24,299.65z" class="st11"></path>
<path d="M148.41,306.86c0,0-2.24,7.24,3.61,8.07s5.92-5.35,5.92-5.35s1.55,9.36-6.39,8.17
	C143.23,315.99,148.41,306.86,148.41,306.86z" class="st11"></path>
<path d="M155.4,295.03c0,0-0.78,6.75,4.45,6.7c5.23-0.04,5.87-4.13,5.87-4.13s0.47,7.54-6.25,7.06
	C152.57,304.18,154.49,297.1,155.4,295.03z" class="st11"></path>
<path d="M125.37,220.08c0,0-9.54,11.21-5.85,26.7c2.91,12.21,15.95,58.46,21.35,77.53c2.44,8.6,9.77,15.11,18.67,15.94
	c5.76,0.54,13.43,0.06,23.57-2.42c-8.02,3.71-34.89,18.25-47.17-1.83c-5.77-21.39-25.17-93.42-25.17-93.42
	S108.31,227.09,125.37,220.08z" class="st11"></path>
<circle r="3.9" cy="281.54" cx="130.07" class="st11"></circle>
<circle r="1.33" cy="276.98" cx="137.27" class="st11"></circle>
<path d="M118.78,257.54l19.82,72.11c0,0,3.48,13.74,19.46,12.71c-3.82-0.59-14.36-2.36-18.77-16.7
	C134.89,311.33,118.78,257.54,118.78,257.54z" class="st14"></path>
<polygon points="161.2,345.82 162.08,355.99 168.73,353.74 167.84,343.69" class="st15"></polygon>
<polygon points="405.28,279.45 407.82,288.87 414.76,287.14 411.86,277.67" class="st16"></polygon>
<path d="M285.61,313.55c0,0,1.33,13.89,10.79,12.22c-2.66,3.1-11.64,0.92-14.02-11.26
	C285.61,313.55,285.61,313.55,285.61,313.55z" class="st17"></path>
<polygon points="183.15,344.73 282.75,317.86 281.91,322.32 182.35,348.66" class="st5"></polygon>
<path d="M390.36,225.7c0,0-7.82,5.39-4.64,16.18c3.18,10.79,16.63,11.48,22.24,7.51c5.62-3.97,7.45-13.58,4.14-19.31
	c0.41,2.64,2.51,15.46-13.89,16.08C390.24,245.57,384.13,236.41,390.36,225.7z" class="st0"></path>
<path d="M389.89,226.56c0,0,2.72,17.29,22.59,12.1c-3.33,5.44-10.1,12.63-20.61,5.05
	C384.99,237.57,386.15,228.82,389.89,226.56z" class="st1"></path>
<path d="M394.14,221.9c0,0,16.5-1.09,18.34,15.65C414.17,232.28,411.64,217.44,394.14,221.9z" class="st12"></path>
<circle r="2.79" cy="237.02" cx="397.4" class="st1"></circle>
<circle r="1.24" cy="233.81" cx="404.04" class="st1"></circle>
<path d="M387.67,231.21c0,0,2.18,16.88,20.18,12.96C405.75,245.62,388.51,251.72,387.67,231.21z" class="st2"></path>
<path d="M372.82,185.13c0,0-6.01,0.65-5.12,6.9s8.46,6.41,10.96,3.15c2.49-3.25,1.27-7.83-1.52-8.57
	c1.45,2.26,1.45,7.33-3.58,7.58S368.11,187.04,372.82,185.13z" class="st0"></path>
<path d="M384.28,172.48c0,0-5.01-3.37-8.36,1.99c-3.35,5.36,2.35,10.35,6.35,9.47c4-0.88,6.02-5.17,4.36-7.53
	c-0.35,2.67-3.6,6.54-7.62,3.5S379.44,170.91,384.28,172.48z" class="st0"></path>
<path d="M389.73,193.08c0,0-5.01-3.37-8.36,1.99c-3.35,5.36,2.35,10.35,6.35,9.47c4-0.88,6.02-5.17,4.36-7.53
	c-0.34,3.29-4.29,6.69-7.62,3.5C380.82,197,384.9,191.51,389.73,193.08z" class="st0"></path>
<path d="M397.83,179.87c0,0-5.01-3.37-8.36,1.99c-3.35,5.36,2.35,10.35,6.35,9.47c4-0.88,6.02-5.17,4.36-7.53
	c-0.34,3.29-4.29,6.69-7.62,3.5C388.92,183.8,393,178.3,397.83,179.87z" class="st0"></path>
<path d="M354.2,160.9l34.99-9.58c0,0,10.28,0.8,13.89,14.21s23.68,87.77,23.68,87.77l-28.11-84.86
	c-2.68-7.68-9.49-12.73-17.6-12.12L354.2,160.9z" class="st12"></path>
<path d="M322.16,181.04l12.6-3.37c5.35-1.43,10.84,1.73,12.3,7.07l21.87,80.2c1.42,5.2-1.52,10.59-6.65,12.23
	l-8.08,2.57c0,0,12.54-2.99,12.98-6.24c0.44-3.25-25.49-94.22-25.49-94.22S341.2,174.64,322.16,181.04z" class="st18"></path>
<polygon points="278.42,266.28 252.31,240.02 288.1,230.54" class="st19"></polygon>
<polygon points="257.83,260.73 267.41,224.96 293.59,251.14" class="st19"></polygon>
<path d="M412.91,277.39l-253.62,68.41c-10.48,2.83-21.27-3.38-24.1-13.86l-23.68-87.77
	c-2.83-10.48,3.38-21.27,13.86-24.1l253.62-68.41c10.48-2.83,21.27,3.38,24.1,13.86l23.68,87.77
	C429.59,263.78,423.39,274.56,412.91,277.39z" class="st20"></path>
<path d="M426.61,252.74l2.42,8.99c2.83,10.5-3.38,21.31-13.88,24.14l-112.74,30.41" class="st21"></path>
<path d="M283.73,321.31L161.6,354.26c-10.5,2.83-21.31-3.38-24.14-13.88l-2.42-8.99" class="st21"></path>
<polyline points="149.23,213.64 183.15,339.37 180.58,349.14" class="st21"></polyline>
<polyline points="353.56,158.52 387.48,284.25 394.61,291.4" class="st21"></polyline>
<path d="M363.04,277.35l-163.62,44.14c-2.81,0.76-5.7-0.91-6.46-3.72l-24.25-89.88c-0.76-2.81,0.91-5.7,3.72-6.46
	l163.62-44.14c2.81-0.76,5.7,0.91,6.46,3.72l24.25,89.88C367.52,273.7,365.85,276.6,363.04,277.35z" class="st22"></path>
<circle r="12.82" cy="249.39" cx="136.41" class="st23"></circle>
<circle r="4.92" cy="289.24" cx="147.1" class="st23"></circle>
<circle r="4.92" cy="310.07" cx="152.72" class="st23"></circle>
<circle r="4.92" cy="296.84" cx="160.32" class="st23"></circle>
<circle r="4.63" cy="302.23" cx="139.07" class="st23"></circle>
<circle r="4.92" cy="176.6" cx="382.06" class="st23"></circle>
<circle r="4.92" cy="197.43" cx="387.67" class="st23"></circle>
<circle r="4.92" cy="184.21" cx="395.28" class="st23"></circle>
<circle r="4.63" cy="189.59" cx="374.03" class="st23"></circle>
<circle r="12.82" cy="233.9" cx="400.2" class="st23"></circle>
<path d="M281.87,314.59l1.62,6c1.4,5.18,6.73,8.25,11.92,6.85h0c5.18-1.4,8.25-6.73,6.85-11.92l-1.62-6" class="st20"></path>
<path d="M295.4,327.44c0,0-12.75,29.87,34.15,26.93c33.92-2.13,73.92-12.25,76.89,22.67" class="st20"></path>
</svg>
