<?xml version="1.0" encoding="UTF-8"?>
<svg width="500px" height="500px" viewBox="0 0 500 500" version="1.1" xmlns="http://www.w3.org/2000/svg" xmlns:xlink="http://www.w3.org/1999/xlink">
    <title>可爱的妹妹</title>
    <defs>
        <path d="M87.9177339,103.707726 C87.0740093,116.935274 92.4992566,130.719058 104.193476,145.059079 C53.1970029,163.788899 20.4481487,162.325474 5.94691322,140.668806 C-15.80494,108.183803 27.6987664,80.5307072 46.8001291,74.0600741 C52.8963086,71.9949784 57.7622732,68.2953873 62.3314943,63.6990721 L63.2416586,62.7680714 C63.3927854,62.6109847 63.5436516,62.4529564 63.6942918,62.2940136 L64.5956979,61.3296031 C64.7455725,61.1671122 64.8952902,61.0037614 65.0448856,60.8395783 L65.9412674,59.8447092 L66.836374,58.8311738 L68.1802733,57.2787406 L69.5306382,55.6916861 L73.6765353,50.7670604 L74.6278058,49.6478174 L75.5935665,48.5223682 L76.5754768,47.3920246 C76.7405666,47.203299 76.9063983,47.014424 77.0730067,46.8254272 L78.0822531,45.6902009 C78.2521063,45.5008255 78.4228053,45.3113828 78.5943845,45.1219 L79.6347009,43.9847423 C84.3661523,38.8673407 89.7897797,33.7606264 96.5860839,29.2024348 C97.5092867,28.5832549 116.615438,13.8541092 150.087853,6.61491993 C164.010159,3.60389691 190.592426,1.3989236 229.834655,5.14098568e-14 C260.413651,1.03371162 303.065311,5.59835408 348.902588,22.2105139 L348.973519,22.2967693 C350.397219,22.0959727 389.236668,46.5593239 410.289191,70.5075663 C431.341713,94.4558087 485.19456,163.619139 379.181691,163.619139 L374.722927,163.61317 L370.369007,163.595264 C369.65209,163.591284 368.939542,163.586808 368.231363,163.581834 L364.034708,163.546021 L359.942898,163.498271 C358.596435,163.480365 357.267446,163.460469 355.955931,163.438583 L352.073807,163.366958 C351.435524,163.354026 350.801609,163.340596 350.172062,163.326669 L346.447205,163.237137 L342.827191,163.135668 L339.312021,163.022261 C293.142047,161.430589 274.930415,156.655571 284.677125,148.697207 L315.572281,103.707151 L87.9177339,103.707726 Z" id="path-1"></path>
        <path d="M0,0.85249099 C4.10381163,18.9802017 7.10648572,31.3017778 9.00802229,37.8172193 C11.8603271,47.5903815 18.782966,55.7054171 26.3170386,62.146271 C33.8511112,68.5871249 53.9587815,80.0398154 103.057602,80.0398154 C152.156423,80.0398154 174.638596,70.3895252 185.247722,62.146271 C195.856849,53.9030168 199.670035,46.9482457 204.422688,34.1804751 C207.591123,25.668628 209.038792,14.5593 208.765695,0.85249099 L0,0.85249099 Z" id="path-3"></path>
        <ellipse id="path-5" cx="105.5" cy="28" rx="105.5" ry="28"></ellipse>
        <path d="M77.7344275,0 C110.645329,0 137.748458,28.3384608 141.281033,64.7721061 C143.892427,64.5176054 146.504664,65.5655099 149.11664,67.9151165 C156.613701,74.6591076 148.047504,97.3827527 138.033858,100.439234 C137.617365,100.566361 137.221777,100.644409 136.847096,100.67338 C131.745263,114.74787 122.885266,126.602821 111.69228,134.614469 L111.691837,143.451053 C111.691837,150.444421 107.641201,156.804796 101.303962,159.762262 C94.0239746,163.159691 86.4283986,164.858406 78.517234,164.858406 C70.6060695,164.858406 63.0104935,163.159691 55.7305059,159.762262 C49.3932674,156.804796 45.342631,150.444421 45.3426308,143.451053 L45.3426308,143.451053 L45.3424484,135.700071 C33.340546,127.646997 23.8485965,115.255299 18.5266469,100.416842 C18.1078247,100.627351 17.6158358,100.732929 17.0523514,100.732929 C8.62726245,100.732929 -3.31819983,81.5026239 0.86127913,72.8649635 C3.64759844,67.1065233 7.55769551,65.9057492 12.5915704,69.2626412 C13.0122372,70.2900074 13.4158702,71.2922193 13.8024692,72.269277 C14.0814839,32.3005786 42.5980653,0 77.7344275,0 Z" id="path-7"></path>
        <path d="M11.2855237,0.929533739 C20.3305378,2.98447549 26.7114039,2.98447549 30.4281221,0.929533739 C36.0031994,-2.15287888 39.8138372,7.43160879 32.6001383,15.3663995 C25.3864394,23.3011901 10.2164365,21.9152352 4.62429042,15.3663995 C-0.96785565,8.81756377 0.336043162,2.72388384 3.2924288,0.929533739 C5.26335257,-0.266699662 7.92771754,-0.266699662 11.2855237,0.929533739 Z" id="path-9"></path>
    </defs>
    <g id="可爱的妹妹" stroke="none" stroke-width="1" fill="none" fill-rule="evenodd">
        <g transform="translate(28.144761, 78.591368)">
            <g id="路径-21" transform="translate(0.855239, 155.408632)">
                <mask id="mask-2" fill="white">
                    <use xlink:href="#path-1"></use>
                </mask>
                <use id="蒙版" fill="#A32521" xlink:href="#path-1"></use>
                <path d="M361.153927,30.0837419 C409.013704,75.9658759 426.941187,107.832724 414.936376,125.684286 C402.931566,143.535848 367.968097,148.735851 310.045969,141.284295 L295.032556,163.619139 L301.33784,167.730144 L432.943592,163.619139 L469.638582,93.6184316 L409.07549,58.4045697 L374.557724,34.3884254 L361.153927,30.0837419 Z" fill="#A32521" opacity="0.600000024" style="mix-blend-mode: multiply;" mask="url(#mask-2)"></path>
            </g>
            <path d="M169.296217,158.408632 C174.295544,192.181791 191.6551,211.968138 221.374885,217.767673 C223.088694,245.161047 224.248812,269.3747 224.855239,290.408632 L136.882365,285.608791 C138.600518,256.110615 138.600518,233.49691 136.882365,217.767673 C135.164213,202.038437 130.821837,184.898836 123.855239,166.34887 L169.296217,158.408632 Z" id="路径-22" fill="#FF9C2F"></path>
            <path d="M265.296217,158.408632 C270.348751,192.181791 287.73491,211.968138 317.454694,217.767673 C319.168504,245.161047 320.302019,269.3747 320.855239,290.408632 L232.882365,285.608791 C234.600518,256.110615 234.600518,233.49691 232.882365,217.767673 C231.164213,202.038437 226.821837,184.898836 219.855239,166.34887 L265.296217,158.408632 Z" id="路径-22备份" fill="#FF9C2F" transform="translate(270.355239, 224.408632) scale(-1, 1) translate(-270.355239, -224.408632) "></path>
            <circle id="椭圆形" fill="#ECE2B4" cx="222.355239" cy="221.908632" r="5.5"></circle>
            <path d="M153.855239,328.948682 C172.566891,337.921982 202.524673,342.408632 243.728585,342.408632 C305.534453,342.408632 322.208927,318.681228 298.590946,314.243724 C282.845625,311.285388 234.600389,316.187041 153.855239,328.948682 Z" id="路径-29" fill="#8E4A29" opacity="0.600000024" style="mix-blend-mode: multiply;"></path>
            <g id="路径-27" transform="translate(110.855239, 258.408632)">
                <mask id="mask-4" fill="white">
                    <use xlink:href="#path-3"></use>
                </mask>
                <use id="蒙版" fill="#FFF9DE" xlink:href="#path-3"></use>
                <path d="M169.130567,19.6055705 C169.130567,30.9837124 167.240042,41.3008487 163.458991,50.5569793 C159.67794,59.81311 154.148008,68.618261 146.869198,76.9724323 C171.7707,72.5462747 185.450151,69.5062821 187.907549,67.8524545 C191.593646,65.371713 218.313322,26.7353258 218.313322,18.8771168 C218.313322,13.6383108 217.144267,6.13698334 214.806157,-3.62686567 L169.130567,19.6055705 Z" fill="#FFF9DE" opacity="0.900000036" style="mix-blend-mode: multiply;" mask="url(#mask-4)"></path>
            </g>
            <g id="椭圆形" transform="translate(108.855239, 229.408632)">
                <mask id="mask-6" fill="white">
                    <use xlink:href="#path-5"></use>
                </mask>
                <use id="蒙版" fill="#F2E7B7" xlink:href="#path-5"></use>
                <path d="M103.061933,67.5990478 C161.327974,67.5990478 208.534628,51.937397 208.534628,43.5330639 C208.534628,35.1287307 163.766041,19.4670799 105.5,19.4670799 C47.2339589,19.4670799 2.64527248,35.1287307 2.64527248,43.5330639 C2.64527248,51.937397 44.7958919,67.5990478 103.061933,67.5990478 Z" fill="#F9AC5D" mask="url(#mask-6)"></path>
                <ellipse fill="#FFECD3" mask="url(#mask-6)" cx="136.848571" cy="34.0869565" rx="1.80857143" ry="1.2173913"></ellipse>
                <ellipse id="椭圆形备份-12" fill="#FFECD3" mask="url(#mask-6)" transform="translate(107.911429, 35.304348) scale(-1, 1) translate(-107.911429, -35.304348) " cx="107.911429" cy="35.3043478" rx="1.80857143" ry="1.2173913"></ellipse>
                <ellipse id="椭圆形备份-15" fill="#FFECD3" mask="url(#mask-6)" transform="translate(145.288571, 38.956522) scale(-1, 1) translate(-145.288571, -38.956522) " cx="145.288571" cy="38.9565217" rx="1.80857143" ry="1.2173913"></ellipse>
                <ellipse id="椭圆形备份-18" fill="#FFECD3" mask="url(#mask-6)" transform="translate(87.414286, 26.782609) scale(-1, 1) translate(-87.414286, -26.782609) " cx="87.4142857" cy="26.7826087" rx="1.80857143" ry="1.2173913"></ellipse>
                <ellipse id="椭圆形备份-10" fill="#FFECD3" mask="url(#mask-6)" transform="translate(119.365714, 37.130435) scale(-1, 1) translate(-119.365714, -37.130435) " cx="119.365714" cy="37.1304348" rx="2.41142857" ry="1.82608696"></ellipse>
                <ellipse id="椭圆形备份-13" fill="#FFECD3" mask="url(#mask-6)" transform="translate(90.428571, 38.347826) scale(-1, 1) translate(-90.428571, -38.347826) " cx="90.4285714" cy="38.3478261" rx="2.41142857" ry="1.82608696"></ellipse>
                <ellipse id="椭圆形备份-16" fill="#FFECD3" mask="url(#mask-6)" transform="translate(63.902857, 38.347826) scale(-1, 1) translate(-63.902857, -38.347826) " cx="63.9028571" cy="38.3478261" rx="2.41142857" ry="1.82608696"></ellipse>
                <ellipse id="椭圆形备份-11" fill="#FFECD3" mask="url(#mask-6)" transform="translate(130.820000, 43.826087) scale(-1, 1) translate(-130.820000, -43.826087) " cx="130.82" cy="43.826087" rx="1.80857143" ry="1.2173913"></ellipse>
                <ellipse id="椭圆形备份-14" fill="#FFECD3" mask="url(#mask-6)" transform="translate(101.882857, 45.043478) scale(-1, 1) translate(-101.882857, -45.043478) " cx="101.882857" cy="45.0434783" rx="1.80857143" ry="1.2173913"></ellipse>
                <ellipse id="椭圆形备份-20" fill="#FFECD3" mask="url(#mask-6)" transform="translate(77.768571, 45.043478) scale(-1, 1) translate(-77.768571, -45.043478) " cx="77.7685714" cy="45.0434783" rx="1.80857143" ry="1.2173913"></ellipse>
                <ellipse id="椭圆形备份-17" fill="#FFECD3" mask="url(#mask-6)" transform="translate(139.260000, 48.695652) scale(-1, 1) translate(-139.260000, -48.695652) " cx="139.26" cy="48.6956522" rx="1.80857143" ry="1.2173913"></ellipse>
                <ellipse id="椭圆形备份-19" fill="#FFECD3" mask="url(#mask-6)" transform="translate(81.385714, 36.521739) scale(-1, 1) translate(-81.385714, -36.521739) " cx="81.3857143" cy="36.5217391" rx="1.80857143" ry="1.2173913"></ellipse>
            </g>
            <path d="M115.448585,255.513255 C125.385888,255.087955 123.411005,261.934873 117.164293,261.934873 C113.684107,261.934873 109.733474,262.300007 107.134951,263.064638 C106.036822,263.387768 111.040754,263.269851 115.808276,262.780319 C119.847158,262.365604 122.698418,261.818946 122.698418,264.750531 C122.698418,267.733802 120.000214,268.980061 115.808276,269.142913 C111.205565,269.321723 107.589517,270.847844 108.331097,270.847844 C111.372149,270.847844 114.074837,270.336429 119.513261,270.336429 C127.803486,270.336429 130.695425,275.526149 119.513261,277.170116 C108.331097,278.814083 105.895287,278.037941 105.196133,278.814083 C104.496979,279.590226 118.725774,278.95787 122.698418,278.95787 C126.671062,278.95787 128.071145,282.247909 119.513261,285.261662 C113.808005,287.27083 106.044024,287.86984 96.2213206,287.058691 C94.3570415,285.112978 92.7538778,282.364775 91.4118294,278.814083 C89.398757,273.488046 86.8552387,266.91512 86.8552387,254.160462 C86.8552387,251.668626 110.014985,245.248122 110.014985,253.440527 C110.014985,253.800204 109.690043,254.825034 109.097342,255.08318 C105.930263,256.462576 95.9819849,256.507131 97.2108928,256.44206 C103.665405,256.100295 108.936185,255.791974 115.448585,255.513255 Z" id="路径-172" fill="#F8CFCA"></path>
            <g id="椭圆形-+-椭圆形备份-4-蒙版" transform="translate(143.855239, 24.408632)">
                <mask id="mask-8" fill="white">
                    <use xlink:href="#path-7"></use>
                </mask>
                <use id="蒙版" fill="#F8CFCA" xlink:href="#path-7"></use>
                <ellipse id="椭圆形" fill="#FE9898" opacity="0.400000006" mask="url(#mask-8)" cx="119.428571" cy="107.189781" rx="16.8888889" ry="16.8613139"></ellipse>
                <ellipse id="椭圆形备份-4" fill="#FE9898" opacity="0.400000006" mask="url(#mask-8)" cx="37.3968254" cy="107.189781" rx="16.8888889" ry="16.8613139"></ellipse>
            </g>
            <path d="M137.223251,92.2890294 C141.368669,31.0354311 169.689769,0.408632047 222.18655,0.408632047 C274.683331,0.408632047 300.931721,29.4853322 300.931721,87.6387325 C332.112055,106.673318 349.515856,126.882691 353.143124,148.266852 C358.584026,180.343092 350.473399,187.445036 337.06103,204.524568 C323.648661,221.604099 289.443052,243.45118 297.36254,205.181983 C299.025365,197.146742 308.71512,177.807534 308.96125,153.681113 C309.216293,128.681096 299.95706,98.9514192 297.598289,95.2678959 C292.782931,87.7480993 286.186321,87.7965991 281.883716,107.744826 C279.813951,114.244456 277.752356,116.915763 277.072902,116.87631 C274.324035,116.716696 279.978965,78.2356299 267.049227,70.8448601 C254.767155,63.8243024 197.894355,62.6562787 179.680004,70.8448601 C157.645975,80.7506447 171.469269,114.19149 166.400611,117.161666 C161.331954,120.131841 160.567409,92.715055 150.355058,92.715055 C147.402248,92.715055 145.504273,95.3030465 144.486731,99.6066594 C142.948429,106.11279 136.906512,127.053899 134.62917,155.975507 C133.203012,174.08731 135.445177,194.013487 134.62917,208.752989 C132.510132,247.029082 66.5079805,197.122623 93.2032276,141.644682 C100.244539,125.170173 114.91788,108.718289 137.223251,92.2890294 Z" id="路径-177" fill="#2E1B1D"></path>
            <path d="M189.855239,160.483644 C198.144669,164.757135 209.277275,167.054175 223.253058,167.374763 C237.22884,167.695351 248.080768,165.039974 255.808842,159.408632 C255.870704,162.375663 255.870704,164.706659 255.808842,166.40162 C255.74698,168.096581 255.447045,169.986866 254.909036,172.072474 C244.047337,176.251107 232.307188,177.409617 219.688587,175.548004 C207.069987,173.686391 197.125537,169.651465 189.855239,163.443227 L189.855239,160.483644 Z" id="路径" fill="#F8CFCA" opacity="0.699999988" style="mix-blend-mode: multiply;"></path>
            <path d="M254.855239,172.408632 C260.633272,170.458288 265.119308,168.470402 268.313344,166.444973 C271.507381,164.419544 273.354679,162.005234 273.855239,159.202043 C271.091587,158.829003 268.723094,158.523233 266.74976,158.284735 C264.776426,158.046236 262.111499,157.754202 258.754978,157.408632 C258.149248,157.895264 257.672976,158.271159 257.32616,158.536315 C256.979344,158.801471 256.458264,159.188098 255.762921,159.696194 C255.794122,162.423479 255.809723,164.673072 255.809723,166.444973 C255.809723,168.216874 255.491562,170.20476 254.855239,172.408632 Z" id="路径-4" fill="#A32521" opacity="0.699999988" style="mix-blend-mode: multiply;"></path>
            <path d="M263.534195,158.408632 C264.140842,159.207728 264.534314,160.576077 264.723763,162.528874 L264.776817,163.164993 C264.792249,163.38352 264.80543,163.60854 264.816372,163.840072 L264.842491,164.55422 L264.855239,165.307542 L264.855239,166.100145 L264.840874,166.932135 L264.813891,167.803618 L264.773792,168.714701 C264.766019,168.869854 264.757703,169.026661 264.748844,169.185125 L264.689192,170.155807 L264.616584,171.166354 L264.531085,172.216873 C264.515765,172.395296 264.49991,172.575389 264.483522,172.757155 C263.943857,178.742722 259.762722,185.460589 254.089563,190.900856 L253.372803,191.57409 C248.423964,196.127064 242.451888,199.6868 236.79611,201.000726 C221.67295,204.514074 202.242562,201.484319 192.123293,191.547017 C184.471757,184.033073 182.138635,173.263056 185.091988,159.310049 L185.23662,158.643215 L186.409179,158.906076 C183.322303,172.805692 185.518089,183.372733 192.963051,190.683818 C202.743543,200.288435 221.763378,203.254174 236.525455,199.824711 C248.604278,197.01861 262.314362,183.436357 263.287028,172.64826 L263.376979,171.599225 L263.454129,170.590048 L263.518544,169.620844 L263.570295,168.691727 L263.60945,167.802811 C263.61493,167.658015 263.619888,167.514899 263.624326,167.373465 L263.644716,166.545065 L263.652681,165.757152 C263.653273,165.501275 263.651806,165.252165 263.648291,165.00984 L263.631614,164.303243 L263.60272,163.637474 C263.596889,163.529921 263.590553,163.424075 263.583712,163.319936 L263.536619,162.715625 C263.386091,161.061602 263.090507,159.902662 262.656902,159.250486 L262.578952,159.140659 L263.534195,158.408632 Z" id="路径-10" fill="#7A0E0C" fill-rule="nonzero"></path>
            <path d="M184.203058,97.3876982 C190.864962,90.7489433 197.845516,90.7489433 204.50742,97.3876982 C204.981979,97.8606085 204.969349,98.6151615 204.479209,99.0730394 C203.98907,99.5309173 203.207027,99.5187311 202.732468,99.0458208 C197.041432,93.3745601 191.669046,93.3745601 185.97801,99.0458208 C185.50345,99.5187311 184.721407,99.5309173 184.231268,99.0730394 C183.741128,98.6151615 183.728498,97.8606085 184.203058,97.3876982 Z" id="路径-203" fill="#2E1B1D" fill-rule="nonzero"></path>
            <path d="M241.203058,97.3876982 C247.864962,90.7489433 254.845516,90.7489433 261.50742,97.3876982 C261.981979,97.8606085 261.969349,98.6151615 261.479209,99.0730394 C260.98907,99.5309173 260.207027,99.5187311 259.732468,99.0458208 C254.041432,93.3745601 248.669046,93.3745601 242.97801,99.0458208 C242.50345,99.5187311 241.721407,99.5309173 241.231268,99.0730394 C240.741128,98.6151615 240.728498,97.8606085 241.203058,97.3876982 Z" id="路径-203备份" fill="#2E1B1D" fill-rule="nonzero"></path>
            <g id="椭圆形" transform="translate(203.855239, 122.408632)">
                <mask id="mask-10" fill="white">
                    <use xlink:href="#path-9"></use>
                </mask>
                <use id="蒙版" fill="#992F24" xlink:href="#path-9"></use>
                <ellipse fill="#CE4739" mask="url(#mask-10)" cx="18.0591033" cy="20.1990254" rx="17.3064516" ry="9.16666667"></ellipse>
            </g>
            <path d="M185.576517,83.5218953 C188.827181,82.6249998 193.741128,81.6608238 201.90873,84.704924 C210.076332,87.7490241 199.515654,79.8987196 191.437904,80.4350211 C183.360155,80.9713226 182.325853,84.4187908 185.576517,83.5218953 Z" id="路径-204备份" fill="#2E1B1D" transform="translate(194.355239, 82.908632) scale(-1, 1) translate(-194.355239, -82.908632) "></path>
            <path d="M242.576517,83.5218953 C245.827181,82.6249998 250.741128,81.6608238 258.90873,84.704924 C267.076332,87.7490241 256.515654,79.8987196 248.437904,80.4350211 C240.360155,80.9713226 239.325853,84.4187908 242.576517,83.5218953 Z" id="路径-204备份-2" fill="#2E1B1D"></path>
            <path d="M354.223707,247.608366 C354.443775,247.363479 354.823801,247.340612 355.072518,247.557292 L356.038161,248.405621 L356.958186,249.228363 L357.832617,250.025566 L358.661477,250.797276 L359.444789,251.543539 C359.698304,251.788058 359.944232,252.028344 360.182576,252.264404 L360.874862,252.959915 C360.986452,253.073724 361.096148,253.186478 361.203949,253.298178 L361.828026,253.955748 C361.928251,254.063239 362.026583,254.169678 362.123022,254.275066 L362.678943,254.894799 C363.478762,255.805513 364.125329,256.63129 364.618995,257.372841 C366.356859,259.98334 366.305669,261.870619 364.190468,262.569526 C364.011934,262.628517 363.802272,262.684386 363.561437,262.737138 L363.176799,262.813927 L362.745367,262.886043 L362.267109,262.953489 L361.741989,263.016268 L361.169973,263.074384 L360.223948,263.152822 L359.534547,263.199294 L358.798131,263.241115 L358.014668,263.278288 L356.306463,263.338703 L354.901556,263.371837 L353.390448,263.394548 L351.210237,263.408632 L349.101828,263.405577 L345.898612,263.376576 L342.398741,263.318781 L338.601687,263.232246 L335.349714,263.142361 L332.785531,263.062914 L329.199466,262.940963 L323.461626,262.723758 L320.431025,262.599755 C320.099225,262.585864 319.841684,262.309769 319.855792,261.983078 C319.869899,261.656387 320.150313,261.402812 320.482113,261.416703 L325.555962,261.620681 L330.321765,261.794954 L333.912228,261.913023 L338.1221,262.033969 L342.022314,262.12537 L344.919146,262.177255 L347.617134,262.210297 L350.115984,262.224525 L352.126576,262.221627 L353.185699,262.213817 L354.685698,262.193784 L355.626523,262.174889 L356.948914,262.138244 L358.164588,262.091648 L359.27343,262.035111 L360.275326,261.968644 L361.170162,261.89226 C361.263636,261.883223 361.355126,261.874001 361.44463,261.864597 L361.957823,261.805969 L362.423332,261.742944 L362.841123,261.675524 C362.906776,261.663922 362.97044,261.652136 363.032113,261.640168 L363.378263,261.566162 C363.53939,261.528063 363.682591,261.488319 363.807847,261.446932 C364.956916,261.067255 364.983676,260.080655 363.613171,258.021977 C363.037504,257.15725 362.231807,256.160042 361.196725,255.031649 L360.60939,254.403159 L359.976581,253.748695 C359.758067,253.526217 359.531979,253.299418 359.29832,253.068305 L358.574631,252.362034 C358.450231,252.242168 358.32394,252.121225 358.195758,251.999208 L357.40397,251.254204 C357.268224,251.127888 357.130588,251.000499 356.991062,250.872037 L356.131228,250.088405 L355.226059,249.279079 C354.916783,249.005027 354.599955,248.7267 354.275579,248.444106 C354.026862,248.227426 354.003638,247.853253 354.223707,247.608366 Z" id="路径-20" fill="#A32521" fill-rule="nonzero"></path>
            <path d="M302.855239,88.5497036 C299.521905,89.8901536 297.239336,91.8431297 296.007531,94.408632 C294.613079,93.4034297 293.562315,92.2582231 292.855239,90.9730121 C293.541237,89.8329815 294.592001,88.7113143 296.007531,87.6080105 C297.423061,86.5047066 298.835047,85.7715805 300.24349,85.408632 L302.855239,88.5497036 Z" id="路径-23" fill="#FF9C2F"></path>
            <path d="M135.682668,89.408632 C140.790368,90.3399712 144.181225,92.2394726 145.855239,95.1071364 C145.307161,97.3699489 144.627701,98.8037808 143.816861,99.408632 C142.345779,97.250092 141.025238,95.8162602 139.855239,95.1071364 C138.685239,94.3980126 136.685239,93.8193013 133.855239,93.3710025 L135.682668,89.408632 Z" id="路径-24" fill="#FF9C2F"></path>
            <path d="M240.250728,273.408632 C245.555153,273.408632 249.855239,272.841499 249.855239,269.408632 C249.855239,265.975765 245.555153,265.408632 240.250728,265.408632 C234.946304,265.408632 231.855239,266.551489 231.855239,269.408632 C231.855239,272.265775 234.946304,273.408632 240.250728,273.408632 Z" id="椭圆形" fill="#CD4341"></path>
            <path d="M199.114096,276.275303 C203.738622,276.274593 205.069366,275.804898 205.069842,272.695519 C205.070319,269.586141 203.739732,269.028454 199.115207,269.029162 C194.490682,269.029872 193.467368,271.687054 193.608944,272.993269 C193.750521,274.299483 194.489571,276.276012 199.114096,276.275303 Z" id="椭圆形备份-21" fill="#CD4341" transform="translate(199.333191, 272.652233) rotate(-17.000000) translate(-199.333191, -272.652233) "></path>
            <path d="M178.593662,265.405584 C183.218188,265.404875 184.548931,264.93518 184.549408,261.825801 C184.549885,258.716422 183.219298,258.158736 178.594773,258.159444 C173.970248,258.160154 172.946934,260.817335 173.08851,262.12355 C173.230087,263.429765 173.969137,265.406293 178.593662,265.405584 Z" id="椭圆形备份-22" fill="#CD4341" transform="translate(178.812757, 261.782514) scale(-1, 1) rotate(-17.000000) translate(-178.812757, -261.782514) "></path>
        </g>
    </g>
</svg>