<svg xml:space="preserve" style="enable-background:new 0 0 500 500;" viewBox="0 0 500 500" y="0px" x="0px" xmlns:xlink="http://www.w3.org/1999/xlink" xmlns="http://www.w3.org/2000/svg" id="图层_1" version="1.1">
<style type="text/css">
	.st0{fill:#FFED80;}
	.st1{fill:#F6DE90;}
	.st2{fill:#4F1D42;}
	.st3{fill:#D6333E;}
	.st4{fill:#E7AF5D;}
	.st5{fill:#FFFCFF;}
	.st6{fill:#FFBB51;}
	.st7{fill:none;stroke:#4D1D47;stroke-width:12;stroke-miterlimit:10;}
	.st8{fill:none;stroke:#4D1D47;stroke-width:12;stroke-linecap:round;stroke-linejoin:round;stroke-miterlimit:10;}
	.st9{fill:none;stroke:#B6212F;stroke-width:5.6373;stroke-miterlimit:10;}
</style>
<g id="XMLID_17_">
	<g>
		<path d="M388.03,316.66c3.61-27.28,2.93-51.3-0.9-72.38c-3.04-18.04-8.34-33.82-14.88-47.58
			c-18.72-39.46-47.24-62.46-63.59-73.06c61.78,20.41,102.6,82.08,94.48,149.05c-1.92,16.12-6.54,31.12-13.42,44.87L388.03,316.66z" class="st0"></path>
		<path d="M387.12,244.28l-25.25,4.28l-45.66-26.38l42.5-20.18l13.53-5.3C378.78,210.45,384.08,226.24,387.12,244.28z" class="st1"></path>
		<path d="M289.49,279.12l63.59,7.78c-2.48,12.4-9.02,30.44-26.38,41.83c-14.09-14.09-28.07-19.84-40.7-21.08
			L289.49,279.12z" class="st2"></path>
		<path d="M326.69,328.72c-11.16,7.22-26.83,11.73-48.82,10.03c-17.59-1.35-30.67-6.88-40.36-14.54
			c0,0,20.86-19.17,48.48-16.57C298.62,308.88,312.6,314.63,326.69,328.72z" class="st3"></path>
		<path d="M181.36,144.27c0,0-50.74,248.49,193.25,197.3c-19.5,24.92-47.13,42.84-78.47,50.06
			c-175.54-11.95-166.3-170.36-166.3-170.36C137.84,189.71,156.45,162.76,181.36,144.27z" class="st4"></path>
		<path d="M220.26,257.13l134.28,16.35c0,0,0.11,5.52-1.47,13.42l-63.59-7.78l-62.91-7.67
			c-4.4-0.56-7.44-4.51-6.99-8.91L220.26,257.13z" class="st5"></path>
		<path d="M237.51,324.21c-30.44-23.79-27.4-68.32-27.4-68.32l10.15,1.24l-0.68,5.41c-0.45,4.4,2.59,8.34,6.99,8.91
			l62.91,7.67l-3.5,28.52C258.37,305.05,237.51,324.21,237.51,324.21z" class="st2"></path>
		<path d="M210.11,255.89c0,0-3.04,44.53,27.4,68.32c9.7,7.67,22.77,13.19,40.36,14.54
			c21.99,1.69,37.66-2.82,48.82-10.03c17.36-11.39,23.9-29.43,26.38-41.83c1.58-7.89,1.47-13.42,1.47-13.42l-134.28-16.35
			L210.11,255.89z M374.61,341.58c-243.98,51.19-193.25-197.3-193.25-197.3c27.74-20.75,63.25-31.23,100.23-26.72
			c9.36,1.13,18.38,3.16,27.06,6.09c16.35,10.6,44.87,33.6,63.59,73.06l-13.53,5.3l-42.5,20.18l45.66,26.38l25.25-4.28
			c3.83,21.08,4.51,45.1,0.9,72.38l1.69,0.9C385.55,326.13,380.47,334.13,374.61,341.58z" class="st1"></path>
		<path d="M247.88,394.23c-76.44-9.36-130.78-78.81-121.43-155.25c0.79-6.09,1.8-11.95,3.38-17.7
			c0,0-9.25,158.41,166.3,170.36C280.69,395.24,264.46,396.26,247.88,394.23z" class="st6"></path>
	</g>
</g>
<circle r="15.24" cy="329.49" cx="172.37" class="st6"></circle>
<circle r="5.31" cy="292.16" cx="162.44" class="st6"></circle>
<g>
	<path d="M358.39,335.99c-0.18,0.31-0.33,0.51-0.48,0.73c-0.15,0.22-0.3,0.43-0.45,0.63c-0.3,0.41-0.59,0.82-0.9,1.21
		c-0.6,0.79-1.23,1.54-1.85,2.29c-0.63,0.74-1.28,1.46-1.93,2.17c-0.67,0.69-1.32,1.4-2.01,2.07c-2.71,2.71-5.65,5.15-8.74,7.32
		c-1.51,1.12-3.15,2.07-4.73,3.06c-1.67,0.88-3.26,1.83-4.98,2.55c-3.34,1.62-6.89,2.7-10.38,3.64c3.21-1.72,6.31-3.52,9.08-5.77
		c1.44-1.03,2.72-2.28,4.04-3.43c1.24-1.26,2.52-2.45,3.65-3.79c2.32-2.6,4.41-5.38,6.22-8.29c0.46-0.73,0.88-1.47,1.32-2.2
		c0.41-0.75,0.82-1.49,1.21-2.24c0.38-0.76,0.76-1.5,1.09-2.26c0.18-0.38,0.33-0.75,0.49-1.12c0.08-0.19,0.15-0.37,0.22-0.54
		c0.07-0.18,0.14-0.37,0.16-0.46L358.39,335.99z" class="st1"></path>
</g>
<circle r="14.66" cy="183.15" cx="365.05" class="st0"></circle>
<circle r="3.63" cy="165.44" cx="335.42" class="st0"></circle>
<circle r="139.35" cy="255.25" cx="264.75" class="st7"></circle>
<polyline points="218.1,179.3 260.55,214.4 212.02,225.98" class="st8"></polyline>
<polyline points="358.73,201.41 316.26,221.57 361.84,247.93" class="st8"></polyline>
<path d="M237.46,323.59c0,0,44.13-40.58,89.19,4.47" class="st9"></path>
<path d="M210.1,255.23c0,0-5.24,77.35,67.76,82.9c77.77,5.92,76.67-65.29,76.67-65.29L210.1,255.23z" class="st7"></path>
</svg>
