<?xml version="1.0" encoding="utf-8"?>
<!-- Generator: Adobe Illustrator 22.0.0, SVG Export Plug-In . SVG Version: 6.00 Build 0)  -->
<svg version="1.1" id="图层_1" xmlns="http://www.w3.org/2000/svg" xmlns:xlink="http://www.w3.org/1999/xlink" x="0px" y="0px"
	 viewBox="0 0 240 240" style="enable-background:new 0 0 240 240;" xml:space="preserve">
<style type="text/css">
	.st0{fill:#FEB459;}
	.st1{fill:#634331;}
	.st2{fill:#259090;}
	.st3{fill:#124F97;}
	.st4{fill:#E45050;}
	.st5{fill:#BF2C2C;}
	.st6{fill:#FFE33D;}
	.st7{fill:#E64316;}
	.st8{fill:#FFC433;}
	.st9{fill:#1EBC7C;}
</style>
<path class="st0" d="M159.2,186.5l-24.1,11.2c-3.5,1.6-7.7,0.1-9.3-3.4l0,0c-1.6-3.5-0.1-7.7,3.4-9.3l24.1-11.2
	c3.5-1.6,7.7-0.1,9.3,3.4v0C164.2,180.7,162.7,184.9,159.2,186.5z"/>
<path class="st1" d="M132.1,199.3c-3,0-5.9-1.7-7.2-4.6c-1.8-4-0.1-8.7,3.9-10.6l24.1-11.2c4-1.9,8.7-0.1,10.6,3.9
	c0.9,1.9,1,4.1,0.3,6.1c-0.7,2-2.2,3.6-4.1,4.5l-24.1,11.2C134.4,199.1,133.2,199.3,132.1,199.3z M156.2,174c-0.9,0-1.7,0.2-2.6,0.6
	l-24.1,11.2c-3,1.4-4.4,5.1-3,8.1c1.4,3,5.1,4.4,8.1,3l24.1-11.2c0,0,0,0,0,0c1.5-0.7,2.6-1.9,3.2-3.4c0.6-1.5,0.5-3.2-0.2-4.7
	C160.7,175.3,158.5,174,156.2,174z"/>
<path class="st2" d="M151.4,117.2c0,0,10.1-6.7,22,7.4c11.9,14,22.7,37.7,18.6,41.5c-3,2.8-7.4-18.7-27.4-8.7
	C159.6,153.4,146,120.5,151.4,117.2z"/>
<path class="st3" d="M191.5,167.6c-0.1,0-0.1,0-0.2,0c-1.3-0.1-2.3-1.4-3.7-3.3c-3.5-4.6-9.3-12.3-22.3-5.7l-0.7,0.4l-0.6-0.5
	c-4.9-3.8-15.5-29.2-15-38.2c0.1-2,0.7-3.4,1.9-4.1v0c0.8-0.5,11.6-6.7,23.7,7.6c10.8,12.7,23.9,38.2,18.5,43.3
	C192.5,167.5,192,167.6,191.5,167.6z M174.7,153.4c8,0,12.3,5.8,15,9.3c0.6,0.8,1.3,1.7,1.7,2.1c2.2-3.6-6.5-24.9-18.9-39.4
	c-11.1-13-20.2-7.2-20.3-7.1l0,0c-0.1,0.1-0.5,0.5-0.6,2c-0.5,8.3,9.2,30.9,13.5,35.5C168.7,154.1,171.9,153.4,174.7,153.4z"/>
<path class="st2" d="M86.6,148.5c0,0-11.6,3.6-8.2,21.7c3.3,18.1,14.8,41.4,20.3,40.7c4-0.5-9.8-17.5,10.6-26.7
	C109.5,177.7,92.6,146.4,86.6,148.5z"/>
<path class="st3" d="M98.4,212.2c-7.3,0-18.4-25.6-21.4-41.8c-3.4-18.4,8.2-22.9,9.1-23.2h0c1.3-0.4,2.7-0.1,4.4,1.1
	c7.3,5.4,20.3,29.6,20.1,35.8l0,0.8l-0.7,0.3c-13.3,6-11,15.3-9.7,20.9c0.6,2.3,0.9,3.9,0.2,5c-0.2,0.3-0.7,0.8-1.5,0.9
	C98.7,212.2,98.6,212.2,98.4,212.2z M87,149.7c-0.5,0.1-10.4,3.6-7.4,20.3c3.5,18.8,14.4,39,18.6,39.6c0-0.6-0.3-1.7-0.5-2.7
	c-1.4-5.8-4-16.6,10.3-23.5c-0.9-6.2-12.3-28-19-32.9C87.7,149.6,87.1,149.6,87,149.7L87,149.7z"/>
<path class="st4" d="M53.4,37.6c-1.8,27,21.7,106.2,59.2,150.5c2.1,2.5,4,5.7,9.2,4.8c15.3-2.6,41.2-18.3,42.5-20
	c1.8-2.2,3.1-1.9,2.6-7.4c-3.7-39.2-50.6-121.4-73.2-140.2c-12.7-10.5-24-13.7-32.2-6.7C55.5,24,53.7,32.5,53.4,37.6z"/>
<path class="st5" d="M120.1,194.4c-4.1,0-6.2-2.5-7.9-4.6c-0.2-0.3-0.4-0.5-0.7-0.8c-38-44.9-61.3-125.1-59.5-151.4
	c0.3-3.9,1.6-13.8,8.6-19.8c5.8-5,16.3-7.9,33.8,6.6c22.2,18.4,69.9,101.1,73.7,141c0.4,4.5-0.3,5.7-1.9,7.3c-0.3,0.3-0.6,0.6-1,1
	c-1.8,2.1-27.8,17.8-43.3,20.4C121.3,194.3,120.7,194.4,120.1,194.4z M71.5,16.3c-3.2,0-6.4,1-9.2,3.4c-6.2,5.4-7.4,14.3-7.7,18l0,0
	c-1.8,26,21.3,105.2,58.9,149.6c0.2,0.3,0.5,0.6,0.7,0.8c1.8,2.2,3.4,4.2,7.4,3.5c14.9-2.5,40.2-17.9,41.8-19.5
	c0.4-0.5,0.8-0.9,1.1-1.2c1.1-1,1.5-1.5,1.1-5.2c-3.7-39.5-50.8-121.1-72.8-139.3C86.7,21.3,78.8,16.3,71.5,16.3z"/>
<path class="st6" d="M148.4,217.7c-1.1,0.4-10.7-12.6-7.4-16.6s20.3-10.4,21.8-10c1.5,0.4,8.5,12.6,6.7,16.6
	c-2.6-0.4-5.2-2.2-5.2-2.2s7,19.6,2.6,24c-4.1,4.1-17-15.5-17-18.1C149.5,211.4,149.5,217.4,148.4,217.7z"/>
<path class="st7" d="M165.5,231.4c-0.5,0-1.1-0.1-1.8-0.4c-4.1-1.7-10.2-9.7-13.2-15c-0.3,1.6-0.7,2.7-1.7,3
	c-0.6,0.2-1.7,0.6-5.2-4.5c-1.6-2.4-6.7-10.4-3.6-14.2c3.3-4.1,20.8-11,23.1-10.4c1.9,0.5,5,6.7,5.3,7.4c1.7,3.5,3.5,8.3,2.2,11.1
	l-0.4,0.9l-1-0.1c-0.9-0.1-1.9-0.4-2.7-0.8c2,6.2,5.1,18.4,1.2,22.2C167.4,230.9,166.7,231.4,165.5,231.4z M149.9,210.1h1.3v1.3
	c0.2,1.9,9,15.6,13.7,17.3c0.7,0.3,1,0.1,1.1,0c2.8-2.8-0.3-15.4-2.9-22.7l-1.4-3.9l3.4,2.4c0,0,1.6,1.2,3.5,1.7
	c0.2-3.8-4.4-12.3-6.1-13.8c-2.6,0.3-17.5,5.9-20.5,9.5c-0.5,0.6-0.4,1.8-0.3,2.6c0.7,4,4.4,9.2,6.2,11.2c0.2-0.9,0.3-2,0.3-2.6
	C148.5,211.3,148.6,210.1,149.9,210.1z"/>
<path class="st5" d="M141.6,175.9c6.6-3.6,11.5-6.8,12.1-7.4c1.7-2,2.8-1.7,2.4-6.7c-3.4-35.6-45.9-110.3-66.5-127.3
	c-8-6.6-15.3-10-21.5-9.4C65.3,25.3,133.5,180.3,141.6,175.9z"/>
<ellipse class="st2" cx="92.9" cy="76.3" rx="16.6" ry="16.5"/>
<ellipse transform="matrix(0.9964 -8.497077e-02 8.497077e-02 0.9964 -6.1447 8.1734)" class="st8" cx="92.9" cy="76.3" rx="10.7" ry="10.5"/>
<ellipse class="st2" cx="121.4" cy="138.4" rx="16.6" ry="16.5"/>
<ellipse transform="matrix(0.9964 -8.497077e-02 8.497077e-02 0.9964 -11.3209 10.8177)" class="st8" cx="121.4" cy="138.4" rx="10.7" ry="10.5"/>
<path class="st8" d="M59.9,66.7c0.7-2.3,2.1-4.2,3.5-6c1.5-1.7,3.2-3.1,5.1-4.4c3.7-2.6,7.6-4.8,11.7-6.5c1-0.5,2.1-0.9,3.1-1.2
	c1.1-0.4,2.1-0.8,3.2-1.1l3.2-0.9c1.1-0.3,2.2-0.5,3.3-0.7c4.4-0.9,8.8-1.2,13.2-1.1l0,0.4c-1.1,0.3-2.1,0.6-3.2,0.8
	c-1.1,0.3-2.1,0.5-3.1,0.8c-2.1,0.6-4.1,1.2-6.1,1.9c-2,0.7-4,1.5-6,2.3c-1,0.4-1.9,0.9-2.9,1.3c-1,0.4-1.9,0.9-2.8,1.4
	c-3.8,1.9-7.4,4.1-10.8,6.5c-1.7,1.2-3.4,2.5-5.2,3.6c-1.8,1.1-3.7,2.2-5.9,3L59.9,66.7z"/>
<path class="st3" d="M68.1,73c-0.9,4.1-0.3,8.4,1.2,12.4c1.4,4,3.7,7.7,6.2,11.2c2.5,3.6,5.3,7,7.8,10.7c2.5,3.7,4.7,7.7,6.4,11.9
	c1.8,4.2,3.1,8.5,4.1,12.9c0.9,4.4,1.6,8.8,2.6,12.9c0.5,2.1,1.1,4.1,1.9,6.1c0.8,2,1.8,3.8,3,5.5c1.2,1.7,2.6,3.3,4.2,4.6
	c1.6,1.3,3.5,2.3,5.4,2.9l-0.5,2c-2.3-0.5-4.5-1.5-6.4-2.9c-1.9-1.4-3.6-3.1-4.9-4.9c-1.4-1.9-2.5-3.9-3.5-6
	c-0.9-2.1-1.6-4.3-2.2-6.5c-1.1-4.4-1.8-8.8-2.7-13c-0.9-4.2-2.2-8.4-3.8-12.4c-1.7-4-3.7-7.8-6.1-11.4c-2.4-3.6-5.1-7.1-7.6-10.8
	c-2.5-3.7-4.9-7.7-6.3-12c-1.4-4.3-2-9.2-0.8-13.7L68.1,73z"/>
<path class="st9" d="M120.7,181.2c0,0,35.5-15.4,35.5-17.3c0-1.9-1.3-2.6-0.2-3.3c1-0.7,1-0.7,1-0.7l0,0l1.3-0.8"/>
<path class="st9" d="M119.1,176.6c0,0,35.5-15.4,35.5-17.3c0-1.9-1.3-2.6-0.2-3.3c1-0.7,1-0.7,1-0.7l0,0l1.3-0.8"/>
<path class="st9" d="M122.4,185.8c0,0,35.5-15.4,35.5-17.3c0-1.9-1.3-2.6-0.2-3.3s1-0.7,1-0.7l0,0l1.3-0.8"/>
</svg>
