<svg width="320" height="189" viewBox="0 0 320 189" fill="none" xmlns="http://www.w3.org/2000/svg">
<path d="M320 4.9H0.4C0.3 5.9 0.1 6.9 0 7.9H320V4.9Z" fill="black"/>
<path d="M151.2 14.4H89.2C85.5 14.4 82.4 11.4 82.4 7.6C82.4 3.9 85.4 0.800003 89.2 0.800003H151.2C154.9 0.800003 158 3.8 158 7.6C158 11.4 154.9 14.4 151.2 14.4Z" fill="#432D54"/>
<path d="M145.6 60.6H138.6V43.3L105.8 10.5L115.6 10.4L145.6 40.4V60.6Z" fill="#503768"/>
<path d="M156.3 66.5H127.9V64.3C127.9 58.5 132.6 53.7 138.5 53.7H145.8C151.6 53.7 156.4 58.4 156.4 64.3V66.5H156.3Z" fill="#0262B2"/>
<path d="M192.9 181.3C198.7 165.7 202 147.2 202 127.4C202 107.6 198.7 89.1 192.9 73.5H91.2C85.4 89.1 82.1 107.6 82.1 127.4C82.1 147.2 85.4 165.7 91.2 181.3H192.9Z" fill="#FFA13B"/>
<path d="M184.9 65.1H99.2C94.7 65.1 91 68.8 91 73.3H193.2C193.2 68.8 189.5 65.1 184.9 65.1Z" fill="#0369E2"/>
<path d="M99.2 188.7H184.9C189.4 188.7 193.1 185 193.1 180.5H91C91 185 94.7 188.7 99.2 188.7Z" fill="#0369E2"/>
<path d="M83.1 145.9H201C201.1 145.1 201.2 144.2 201.3 143.3H82.9C83 144.2 83 145 83.1 145.9Z" fill="white"/>
<path d="M84.4 155.2H199.8C199.9 154.4 200.1 153.5 200.2 152.6H84C84.1 153.5 84.3 154.3 84.4 155.2Z" fill="#053449"/>
<rect x="125.6" y="90" width="33.3" height="74.8" fill="#FFFBEE"/>
<rect x="125.6" y="167" width="33.3" height="3.8" fill="#FFFBEE"/>
<rect x="125.6" y="173.1" width="33.3" height="3.8" fill="#FFFBEE"/>
<path d="M192.9 128C192.5 113.1 193.2 106.1 190.2 95.8C189.2 92.3 186 90 182.4 90H167.1V128H192.9Z" fill="#FCEAC3"/>
<path d="M91.3 128C91.7 113.1 91 106.1 94 95.8C95 92.3 98.2 90 101.8 90H117.1V128H91.3Z" fill="#FCEAC3"/>
<path d="M91.3 128L117.1 90V128H91.3Z" fill="#FFFBEE"/>
<path d="M182.4 90H167.1V128H167.5L189.7 94.5C188.3 91.8 185.5 90 182.4 90Z" fill="#FFFBEE"/>
<path d="M130.3 130H130C129.5 130 129.2 129.6 129.2 129.2V123.5C129.2 123 129.6 122.7 130 122.7H130.3C130.8 122.7 131.1 123.1 131.1 123.5V129.2C131.1 129.6 130.7 130 130.3 130Z" fill="#053449"/>
</svg>
