<svg xml:space="preserve" style="enable-background:new 0 0 500 500;" viewBox="0 0 500 500" y="0px" x="0px" xmlns:xlink="http://www.w3.org/1999/xlink" xmlns="http://www.w3.org/2000/svg" id="图层_1" version="1.1">
<style type="text/css">
	.st0{fill:#C2B0AE;}
	.st1{fill:#FDFDFF;}
	.st2{fill:#608188;}
	.st3{fill:#FDC465;}
	.st4{fill:#953254;}
	.st5{fill:#DB714D;}
	.st6{fill:#E9E254;}
	.st7{fill:#FFFFFF;}
	.st8{fill:#4D2133;}
	.st9{fill:#5E1B31;}
	.st10{fill:#BE2549;}
	.st11{fill:#802943;}
	.st12{fill:#82D7FC;}
	.st13{fill:#599AE9;}
	.st14{fill:#FCC560;}
	.st15{fill:#FFA82E;}
	.st16{fill:#BC2620;}
	.st17{fill:#E36711;}
	.st18{fill:#F63F27;}
	.st19{fill:#DE3D37;}
	.st20{fill:#EF554F;}
	.st21{fill:#FDC330;}
	.st22{fill:#FFCB4F;}
	.st23{fill:#FFFFAC;}
	.st24{fill:#FDC332;}
	.st25{fill:#C1AEB0;}
	.st26{fill:#FCFFFF;}
	.st27{fill:#4A8FD7;}
	.st28{fill:#C2AEB1;}
	.st29{fill:#F54955;}
	.st30{fill:#441737;}
	.st31{fill:none;stroke:#FDFDFF;stroke-width:1.8178;stroke-linecap:round;stroke-linejoin:round;stroke-miterlimit:10;}
	.st32{fill:#406368;}
	.st33{fill:#FFFBFC;}
	.st34{fill:none;stroke:#441737;stroke-width:3.6356;stroke-linecap:round;stroke-linejoin:round;stroke-miterlimit:10;}
</style>
<g id="XMLID_22_">
	<g>
		<path d="M387.52,323.77c1.31-26.43-29.56-22.14-31.81-21.81c2.8-1.02,5.64-1.75,8.03-2.25
			c2.94-0.65,7.49-0.84,12.11,0.15c8.8,1.78,17.96,7.71,17.27,22.21c-1.09,22.07-22.1,21.81-29.63,19.23l-0.22-0.25
			c0.69-0.58,1.31-1.24,1.85-2c9.63,1.24,16.21-2.47,17.16-4.91C378.36,328.6,384.03,323.66,387.52,323.77z" class="st0"></path>
		<path d="M356.29,323.98c0,0-4.62,0.95-8.69-0.15c-3.13-0.87-5.93-2.91-6.11-7.45c-0.15-4.65,2.47-8.07,6.22-10.62
			c2.33-1.56,5.09-2.84,7.85-3.78c0,0,0.04,0,0.15-0.04c2.25-0.33,33.12-4.62,31.81,21.81c-3.49-0.11-9.16,4.84-5.24,10.36
			c-0.95,2.44-7.53,6.14-17.16,4.91c1.27-1.67,2.22-3.71,2.73-6.04c-2.4,3.38-6.62,6.8-12.29,6.29c-5.85-0.51-6.94-3.93-6.8-9.67
			C355.6,327.87,356.29,323.98,356.29,323.98z" class="st1"></path>
		<path d="M347.64,302.83c2.87-2.36,12.32-8.94,26.5-6.65c1.27,1.85,1.75,3.53,1.75,3.53l-0.04,0.15
			c-4.62-0.98-9.16-0.8-12.11-0.15c-2.4,0.51-5.24,1.24-8.03,2.25c-0.11,0.04-0.15,0.04-0.15,0.04c-2.76,0.95-5.53,2.22-7.85,3.78
			l-0.11-0.15C347.6,304.86,347.53,303.92,347.64,302.83z" class="st0"></path>
		<path d="M374.14,296.17c-14.18-2.29-23.63,4.29-26.5,6.65c0.29-2.33,1.38-5.2,5.34-7.71c1.82-1.2,4.29-2.29,7.53-3.24
			c2.22-0.62,4.11-0.76,5.74-0.55c0.65,0.04,1.24,0.15,1.78,0.33C370.98,292.46,372.9,294.43,374.14,296.17z" class="st1"></path>
		<path d="M345.16,338.75c-5.89-8.22,2.4-14.76,2.4-14.76l0.04-0.15c4.07,1.09,8.69,0.15,8.69,0.15
			s-0.69,3.89-7.53,5.64c-0.15,5.74,0.95,9.16,6.8,9.67c5.67,0.51,9.89-2.91,12.29-6.29c-0.51,2.33-1.45,4.36-2.73,6.04
			c-0.55,0.76-1.16,1.42-1.85,2C358.18,345.62,350.25,345.8,345.16,338.75z" class="st0"></path>
		<path d="M345.89,390.19c2.4-13.42-1.31-23.81-2.51-26.65l2.58,0.98c0,0,6.47,12.76,2.69,25.67
			C347.6,390.19,346.69,390.19,345.89,390.19z" class="st2"></path>
		<path d="M341.24,381.57c3.38-4.58,2.04-13.56-2.04-19.63l4.18,1.6c1.2,2.84,4.91,13.23,2.51,26.65
			c-3.16,0-4.14,0-4.14,0h-0.04C341.71,387.46,341.53,384.63,341.24,381.57z" class="st2"></path>
		<path d="M335.53,96.87c6.58,9.31-19.3,7.09-30.21,14.76C306.34,110.29,326.69,84.44,335.53,96.87z" class="st3"></path>
		<path d="M309.9,125.34c0,0,20.03-6.8,19.41,3.42C328.88,136.46,313.28,125.37,309.9,125.34z" class="st3"></path>
		<path d="M326.69,359.61c0,0,15.74-0.51,11.42,21.49c0,0-0.22-4.62-2.94-7.96c-2.8,3.13-9.96-3.34-5.05-7.89
			C330.95,363.76,329.71,360.96,326.69,359.61z" class="st4"></path>
		<path d="M355.6,288.32c-2.14-5.6-12.11-23.34-43.52-13.27c0.95-3.82,1.93-7.6,2.87-11.34c0,0,43.26-18.61,53.08,27.96
			c-0.55-0.18-1.13-0.29-1.78-0.33l0.07-0.91C365.56,289.74,361.41,286.36,355.6,288.32z" class="st3"></path>
		<path d="M310.15,360.41c0,0,0.91-4.54,6.65-3.45c5.38,1.05,7.05,8.58,7.23,9.49
			C323.5,365.39,318.84,356.89,310.15,360.41z" class="st4"></path>
		<path d="M352.98,295.12c-5.27-26.9-40.75-15.16-42.28-14.61c0.44-1.82,0.91-3.64,1.38-5.45
			c31.41-10.07,41.37,7.67,43.52,13.27c5.82-1.96,9.96,1.42,10.72,2.11l-0.07,0.91c-1.64-0.22-3.53-0.07-5.74,0.55
			C357.27,292.83,354.8,293.92,352.98,295.12z" class="st5"></path>
		<path d="M240.9,151.62c-60.17,1.13,53.73,19.89,67.44,22.29c-46.03-2.44-97.4-16.43-95.58-20.72
			C214.54,148.86,240.9,151.62,240.9,151.62z" class="st6"></path>
		<path d="M293.83,154.39c28.94,6.04,49.7,13.96,48.86,19.3c-0.36,2.18-4.29,3.64-10.87,4.36
			c7.05-2.87,3.45-6.04-7.85-11.12c-11.31-5.13-30.25-12.03-30.25-12.03L293.83,154.39z" class="st7"></path>
		<path d="M306.23,363.1c1.85,0.51,3.96,0.91,6.22,1.13c2.44,0.25,4.47,1.82,5.27,3.96
			c-2.07,0.69-10.51,2.73-24.29-6.18c-8.4-5.38-11.42-14.47-12.43-21.6c0.73-0.07,1.49-0.18,2.25-0.25
			C285.54,348.2,291.47,359.25,306.23,363.1z" class="st3"></path>
		<path d="M291.39,88.22c-4.91-0.76-8.73-2.51-8.73-3.96v-0.11c0.25-1.45,4.51-1.96,9.56-1.16
			c5.05,0.8,8.94,2.65,8.73,4.07C300.74,88.51,296.45,89.05,291.39,88.22z" class="st8"></path>
		<path d="M297.61,393.32c13.85-3.09,22.54,6.14,22.54,6.14c-7.09-4.33-13.45-4.44-17.2-2.51
			c3.2,9.89-6.87,11.6-10.43,9.38c-1.78,5.05,3.38,13.74,11.23,14.47c13.49,0.69,22.32-5.27,30.94-14.58
			c-5.45,14.58-18.72,19.45-29.08,19.41c-8.11-0.04-15.74-5.02-18.4-12.69C284.19,404.33,287.61,395.53,297.61,393.32z" class="st9"></path>
		<path d="M287.25,161.73c3.13,0.98,5.02,2.04,4.87,2.87c-0.11,0.84-2.29,1.24-5.64,1.24L287.25,161.73z" class="st10"></path>
		<path d="M316.81,356.96c-5.74-1.09-6.65,3.45-6.65,3.45c8.69-3.53,13.34,4.98,13.89,6.04
			C323.86,365.54,322.19,358.01,316.81,356.96z M320.15,399.46c0,0-8.69-9.23-22.54-6.14c-10,2.22-13.42,11.02-10.4,19.63
			c2.65,7.67,10.29,12.65,18.4,12.69c10.36,0.04,23.63-4.84,29.08-19.41c-8.62,9.31-17.45,15.27-30.94,14.58
			c-7.85-0.73-13.02-9.42-11.23-14.47c3.56,2.22,13.63,0.51,10.43-9.38C306.7,395.02,313.06,395.13,320.15,399.46z M338.11,381.1
			c4.33-22-11.42-21.49-11.42-21.49c3.02,1.35,4.25,4.14,3.42,5.64c-4.91,4.54,2.25,11.02,5.05,7.89
			C337.89,376.48,338.11,381.1,338.11,381.1z M291.83,391.53c5.71-3.16,11.71-3.34,16.94-2.29c0.76,0.36,1.71,0.62,2.8,0.76
			c-0.91-0.29-1.85-0.55-2.8-0.76c-6.18-2.54-3.74-9.53-3.74-9.53l0.04-1.24c1.89,0.58,3.67,1.05,5.24,1.38
			c3.53,0.76,6.98-1.6,7.45-5.16c0.18-1.24,0.33-2.58,0.4-3.89c0.07-0.95-0.07-1.82-0.44-2.62c-0.8-2.14-2.84-3.71-5.27-3.96
			c-2.25-0.22-4.36-0.62-6.22-1.13c-0.07-1.42-0.04-10.54,8.73-9.82c3.93,0.33,6.58,2,8.29,4.29l0.22-0.15
			c6.47-3.96,12.14-0.84,15.74,4.51c4.07,6.07,5.42,15.05,2.04,19.63c0.29,3.05,0.47,5.89,0.47,8.62
			c0.29,44.03-35.52,44.79-47.59,36.97C280.6,418.44,277.29,399.6,291.83,391.53z" class="st11"></path>
		<path d="M317.75,374.7c-0.47,3.56-3.93,5.93-7.45,5.16c-1.56-0.33-3.34-0.8-5.24-1.38
			c-11.85-3.74-29.19-13.27-33.85-37.3c3.16-0.15,6.4-0.4,9.78-0.76c1.02,7.13,4.04,16.21,12.43,21.6
			c13.78,8.91,22.21,6.87,24.29,6.18c0.36,0.8,0.51,1.67,0.44,2.62C318.08,372.12,317.93,373.46,317.75,374.7z" class="st3"></path>
		<path d="M270.85,150.35l11.82-66.09c0,1.45,3.82,3.2,8.73,3.96c5.05,0.84,9.34,0.29,9.56-1.16l-12.18,66.31
			c-4.14-0.8-8.47-1.56-12.87-2.25C274.2,150.86,272.52,150.57,270.85,150.35z" class="st12"></path>
		<path d="M276.74,164.93c-3.05-0.51-5.89-1.13-8.18-1.78l0.8-4.47c2.4,0.07,5.24,0.36,8.25,0.84
			c3.74,0.58,7.09,1.38,9.63,2.22l-0.76,4.11C283.83,165.8,280.41,165.51,276.74,164.93z" class="st13"></path>
		<path d="M275.91,151.11c4.4,0.69,8.73,1.45,12.87,2.25l-1.53,8.36c-2.54-0.84-5.89-1.64-9.63-2.22
			c-3.02-0.47-5.85-0.76-8.25-0.84l1.49-8.33C272.52,150.57,274.2,150.86,275.91,151.11z" class="st12"></path>
		<path d="M281.54,329.62c0,0-0.04,4.47,1.71,10.54c-0.76,0.07-1.53,0.18-2.25,0.25c-3.38,0.36-6.62,0.62-9.78,0.76
			c-0.29-1.45-0.51-2.98-0.69-4.58c-0.22-1.82-0.36-3.71-0.44-5.71c-0.11-3.38,2.54-6.36,5.89-6.4c0.04,0,0.11,0,0.15,0
			C280.96,324.57,281.5,328.27,281.54,329.62z" class="st3"></path>
		<path d="M269.36,158.68l-0.8,4.47c-3.96-1.16-6.47-2.4-6.33-3.34C262.38,158.86,265.22,158.46,269.36,158.68z" class="st10"></path>
		<path d="M258.56,98.83c6.8-8.25,11.52,9.67,11.52,9.67S252.2,106.51,258.56,98.83z" class="st3"></path>
		<path d="M251.33,247.71c1.35-5.64-2.14-15.6-7.56-19.63c5.45,0.18,9.89-8.18,11.63-11.96
			c0.29,0.07,0.58,0.11,0.91,0.15c0.69,6.87,2.58,10.91,9.09,15.85C254.6,234.51,252.93,244.22,251.33,247.71z" class="st14"></path>
		<path d="M254.6,307.37c-11.23,1.6-25.05-1.71-24.94-16.76c0.11-15.01,18.9-17.2,18.9-17.2
			C222.72,293.37,242.13,302.79,254.6,307.37z" class="st15"></path>
		<path d="M235.26,255.53c0,0,0,9.63-14.43,6.43c-2.65-0.58-4.47-1.53-5.67-2.69c-3.49-3.34-1.82-8.36-0.51-11.12
			c-0.25,0.76-0.36,1.71-0.36,2.8C214.28,258.4,228.68,261.53,235.26,255.53z" class="st16"></path>
		<path d="M335.06,191.72c-11.78,1.53-32.76,2.87-71.44-4.18c-31.19-5.67-48.53-13.31-57.11-18.18
			c-5.13-2.94-7.16-4.91-7.16-4.91l3.82-8.11c0,0,7.16,14.61,66.71,23.23c59.55,8.62,66.71,2.69,66.71,2.69v9.23
			C336.11,191.58,335.6,191.65,335.06,191.72z" class="st17"></path>
		<path d="M221.26,285.45c0.62-3.2-0.36-6.07-2.18-6.43c-0.15-0.04-0.29-0.04-0.44,0c-0.65-0.15-2.69-0.55-5.64-1.27
			c-0.8-0.18-1.67-0.4-2.58-0.62c1.67-3.45,4.18-5.96,6.94-6.04c8.69-0.25,10.8,8.36,10.8,8.36c-0.95,1.96-1.75,4.29-2.29,7.05
			L221.26,285.45z" class="st18"></path>
		<path d="M215.59,241.28c1.64-3.53,3.27-13.2,14.07-15.63c-7.05-5.38-8.69-9.71-9.2-17.78l0.73-1.53
			c6.83,3.38,17.56,7.02,34.21,9.78c-1.75,3.78-6.18,12.14-11.63,11.96l-6.54,4.84c0,0,0.25,14.11-8.07,12.8
			c-4.84-0.76-9.09-1.64-11.78-0.58L215.59,241.28z" class="st19"></path>
		<path d="M271.22,341.18c-16.54,0.73-30.47-1.49-41.55-4.69c-6.62-1.89-12.22-4.14-16.76-6.29
			c-9.67-4.58-14.69-8.87-14.69-8.87l1.93-22.9l3.64,20.36c0,0,20.76,19.27,66.31,17.85l0.44-0.04
			C270.71,338.2,270.93,339.73,271.22,341.18z" class="st15"></path>
		<path d="M207.85,334.02l10.36,4.58c0,0-18.8,15.6-21.89,35.99c-3.64-1.27-12.54,0-12.54,0
			c4.76-21.63,17.05-34.68,24.03-40.61L207.85,334.02z" class="st3"></path>
		<path d="M219.08,279.01c1.82,0.36,2.8,3.24,2.18,6.43c-0.62,3.2-2.58,5.53-4.36,5.16c0,0-0.04,0-0.15-0.04
			c-1.75-0.47-2.65-3.27-2.04-6.36c0.58-2.94,2.25-5.13,3.93-5.2C218.79,278.98,218.94,278.98,219.08,279.01z" class="st20"></path>
		<path d="M208.94,291.52c-0.29-0.87-0.51-1.82-0.62-2.76c4.54,1.09,7.74,1.71,8.43,1.82
			c0.11,0.04,0.15,0.04,0.15,0.04c1.78,0.36,3.74-1.96,4.36-5.16l4.62,1.05c-0.18,0.98-0.33,2.04-0.47,3.16
			c0,0-1.24,10.22-9.02,8.58C212.32,297.45,209.99,294.83,208.94,291.52z" class="st18"></path>
		<path d="M212.47,178.49c47.41,27.19,122.23,19.96,122.23,19.96c-0.15,2.51-0.29,5.13-0.4,6.62
			c-0.55,0.22-2.04,0.76-4.69,1.42c-8.43,2.04-28.47,4.76-66.46-1.42c-31.19-5.09-46.06-13.05-52.82-18.32
			C210.32,186.74,211.96,182.27,212.47,178.49z" class="st21"></path>
		<path d="M208.25,287.16c1.78-1.42,4.29-4.29,4.76-9.42c2.94,0.73,4.98,1.13,5.64,1.27c-1.67,0.07-3.34,2.25-3.93,5.2
			c-0.62,3.09,0.29,5.89,2.04,6.36c-0.69-0.11-3.89-0.73-8.43-1.82C208.28,288.25,208.25,287.7,208.25,287.16z" class="st22"></path>
		<path d="M272.2,174.2c-37.92-6.11-67.84-16.21-66.82-22.58c0.98-6.07,29.85-6.58,65.48-1.27l-1.49,8.33
			c-4.14-0.22-6.98,0.18-7.13,1.13c-0.15,0.95,2.36,2.18,6.33,3.34c2.29,0.65,5.13,1.27,8.18,1.78c3.67,0.58,7.09,0.87,9.74,0.91
			c3.34,0,5.53-0.4,5.64-1.24c0.15-0.84-1.75-1.89-4.87-2.87l1.53-8.36c1.71,0.36,3.42,0.69,5.05,1.02l-0.11,0.51
			c0,0,18.94,6.91,30.25,12.03c11.31,5.09,14.91,8.25,7.85,11.12C319.24,179.47,297.1,178.2,272.2,174.2z M240.9,151.62
			c0,0-26.36-2.76-28.14,1.56c-1.82,4.29,49.55,18.29,95.58,20.72C294.63,171.51,180.73,152.75,240.9,151.62z" class="st23"></path>
		<path d="M208.65,196.67l0.87-10.58c0.25,0.22,0.51,0.44,0.8,0.65c6.76,5.27,21.63,13.23,52.82,18.32
			c37.99,6.18,58.02,3.45,66.46,1.42c0,0-7.02,27.34-14.65,57.22c-0.95,3.74-1.93,7.53-2.87,11.34c-0.47,1.82-0.95,3.64-1.38,5.45
			c-6.76,26.43-13.05,51.26-14.54,57.51c-3.31,0.69-6.51,1.24-9.67,1.67c2.4-2.07,4.36-17.23,4.36-17.23s-13.67-1.38-11.09-16.83
			c2.47-14.98,14.36-13.74,14.36-13.74c3.02-9.13,10.47-54.42,12.11-71.37c-20.72-0.58-37.08-2.14-49.92-4.25
			c-0.04-0.62-0.11-1.27-0.15-1.93c0,0-0.25,0.69-0.76,1.78c-16.65-2.76-27.38-6.4-34.21-9.78c-10.43-5.13-12-9.63-12-9.63
			L208.65,196.67z" class="st16"></path>
		<path d="M248.57,273.41c0,0-18.8,2.18-18.9,17.2c-0.11,15.05,13.71,18.36,24.94,16.76
			C242.13,302.79,222.72,293.37,248.57,273.41z M202.1,274.87l1.27-15.49c4.8-0.91,8.83-0.11,8.83-0.11h2.94
			c1.2,1.16,3.02,2.11,5.67,2.69c14.43,3.2,14.43-6.43,14.43-6.43c-6.58,6-20.98,2.87-20.98-4.58c0-1.09,0.11-2.04,0.36-2.8
			c0.47-1.02,0.91-1.71,1.02-1.89c0.04-0.04,0.04-0.04,0.04-0.04c0.47-0.51,1.02-0.87,1.67-1.09c2.69-1.05,6.94-0.18,11.78,0.58
			c8.33,1.31,8.07-12.8,8.07-12.8l6.54-4.84c5.42,4.04,8.91,14,7.56,19.63c1.6-3.49,3.27-13.2,14.07-15.6
			c-6.51-4.94-8.4-8.98-9.09-15.85c12.83,2.11,29.19,3.67,49.92,4.25c-1.64,16.94-9.09,62.24-12.11,71.37
			c0,0-11.89-1.24-14.36,13.74c-2.58,15.45,11.09,16.83,11.09,16.83s-1.96,15.16-4.36,17.23c-1.09,0.18-2.18,0.33-3.24,0.47
			c-1.75-6.07-1.71-10.54-1.71-10.54c-0.04-1.35-0.58-5.05-5.42-5.13c-0.04,0-0.11,0-0.15,0c-3.34,0.04-6,3.02-5.89,6.4
			c0.07,2,0.22,3.89,0.44,5.71l-0.44,0.04c-45.55,1.42-66.31-17.85-66.31-17.85l-3.64-20.36l0.22-2.84
			c4.65,2.33,8.83,3.16,8.83,3.16l0.69-0.44c1.67,2.94,5.05,5.6,11.82,4.8c0.07,4.36,9.93,19.09,34.03,8.76v-0.04
			c-5.42,0.73-33.23,3.09-30.32-22.18c0.15-1.13,0.29-2.18,0.47-3.16c0.55-2.76,1.35-5.09,2.29-7.05c0,0-2.11-8.62-10.8-8.36
			c-2.76,0.07-5.27,2.58-6.94,6.04c-0.95-0.25-1.96-0.51-3.05-0.8C205.74,275.89,203.96,275.41,202.1,274.87z" class="st19"></path>
		<path d="M209.88,298.32c-1.78-3.13-1.67-6.58-1.67-6.58l0.73-0.22c1.05,3.31,3.38,5.93,7.45,6.73
			c7.78,1.64,9.02-8.58,9.02-8.58c-2.91,25.27,24.9,22.9,30.32,22.18v0.04c-24.1,10.32-33.96-4.4-34.03-8.76
			C214.94,303.92,211.56,301.26,209.88,298.32z" class="st16"></path>
		<path d="M213.01,277.74c-0.47,5.13-2.98,8-4.76,9.42c-0.11-3.45,0.73-7.09,2.18-10.03
			C211.34,277.34,212.21,277.56,213.01,277.74z" class="st20"></path>
		<path d="M263.62,187.54c38.68,7.05,59.66,5.71,71.44,4.18c-0.04,0.44-0.18,3.53-0.36,6.73
			c0,0-74.82,7.23-122.23-19.96c-0.51,3.78-2.14,8.25-2.14,8.25c-0.29-0.22-0.55-0.44-0.8-0.65c-0.55-0.44-1.05-0.87-1.45-1.27
			c-2.25-2.11-2.94-3.45-2.94-3.45l0.33-2.8l1.05-9.2C215.08,174.24,232.42,181.87,263.62,187.54z" class="st17"></path>
		<path d="M208.07,221.61c6.98,0.25,12.4-13.74,12.4-13.74c0.51,8.07,2.14,12.4,9.2,17.78
			c-10.8,2.44-12.43,12.11-14.07,15.63C216.94,235.6,213.45,225.64,208.07,221.61z" class="st14"></path>
		<path d="M201.09,286.97l0.22-2.54c2.14-1.38,4.73-3.85,6.07-8.11c1.09,0.29,2.11,0.55,3.05,0.8
			c-1.45,2.94-2.29,6.58-2.18,10.03c-1.02,0.84-1.82,1.16-1.82,1.16C204.79,287.92,202.98,287.48,201.09,286.97z" class="st20"></path>
		<path d="M206.58,221.5l2.07-24.83l0.55,0.04c0,0,1.56,4.51,12,9.63l-0.73,1.53c0,0-5.42,14-12.4,13.74L206.58,221.5z" class="st19"></path>
		<path d="M207.38,276.32c-1.35,4.25-3.93,6.73-6.07,8.11l0.8-9.56C203.96,275.41,205.74,275.89,207.38,276.32z" class="st22"></path>
		<path d="M200.36,295.59l0.73-8.62c1.89,0.51,3.71,0.95,5.34,1.35c0.65,0.15,1.31,0.29,1.89,0.44
			c0.11,0.95,0.33,1.89,0.62,2.76l-0.73,0.22c0,0-0.11,3.45,1.67,6.58l-0.69,0.44C209.19,298.75,205.01,297.92,200.36,295.59z" class="st19"></path>
		<path d="M203.16,156.35l2.22-4.73c-1.02,6.36,28.9,16.47,66.82,22.58c24.9,4,47.04,5.27,59.62,3.85
			c6.58-0.73,10.51-2.18,10.87-4.36c0,0-0.22,9.85,0.47,16.8c-1.75,0.25-3.89,0.62-6.58,1.02v-9.23c0,0-7.16,5.93-66.71-2.69
			C210.32,170.96,203.16,156.35,203.16,156.35z" class="st24"></path>
		<path d="M203.78,254.76l1.93-23.09l0.87-10.18l1.49,0.11c5.38,4.04,8.87,14,7.53,19.67l1.78,3.85
			c-0.65,0.22-1.2,0.58-1.67,1.09c0,0,0,0-0.04,0.04c-0.44,0.47-0.8,1.09-1.02,1.89c-1.31,2.76-2.98,7.78,0.51,11.12h-2.94
			c0,0-4.04-0.8-8.83,0.11L203.78,254.76z" class="st19"></path>
		<path d="M203.38,259.38l-1.27,15.49c-2.11-0.62-4.29-1.31-6.54-2.04c-1.96-0.65-3.93-1.35-5.89-2.11
			C192.54,263.16,198.4,260.33,203.38,259.38z" class="st19"></path>
		<path d="M195.56,272.83c2.25,0.73,4.44,1.42,6.54,2.04l-0.8,9.56c-2,1.27-3.6,1.64-3.6,1.64
			c-2.91-0.84-5.93-1.75-8.98-2.73c-0.25-0.91-0.47-1.89-0.55-2.94C190.58,279.23,193.49,277.05,195.56,272.83z" class="st22"></path>
		<path d="M200.36,295.59c-4.69-2.33-9.82-6.18-11.63-12.25c3.05,0.98,6.07,1.89,8.98,2.73
			c1.16,0.29,2.29,0.62,3.38,0.91L200.36,295.59z" class="st19"></path>
		<path d="M189.67,270.72c1.96,0.76,3.93,1.45,5.89,2.11c-2.07,4.22-4.98,6.4-7.38,7.56c-0.22-2.04-0.07-4.29,0.55-6.8
			C188.98,272.58,189.27,271.6,189.67,270.72z" class="st20"></path>
		<path d="M188.73,273.6c-0.62,2.51-0.76,4.76-0.55,6.8c-2.25,1.05-4.07,1.2-4.4,1.24c-0.04,0-0.04,0-0.04,0
			c-3.34-1.24-6.65-2.54-9.74-4c1.02,0.22,7.96,1.31,13.23-7.82c0.84,0.33,1.64,0.62,2.44,0.91
			C189.27,271.6,188.98,272.58,188.73,273.6z" class="st20"></path>
		<path d="M187.23,269.82c-5.27,9.13-12.22,8.03-13.23,7.82c-0.07-0.04-0.11-0.04-0.11-0.04
			c-4.8-2.22-9.05-4.73-12.18-7.45c2.62,0.62,7.78,0.58,12.65-6.4C178.29,266,182.73,268.03,187.23,269.82z" class="st22"></path>
		<path d="M183.78,374.59c0,0,8.91-1.27,12.54,0c3.09-20.4,21.89-35.99,21.89-35.99l-10.36-4.58l-0.04-0.04
			c3.05-2.54,5.09-3.78,5.09-3.78c4.54,2.14,10.14,4.4,16.76,6.29c0,0-25.41,16.29-31.45,48.86l-0.22,0.25
			c-1.78-1.53-4.25-3.16-7.6-4.84c-2.76-1.38-5.2-2.14-7.31-2.4l0.04-0.47C183.31,376.77,183.53,375.68,183.78,374.59z" class="st5"></path>
		<path d="M179.2,420.29c2.29,1.38,4.65,2.73,6.83,3.82C183.71,423.13,181.38,421.82,179.2,420.29z" class="st11"></path>
		<path d="M173.67,198.05c4.22-2,7.53-2.18,7.53-2.18l0.51-0.11c1.13,3.45-2.44,7.6-2.44,7.6l-2.51-2.69l-2.07-2.22
			L173.67,198.05z" class="st25"></path>
		<path d="M177.13,418.73c7.6,4.04,12.72,4.04,14.47,1.6c-3.24-6.47,4.73-10.76,8.4-7.13
			c3.89-4.25-2.22-12.76-3.45-14.4l1.27-0.22c1.38,1.02,14.54,11.23,8.4,20.94c-2.22,3.53-5.16,5.45-8.51,6.14
			c-3.6,0.76-7.63,0.11-11.6-1.53c-0.04,0-0.07-0.04-0.07-0.04c-2.18-1.09-4.54-2.44-6.83-3.82c-0.07-0.04-0.15-0.11-0.18-0.15
			C178.36,419.71,177.75,419.24,177.13,418.73z" class="st11"></path>
		<path d="M170.87,208.88c-0.76-4.07,5.31-7.85,5.89-8.22l2.51,2.69l1.13,1.2l20.61,22.1l-1.67,15.56
			C199.34,242.22,175.53,213.97,170.87,208.88z" class="st3"></path>
		<path d="M175.06,385.35c0,0,5.24-6.54,15.6,0c10.4,6.58,7.16,9.78,3.93,10.47
			C194.83,392.04,188.51,383.14,175.06,385.35z" class="st4"></path>
		<path d="M171.71,191.5c-0.11,0.04-0.22,0.11-0.33,0.15C171.6,191.54,171.71,191.5,171.71,191.5z" class="st26"></path>
		<path d="M176.76,200.67c-0.58,0.36-6.65,4.14-5.89,8.22c4.65,5.09,28.47,33.34,28.47,33.34l1.67-15.56l4.69,5.02
			l-1.93,23.09l-18.25-21.7l-16.76-20l-4.84-5.74l-1.13-0.07c3.42-4.8,7.45-7.56,10.87-9.2l1.02,0.4L176.76,200.67z" class="st5"></path>
		<path d="M180.98,194.38c-2.94-3.64-12.76-1.09-12.76-1.09c0.69-0.4,1.82-1.02,3.16-1.64
			c0.11-0.04,0.22-0.11,0.33-0.15c2.25-0.98,5.05-1.93,7.56-1.93c2.14,0,4.07,0.73,5.24,2.65c3.6,5.93-4.11,12.32-4.11,12.32
			l-1.13-1.2c0,0,3.56-4.14,2.44-7.6C181.56,195.29,181.34,194.81,180.98,194.38z" class="st26"></path>
		<path d="M169.06,413.46c2.47,1.78,6.11,4.33,9.96,6.69c0.04,0.04,0.11,0.11,0.18,0.15c2.18,1.53,4.51,2.84,6.83,3.82
			c0,0,0.04,0.04,0.07,0.04c3.96,1.64,8,2.29,11.6,1.53c0,0.51,0,4.47,0,6.25c-5.49,0.69-9.85-0.29-13.2-1.78
			c-5.78-2.62-8.47-6.83-8.47-6.83l-9.63,0.62l-6.76,0.44c-2.84-1.35-37.34-17.81-34.68-22.25c3.02-5.05,19.01-1.02,20.65-0.58
			c0.11,0.04,0.15,0.04,0.15,0.04C155.24,405.39,164.62,410.77,169.06,413.46z" class="st2"></path>
		<path d="M169.27,175.69c10.29-0.22,23.67-6.25,29.05,1.93c0,0.04,0,0.07,0,0.11c0,5.42-8.47,6.98-18.98,5.67
			c-3.56-0.47-7.34-1.24-11.12-2.33l0.25-5.38C168.73,175.69,169.02,175.69,169.27,175.69z" class="st26"></path>
		<path d="M176.04,423.31c0,0,2.69,4.22,8.47,6.83l-9.45,0.62c0,0-8.62-5.6-8.62-6.33l-0.04-0.51L176.04,423.31z" class="st2"></path>
		<path d="M166.44,424.44c0,0.73,8.62,6.33,8.62,6.33l-5.74,0.36l-10.43-6.69l0.76-0.07l6.76-0.44L166.44,424.44z" class="st27"></path>
		<path d="M160.04,245.13c3.02-4.36,6.43-7.16,6.43-7.16c6.07-4.94,11.02-2.14,11.31,1.67
			c-8.76,7.74-17.6,5.6-17.6,5.6L160.04,245.13z" class="st22"></path>
		<path d="M168.22,213.5c-2.14,1.82-6.43,2.8-9.63,1.6l0.29-0.76c1.16-2.76,2.47-5.09,3.93-7.09l1.13,0.07l4.84,5.74
			L168.22,213.5z" class="st25"></path>
		<path d="M156.15,261.67c-0.11-0.18,7.74,5.64,13.42-1.53c0.4,0.62,0.98,1.2,1.75,1.71c0.98,0.65,2,1.27,3.05,1.89
			c-4.87,6.98-10.03,7.02-12.65,6.4c-1.82-1.56-3.24-3.2-4.14-4.91C156.91,264.03,156.48,262.83,156.15,261.67z" class="st20"></path>
		<path d="M170.91,250.69c-7.38,2.94-12.51,1.89-14.36,1.35c0.8-2.54,2.11-4.91,3.49-6.91l0.15,0.11
			c0,0,8.83,2.14,17.6-5.6c0.15,1.35-0.33,2.8-1.53,4.07C175.53,244.51,172.87,247.35,170.91,250.69z" class="st20"></path>
		<path d="M156.55,252.04c1.85,0.55,6.98,1.6,14.36-1.35c-1.85,3.16-3.05,6.8-1.35,9.45
			c-5.67,7.16-13.52,1.35-13.42,1.53C155.24,258.29,155.57,255.02,156.55,252.04z" class="st22"></path>
		<path d="M155.35,212.37c-0.8-1.49-0.73-3.05-0.18-4.51c0.04-0.11,0.07-0.22,0.15-0.33c0.04-0.18,0.11-0.36,0.22-0.51
			c1.13-2.4,3.34-4.51,4.87-5.78c0,0,0,0,0.04-0.04c0.4-0.44,3.71-3.74,5.78-4.51c0,0-1.42-0.07-3.34,0.18
			c3.71-3.24,7.42-4.84,8.51-5.24c-1.35,0.62-2.47,1.24-3.16,1.64c0,0,9.82-2.54,12.76,1.09c0.36,0.44,0.58,0.91,0.73,1.38
			l-0.51,0.11c0,0-3.31,0.18-7.53,2.18c-3.42,1.64-7.45,4.4-10.87,9.2c-1.45,2-2.76,4.33-3.93,7.09l-0.29,0.76
			C157.24,214.59,156.08,213.72,155.35,212.37z" class="st26"></path>
		<path d="M160.4,201.25c-1.53,1.27-3.74,3.38-4.87,5.78c0.11-0.44,0.29-0.8,0.47-1.2c1.78-3.82,4.33-6.76,6.87-8.94
			c1.93-0.25,3.34-0.18,3.34-0.18c-2.07,0.76-5.38,4.07-5.78,4.51C160.4,201.25,160.4,201.25,160.4,201.25z" class="st28"></path>
		<path d="M155.17,207.87c0.04-0.11,0.07-0.22,0.15-0.33C155.24,207.65,155.21,207.76,155.17,207.87z" class="st28"></path>
		<path d="M156.88,382.44c-2.58-7.49-19.81-14.76-29.48,5.96c0,0-1.49-16.43,14.65-19.52
			c11.89-2.54,17.12,7.16,19.41,14.69c2.29,7.53,6.33,12.69,12.36,13.6C167.38,397.17,159.42,389.97,156.88,382.44z" class="st4"></path>
		<path d="M190.65,385.35c-10.36-6.54-15.6,0-15.6,0c13.45-2.22,19.78,6.69,19.52,10.47
			C197.81,395.13,201.05,391.93,190.65,385.35z M142.04,368.88c-16.14,3.09-14.65,19.52-14.65,19.52
			c9.67-20.72,26.9-13.45,29.48-5.96c2.54,7.53,10.51,14.72,16.94,14.72c-6.04-0.91-10.07-6.07-12.36-13.6
			C159.17,376.05,153.93,366.34,142.04,368.88z M137.46,394.08c-11.31-4.73-14.29,0.65-14.29,0.65h-0.04
			c-7.56-32.43,32.65-39.88,39.7-18.03c1.93,5.96,4.11,10.07,6.22,12.87l0.25-0.18c0,0,0.47-2.44,2-5.02c1.89-3.27,5.45-6.8,11.78-6
			c2.11,0.25,4.54,1.02,7.31,2.4c3.34,1.67,5.82,3.31,7.6,4.84c7.74,6.73,2.87,12.03-0.29,12.91c0,0,0.04,0.04,0.11,0.07l-1.27,0.22
			c1.24,1.64,7.34,10.14,3.45,14.4c-3.67-3.64-11.63,0.65-8.4,7.13c-1.75,2.44-6.87,2.44-14.47-1.6c0.62,0.51,1.24,0.98,1.89,1.42
			c-3.85-2.36-7.49-4.91-9.96-6.69c0.18,0.07,0.33,0.18,0.47,0.25c-0.55-0.44-1.53-1.13-2.84-2c-0.18-0.15-0.4-0.29-0.62-0.47
			C159.39,406.62,145.75,397.5,137.46,394.08z" class="st11"></path>
		<path d="M151.39,424.91c0,0-41.05-18.29-29.23-26.1c4.87-3.24,14.22-1.02,23.45,2.73
			c-1.64-0.44-17.63-4.47-20.65,0.58c-2.65,4.44,31.85,20.9,34.68,22.25l-0.76,0.07L151.39,424.91z" class="st2"></path>
		<path d="M144.52,165.33c-17.67-9.78-29.38-6.29-29.38-6.29l-0.8-0.51c2.73-3.42,11.09-7.82,35.59,4.62
			c9.67,6.47,14.8,9.13,23.16,7.78c8.33-1.31,23.59-2.65,25.12,5.71c0.07,0.33,0.11,0.65,0.11,0.98
			c-5.38-8.18-18.76-2.14-29.05-1.93c-0.25,0-0.55,0-0.8,0C160,175.58,152.66,170.24,144.52,165.33z" class="st26"></path>
		<path d="M162.88,196.89c-2.51,0.33-5.85,1.13-8.11,3.16c-4.69-0.11-17.12-4.98-22.87-13.96
			c-3.45-5.02-20.72-4.33-27.27-8.36c-3.05-1.85-3.31-7.34,2.8-7.34l0.04-0.4c5.96,0.15,13.92,2.18,19.56,4.47
			c2.22,0.91,4.04,1.49,5.49,1.85c0.15,0.04,0.29,0.07,0.47,0.11c2.69,0.65,6.29,0.22,8.18-0.91c-5.45,2-11.92-3.71-24.94-8.4
			c-9.16-3.31-12.65-1.82-13.85-0.84c0.29-3.02,2.14-6.47,9.05-5.53c0.55,0.07,1.05,0.15,1.6,0.25c0,0,0.22-1.16,1.31-2.47l0.8,0.51
			c0,0,11.71-3.49,29.38,6.29c8.14,4.91,15.49,10.25,23.96,10.36l-0.25,5.38c3.78,1.09,7.56,1.85,11.12,2.33l-0.07,0.58v5.53v0.07
			c-2.51,0-5.31,0.95-7.56,1.93c0,0-0.11,0.04-0.33,0.15C170.29,192.05,166.58,193.65,162.88,196.89z" class="st26"></path>
		<path d="M132.52,176.31c-1.45-0.36-3.27-0.95-5.49-1.85c-5.64-2.29-13.6-4.33-19.56-4.47
			c-1.82-0.07-3.49,0.04-4.8,0.44c0,0-0.55-1.96-0.29-4.14c1.2-0.98,4.69-2.47,13.85,0.84c13.02,4.69,19.49,10.4,24.94,8.4
			c-1.89,1.13-5.49,1.56-8.18,0.91C132.81,176.38,132.66,176.34,132.52,176.31z" class="st28"></path>
		<path d="M154.77,200.05c2.25-2.04,5.6-2.84,8.11-3.16c-2.54,2.18-5.09,5.13-6.87,8.94l-0.25-0.11
			c0,0-15.78,0.55-27.38-14.54c-2.94-5.13-18.03-5.93-23.96-8.36c-5.93-2.44-8.07-7.82-4.04-11.31c0.58-0.51,1.35-0.87,2.29-1.09
			c1.31-0.4,2.98-0.51,4.8-0.44l-0.04,0.4c-6.11,0-5.85,5.49-2.8,7.34c6.54,4.04,23.81,3.34,27.27,8.36
			C137.65,195.07,150.08,199.94,154.77,200.05z" class="st28"></path>
	</g>
</g>
<circle r="2.95" cy="184.71" cx="327.76" class="st17"></circle>
<g>
	<path d="M226.1,171.79c4.11,1.61,8.3,2.9,12.5,4.12c4.21,1.19,8.46,2.26,12.73,3.22c2.13,0.48,4.27,0.96,6.42,1.37
		c2.14,0.48,4.3,0.82,6.45,1.26c2.15,0.41,4.32,0.75,6.48,1.16c2.17,0.38,4.34,0.71,6.51,1.15c-2.21-0.03-4.41-0.13-6.62-0.26
		c-2.2-0.2-4.4-0.35-6.59-0.65c-4.39-0.53-8.75-1.3-13.06-2.25c-4.31-1.01-8.58-2.16-12.76-3.65
		C234.01,175.77,229.88,174.08,226.1,171.79z" class="st29"></path>
</g>
<circle r="4.09" cy="188.63" cx="237.91" class="st17"></circle>
<circle r="1.62" cy="195.23" cx="247.26" class="st17"></circle>
<g>
	<path d="M316.65,200.28c3-0.2,5.96-0.71,8.87-1.35c2.9-0.66,5.74-1.5,8.49-2.51l0.91,3.52
		c-3.06,0.47-6.13,0.73-9.18,0.8C322.68,200.79,319.64,200.69,316.65,200.28z" class="st30"></path>
</g>
<g>
	<path d="M303.31,222.28c0.4-0.05,1.02-0.25,1.55-0.43c0.55-0.19,1.1-0.42,1.64-0.67c1.08-0.5,2.14-1.1,3.17-1.77
		c1.01-0.69,2.01-1.43,2.94-2.26c0.95-0.82,1.83-1.71,2.69-2.65c-0.62,1.1-1.27,2.21-2.02,3.25c-0.73,1.06-1.56,2.06-2.43,3.03
		c-0.9,0.95-1.86,1.87-2.9,2.7c-0.52,0.42-1.07,0.82-1.65,1.2c-0.6,0.38-1.12,0.72-1.92,1.07L303.31,222.28z" class="st18"></path>
</g>
<circle r="4.92" cy="243.11" cx="315.22" class="st19"></circle>
<circle r="2.25" cy="256.62" cx="309.57" class="st19"></circle>
<circle r="0.67" cy="232.65" cx="311.67" class="st19"></circle>
<circle r="4.12" cy="329.53" cx="226.66" class="st15"></circle>
<circle r="1.76" cy="327.39" cx="236.46" class="st15"></circle>
<g>
	<path d="M212.44,317.33c-0.3,0.25-0.49,0.36-0.7,0.49c-0.21,0.13-0.42,0.25-0.62,0.36c-0.41,0.23-0.83,0.44-1.25,0.64
		c-0.84,0.4-1.7,0.74-2.57,1.03c-1.73,0.57-3.64,0.91-5.37,0.52c0.87-0.1,1.68-0.4,2.43-0.78c0.75-0.38,1.45-0.84,2.1-1.36
		c0.66-0.51,1.28-1.07,1.86-1.66c0.29-0.29,0.57-0.59,0.84-0.9c0.13-0.15,0.26-0.3,0.38-0.46c0.11-0.14,0.25-0.32,0.25-0.38
		L212.44,317.33z" class="st19"></path>
</g>
<g>
	<path d="M226.1,312.68c1.9,1.69,4.09,2.88,6.36,3.78c2.28,0.87,4.67,1.38,7.09,1.6l1.82,0.14
		c0.61,0.01,1.22-0.03,1.84-0.02c1.23,0.07,2.45-0.18,3.69-0.21c1.23-0.14,2.46-0.35,3.7-0.5c1.23-0.24,2.46-0.49,3.73-0.67
		c-1.14,0.56-2.32,1.04-3.51,1.54c-1.22,0.36-2.45,0.77-3.71,1.04c-2.52,0.49-5.13,0.77-7.74,0.51c-2.59-0.27-5.18-0.91-7.51-2.12
		C229.56,316.55,227.44,314.88,226.1,312.68z" class="st16"></path>
</g>
<path d="M225.28,249.22c0,0-5.97-1.16-5.29,1.94" class="st31"></path>
<g>
	<path d="M232.04,231.39c0.6,1.09,0.84,2.33,0.82,3.61c-0.04,1.26-0.43,2.64-1.37,3.7c-0.93,1.05-2.3,1.69-3.59,1.74
		c-0.65,0.09-1.28-0.06-1.89-0.1c-0.6-0.17-1.19-0.35-1.75-0.59c0.61-0.15,1.2-0.22,1.76-0.3l0.83-0.2c0.27-0.07,0.54-0.1,0.79-0.21
		c1.04-0.29,1.86-0.84,2.49-1.53c0.63-0.71,1.04-1.65,1.32-2.7C231.74,233.75,231.9,232.61,232.04,231.39z" class="st30"></path>
</g>
<circle r="3.15" cy="202.24" cx="216.75" class="st19"></circle>
<circle r="1.4" cy="200.98" cx="225.28" class="st19"></circle>
<circle r="0.58" cy="205.44" cx="228.26" class="st19"></circle>
<circle r="3.28" cy="271.78" cx="330.46" class="st5"></circle>
<circle r="0.94" cy="268.15" cx="338.3" class="st5"></circle>
<g>
	<path d="M346.44,267.2c1.1-0.03,2.19,0.26,3.23,0.64c0.53,0.18,1.01,0.44,1.53,0.66c0.48,0.27,0.97,0.54,1.44,0.84
		c0.46,0.31,0.93,0.61,1.36,0.96l1.28,1.06c0.79,0.77,1.59,1.54,2.29,2.39c0.73,0.83,1.35,1.73,1.99,2.63
		c0.6,0.92,1.15,1.86,1.68,2.82c0.48,0.98,0.94,1.97,1.37,2.96c0.37,1.03,0.74,2.05,1.03,3.09c-0.66-0.88-1.24-1.78-1.82-2.68
		c-0.6-0.89-1.22-1.75-1.79-2.64c-1.26-1.71-2.45-3.44-3.84-5c-1.33-1.61-2.79-3.1-4.38-4.44c-0.81-0.65-1.63-1.3-2.52-1.85
		C348.4,268.07,347.46,267.57,346.44,267.2z" class="st1"></path>
</g>
<g>
	<path d="M338.55,276.61c1.99,0.04,3.95,0.54,5.82,1.27c1.87,0.73,3.62,1.78,5.2,3.06c1.58,1.28,2.91,2.89,3.88,4.67
		c1.04,1.75,1.5,3.78,1.68,5.74c-0.91-1.77-1.7-3.5-2.88-4.98c-1.13-1.49-2.37-2.88-3.84-4.04c-1.43-1.2-3-2.23-4.65-3.18
		C342.1,278.23,340.37,277.39,338.55,276.61z" class="st3"></path>
</g>
<circle r="2.02" cy="296.98" cx="363.32" class="st0"></circle>
<g>
	<path d="M381.93,334.16c0.31,0,0.83-0.16,1.24-0.35c0.43-0.2,0.85-0.46,1.24-0.78c0.38-0.33,0.75-0.69,1.06-1.11
		c0.32-0.41,0.6-0.87,0.86-1.34c-0.12,0.52-0.25,1.05-0.46,1.56c-0.2,0.52-0.47,1.01-0.78,1.49c-0.33,0.47-0.71,0.91-1.16,1.31
		c-0.48,0.39-0.91,0.73-1.64,0.99L381.93,334.16z" class="st1"></path>
</g>
<circle r="1.88" cy="306.96" cx="381.72" class="st0"></circle>
<circle r="0.68" cy="311.66" cx="384.89" class="st0"></circle>
<circle r="2.31" cy="339.32" cx="356.39" class="st1"></circle>
<circle r="0.75" cy="338.57" cx="351.41" class="st1"></circle>
<path d="M366.22,311.09c0,0,2.28,7.08,2.94,18.5C369.9,326.8,372.01,318.73,366.22,311.09z" class="st0"></path>
<path d="M374.82,307.78c0,0,5.79,10.62,6.41,16.63C381.67,321.11,382.94,312.41,374.82,307.78z" class="st0"></path>
<path d="M344.15,316.78c0,0,2.18,5.35,9.93,4.34c1.25-0.68-1.83-8.71-1.83-8.71s5.25,5.81,5.25,12.44
	C354.74,324.84,345.54,327.29,344.15,316.78z" class="st0"></path>
<path d="M282.67,89.05c0,0,5.57,4.64,12.68,4.34c-4,1.32-6.95,1.32-6.95,1.32s3.22,2.42,6.42,1.21
	c-0.84,3.03-12.15,69.87-12.15,69.87l4.92,0.44l14.98-77.18c0,0-10.5,2.8-19.04-3.15C282.87,88.04,282.67,89.05,282.67,89.05z" class="st26"></path>
<circle r="2.83" cy="111.75" cx="291.99" class="st26"></circle>
<circle r="1.06" cy="117.58" cx="286.96" class="st26"></circle>
<polygon points="285.9,91.11 274.43,165.38 269.65,163.55 282.67,89.05" class="st13"></polygon>
<circle r="2.34" cy="151.99" cx="276.77" class="st13"></circle>
<circle r="0.98" cy="145.38" cx="280.74" class="st13"></circle>
<ellipse ry="6.36" rx="2.36" cy="172.37" cx="324.81" class="st6" transform="matrix(0.3941 -0.9191 0.9191 0.3941 38.3891 402.9652)"></ellipse>
<g>
	<path d="M293.73,160.49c0.87-0.08,1.69,0.15,2.46,0.55c0.76,0.4,1.45,1.03,1.9,1.85c0.47,0.81,0.6,1.85,0.37,2.73
		c-0.19,0.89-0.73,1.62-1.39,2.15c-0.01-0.87,0.08-1.6-0.04-2.26c-0.07-0.66-0.24-1.22-0.54-1.75
		C295.92,162.67,294.89,161.71,293.73,160.49z" class="st6"></path>
</g>
<circle r="2.51" cy="212.63" cx="176.13" class="st5"></circle>
<circle r="1.07" cy="215.58" cx="182.8" class="st5"></circle>
<g>
	<path d="M189.88,224.86c1.08,0.71,2.01,1.54,2.91,2.39c0.89,0.86,1.72,1.77,2.51,2.72c0.79,0.95,1.53,1.94,2.21,2.97
		c0.68,1.04,1.32,2.11,1.81,3.3c-1.08-0.71-2.01-1.53-2.91-2.39c-0.89-0.86-1.72-1.77-2.51-2.72c-0.79-0.95-1.52-1.94-2.21-2.97
		C191.01,227.12,190.37,226.06,189.88,224.86z" class="st5"></path>
</g>
<g>
	<path d="M170.76,211.25c1.61,1.37,3.07,2.86,4.49,4.38c1.43,1.52,2.77,3.1,4.1,4.7c1.3,1.62,2.59,3.25,3.79,4.95
		c1.21,1.69,2.37,3.43,3.39,5.28c-1.61-1.37-3.07-2.85-4.49-4.38c-1.43-1.52-2.77-3.1-4.1-4.7c-1.3-1.62-2.58-3.25-3.79-4.95
		C172.94,214.83,171.78,213.1,170.76,211.25z" class="st3"></path>
</g>
<path d="M170.16,183.11l7.46,3v2.02c0,0-6.51,0.23-11.32,5.48C169.02,188.9,173.31,187.55,170.16,183.11z" class="st28"></path>
<path d="M117.05,157.42c0,0,11.58,4.68,15.75,6.7c4.17,2.02,7.65,3.37,10.29,2.96c-2.02,0.55-7.5,1.23-15.3-1.7
	c-7.8-2.93-13.65-3.97-13.65-3.97L117.05,157.42z" class="st28"></path>
<circle r="1.99" cy="161.8" cx="128.86" class="st28"></circle>
<circle r="0.63" cy="162.43" cx="135.18" class="st28"></circle>
<circle r="4.44" cy="196.24" cx="145.51" class="st28"></circle>
<circle r="1.5" cy="188.63" cx="143.09" class="st28"></circle>
<circle r="0.41" cy="197.78" cx="155.7" class="st28"></circle>
<g>
	<path d="M101.43,174.22c0.01,0.67,0.11,1.28,0.31,1.83c0.17,0.56,0.47,1.06,0.79,1.52c0.35,0.44,0.71,0.87,1.16,1.22
		c0.23,0.17,0.43,0.38,0.67,0.54l0.73,0.48c1,0.63,2.09,1.15,3.22,1.67c0.58,0.23,1.13,0.54,1.72,0.77
		c0.58,0.26,1.18,0.51,1.76,0.85c-1.32,0.1-2.64,0.02-3.93-0.28c-0.66-0.09-1.27-0.38-1.92-0.57c-0.62-0.26-1.23-0.57-1.82-0.91
		c-1.16-0.73-2.23-1.76-2.83-3.09C100.68,176.96,100.7,175.34,101.43,174.22z" class="st26"></path>
</g>
<g>
	<path d="M196.63,369.19c1.01,1.59,1.89,3.29,2.62,5.09c0.71,1.81,1.32,3.72,1.37,5.97l-3.6-0.47
		c0.48-1.46,0.57-3.28,0.46-5.09C197.36,372.87,197.07,371.02,196.63,369.19z" class="st5"></path>
</g>
<circle r="2.84" cy="348.41" cx="210.12" class="st5"></circle>
<circle r="0.73" cy="352.82" cx="203.93" class="st5"></circle>
<path d="M273.13,327.39c0,0-1.13,40.93,44.93,50.02c-0.11,2.83-0.82,4.01-0.82,4.01s-38.75-4.05-44.94-39.91
	C270.37,329.91,273.13,327.39,273.13,327.39z" class="st5"></path>
<circle r="1.91" cy="365.69" cx="291.6" class="st5"></circle>
<circle r="0.72" cy="367.6" cx="297.93" class="st5"></circle>
<circle r="1.74" cy="368.92" cx="310.84" class="st3"></circle>
<g>
	<path d="M283.11,350.48c-0.41,1.91-0.34,3.89,0.17,5.7c0.25,0.91,0.61,1.77,1.09,2.55c0.45,0.8,1.06,1.48,1.68,2.13
		l-1.37,1.2c-0.6-0.86-1.17-1.75-1.53-2.73c-0.4-0.96-0.64-1.97-0.76-2.98C282.15,354.33,282.41,352.31,283.11,350.48z" class="st5"></path>
</g>
<path d="M121.61,396.75c0,0-0.79-19.23,42.64,14.26C153.27,405.04,134.72,394.45,121.61,396.75z" class="st9"></path>
<path d="M201.92,406.56c0,0,5.9,10.74-2.84,14.9c-8.74,4.16-15.7-2.05-20.04-6.46
	C184.51,416.46,199.14,423.12,201.92,406.56z" class="st9"></path>
<path d="M172.14,385.26c0,0,3.38,9.6,9.59,10.3c-6.31-0.91-8.87-2.58-11.31-5.78
	C170.97,387.9,172.14,385.26,172.14,385.26z" class="st9"></path>
<path d="M131.59,403.4c-1.86,3.34,25.94,16.29,25.94,16.29l12-1.09C169.54,418.6,139.56,400.38,131.59,403.4z" class="st32"></path>
<path d="M324.57,381.02c0,0,5.71,9.18-1.53,14.03c-4.92-2.44-7.72-4.56-7.72-4.56S325.26,391.23,324.57,381.02z" class="st9"></path>
<path d="M319.62,364.82c0,0,5.47,11.86,0.52,20.44c-5.76-0.31-13.66-2.13-13.66-2.13l-1.05-4.48l11.83,2.77
	C317.25,381.41,320.62,378.83,319.62,364.82z" class="st9"></path>
<circle r="2.43" cy="411.53" cx="301.08" class="st9"></circle>
<circle r="0.83" cy="407.39" cx="306.49" class="st9"></circle>
<circle r="1.3" cy="390.75" cx="325.87" class="st11"></circle>
<g>
	<path d="M314.68,416.57c2.63-1.33,5.08-2.68,7.41-4.17c2.32-1.48,4.48-3.12,6.44-4.94c1.02-0.87,1.88-1.9,2.81-2.86
		c0.8-1.07,1.74-2.05,2.44-3.22c1.64-2.2,2.77-4.71,4.2-7.33c0.06,2.92-0.4,5.98-1.7,8.72c-0.3,0.7-0.59,1.4-1.02,2.03
		c-0.39,0.65-0.8,1.3-1.22,1.94l-1.45,1.77c-0.47,0.6-1.07,1.09-1.6,1.62c-2.23,2.07-4.84,3.7-7.61,4.81
		C320.6,416.03,317.65,416.71,314.68,416.57z" class="st9"></path>
</g>
<g>
	<path d="M134.46,389.84c0.52-0.76,1.49-1.1,2.38-1.3c0.92-0.19,1.85-0.16,2.78-0.12c0.91,0.11,1.83,0.24,2.7,0.48
		c0.9,0.19,1.75,0.49,2.59,0.8c3.37,1.27,6.5,3,9.39,5l2.16,1.51l2.06,1.63c0.68,0.56,1.36,1.1,2.03,1.67
		c0.65,0.58,1.29,1.18,1.93,1.78c2.57,2.38,4.92,4.98,7.04,7.8c-3.13-1.67-5.95-3.68-8.83-5.57c-0.71-0.49-1.41-0.98-2.11-1.48
		l-2.12-1.44l-2.09-1.48l-2.11-1.42c-2.79-1.94-5.62-3.77-8.52-5.41l-1.09-0.62c-0.37-0.2-0.74-0.35-1.11-0.54
		c-0.37-0.17-0.74-0.39-1.12-0.53l-1.15-0.45c-0.77-0.28-1.56-0.5-2.37-0.62C136.1,389.46,135.24,389.41,134.46,389.84z" class="st9"></path>
</g>
<ellipse ry="1.96" rx="2.49" cy="99.01" cx="331.34" class="st33"></ellipse>
<ellipse ry="1.05" rx="1.68" cy="127.8" cx="325.28" class="st33"></ellipse>
<line y2="136.72" x2="291.94" y1="135.91" x1="284.1" class="st13"></line>
<g>
	<path d="M202.28,156.47c0.34,0.57,0.83,1.23,1.31,1.83c0.49,0.61,1,1.21,1.55,1.78c1.09,1.15,2.29,2.22,3.61,3.19
		c-1.58-0.42-3.14-0.99-4.66-1.71c-0.76-0.36-1.51-0.75-2.25-1.18c-0.75-0.44-1.44-0.86-2.22-1.45L202.28,156.47z" class="st30"></path>
</g>
<g>
	<polygon points="321.03,193.16 322.85,187.04 324.67,193.16" class="st30"></polygon>
</g>
<g>
	<polygon points="291.92,208.57 294.25,203.65 295.54,208.93" class="st30"></polygon>
</g>
<g>
	<path d="M326.38,222.5c-1.39,0.43-2.63,0.68-3.94,0.93c-1.3,0.23-2.59,0.42-3.89,0.56c-2.59,0.27-5.18,0.36-7.74,0.29
		c2.51-0.53,4.96-1.22,7.34-2.06c1.19-0.42,2.35-0.89,3.49-1.39c1.12-0.5,2.29-1.06,3.25-1.63L326.38,222.5z" class="st30"></path>
</g>
<g>
	<path d="M305.66,279.87c-0.41,1.48-0.85,2.9-1.28,4.32c-0.42,1.42-0.88,2.82-1.27,4.23
		c-0.43,1.41-0.82,2.82-1.23,4.24c-0.42,1.42-0.79,2.86-1.31,4.32c-0.23-1.52-0.25-3.06-0.09-4.58c0.13-1.53,0.47-3.02,0.88-4.49
		c0.44-1.46,0.99-2.89,1.7-4.25C303.77,282.3,304.58,280.99,305.66,279.87z" class="st30"></path>
</g>
<g>
	<polygon points="208.45,328.54 214.02,320.35 211.78,330" class="st30"></polygon>
</g>
<g>
	<path d="M285.28,369.05c-0.04-0.12-0.07-0.25-0.1-0.37l-0.03-0.22c-0.02-0.15-0.03-0.28-0.04-0.41
		c-0.03-0.27-0.03-0.51-0.04-0.77c-0.01-0.5-0.01-1,0.01-1.49c0.05-0.98,0.14-1.95,0.32-2.91c0.34-1.9,0.99-3.76,2.02-5.3
		c-0.48,1.79-0.47,3.6-0.2,5.34c0.13,0.87,0.33,1.73,0.57,2.56c0.12,0.42,0.26,0.82,0.41,1.22c0.08,0.19,0.15,0.4,0.23,0.57
		c0.04,0.09,0.08,0.19,0.12,0.25l0.06,0.11c0.01-0.01,0.01-0.03,0.01-0.05L285.28,369.05z" class="st30"></path>
</g>
<g>
	<polygon points="313.37,370.66 319.64,369.93 319,373.51" class="st30"></polygon>
</g>
<g>
	<path d="M187.79,356.45c1.03-0.67,1.97-1.17,2.99-1.68c1-0.49,2.03-0.93,3.06-1.32c2.07-0.78,4.23-1.31,6.37-1.48
		c-2.01,0.76-3.84,1.83-5.51,3.08c-0.84,0.62-1.64,1.29-2.4,1.98c-0.75,0.69-1.52,1.45-2.12,2.15L187.79,356.45z" class="st30"></path>
</g>
<g>
	<path d="M141.59,181.46c0.77-0.97,1.38-1.57,1.91-2.19c0.27-0.3,0.52-0.61,0.79-0.96c0.3-0.35,0.53-0.76,0.93-1.27
		c0.73,1.02,0.49,2.51-0.36,3.43c-0.41,0.47-0.93,0.81-1.5,0.99C142.8,181.62,142.2,181.68,141.59,181.46z" class="st30"></path>
</g>
<g>
	<path d="M146.64,171.66c0.45-0.97,0.59-1.49,0.82-2.03c0.1-0.28,0.22-0.55,0.37-0.89c0.16-0.34,0.32-0.71,0.63-1.18
		c0.44,0.33,0.68,0.77,0.8,1.25c0.11,0.48,0.07,1-0.11,1.49c-0.2,0.48-0.55,0.91-1,1.18C147.7,171.74,147.16,171.86,146.64,171.66z" class="st30"></path>
</g>
<g>
	<path d="M184.62,179.08c0.46,0.06,0.95-0.04,1.41-0.07l1.38-0.13c0.91-0.08,1.79-0.16,2.66-0.27
		c0.87-0.11,1.72-0.24,2.56-0.44c0.85-0.19,1.67-0.47,2.59-0.89c-0.37,0.95-1.17,1.71-2.05,2.21c-0.9,0.51-1.89,0.8-2.88,0.92
		c-1,0.12-1.99,0.08-2.96-0.11c-0.48-0.09-0.96-0.24-1.43-0.42C185.46,179.67,184.95,179.51,184.62,179.08z" class="st30"></path>
</g>
<path d="M288.69,152.63c31.58,6.11,54.82,14.65,53.92,20.28c-1.02,6.37-32.59,6.6-70.51,0.51s-67.82-16.19-66.8-22.56
	c0.98-6.08,29.75-6.56,65.31-1.31" class="st34"></path>
<path d="M287.2,160.98c3.09,1,4.98,2.06,4.85,2.88c-0.24,1.49-7.13,1.63-15.38,0.3c-8.26-1.33-14.75-3.61-14.51-5.1
	c0.15-0.95,2.97-1.35,7.11-1.18" class="st34"></path>
<ellipse ry="9.97" rx="2.66" cy="84.96" cx="292.44" class="st34" transform="matrix(0.1586 -0.9873 0.9873 0.1586 162.1828 360.224)"></ellipse>
<path d="M205.3,150.86l-6.04,12.85c0,0,14.45,13.98,64.28,23.08c49.83,9.09,70.28,4.25,79.52,2.94
	c-0.69-6.95-0.46-16.82-0.46-16.82" class="st34"></path>
<path d="M206.43,168.6l-1.4,12c0,0,8.02,15.57,58.02,23.72c50,8.15,68.89,0.84,71.16-0.01
	c0.24-3.52,0.75-13.37,0.75-13.37" class="st34"></path>
<g>
	<path d="M283.6,338.06l12.08-2.6l-1.4,1.36c2.66-11.04,5.44-21.98,8.2-32.96l8.33-32.89l8.42-32.87l8.53-32.84
		c0.25-0.97,1.24-1.56,2.22-1.3c0.97,0.25,1.55,1.24,1.31,2.21l-16.72,65.76l-8.42,32.86c-2.8,10.95-5.63,21.92-8.32,32.86
		l-0.01,0.03c-0.17,0.7-0.73,1.2-1.4,1.34c-4.08,0.82-8.26,1.53-12.49,1.68c-0.74,0.03-1.36-0.55-1.38-1.29
		C282.53,338.76,282.98,338.2,283.6,338.06z" class="st30"></path>
</g>
<g>
	<path d="M200.82,295.03l-0.88,25.7l-0.61-1.52l0,0c1.08,0.91,2.38,1.85,3.64,2.71c1.28,0.87,2.6,1.7,3.94,2.48
		c2.68,1.58,5.45,3.02,8.3,4.31c5.68,2.6,11.62,4.63,17.68,6.21c6.07,1.53,12.26,2.63,18.51,3.2c6.24,0.59,12.53,0.74,18.81,0.46
		c1-0.05,1.85,0.73,1.9,1.73s-0.73,1.85-1.74,1.9c-6.43,0.28-12.89,0.13-19.32-0.48c-6.42-0.59-12.8-1.71-19.07-3.3
		c-6.25-1.63-12.4-3.72-18.29-6.42c-2.95-1.34-5.83-2.84-8.63-4.48c-1.4-0.82-2.78-1.69-4.13-2.61c-1.36-0.93-2.65-1.85-4-2.99l0,0
		l-0.1-0.1c-0.4-0.38-0.57-0.91-0.51-1.42l3.42-25.49c0.04-0.3,0.31-0.51,0.61-0.47C200.63,294.51,200.83,294.75,200.82,295.03z" class="st30"></path>
</g>
<g>
	<path d="M211.24,185.48L204.37,258c-0.06,0.58-0.57,1.01-1.16,0.96c-0.58-0.05-1-0.56-0.96-1.14l5.37-72.65
		c0.07-1,0.95-1.75,1.95-1.68s1.75,0.95,1.68,1.95C211.25,185.45,211.25,185.47,211.24,185.48z" class="st30"></path>
</g>
<line y2="162.38" x2="268.47" y1="83.38" x1="282.59" class="st34"></line>
<line y2="165.07" x2="286.4" y1="87.5" x1="302.25" class="st34"></line>
<path d="M314.87,262.94c0,0,43.41-18.67,53.11,28.19" class="st34"></path>
<path d="M310.58,279.74c0,0,36.93-12.85,42.32,14.62" class="st34"></path>
<path d="M375.79,298.94c0,0-3.23-11.31-15.35-7.81c-13.58,3.92-13,10.5-12.93,13.73" class="st34"></path>
<path d="M355.32,323.44c0,0-13.52,2.69-13.9-7.81c-0.38-10.5,13.63-14.81,22.24-16.7c8.62-1.89,30.43,0.27,29.35,22.35
	s-22.08,21.82-29.62,19.26" class="st34"></path>
<g>
	<path d="M351.06,311.25c1.65,1.41,2.97,3.19,4.04,5.09c1.08,1.91,1.84,4.01,2.27,6.19c0.44,2.18,0.37,4.48-0.12,6.64
		c-0.15,0.54-0.27,1.08-0.44,1.6l-0.68,1.51c-0.12,0.25-0.22,0.5-0.37,0.73l-0.46,0.68c-0.31,0.45-0.62,0.89-0.95,1.32
		c0.16-0.52,0.32-1.04,0.49-1.54l0.26-0.74c0.08-0.25,0.12-0.51,0.18-0.77l0.36-1.51l0.19-1.53c0.09-0.5,0.08-1.02,0.1-1.53
		c-0.01-0.51,0.07-1.01-0.01-1.52l-0.1-1.52l-0.25-1.51c-0.36-2.01-0.99-3.97-1.76-5.9C353.04,315.03,352.12,313.13,351.06,311.25z" class="st30"></path>
</g>
<g>
	<path d="M348.58,324.64c-0.57,0.47-1.24,1.18-1.76,1.86c-0.54,0.7-0.99,1.44-1.34,2.21c-0.7,1.54-0.92,3.18-0.56,4.76
		c0.35,1.58,1.21,3.12,2.43,4.46c0.58,0.67,1.24,1.25,1.92,1.77c0.7,0.5,1.45,0.9,2.23,1.21c3.14,1.19,6.69,0.61,9.58-1.28
		c1.43-0.96,2.77-2.17,3.88-3.64c1.13-1.46,2.04-3.16,2.9-5.05c0.03-0.07,0.11-0.1,0.18-0.07c0.05,0.02,0.08,0.06,0.08,0.11
		c0.61,4.16-1.25,8.8-4.87,11.63c-1.79,1.42-3.97,2.44-6.31,2.76c-2.33,0.37-4.77-0.03-6.91-0.96c-1.07-0.48-2.05-1.1-2.97-1.78
		c-0.89-0.72-1.72-1.5-2.43-2.36c-1.41-1.68-2.67-3.69-3.18-6.05c-0.54-2.35-0.17-4.88,0.8-6.98c0.48-1.06,1.08-2.03,1.77-2.92
		c0.71-0.9,1.41-1.67,2.38-2.48c0.75-0.63,1.87-0.52,2.5,0.23c0.63,0.75,0.52,1.87-0.23,2.5l0,0L348.58,324.64z" class="st30"></path>
</g>
<g>
	<path d="M365.04,309.93c1.42,0.99,2.49,2.41,3.3,3.95c0.81,1.54,1.32,3.25,1.56,4.99c0.16,1.74,0.17,3.51-0.22,5.2
		c-0.12,0.86-0.46,1.67-0.71,2.48c-0.32,0.8-0.71,1.57-1.12,2.31c0.04-0.87,0.18-1.69,0.26-2.51l0.09-1.23
		c0.04-0.41,0.08-0.81,0.07-1.22c0-0.41,0.02-0.81,0.04-1.21c0-0.4-0.03-0.8-0.04-1.2c0.02-0.8-0.1-1.59-0.18-2.38
		c-0.18-1.58-0.57-3.13-1.06-4.66C366.52,312.9,365.88,311.41,365.04,309.93z" class="st30"></path>
</g>
<g>
	<path d="M373.63,306.61c1.52,0.59,2.86,1.6,4,2.79c1.15,1.19,2.04,2.64,2.67,4.19c0.16,0.39,0.3,0.78,0.39,1.19
		c0.1,0.41,0.24,0.8,0.3,1.22c0.1,0.83,0.24,1.66,0.17,2.49c0,1.66-0.45,3.28-1.12,4.74c-0.08-0.82-0.01-1.6-0.07-2.38
		c-0.07-0.78-0.08-1.54-0.22-2.28c-0.19-1.5-0.58-2.94-1.14-4.31c-0.52-1.39-1.24-2.71-2.08-3.97
		C375.67,309.02,374.71,307.81,373.63,306.61z" class="st30"></path>
</g>
<line y2="206.57" x2="163.85" y1="253.2" x1="203.03" class="st34"></line>
<line y2="230.27" x2="205.01" y1="197.68" x1="174.62" class="st34"></line>
<g>
	<path d="M179.2,195.64c-2.11,0.8-3.93,1.73-5.66,2.76c-1.73,1.03-3.32,2.19-4.85,3.44c-1.51,1.29-2.96,2.66-4.39,4.14
		c-0.74,0.72-1.39,1.53-2.18,2.27c-0.73,0.78-1.43,1.6-2.3,2.36c0.15-1.12,0.45-2.2,0.78-3.28c0.42-1.03,0.83-2.09,1.41-3.06
		c0.58-0.97,1.19-1.93,1.95-2.79c0.38-0.43,0.72-0.89,1.15-1.27l1.27-1.17c1.79-1.45,3.84-2.61,6.06-3.26
		C174.62,195.15,177.01,194.93,179.2,195.64z" class="st30"></path>
</g>
<g>
	<path d="M179.68,201.7c1.63-1.53,3.2-3.61,3.69-5.56c0.24-0.98,0.23-1.92-0.08-2.84c-0.16-0.46-0.41-0.93-0.65-1.3
		c-0.27-0.36-0.58-0.66-0.96-0.91c-1.54-1-4.19-0.86-6.62-0.31c-2.47,0.57-4.99,1.45-7.43,2.5l-0.02,0.01
		c-0.2,0.08-0.42-0.01-0.51-0.2c-0.07-0.16-0.02-0.35,0.11-0.46c2.14-1.72,4.48-3.17,7.11-4.21c1.31-0.52,2.71-0.91,4.22-1.08
		c1.5-0.13,3.19-0.04,4.79,0.78c0.79,0.42,1.5,1,2.08,1.68c0.56,0.7,0.98,1.4,1.3,2.19c0.66,1.58,0.78,3.43,0.39,5.04
		c-0.37,1.63-1.13,3.05-2.01,4.28c-0.45,0.61-0.94,1.18-1.45,1.72c-0.53,0.55-1.03,1.01-1.7,1.53c-0.8,0.61-1.94,0.46-2.55-0.34
		c-0.57-0.75-0.47-1.79,0.2-2.42L179.68,201.7z" class="st30"></path>
</g>
<g>
	<path d="M161.9,199.28c-1.49,2.14-2.97,4.07-4.09,6.02c-0.55,0.97-1.01,1.94-1.19,2.84c-0.17,0.92-0.06,1.67,0.3,2.36
		c0.72,1.45,2.34,2.2,4.35,2.29c1.96,0.09,4.22-0.46,5.7-1.43l0.12-0.08c0.84-0.55,1.96-0.32,2.52,0.51
		c0.5,0.75,0.36,1.74-0.28,2.34c-1.19,1.1-2.53,1.75-3.91,2.2c-1.38,0.44-2.82,0.65-4.31,0.6c-1.48-0.04-3.02-0.39-4.46-1.17
		c-1.45-0.77-2.66-2.12-3.3-3.65c-0.72-1.57-0.66-3.43-0.19-4.89c0.47-1.48,1.24-2.71,2.15-3.74
		C157.14,201.45,159.37,200.01,161.9,199.28z" class="st30"></path>
</g>
<g>
	<path d="M155.73,206.77c-1.58,0.03-2.91-0.1-4.34-0.27c-1.4-0.2-2.78-0.48-4.14-0.85c-2.71-0.74-5.37-1.74-7.85-3.08
		c-2.47-1.34-4.88-2.87-6.98-4.75c-1.11-0.88-2.06-1.92-3.06-2.91c-0.98-1.01-1.83-2.13-2.75-3.19c-0.04-0.05-0.08-0.1-0.11-0.15
		l-0.04-0.08c-0.41-0.71-1.58-1.55-2.93-2.13c-1.34-0.61-2.85-1.09-4.39-1.51c-3.09-0.84-6.34-1.44-9.62-2.19
		c-1.65-0.38-3.31-0.76-5.04-1.37c-1.76-0.64-3.48-1.54-4.97-2.86c-0.38-0.32-0.71-0.71-1.06-1.07c-0.31-0.41-0.65-0.79-0.91-1.26
		c-0.57-0.88-0.97-1.93-1.14-3.04c-0.41-2.26,0.58-4.73,2.1-6.15l0.57-0.54c0.23-0.17,0.48-0.34,0.73-0.5
		c0.5-0.36,0.99-0.51,1.48-0.71c0.98-0.35,1.93-0.53,2.85-0.61c1.84-0.18,3.62-0.13,5.34,0.05c1.73,0.15,3.42,0.46,5.1,0.82
		c1.67,0.37,3.32,0.76,4.94,1.29c1.62,0.51,3.23,1.05,4.8,1.69c1.57,0.64,3.13,1.37,4.59,2.06c1.49,0.67,3,1.28,4.56,1.78
		c1.55,0.43,3.17,0.93,4.82,0.66c-0.76,0.38-1.64,0.49-2.48,0.53c-0.86,0.04-1.71-0.02-2.56-0.11c-1.7-0.2-3.36-0.59-5-1.06
		c-1.66-0.49-3.16-1.04-4.75-1.46c-1.57-0.44-3.15-0.87-4.74-1.21c-3.18-0.71-6.39-1.3-9.56-1.52c-1.58-0.13-3.16-0.12-4.61,0.07
		c-0.36,0.06-0.74,0.08-1.05,0.19c-0.32,0.1-0.69,0.14-0.94,0.29c-0.27,0.12-0.59,0.22-0.75,0.38c-0.1,0.07-0.2,0.13-0.31,0.2
		l-0.32,0.33c-0.24,0.21-0.36,0.46-0.55,0.69c-0.11,0.25-0.27,0.48-0.33,0.73c-0.16,0.49-0.21,0.99-0.1,1.52
		c0.1,0.52,0.3,1.06,0.65,1.57c0.14,0.27,0.38,0.5,0.56,0.75c0.24,0.23,0.44,0.48,0.71,0.69c1.02,0.87,2.29,1.54,3.66,2.01
		c1.41,0.47,3.01,0.82,4.6,1.16c3.21,0.67,6.51,1.26,9.85,2.15c1.67,0.45,3.35,0.96,5.04,1.72c0.84,0.38,1.7,0.82,2.54,1.42
		c0.83,0.6,1.68,1.36,2.32,2.45l-0.15-0.23c0.83,0.96,1.59,1.98,2.46,2.89c0.9,0.89,1.74,1.84,2.72,2.62
		c1.87,1.69,3.97,3.1,6.16,4.35c2.19,1.25,4.55,2.19,6.97,2.91c1.21,0.36,2.44,0.62,3.68,0.87c1.21,0.21,2.54,0.37,3.63,0.39l0.12,0
		c1,0.02,1.8,0.85,1.78,1.85C157.48,205.96,156.69,206.74,155.73,206.77z" class="st30"></path>
</g>
<g>
	<path d="M100.82,170.13c-0.31-1.15-0.47-2.12-0.51-3.24c-0.06-1.08,0.08-2.22,0.37-3.37
		c0.33-1.15,0.91-2.32,1.81-3.27c0.44-0.47,1-0.84,1.52-1.2c0.56-0.26,1.13-0.58,1.7-0.74c2.32-0.75,4.5-0.45,6.48-0.19
		c1.95,0.29,3.84,0.78,5.7,1.31c1.86,0.53,3.67,1.16,5.45,1.84c1.78,0.68,3.54,1.34,5.26,2.07c0.87,0.35,1.72,0.7,2.57,1.07
		c0.85,0.33,1.7,0.7,2.55,1.01c1.71,0.62,3.41,1.2,5.35,1.15c-1.72,0.97-3.87,0.97-5.79,0.77c-1.95-0.22-3.83-0.67-5.65-1.21
		c-3.63-1.08-7.15-2.25-10.7-3.1c-1.77-0.43-3.55-0.76-5.32-1.02c-0.45-0.09-0.87-0.1-1.27-0.13c-0.41-0.01-0.83-0.08-1.22-0.06
		c-0.38,0.03-0.77,0.06-1.15,0.08c-0.37,0.05-0.68,0.16-1.03,0.23c-1.31,0.39-2.02,1.2-2.49,2.49c-0.42,1.29-0.37,3.08-0.11,4.54
		l0.03,0.17c0.17,0.99-0.49,1.93-1.47,2.1C101.95,171.61,101.06,171.02,100.82,170.13z" class="st30"></path>
</g>
<g>
	<path d="M111.17,159.89c0.1-0.44,0.18-0.63,0.28-0.92c0.1-0.26,0.21-0.51,0.34-0.75c0.25-0.48,0.52-0.94,0.85-1.35
		c0.64-0.85,1.41-1.57,2.25-2.16c1.68-1.2,3.61-1.81,5.48-2.14c1.88-0.32,3.74-0.33,5.55-0.18c1.81,0.15,3.59,0.42,5.31,0.83
		c3.47,0.77,6.79,1.91,10.02,3.21c3.23,1.3,6.36,2.78,9.45,4.33c0.06,0.03,0.11,0.06,0.17,0.1l0.02,0.01
		c6.02,3.94,12.09,8.18,18.8,7.8c0.84-0.03,1.68-0.1,2.52-0.22l2.71-0.39c1.84-0.25,3.7-0.44,5.57-0.56
		c3.74-0.21,7.55-0.23,11.44,0.74c1.92,0.51,3.95,1.29,5.63,2.91c0.83,0.8,1.52,1.81,1.93,2.91c0.41,1.1,0.64,2.22,0.54,3.48
		c-0.09,1.25-0.63,2.56-1.44,3.51c-0.81,0.96-1.79,1.61-2.76,2.1c-1.96,0.94-3.93,1.34-5.86,1.56c-3.87,0.4-7.64,0.03-11.31-0.65
		c-3.66-0.74-7.22-1.89-10.49-3.74c3.75,0.13,7.32,0.53,10.89,0.77c3.55,0.27,7.11,0.36,10.49-0.03c1.68-0.21,3.33-0.55,4.67-1.19
		c0.66-0.32,1.22-0.72,1.58-1.15c0.37-0.44,0.56-0.89,0.61-1.46c0.06-0.56-0.07-1.27-0.3-1.87c-0.23-0.6-0.59-1.13-1.07-1.6
		c-0.96-0.94-2.43-1.59-4.01-1.99c-3.2-0.8-6.78-0.83-10.29-0.61c-1.77,0.11-3.54,0.3-5.31,0.54l-2.7,0.39
		c-0.96,0.14-1.93,0.22-2.92,0.26c-1.97,0.07-3.99-0.13-5.92-0.61c-1.93-0.47-3.76-1.2-5.48-2.03c-3.43-1.7-6.52-3.74-9.58-5.75
		l0.19,0.11c-6.01-3-12.21-5.73-18.6-7.21c-3.17-0.72-6.44-1.13-9.44-0.65c-1.47,0.26-2.88,0.72-3.99,1.51
		c-0.56,0.39-1.04,0.84-1.44,1.36c-0.2,0.25-0.37,0.53-0.51,0.81c-0.07,0.14-0.13,0.28-0.19,0.42l-0.1,0.3l-0.1,0.28
		c-0.33,0.94-1.35,1.44-2.3,1.12C111.46,161.68,110.97,160.77,111.17,159.89z" class="st30"></path>
</g>
<line y2="188.73" x2="179.2" y1="183.22" x1="179.2" class="st34"></line>
<path d="M256.09,213.57c0,0-5.39,14-12.39,13.73c5.39,4.04,8.89,14,7.54,19.66c1.62-3.5,3.27-13.2,14.08-15.62
	C258.24,225.97,256.63,221.65,256.09,213.57z" class="st34"></path>
<path d="M220.37,207.11c0,0-5.39,14-12.39,13.73c5.39,4.04,8.89,14,7.54,19.66c1.62-3.5,3.27-13.2,14.08-15.62
	C222.52,219.51,220.9,215.18,220.37,207.11z" class="st34"></path>
<g>
	<path d="M238.95,232.12c0.05,1.45,0,2.76-0.17,4.15c-0.17,1.37-0.43,2.75-0.87,4.13c-0.44,1.38-1.08,2.79-2.16,4.07
		c-1.05,1.27-2.77,2.37-4.56,2.56c-0.88,0.14-1.77,0.06-2.53-0.05l-1.91-0.31c-1.27-0.2-2.5-0.41-3.72-0.57
		c-1.2-0.14-2.39-0.24-3.46-0.18c-1.07,0.06-1.93,0.29-2.41,0.73c-0.5,0.41-0.87,1.19-1.03,2.24c-0.05,0.25-0.05,0.54-0.07,0.81
		c-0.03,0.28-0.05,0.56-0.03,0.75c0,0.44,0.08,0.87,0.25,1.28c0.64,1.7,2.6,3.14,4.75,3.99c2.18,0.86,4.62,1.25,7.06,1.16
		c2.43-0.12,4.89-0.76,7-2.21c0.06-0.04,0.15-0.03,0.19,0.03c0.04,0.05,0.03,0.12-0.01,0.17c-1.73,2-4.31,3.25-6.96,3.79
		c-2.67,0.54-5.47,0.47-8.18-0.27c-1.35-0.39-2.68-0.95-3.93-1.76c-1.22-0.84-2.39-1.97-3.11-3.5c-0.37-0.75-0.6-1.59-0.67-2.43
		c-0.05-0.45-0.04-0.81-0.02-1.17c0.02-0.37,0.01-0.73,0.06-1.11c0.15-1.48,0.68-3.29,2.1-4.63c0.33-0.34,0.74-0.57,1.13-0.84
		c0.39-0.23,0.8-0.38,1.21-0.56c0.4-0.13,0.8-0.22,1.2-0.32c0.39-0.07,0.77-0.1,1.15-0.15c1.5-0.12,2.89-0.02,4.24,0.11
		c1.33,0.15,2.64,0.33,3.91,0.54l1.9,0.3c0.51,0.06,0.92,0.1,1.31,0.03c0.78-0.1,1.4-0.45,2.01-1.12c0.6-0.67,1.09-1.63,1.48-2.67
		c0.78-2.09,1.11-4.61,1.25-6.92l0.01-0.1c0.06-0.99,0.91-1.74,1.9-1.69C238.19,230.45,238.91,231.21,238.95,232.12z" class="st30"></path>
</g>
<g>
	<path d="M254.66,269.17c-3.6-0.59-7.24-0.68-10.72-0.14c-3.47,0.52-6.78,1.8-9.38,3.9c-2.58,2.13-4.5,4.95-5.64,8.16
		c-1.17,3.17-1.82,6.67-1.98,10.09c-0.22,3.41,0.29,6.8,1.74,9.68c1.41,2.93,3.99,5.15,7,6.72c3.06,1.51,6.51,2.42,10.04,2.91
		c3.54,0.51,7.16,0.64,10.81,0.51c-3.55,0.93-7.23,1.3-10.95,1.27c-3.71-0.08-7.49-0.63-11.08-2.11c-3.58-1.44-6.9-4.11-8.86-7.68
		c-0.28-0.42-0.45-0.9-0.66-1.36c-0.21-0.46-0.41-0.92-0.55-1.4l-0.45-1.43l-0.3-1.46c-0.23-0.97-0.24-1.95-0.37-2.92
		c-0.01-0.97-0.06-1.94-0.01-2.91c0.13-1.93,0.37-3.8,0.76-5.67c0.2-0.93,0.4-1.87,0.7-2.79c0.25-0.93,0.59-1.84,0.96-2.73
		c1.48-3.56,3.86-6.94,7.15-9.16c3.24-2.28,7.15-3.27,10.89-3.4C247.54,267.19,251.26,267.8,254.66,269.17z" class="st30"></path>
</g>
<g>
	<path d="M190.43,282.12c0.49,1.91,1.3,3.77,2.49,5.48c1.23,1.67,2.75,3.18,4.44,4.52c1.71,1.32,3.6,2.45,5.57,3.43
		c1.98,0.97,4.04,1.83,6.18,2.45c-2.21-0.33-4.39-0.9-6.52-1.61c-2.13-0.73-4.23-1.62-6.23-2.76c-1.98-1.16-3.86-2.57-5.53-4.29
		c-1.63-1.75-2.94-3.85-3.87-6.17c-0.37-0.94,0.08-2,1.01-2.37s2,0.08,2.37,1.01c0.03,0.07,0.05,0.14,0.07,0.21L190.43,282.12z" class="st30"></path>
</g>
<g>
	<path d="M212.13,258.53c-2.26-0.23-4.54-0.1-6.75,0.27c-2.2,0.38-4.33,1.07-6.25,2.07c-1.94,0.98-3.58,2.39-4.88,4.02
		c-1.38,1.58-2.18,3.55-2.91,5.48l-0.06,0.16c-0.36,0.94-1.41,1.42-2.35,1.06c-0.94-0.36-1.42-1.41-1.06-2.35
		c0.03-0.07,0.06-0.14,0.09-0.21c1.16-2.18,2.43-4.34,4.3-5.99c1.78-1.7,3.88-3.03,6.14-3.82c2.24-0.82,4.58-1.23,6.89-1.32
		C207.6,257.82,209.91,258,212.13,258.53z" class="st30"></path>
</g>
<path d="M208.24,287.97c0.53,4.58,2.92,8.52,8.05,9.52c7.8,1.62,9.02-8.58,9.02-8.58" class="st34"></path>
<path d="M228.1,278.7c0,0-2.13-8.65-10.81-8.38c-2.67,0.08-5.11,2.43-6.8,5.73" class="st34"></path>
<path d="M219,278.27c1.81,0.34,2.78,3.22,2.17,6.42c-0.61,3.2-2.57,5.52-4.37,5.18" class="st34"></path>
<path d="M212.83,329.45c0,0-23.87,14.29-29.8,47.68" class="st34"></path>
<path d="M229.58,335.74c0,0-25.4,16.28-31.45,48.87" class="st34"></path>
<g>
	<path d="M167.45,388.27c0.29-1.31,0.67-2.36,1.14-3.49c0.48-1.1,1.05-2.17,1.75-3.18c1.37-2.02,3.31-3.82,5.68-4.87
		c2.38-1.04,5.01-1.24,7.42-0.9c2.42,0.35,4.67,1.14,6.77,2.11c1.07,0.47,2.03,1.05,3.04,1.58c1.01,0.51,1.96,1.16,2.93,1.78
		l0.72,0.47l0.7,0.54l1.39,1.08c0.45,0.39,0.87,0.83,1.3,1.24c0.45,0.39,0.84,0.88,1.22,1.38l0.58,0.74
		c0.18,0.26,0.33,0.56,0.5,0.83l0.48,0.85c0.14,0.3,0.24,0.64,0.35,0.96c0.49,1.26,0.58,2.78,0.29,4.2
		c-0.28,1.45-1.08,2.7-2.01,3.71c-0.97,1.01-2.09,1.8-3.58,2.24l0,0l0.58-3.23c2.18,1.51,4.02,3.17,5.76,5.1
		c1.7,1.93,3.25,4.1,4.27,6.65c0.51,1.27,0.88,2.64,1.01,4.08c0.13,1.43,0,2.92-0.4,4.33c-0.4,1.4-1.08,2.72-1.88,3.82
		c-0.42,0.54-0.81,1.09-1.25,1.6l-1.47,1.44c-0.54,0.43-1.11,0.83-1.67,1.23c-0.58,0.38-1.22,0.66-1.83,0.98
		c-0.62,0.3-1.3,0.46-1.95,0.68c-0.65,0.22-1.33,0.27-2,0.4c-2.68,0.37-5.33-0.04-7.77-0.76c-4.89-1.51-9.07-4.41-12.48-7.88
		c4.17,2.5,8.54,4.61,13.09,5.39c2.25,0.42,4.52,0.45,6.62,0.03c2.1-0.44,3.98-1.43,5.49-2.85l1.06-1.16
		c0.32-0.42,0.6-0.88,0.91-1.31c0.59-0.87,1-1.75,1.24-2.69c0.46-1.86,0.21-3.85-0.58-5.8c-1.6-3.89-4.91-7.46-8.3-10.34l-0.02-0.01
		c-0.79-0.67-0.89-1.86-0.21-2.66c0.22-0.26,0.51-0.45,0.81-0.56l0,0c0.63-0.17,1.38-0.66,1.91-1.24c0.53-0.59,0.97-1.26,1.09-1.98
		c0.33-1.42-0.33-3.08-1.51-4.55c-0.29-0.37-0.57-0.75-0.96-1.08c-0.36-0.34-0.7-0.7-1.07-1.03l-1.21-0.94l-0.6-0.47l-0.66-0.42
		c-0.88-0.56-1.73-1.15-2.68-1.63c-0.93-0.49-1.85-1.05-2.79-1.45c-1.87-0.87-3.8-1.53-5.73-1.81c-1.92-0.26-3.81-0.09-5.47,0.63
		c-1.65,0.73-3.06,2-4.15,3.6c-0.54,0.79-1.02,1.66-1.41,2.57c-0.38,0.89-0.73,1.91-0.91,2.74l-0.02,0.08
		c-0.21,0.98-1.18,1.6-2.16,1.39C167.85,390.22,167.23,389.25,167.45,388.27L167.45,388.27z" class="st30"></path>
</g>
<g>
	<path d="M180.54,394.39c-1.84,1.12-4.31,1.04-6.43,0.32c-2.14-0.75-4-2.13-5.5-3.72c-1.51-1.6-2.71-3.42-3.75-5.28
		c-1.04-1.86-1.92-3.79-2.7-5.74c-0.39-0.97-0.75-1.96-1.1-2.95l-0.49-1.34c-0.19-0.41-0.35-0.84-0.57-1.24
		c-0.81-1.62-1.9-3.07-3.2-4.29c-2.6-2.45-6.1-3.93-9.74-4.33c-3.64-0.41-7.43,0.13-10.81,1.58c-3.38,1.45-6.36,3.77-8.44,6.77
		c-2.09,2.99-3.29,6.58-3.58,10.33c-0.31,3.75,0.25,7.62,1.23,11.4l0,0.02c0.25,0.97-0.33,1.96-1.3,2.22
		c-0.94,0.24-1.89-0.29-2.19-1.2c-1.3-4.02-2.08-8.32-1.83-12.7c0.23-4.35,1.48-8.83,4.07-12.54c2.54-3.72,6.19-6.65,10.3-8.37
		c4.11-1.73,8.65-2.41,13.09-1.83c4.42,0.56,8.8,2.45,12.08,5.66c1.65,1.58,2.97,3.5,3.92,5.55c0.25,0.51,0.44,1.04,0.66,1.56
		l0.51,1.54c0.3,0.94,0.61,1.88,0.95,2.8c1.34,3.7,3.09,7.23,5.42,10.18c1.15,1.48,2.44,2.81,3.97,3.84
		C176.64,393.66,178.44,394.4,180.54,394.39z" class="st30"></path>
</g>
<g>
	<path d="M171.64,414.35c-3.9-1.43-7.59-3.12-11.25-4.86c-3.64-1.76-7.25-3.58-10.95-5.16
		c-3.69-1.61-7.44-3.01-11.23-4.15c-3.77-1.08-7.71-1.94-11.26-1.58c-1.75,0.17-3.35,0.74-4.36,1.65c-0.46,0.46-0.58,0.78-0.6,1.2
		c0,0.45,0.23,1.12,0.66,1.8c0.86,1.39,2.24,2.75,3.69,3.99c1.46,1.25,3.06,2.41,4.7,3.52c6.59,4.43,13.8,8.23,21.01,11.74l0,0
		l-0.86-0.15l24.66-1.62c0.66-0.04,1.26,0.27,1.61,0.78l0.04,0.06c0.42,0.62,1.09,1.39,1.73,2.03c0.67,0.65,1.37,1.27,2.12,1.83
		c1.5,1.11,3.14,2.07,4.9,2.71c1.76,0.63,3.58,1.15,5.47,1.28c0.93,0.15,1.89,0.09,2.84,0.13c0.95-0.01,1.9-0.14,2.86-0.19
		l-1.59,1.8v-6.28c0-1,0.81-1.82,1.82-1.82s1.82,0.81,1.82,1.82v6.28v0.1c0,0.9-0.7,1.64-1.59,1.7c-1.08,0.07-2.16,0.21-3.25,0.22
		c-1.09-0.04-2.18,0.02-3.27-0.15c-2.19-0.17-4.34-0.76-6.41-1.51c-2.07-0.77-4.01-1.89-5.77-3.2c-0.89-0.66-1.72-1.39-2.51-2.17
		c-0.79-0.82-1.49-1.57-2.22-2.64l1.65,0.84l-24.66,1.62c-0.3,0.02-0.6-0.04-0.86-0.15l0,0c-3.81-1.63-7.49-3.42-11.14-5.34
		c-3.64-1.93-7.26-3.93-10.71-6.3c-1.73-1.18-3.43-2.42-5.06-3.82c-1.62-1.41-3.22-2.91-4.52-4.99c-0.62-1.05-1.22-2.32-1.25-3.92
		c0-0.8,0.18-1.64,0.53-2.37c0.34-0.75,0.84-1.32,1.34-1.82c2.04-1.84,4.53-2.52,6.81-2.71c4.6-0.33,8.75,0.76,12.76,1.96
		c3.99,1.28,7.82,2.89,11.55,4.64c3.73,1.76,7.39,3.63,10.92,5.73c3.5,2.14,6.87,4.52,9.87,7.41c0.01,0.01,0.01,0.02,0,0.03
		C171.66,414.35,171.65,414.35,171.64,414.35z" class="st30"></path>
</g>
<polyline points="158.78,423.67 169.23,430.36 184.44,429.37" class="st34"></polyline>
<g>
	<path d="M282.29,328.74c0.84,4.65,2.1,9.08,3.88,13.22c1.81,4.11,4.11,7.96,7.26,10.98c3.09,3.06,6.9,5.31,11.05,6.73
		c4.15,1.46,8.61,2.09,13.13,2.36h0h0.02c0.77,0,1.42,0.51,1.63,1.22c0.48,1.61,0.56,3.11,0.59,4.58c0.01,1.47-0.08,2.9-0.23,4.31
		c-0.15,1.41-0.34,2.81-0.58,4.2c-0.24,1.4-0.5,2.75-0.83,4.16l0,0c-0.17,0.8-0.89,1.35-1.68,1.33l-0.07,0
		c-1.78-0.05-3.38-0.21-5.04-0.46c-1.65-0.25-3.28-0.57-4.89-0.97c-3.23-0.79-6.39-1.89-9.44-3.27
		c-6.08-2.76-11.69-6.77-16.09-11.88c-4.4-5.1-7.59-11.21-9.29-17.62c-1.69-6.42-2.01-13.09-1.09-19.51
		c0.94,6.42,2.12,12.67,4.23,18.54c1.04,2.93,2.3,5.77,3.82,8.45c1.53,2.67,3.36,5.15,5.41,7.43c4.1,4.55,9.21,8.14,14.79,10.76
		c2.79,1.32,5.71,2.38,8.69,3.25c2.96,0.84,6.09,1.52,9.04,1.84l-1.75,1.32l0,0c0.3-1.27,0.56-2.61,0.79-3.93
		c0.23-1.32,0.41-2.65,0.55-3.97c0.13-1.32,0.22-2.64,0.21-3.93c-0.02-1.27-0.12-2.55-0.44-3.58l1.65,1.22l0,0
		c-4.81,0.22-9.75-0.29-14.47-1.85c-2.35-0.79-4.64-1.84-6.76-3.15c-2.12-1.34-4.08-2.92-5.8-4.74c-3.41-3.66-5.92-8.07-7.26-12.75
		c-0.69-2.33-1.12-4.72-1.31-7.11C281.82,333.49,281.86,331.08,282.29,328.74z" class="st30"></path>
</g>
<g>
	<path d="M304.34,362.65c-0.08-0.97-0.08-1.76,0.01-2.64c0.07-0.86,0.23-1.72,0.47-2.58c0.48-1.71,1.4-3.47,2.91-4.8
		c1.53-1.32,3.53-1.96,5.36-2.07c0.89,0.04,1.82,0,2.65,0.18c0.42,0.07,0.85,0.13,1.27,0.22l1.26,0.38c1.65,0.58,3.23,1.48,4.52,2.7
		c1.25,1.26,2.2,2.75,2.78,4.33c1.17,3.15,1.21,6.46,0.46,9.49c-0.01,0.04-0.05,0.06-0.09,0.05c-0.03-0.01-0.05-0.03-0.05-0.06
		c-0.5-3.05-1.27-5.97-2.69-8.37c-0.72-1.18-1.54-2.24-2.57-3.03c-1.01-0.8-2.18-1.34-3.43-1.67c-0.32-0.07-0.64-0.14-0.95-0.22
		c-0.33-0.05-0.66-0.08-0.99-0.12c-0.67-0.12-1.28-0.02-1.91-0.04c-1.2,0.15-2.23,0.51-3,1.22c-0.8,0.67-1.37,1.71-1.77,2.91
		c-0.39,1.17-0.58,2.63-0.62,3.83l0,0.17c-0.03,1-0.87,1.79-1.87,1.76C305.16,364.3,304.41,363.56,304.34,362.65z" class="st30"></path>
</g>
<g>
	<path d="M306.67,379.55c-0.1,0.43-0.2,1.08-0.23,1.63c-0.05,0.57-0.01,1.12,0.04,1.65c0.15,1.05,0.52,1.92,1.14,2.61
		c0.62,0.69,1.57,1.18,2.62,1.56c0.58,0.12,1.1,0.35,1.73,0.41c0.61,0.06,1.22,0.22,1.84,0.2c1.23,0.05,2.47,0.06,3.56-0.25
		c1.13-0.25,2.11-0.75,2.93-1.51c1.68-1.49,2.6-4.09,2.98-6.89c0.56,1.32,0.77,2.8,0.67,4.3c-0.06,0.75-0.21,1.51-0.47,2.26
		c-0.11,0.38-0.3,0.73-0.49,1.09l-0.29,0.54l-0.37,0.5c-1,1.31-2.46,2.33-3.99,2.81c-1.53,0.57-3.09,0.73-4.61,0.78
		c-1.53,0.01-3.04-0.14-4.61-0.53c-1.54-0.5-3.17-1.2-4.44-2.58c-1.26-1.36-1.96-3.17-2.1-4.86c-0.06-0.85-0.06-1.68,0.06-2.49
		c0.1-0.83,0.28-1.53,0.6-2.42c0.33-0.94,1.37-1.44,2.31-1.1c0.88,0.31,1.37,1.23,1.16,2.12L306.67,379.55z" class="st30"></path>
</g>
<path d="M323.38,396.42c-0.65-2.42-17.08-13.73-31.62-5.66c-14.54,8.08-11.23,26.93,2.28,35.65
	c12.8,8.26,52.34,6.9,47.11-45.61c6.36-8.62-3.93-32.62-17.77-24.12" class="st34"></path>
<path d="M339.11,361.17l6.78,2.59c0,0,6.46,12.78,2.69,25.68c-5.39-0.02-6.93,0-6.93,0" class="st34"></path>
<path d="M305.19,110.91c0,0,21.2-27.57,30.25-14.79C342.04,105.42,316.05,103.21,305.19,110.91z" class="st34"></path>
<path d="M270,107.75c0,0-4.73-17.94-11.54-9.7C252.1,105.76,270,107.75,270,107.75z" class="st34"></path>
<path d="M218.79,278.3c0,0-30.69-6.03-47.56-17.22c-7.38-4.9,3.35-16.41,4.94-18.13c4.58-4.95-1.55-12.42-9.76-5.76
	c0,0-16.38,13.36-8.93,27.27c8.52,15.91,59.33,25.4,59.33,25.4" class="st34"></path>
<path d="M309.82,124.58c0,0,20.03-6.79,19.42,3.41C328.78,135.71,313.19,124.63,309.82,124.58z" class="st34"></path>
<g>
	<path d="M209.11,270.32c0.56-1.33,1.56-2.46,2.76-3.32c1.2-0.87,2.64-1.46,4.13-1.65c1.49-0.15,3.03-0.07,4.41,0.46
		c0.71,0.19,1.34,0.6,1.98,0.91c0.6,0.4,1.18,0.83,1.71,1.31c-0.72-0.12-1.38-0.33-2.04-0.48l-1-0.19
		c-0.33-0.07-0.65-0.15-0.98-0.16c-0.33-0.03-0.65-0.07-0.97-0.12c-0.32-0.02-0.65-0.01-0.96-0.02c-0.32-0.02-0.64-0.02-0.95,0.01
		c-0.31,0.04-0.64,0.01-0.94,0.09c-1.26,0.13-2.47,0.54-3.66,1.07C211.4,268.76,210.26,269.47,209.11,270.32z" class="st30"></path>
</g>
</svg>
