<svg viewBox="0 0 75.89 76.06" xmlns="http://www.w3.org/2000/svg" id="图层_8"><defs><style>.cls-1{fill:#f9e3c6;}.cls-2{fill:#ac8bbf;}.cls-3{fill:#a3b591;}.cls-4{fill:#e3e5f4;}.cls-5{fill:#564d47;}.cls-6{fill:#f9e6c8;}.cls-7{fill:#c69366;}.cls-8{fill:none;stroke:#231815;stroke-miterlimit:10;}.cls-9{fill:#ed7b98;}.cls-10{fill:#231815;}</style></defs><title>小女孩</title><path transform="translate(-27.71 -48.17)" d="M85.4,69.88c-.35-1.18-.76-4-.17-4.42s1.46.39,1.83,1.09.48,1.68,1.57,1.79c.74.08,3.73-2,5.54-3.24.85-.6,1.44-1,1.44-1h0c.15-.11,2-1.39,3.36,0a4.81,4.81,0,0,1,.71,4.28,13.55,13.55,0,0,1-3,4.92,24.12,24.12,0,0,1-2.47,2.29l-.93,2.34a30.23,30.23,0,0,0-5.8-1V76.8l.32-4.45s-.42-.27-.9-.66a4.35,4.35,0,0,1-1.4-1.6Q85.43,70,85.4,69.88Z" class="cls-1"></path><path transform="translate(-27.71 -48.17)" d="M97.44,83.41c.81,1.51,1.21,9.85-2.58,15.11S83.06,106,83.06,106a5.82,5.82,0,0,0-1.8-2s1.15-2.85.32-4.64a3.32,3.32,0,0,0-2.73-1.85l-.11-.06a1.42,1.42,0,0,0,.07-.22A1.4,1.4,0,0,0,78.5,96c.43-.43,2.94-3.07,2.75-5.67a7.33,7.33,0,0,0-2-4.31,6.79,6.79,0,0,1,3.08-5.7,4.37,4.37,0,0,1,1.13-.53c3.38-1.08,9.76.25,12.66,2.3A4.11,4.11,0,0,1,97.44,83.41Z" class="cls-2"></path><path transform="translate(-27.71 -48.17)" d="M96.19,82l0,.06c-2.9-2-9.28-3.38-12.66-2.3l0-.09s1-2.15,2.33-2.71a4.2,4.2,0,0,1,1.65-.13,30.23,30.23,0,0,1,5.8,1,7.5,7.5,0,0,1,1.27.48C95.9,79.11,96.19,82,96.19,82Z" class="cls-2"></path><path transform="translate(-27.71 -48.17)" d="M77.38,60.71a4.91,4.91,0,0,1,.69-2.12c.74-.53,17.37,1.92,17.82,2.52s-.22,2.75-.27,2.94h0s-.59.44-1.44,1L94.11,65a16.6,16.6,0,0,0,.58-2.4c0-.51-15.29-2.8-15.78-2.45s-1,6.11-1,6.11l0,.09a2.12,2.12,0,0,0-1.21,0l0-.08S76.92,63,77.38,60.71Z" class="cls-3"></path><path transform="translate(-27.71 -48.17)" d="M94.69,62.61a16.6,16.6,0,0,1-.58,2.4l.06.09c-1.81,1.29-4.8,3.32-5.54,3.24-1.09-.11-1.21-1.09-1.57-1.79s-1.2-1.51-1.83-1.09-.18,3.24.17,4.42l-8-1.62a2.14,2.14,0,0,0,.66-1.6.46.46,0,0,0-.26-.3l0-.09s.56-5.77,1-6.11S94.69,62.1,94.69,62.61Z" class="cls-4"></path><path transform="translate(-27.71 -48.17)" d="M86.86,71.69l-10.43-2.2-.09-.09a10.94,10.94,0,0,0,1.07-1.14l8,1.62q0,.12.06.21A4.35,4.35,0,0,0,86.86,71.69Z" class="cls-3"></path><path transform="translate(-27.71 -48.17)" d="M78.5,96a1.4,1.4,0,0,1,.31,1.22,1.42,1.42,0,0,1-.07.22l.11.06a3.32,3.32,0,0,1,2.73,1.85c.83,1.79-.32,4.64-.32,4.64a5.82,5.82,0,0,1,1.8,2c.71,1.28,1,3.16-.49,5.53-2.58,4-5.66,3.9-6.54,3.76h0A5.91,5.91,0,0,1,74,118a5.81,5.81,0,0,1-6.58.6l-.11.22a5.85,5.85,0,0,1-5.37,4.92,5.46,5.46,0,0,1-5-1.85l-.15.13s-3.2,1.17-5.27.75-3.09-3.56-3.09-3.56V119a8.94,8.94,0,0,1-3-.53,8.73,8.73,0,0,1-4.11-4,3.33,3.33,0,0,1-.16-.4,9.45,9.45,0,0,1-5.05.26,6,6,0,0,1-4.62-4.82,5.05,5.05,0,0,1,4.24-6.13s-1.17-.73-1.16-1.62S35.7,100,35.7,100s-2.64-1.18-3-5.31a7.1,7.1,0,0,1,2.9-6.26c5.48-1.56,13.3-6.25,21-13A83.08,83.08,0,0,0,67.48,64.19a25.06,25.06,0,0,1,.64,5v0a7.05,7.05,0,0,1-2,4.87s-5.94,1-3.91,6.17S69,79.72,69,79.72s4.2-1.29,5.4,4.07a14.49,14.49,0,0,1-.09,1.66s2.6-.7,3.91-.26a3,3,0,0,1,1.08.83,7.33,7.33,0,0,1,2,4.31C81.44,92.93,78.93,95.57,78.5,96Z" class="cls-5"></path><path transform="translate(-27.71 -48.17)" d="M78.07,66.66a2.14,2.14,0,0,1-.66,1.6,10.94,10.94,0,0,1-1.07,1.14c-.32.3-.55.49-.55.49l0,.11a6.31,6.31,0,0,1-1-.31,10.24,10.24,0,0,1-1.9-1.37l0-.07a8.47,8.47,0,0,1-.06-1.15l1.64,0a13.25,13.25,0,0,1,2.22-.73,2.12,2.12,0,0,1,1.21,0A.46.46,0,0,1,78.07,66.66Z" class="cls-6"></path><path transform="translate(-27.71 -48.17)" d="M77.38,60.71c-.46,2.28-.8,5.56-.8,5.56l0,.08a13.25,13.25,0,0,0-2.22.73l-1.64,0c0-.54,0-1.21,0-1.87h.14a9.32,9.32,0,0,1,1.89-3.14A3.74,3.74,0,0,1,77.38,60.71Z" class="cls-1"></path><path transform="translate(-27.71 -48.17)" d="M76,74.34c0,.19.12.53.19,1l-1.35.13a2.53,2.53,0,0,0-2.32,3,2.88,2.88,0,0,0,3.26,2.39l0,0a17.91,17.91,0,0,1-1.46,2.92c-1.2-5.36-5.4-4.07-5.4-4.07s-4.76,5.61-6.79.49S66.1,74,66.1,74a7.05,7.05,0,0,0,2-4.87v0l1.94-.07,2.74-.82,0,.07a10.24,10.24,0,0,0,1.9,1.37,6.31,6.31,0,0,0,1,.31c.57.15,1.15.27,1.15.27Z" class="cls-1"></path><path transform="translate(-27.71 -48.17)" d="M76.2,75.31a14.33,14.33,0,0,1,.19,3.46,8,8,0,0,1-.55,2.1l0,0a2.88,2.88,0,0,1-3.26-2.39,2.53,2.53,0,0,1,2.32-3Z" class="cls-1"></path><path transform="translate(-27.71 -48.17)" d="M67.48,64.19A83.08,83.08,0,0,1,56.62,75.5c-7.7,6.72-15.52,11.41-21,13-3.12.9-5.48.78-6.64-.55-2.19-2.5.46-8.64,6.19-15.63l-.05-.11-1-3.51c2,2.48,8.77.3,15-4.86S58.71,52.45,56.65,50L59,52.27l0,0c6.49-3.53,11.71-4.65,13.63-2.45,1.57,1.8.64,5.48-2.13,10A48.49,48.49,0,0,1,67.48,64.19Z" class="cls-7"></path><path transform="translate(-27.71 -48.17)" d="M72.8,68.25l-2.74.82-1.94.07a25.06,25.06,0,0,0-.64-5,48.49,48.49,0,0,0,3.06-4.38,12.43,12.43,0,0,1,2,3.81,12.07,12.07,0,0,1,.17,1.61c0,.66,0,1.33,0,1.87A8.47,8.47,0,0,0,72.8,68.25Z" class="cls-1"></path><path transform="translate(-27.71 -48.17)" d="M56.65,50c2.06,2.48-1.33,8.67-7.56,13.84s-12.94,7.34-15,4.86S35.43,60,41.66,54.84,54.6,47.5,56.65,50Z" class="cls-7"></path><path transform="translate(-27.71 -48.17)" d="M56.65,50c2.06,2.48-1.33,8.67-7.56,13.84s-12.94,7.34-15,4.86S35.43,60,41.66,54.84,54.6,47.5,56.65,50Z" class="cls-8"></path><path transform="translate(-27.71 -48.17)" d="M43,64.4C41.11,66.3,38.76,67,37.76,66s-.26-3.35,1.64-5.25a9.31,9.31,0,0,1,1-.84" class="cls-8"></path><path transform="translate(-27.71 -48.17)" d="M34.1,68.67l1,3.51.05.11c.33.75,2.38,5.2,4,5.5a8.64,8.64,0,0,0,5.32-.8,50.12,50.12,0,0,0,6.09-4.15" class="cls-8"></path><polyline points="28.93 1.8 31.3 4.1 32.51 5.27" class="cls-8"></polyline><line y2="22.55" x2="43.42" y1="20.9" x1="42.34" class="cls-8"></line><path transform="translate(-27.71 -48.17)" d="M74.85,75.44a2.53,2.53,0,0,0-2.32,3,2.88,2.88,0,0,0,3.26,2.39" class="cls-8"></path><path transform="translate(-27.71 -48.17)" d="M64.1,78.15a2.49,2.49,0,0,1,1-1.16c.74-.41,2.26.41,2.26.41" class="cls-8"></path><path transform="translate(-27.71 -48.17)" d="M66.71,77.92a4,4,0,0,1-.28.88,2.33,2.33,0,0,1-.8.66" class="cls-8"></path><path transform="translate(-27.71 -48.17)" d="M76,74.36v0l.9-4.07s-.58-.12-1.15-.27a6.31,6.31,0,0,1-1-.31,10.24,10.24,0,0,1-1.9-1.37l0-.07a8.47,8.47,0,0,1-.06-1.15c0-.54,0-1.21,0-1.87a12.07,12.07,0,0,0-.17-1.61,12.43,12.43,0,0,0-2-3.81" class="cls-8"></path><path transform="translate(-27.71 -48.17)" d="M76,74.18a1.45,1.45,0,0,0,0,.16c0,.19.12.53.19,1a14.33,14.33,0,0,1,.19,3.46,8,8,0,0,1-.55,2.1,17.91,17.91,0,0,1-1.46,2.92" class="cls-8"></path><path transform="translate(-27.71 -48.17)" d="M59,52.25c6.49-3.53,11.71-4.65,13.63-2.45,1.57,1.8.64,5.48-2.13,10a48.49,48.49,0,0,1-3.06,4.38A83.08,83.08,0,0,1,56.62,75.5c-7.7,6.72-15.52,11.41-21,13-3.12.9-5.48.78-6.64-.55-2.19-2.5.46-8.64,6.19-15.63a1.34,1.34,0,0,1,.11-.14" class="cls-8"></path><path transform="translate(-27.71 -48.17)" d="M35.62,88.47a7.1,7.1,0,0,0-2.9,6.26c.34,4.13,3,5.31,3,5.31s-1.14.85-1.16,1.73,1.16,1.62,1.16,1.62a5.05,5.05,0,0,0-4.24,6.13,6,6,0,0,0,4.62,4.82,9.45,9.45,0,0,0,5.05-.26l.17-.06" class="cls-8"></path><path transform="translate(-27.71 -48.17)" d="M41.3,109.78a6.1,6.1,0,0,0-.17,4.3,3.33,3.33,0,0,0,.16.4,8.73,8.73,0,0,0,4.11,4,8.94,8.94,0,0,0,3,.53,15,15,0,0,0,1.83,0" class="cls-8"></path><path transform="translate(-27.71 -48.17)" d="M39,93.17a2.24,2.24,0,0,0-.67,2.19,2,2,0,0,0,1.69,1.41,3.65,3.65,0,0,0,.37,2.44,4.66,4.66,0,0,0,2.16,1.32" class="cls-8"></path><path transform="translate(-27.71 -48.17)" d="M78.43,96.07,78.5,96c.43-.43,2.94-3.07,2.75-5.67a7.33,7.33,0,0,0-2-4.31,3,3,0,0,0-1.08-.83c-1.31-.44-3.91.26-3.91.26a14.49,14.49,0,0,0,.09-1.66c-1.2-5.36-5.4-4.07-5.4-4.07s-4.76,5.61-6.79.49S66.1,74,66.1,74a7.05,7.05,0,0,0,2-4.87v0a25.06,25.06,0,0,0-.64-5l0-.13" class="cls-8"></path><path transform="translate(-27.71 -48.17)" d="M77.5,95.14a3.59,3.59,0,0,1,1,.86,1.4,1.4,0,0,1,.31,1.22,1.42,1.42,0,0,1-.07.22A2.87,2.87,0,0,1,77,98.8" class="cls-8"></path><path transform="translate(-27.71 -48.17)" d="M76,115.26l-.24-.05" class="cls-8"></path><path transform="translate(-27.71 -48.17)" d="M78.85,97.5a3.32,3.32,0,0,1,2.73,1.85c.83,1.79-.32,4.64-.32,4.64a5.82,5.82,0,0,1,1.8,2c.71,1.28,1,3.16-.49,5.53-2.58,4-5.66,3.9-6.54,3.76" class="cls-8"></path><path transform="translate(-27.71 -48.17)" d="M56.76,122s-3.2,1.17-5.27.75-3.09-3.56-3.09-3.56" class="cls-8"></path><path transform="translate(-27.71 -48.17)" d="M56,120.22a6,6,0,0,0,.92,1.62,5.46,5.46,0,0,0,5,1.85,5.85,5.85,0,0,0,5.37-4.92" class="cls-8"></path><path transform="translate(-27.71 -48.17)" d="M66.46,118A6.19,6.19,0,0,0,74,118a5.91,5.91,0,0,0,2-2.69h0a6.36,6.36,0,0,0-.25-4.59" class="cls-8"></path><path transform="translate(-27.71 -48.17)" d="M75.1,106.07s1.85,1,1.27,2a3.22,3.22,0,0,1-1.71,1.29,2.24,2.24,0,0,1,.29,2.7c-.83,1.71-3.82,1.62-3.28,1.28" class="cls-8"></path><path transform="translate(-27.71 -48.17)" d="M95.62,64.05c.15-.11,2-1.39,3.36,0a4.81,4.81,0,0,1,.71,4.28,13.55,13.55,0,0,1-3,4.92,24.12,24.12,0,0,1-2.47,2.29l-.93,2.34" class="cls-8"></path><path transform="translate(-27.71 -48.17)" d="M87.44,76.8l.32-4.45s-.42-.27-.9-.66a4.35,4.35,0,0,1-1.4-1.6q0-.09-.06-.21c-.35-1.18-.76-4-.17-4.42s1.46.39,1.83,1.09.48,1.68,1.57,1.79c.74.08,3.73-2,5.54-3.24.85-.6,1.44-1,1.44-1" class="cls-8"></path><path transform="translate(-27.71 -48.17)" d="M72.84,65.23a9.32,9.32,0,0,1,1.89-3.14,3.74,3.74,0,0,1,2.65-1.38h.26" class="cls-8"></path><path transform="translate(-27.71 -48.17)" d="M75.79,69.89s.23-.19.55-.49a10.94,10.94,0,0,0,1.07-1.14,2.14,2.14,0,0,0,.66-1.6.46.46,0,0,0-.26-.3,2.12,2.12,0,0,0-1.21,0,13.25,13.25,0,0,0-2.22.73" class="cls-8"></path><path transform="translate(-27.71 -48.17)" d="M76.58,66.27s.34-3.28.8-5.56a4.91,4.91,0,0,1,.69-2.12c.74-.53,17.37,1.92,17.82,2.52s-.22,2.75-.27,2.94h0" class="cls-8"></path><path transform="translate(-27.71 -48.17)" d="M83.46,79.7s1-2.15,2.33-2.71a4.2,4.2,0,0,1,1.65-.13,30.23,30.23,0,0,1,5.8,1,7.5,7.5,0,0,1,1.27.48c1.39.74,1.68,3.66,1.68,3.66" class="cls-8"></path><path transform="translate(-27.71 -48.17)" d="M79.28,86h0a6.79,6.79,0,0,1,3.08-5.7,4.37,4.37,0,0,1,1.13-.53c3.38-1.08,9.76.25,12.66,2.3a4.11,4.11,0,0,1,1.29,1.32c.81,1.51,1.21,9.85-2.58,15.11S83.06,106,83.06,106" class="cls-8"></path><path transform="translate(-27.71 -48.17)" d="M92.93,96.57a14.11,14.11,0,0,1-2.4,3.21,8.25,8.25,0,0,1-3.4,1.79" class="cls-8"></path><line y2="23.52" x2="59.14" y1="21.32" x1="48.71" class="cls-8"></line><path transform="translate(-27.71 -48.17)" d="M77.86,66.27s.56-5.77,1-6.11,15.78,1.94,15.78,2.45a16.6,16.6,0,0,1-.58,2.4" class="cls-8"></path><polyline points="49.7 20.09 57.69 21.71 57.74 21.72" class="cls-8"></polyline><path transform="translate(-27.71 -48.17)" d="M70.84,73.89a6.2,6.2,0,0,0,1.2-.62.11.11,0,0,0,.08-.07.13.13,0,0,0,0-.12.53.53,0,0,0-.14-.29.78.78,0,0,0-.3-.24l-.1,0a.28.28,0,0,0-.18,0,6.2,6.2,0,0,1-1.2.62.19.19,0,0,0-.11.19.59.59,0,0,0,.14.3.78.78,0,0,0,.3.24.39.39,0,0,0,.28,0Z" class="cls-9"></path><path transform="translate(-27.71 -48.17)" d="M31.09,63.81a8.45,8.45,0,0,0-.36,3,5,5,0,0,0,1,2.5c.27.35,1.21,0,.91-.36a4.54,4.54,0,0,1-.93-2.34,7.94,7.94,0,0,1,.36-2.78c.13-.46-.87-.4-1,0Z" class="cls-10"></path><path transform="translate(-27.71 -48.17)" d="M28.63,64a4.94,4.94,0,0,0,.12,3c0,.09.43,0,.5,0s.52,0,.5-.09a4.91,4.91,0,0,1-.12-3c0-.05-.46-.05-.5-.05l-.35,0s-.13,0-.15.05Z" class="cls-10"></path><path transform="translate(-27.71 -48.17)" d="M101.09,66.78c0,1.82-.29,3.84-1.81,5-.09.07.32.11.35.11s.48,0,.61-.06c1.55-1.2,1.86-3.23,1.85-5.07,0-.13-1-.14-1,0Z" class="cls-10"></path><path transform="translate(-27.71 -48.17)" d="M102.53,66.65a3.7,3.7,0,0,0,.08.88c0,.23.32.32.53.29a.61.61,0,0,0,.34-.14.3.3,0,0,0,.12-.26,4.3,4.3,0,0,1-.08-.88.33.33,0,0,0-.17-.23.74.74,0,0,0-.36-.06.69.69,0,0,0-.34.14l-.07.08a.25.25,0,0,0,0,.18Z" class="cls-10"></path><path transform="translate(-27.71 -48.17)" d="M30.76,83.59a5.63,5.63,0,0,0,.09,1.92.41.41,0,0,0,.19.2,1.11,1.11,0,0,0,.36.13c.11,0,.46,0,.41-.18a5.13,5.13,0,0,1-.09-1.79c0-.2-.27-.32-.42-.36a.87.87,0,0,0-.36,0c-.06,0-.17,0-.18.12Z" class="cls-10"></path><path transform="translate(-27.71 -48.17)" d="M32.33,84.47a2.05,2.05,0,0,0,.74,1.29.42.42,0,0,0,.29,0,.76.76,0,0,0,.35-.17c.14-.13.28-.37.09-.53l-.18-.17.06.07a2.12,2.12,0,0,1-.38-.63l0,.09a2.21,2.21,0,0,1-.08-.35c0-.23-.34-.23-.51-.16a.76.76,0,0,0-.31.23.42.42,0,0,0-.1.28Z" class="cls-10"></path><path transform="translate(-27.71 -48.17)" d="M66.84,50.68a3.45,3.45,0,0,1-1.11,3.43c-.18.16,0,.49.15.61a.47.47,0,0,0,.62,0,4.09,4.09,0,0,0,1.22-4,.62.62,0,0,0-.54-.45.31.31,0,0,0-.34.39Z" class="cls-10"></path><path transform="translate(-27.71 -48.17)" d="M63.1,85a5.79,5.79,0,0,0,5.47-1.67c.24-.23-.36-1-.56-.83a5.56,5.56,0,0,1-5.21,1.66c-.21-.06-.19.18-.15.32a.89.89,0,0,0,.45.52Z" class="cls-10"></path><path transform="translate(-27.71 -48.17)" d="M63.3,118.21a2.39,2.39,0,0,1-.37,1.62,2.46,2.46,0,0,1-.54.62,2,2,0,0,1-.66.34c-.15,0-.33.21-.16.35a.83.83,0,0,0,.69.06,2.89,2.89,0,0,0,2-3c0-.21-.35-.24-.51-.23s-.52.06-.49.27Z" class="cls-10"></path><path transform="translate(-27.71 -48.17)" d="M51.77,71.79h0l-.12,0,.08,0-.1-.05a.24.24,0,0,1,.09.06l-.07-.07.08.1,0-.08a.3.3,0,0,1,0,.1.44.44,0,0,0,.08.11.42.42,0,0,0,.14.09.41.41,0,0,0,.18,0,.67.67,0,0,0,.2,0l.12,0a.45.45,0,0,0,.19-.11l.05-.07a.23.23,0,0,0,0-.18.76.76,0,0,0-.09-.18.69.69,0,0,0-.11-.13l-.08-.07-.15-.08-.06,0-.13,0h0a.66.66,0,0,0-.2,0,.57.57,0,0,0-.18,0,.35.35,0,0,0-.15.07.24.24,0,0,0-.09.11l0,.08a.21.21,0,0,0,0,.17l.08.07a.62.62,0,0,0,.22.1Z" class="cls-10"></path><path transform="translate(-27.71 -48.17)" d="M53.11,70.52l.07.14a.38.38,0,0,0,.11.14.62.62,0,0,0,.16.1.58.58,0,0,0,.19,0,.4.4,0,0,0,.19,0l.11,0a.33.33,0,0,0,.16-.15l0-.1a.34.34,0,0,0,0-.22L54,70.26a.32.32,0,0,0-.1-.13.39.39,0,0,0-.16-.1.43.43,0,0,0-.19,0,.45.45,0,0,0-.2,0l-.11,0a.43.43,0,0,0-.15.15l0,.11a.39.39,0,0,0,0,.21Z" class="cls-10"></path><path transform="translate(-27.71 -48.17)" d="M55.18,69.74a20.16,20.16,0,0,0,2.41-2.3c.34-.39-.6-.63-.84-.36a20.21,20.21,0,0,1-2.41,2.31c-.18.15,0,.35.15.42a.71.71,0,0,0,.69-.07Z" class="cls-10"></path><path transform="translate(-27.71 -48.17)" d="M41.64,59.59l0,0,0,.07a1.1,1.1,0,0,1,.44-.39l-.07,0,.18-.08c.21-.07.12-.35,0-.49a.73.73,0,0,0-.28-.27.4.4,0,0,0-.28-.06,1.82,1.82,0,0,0-.43.24,1.91,1.91,0,0,0-.33.37.23.23,0,0,0,0,.14.4.4,0,0,0,0,.15.86.86,0,0,0,.1.16.5.5,0,0,0,.14.15.54.54,0,0,0,.3.13h.08a.17.17,0,0,0,.11-.11Z" class="cls-10"></path><path transform="translate(-27.71 -48.17)" d="M38.48,73.66a5.94,5.94,0,0,0,1.79,2.67.71.71,0,0,0,.7.12A.25.25,0,0,0,41,76l-.27-.25a1.59,1.59,0,0,1-.13-.13l-.07-.07s0,0,0,0a6.8,6.8,0,0,1-.46-.6,5.21,5.21,0,0,1-.63-1.3.57.57,0,0,0-.57-.31c-.16,0-.48.1-.41.33Z" class="cls-10"></path><path transform="translate(-27.71 -48.17)" d="M41.22,74.83a4.22,4.22,0,0,0,.83,1,.41.41,0,0,0,.28.09.21.21,0,0,0,.16-.17.72.72,0,0,0-.29-.63L42.1,75l.09.08a2.82,2.82,0,0,1-.33-.36l.08.11a3.15,3.15,0,0,1-.22-.33.72.72,0,0,0-.27-.25.27.27,0,0,0-.26,0c-.18.14-.06.42,0,.58Z" class="cls-10"></path></svg>