<svg xml:space="preserve" style="enable-background:new 0 0 500 500;" viewBox="0 0 500 500" y="0px" x="0px" xmlns:xlink="http://www.w3.org/1999/xlink" xmlns="http://www.w3.org/2000/svg" id="图层_1" version="1.1">
<style type="text/css">
	.st0{fill:#F93541;}
	.st1{fill:#D6343D;}
	.st2{fill:#F6DE90;}
	.st3{fill:#E6EBEE;}
	.st4{fill:#4E1D44;}
	.st5{fill:#F2BE5D;}
	.st6{fill:#F94B5C;}
	.st7{fill:#F1DD8F;}
	.st8{fill:#D31833;}
	.st9{fill:none;stroke:#4D1D47;stroke-width:12;stroke-linecap:round;stroke-linejoin:round;stroke-miterlimit:10;}
	.st10{fill:none;stroke:#4D1D47;stroke-width:11.998;stroke-linecap:round;stroke-linejoin:round;stroke-miterlimit:10;}
</style>
<g id="XMLID_64_">
	<g>
		<path d="M159.88,163.15c-29.68,34.11,42.58,76.53,76.05,87.66c35.89-58.14,20.32-99.6,0-104.35
			s-25.64,20.89-25.64,20.89s-24.27-27.9-46.69-7.9c-0.4,0.32-0.81,0.73-1.21,1.13c-0.89,0.81-1.61,1.61-2.42,2.5L159.88,163.15z" class="st0"></path>
		<path d="M162.38,160.56c0.4-0.4,0.81-0.81,1.21-1.13C163.19,159.76,162.7,160.16,162.38,160.56z" class="st0"></path>
		<path d="M268.83,284.43c-36.45,8.95-44.03,34.76-44.03,34.76c13.87,8.63,32.82,13.31,58.31,7.74
			c27.74-6.05,41.37-19.11,47.5-33.06C330.6,293.87,305.28,275.48,268.83,284.43z" class="st1"></path>
		<path d="M279.96,159.6c-10,28.71,59.35,63.31,76.69,67.5c5.56-9.27,9.76-18.95,12.5-28.23
			c-8.39-18.87-21.29-35.32-37.34-48.06c-1.53,2.98-2.1,5.24-2.1,5.24S293.1,121.77,279.96,159.6z" class="st0"></path>
		<path d="M202.46,270.08l118.39-23.39c5.65-1.13,11.13,2.42,12.42,7.98c0.4,1.94,0.81,4.03,1.13,6.37
			c1.29,9.27,1.29,21.37-3.79,32.82c-6.13,13.95-19.76,27.02-47.5,33.06c-25.48,5.56-44.44,0.89-58.31-7.74
			c-14.19-8.55-23.15-21.29-28.39-31.29c-0.56-0.97-0.97-1.94-1.45-2.82C191.89,278.79,195.6,271.37,202.46,270.08z M356.65,227.1
			c-17.34-4.19-86.69-38.79-76.69-67.5c13.15-37.82,49.76-3.55,49.76-3.55s0.56-2.26,2.1-5.24c-21.77-17.26-49.27-27.58-79.19-27.58
			c-34.68,0-66.05,13.79-89.03,36.21c22.42-20,46.69,7.9,46.69,7.9s5.32-25.64,25.64-20.89s35.89,46.21,0,104.35
			c-33.47-11.13-105.73-53.55-76.05-87.66c-21.69,22.82-34.92,53.71-34.92,87.66c0,70.48,57.18,127.58,127.66,127.58
			c70.4,0,127.58-57.1,127.58-127.58c0-18.47-3.95-36.13-11.05-51.94C366.41,208.15,362.22,217.82,356.65,227.1z" class="st2"></path>
		<path d="M334.31,261.05h0.08c-0.32-2.34-0.73-4.44-1.13-6.37c-1.29-5.56-6.77-9.11-12.42-7.98l-118.39,23.39
			c-6.85,1.29-10.56,8.71-7.5,15c0.48,0.89,0.89,1.85,1.45,2.82L334.31,261.05z" class="st3"></path>
		<path d="M268.83,284.43c36.45-8.95,61.77,9.44,61.77,9.44c5.08-11.45,5.08-23.55,3.79-32.82h-0.08l-137.9,26.85
			c5.24,10,14.19,22.74,28.39,31.29C224.8,319.19,232.38,293.39,268.83,284.43z" class="st4"></path>
		<path d="M331.81,150.81c16.05,12.74,28.95,29.19,37.34,48.06c8.95-29.68,4.27-56.37-12.5-59.52
			C341.81,136.53,334.8,145,331.81,150.81z" class="st0"></path>
	</g>
</g>
<path d="M374.75,213.89l-13.66,27.4c0,0-37.77-4-72.2-35.57c-28.5-26.14-20.23-67.73,13.05-63.86
	c0,0-22.04,1.25-22.97,21.51c-0.93,20.25,34.99,52.63,75.91,63.28c12.56-22.53,15-26.12,15-26.12L374.75,213.89z" class="st5"></path>
<path d="M243.98,150.51c-1.15-1.41,36.84,14.35,13.55,77.38c-13.44,28.08-16.43,33.13-16.43,33.13
	s-110.51-32.81-94.98-80.76l9.67-11.15c0,0-5.49,15.47,1.97,27.41s34.35,37.34,77.06,53.76
	C244.08,238.94,275.23,188.72,243.98,150.51z" class="st5"></path>
<ellipse ry="6.42" rx="11.26" cy="307.03" cx="295.84" class="st6" transform="matrix(0.9587 -0.2843 0.2843 0.9587 -75.0828 96.7793)"></ellipse>
<path d="M368.03,298.58c0,0-14.06,71.4-116.26,81.66C286.85,367.33,322.84,360.02,368.03,298.58z" class="st7"></path>
<path d="M124.99,246.48c0,0,84.34,171.9,236.1,70.03c-16.2,31.44-86.17,96.86-182.28,38.38
	C128.03,323.06,121,273.93,124.99,246.48z" class="st5"></path>
<circle r="13.76" cy="318.12" cx="182.91" class="st5"></circle>
<circle r="6.65" cy="283.18" cx="170.23" class="st5"></circle>
<path d="M160.92,331.88c0,0,63.28,64.57,165.4,22.77C308.89,368.38,213.35,404.68,160.92,331.88z" class="st2"></path>
<path d="M199.56,158.36c0,0-23.36,8.95-20.14,30.28s58.92,64.66,58.92,64.66s-65.65-24-77.43-58.66
	S174.66,148.07,199.56,158.36z" class="st8"></path>
<circle r="8.48" cy="199.94" cx="185.37" class="st8"></circle>
<circle r="4.25" cy="187.2" cx="205.61" class="st8"></circle>
<path d="M330.6,154.79c0,0-25-2.81-30.24,11.85C295.12,181.3,356,224.66,356,224.66s-67.55-19.8-76.44-54.02
	C270.68,136.42,312.63,134.41,330.6,154.79z" class="st8"></path>
<circle r="8.42" cy="195.62" cx="323.53" class="st8"></circle>
<circle r="1.61" cy="175.62" cx="318.79" class="st8"></circle>
<path d="M334.34,150.42c0,0,38.1-24.92,32.32,52.31C372.23,186.08,378.9,119.1,334.34,150.42z" class="st2"></path>
<path d="M211.05,164.54c0,0,11.49-13.01,24.45-5.46c12.96,7.55,25.31,37.18,16.27,68.03
	c8.68-40.03,8.1-68.38-15.83-80.64S211.05,164.54,211.05,164.54z" class="st2"></path>
<path d="M330.61,149.84c-21.57-16.69-48.64-26.63-78.03-26.63c-70.47,0-127.59,57.13-127.59,127.59
	s57.13,127.59,127.59,127.59s127.59-57.13,127.59-127.59c0-17.85-3.67-34.85-10.29-50.27" class="st9"></path>
<path d="M329.73,156.03c0,0,4.78-20.86,26.88-16.7c22.1,4.16,23.3,48.96,0,87.79c-17.32-4.18-86.62-38.83-76.66-67.5
	C293.11,121.73,329.73,156.03,329.73,156.03z" class="st9"></path>
<path d="M210.26,167.38c0,0,5.38-25.69,25.69-20.91c20.31,4.78,35.84,46.18,0,104.33
	c-33.45-11.14-105.81-53.62-75.97-87.74C183.38,136.31,210.26,167.38,210.26,167.38z" class="st9"></path>
<path d="M320.83,246.68l-118.38,23.36c-6.83,1.35-10.57,8.76-7.52,15.01c9.51,19.51,34.31,53.72,88.21,41.91
	c56.21-12.31,54.29-53.24,50.09-72.27C331.99,249.1,326.46,245.57,320.83,246.68z" class="st9"></path>
<path d="M330.6,293.86c0,0-25.35-18.36-61.79-9.4s-44.04,34.76-44.04,34.76" class="st10"></path>
</svg>
