<svg xml:space="preserve" style="enable-background:new 0 0 500 500;" viewBox="0 0 500 500" y="0px" x="0px" xmlns:xlink="http://www.w3.org/1999/xlink" xmlns="http://www.w3.org/2000/svg" id="图层_1" version="1.1">
<style type="text/css">
	.st0{fill:#FFFDFD;}
	.st1{fill:#BEB2B2;}
	.st2{fill:#FFBC4C;}
	.st3{fill:none;stroke:#441737;stroke-width:12;stroke-linecap:round;stroke-linejoin:round;stroke-miterlimit:10;}
</style>
<g id="XMLID_16_">
	<g>
		<path d="M240.69,365.98c0,0-37.13-8.31-49.2-54.83c-0.27-0.94-0.54-2.01-0.8-3.35c-0.54-2.01-0.94-4.16-1.34-6.43
			c-4.16-25.2,8.58-49.06,25.74-65.69c11.39-11.13,24.93-18.9,36.6-21.45c9.12-2.14,17.02-1.07,22.12,4.02
			c14.48,14.61,9.65,30.3-6.03,44.64c-7.24,6.7-17.02,13.14-28.15,19.04c0,0,32.98-1.34,43.3,26.14
			c-15.55-1.74-52.82,44.64-3.62,57.91l0.67,2.14C254.23,374.7,240.69,365.98,240.69,365.98z" class="st0"></path>
		<path d="M322.06,195.07c2.68,27.88,15.28,44.64,25.74,55.5c17.83,18.63,20.11,38.47,2.28,75.2
			c-7.64,7.37-17.83,15.68-31.23,24.4c-1.07,0.67-2.14,1.34-3.08,2.01l-0.4-0.54c7.1-31.9,1.88-50.27-8.98-60.59v-0.13
			c32.44-11.93,4.02-49.2-0.27-54.56c-1.21-3.49-2.82-6.84-4.69-9.92c-1.61-2.55-2.95-5.09-4.16-7.51
			c-0.54-1.61-1.21-3.22-2.14-4.69c-0.13-0.4-0.27-0.8-0.54-1.21c-6.84-16.35-8.58-29.76-29.36-39.68
			c-3.35-1.61-6.43-2.55-9.25-2.95v-0.13c0,0,2.95-11.53-8.98-29.89c-2.28-3.35-3.89-6.84-5.09-10.46c0,0,5.5-27.61,27.88-26.14
			S319.52,167.05,322.06,195.07z" class="st0"></path>
		<path d="M306.38,291.05c-17.83-17.29-51.21-11.8-66.76-9.12c11.13-5.9,20.91-12.33,28.15-19.04l0.27,0.27
			c37.8,17.43,45.58-5.9,38.07-26.81c4.29,5.36,32.71,42.63,0.27,54.56V291.05z" class="st1"></path>
		<path d="M251.69,214.1c0,0-1.34-3.89-3.89-8.85c4.02-2.41,31.9-17.56,46.78,7.77c0.27,0.4,0.4,0.8,0.54,1.21
			c0.67,1.61,1.34,3.08,2.14,4.69c6.57,20.78-12.47,43.7-29.22,44.24l-0.27-0.27c15.68-14.34,20.51-30.03,6.03-44.64
			c-5.09-5.09-13-6.17-22.12-4.02V214.1z" class="st1"></path>
		<path d="M149.27,233.27c-9.52-9.12-16.35-19.71-20.51-30.16c0,0,0,0,0-0.13c0.27-2.68,3.08-34.05,19.44-36.73
			c0,9.79,25.74,25.74,35.52-4.96c5.76,6.57,10.59,14.61,14.21,22.92v0.13c0,0-22.65,11.93-8.71,48.39
			c-6.84,12.6-15.15,18.9-13.54,36.6h-0.13C169.25,257.13,160.67,244.13,149.27,233.27z" class="st0"></path>
		<path d="M230.91,187.02c0,0,6.17-19.84,25.07-16.62c2.82,0.4,5.9,1.34,9.25,2.95c20.78,9.92,22.52,23.32,29.36,39.68
			c-14.88-25.34-42.76-10.19-46.78-7.77C244.45,198.69,238.82,190.38,230.91,187.02z" class="st0"></path>
		<path d="M306.38,291.05c10.86,10.32,16.09,28.69,8.98,60.59l0.4,0.54c-13.81,8.58-25.74,13.54-35.79,15.95l-0.67-2.14
			c-49.2-13.27-11.93-59.65,3.62-57.91c-10.32-27.48-43.3-26.14-43.3-26.14C255.17,279.25,288.55,273.76,306.38,291.05z" class="st1"></path>
		<path d="M203.03,200.16c-5.5,15.68,12.06,35.52,12.06,35.52c-17.16,16.62-29.89,40.48-25.74,65.69
			c0.4,2.28,0.8,4.42,1.34,6.43c-2.14-8.04-6.84-22.79-15.15-38.47h0.13c-1.61-17.69,6.7-24,13.54-36.6
			c-13.94-36.46,8.71-48.39,8.71-48.39C200.21,189.57,201.95,194.93,203.03,200.16z" class="st1"></path>
		<path d="M128.76,202.98c-10.05-24.93-4.56-50,16.76-57.24c13.81-4.69,27.48,2.95,38.2,15.55
			c-9.79,30.7-35.52,14.75-35.52,4.96C131.85,168.93,129.03,200.3,128.76,202.98z" class="st2"></path>
		<path d="M269.78,103.78c-22.39-1.47-27.88,26.14-27.88,26.14c-5.23-15.68-0.13-32.57,13.94-41.29
			c17.29-10.72,55.5-4.83,84.18,103.35c5.63,19.57,12.47,36.19,22.65,47.19c9.38,10.19,20.78,29.36,10.99,52.82
			c-0.13,0-0.13,0-0.13,0s0,0.27-0.13,0.67c-0.67,2.95-4.69,15.42-23.32,33.11c17.83-36.73,15.55-56.57-2.28-75.2
			c-10.46-10.86-23.06-27.61-25.74-55.5C319.52,167.05,292.17,105.25,269.78,103.78z" class="st2"></path>
		<path d="M383.46,301.1c11.93,14.48,22.12,45.58-49.46,86.87c-81.1,46.78-108.18,12.47-102.82-9.52
			c4.29,2.82,31.1,17.83,87.4-9.12C368.31,345.61,380.78,311.96,383.46,301.1z" class="st0"></path>
		<path d="M212.95,189.03c6.97-4.02,13-4.02,17.96-2.01c7.91,3.35,13.54,11.66,16.89,18.23
			c2.55,4.96,3.89,8.85,3.89,8.85v0.13c-11.66,2.55-25.2,10.32-36.6,21.45c0,0-17.56-19.84-12.06-35.52
			C204.5,196.01,207.58,192.12,212.95,189.03z" class="st0"></path>
		<path d="M268.04,263.17c16.76-0.54,35.79-23.46,29.22-44.24c1.21,2.41,2.55,4.96,4.16,7.51
			c1.88,3.08,3.49,6.43,4.69,9.92C313.62,257.27,305.84,280.59,268.04,263.17z" class="st0"></path>
		<path d="M350.08,325.77c18.63-17.69,22.65-30.16,23.32-33.11c0.13-0.27,0.13-0.4,0.27-0.67
			c0.94,0.67,5.5,3.75,9.79,9.12c-2.68,10.86-15.15,44.51-64.88,68.23c-56.3,26.94-83.11,11.93-87.4,9.12v-0.13
			c1.34-5.23,4.69-9.79,9.52-12.33c0,0,13.54,8.71,39.28,2.14c10.05-2.41,21.98-7.37,35.79-15.95c0.94-0.67,2.01-1.34,3.08-2.01
			C332.25,341.45,342.44,333.14,350.08,325.77z" class="st1"></path>
	</g>
</g>
<path d="M240.83,366.36c0,0,27.37,17.51,78.16-15.81s54.7-58.21,54.7-58.21s61.19,37.75-39.57,95.92
	S215.94,379.16,240.83,366.36z" class="st3"></path>
<path d="M240.83,366.36c0,0-42.2-9.44-51.32-64.67s63.16-104.58,84.47-83.1c21.31,21.48,0.68,45.36-34.09,63.7
	c24.82-4.35,94.84-15.66,75.67,69.69" class="st3"></path>
<path d="M192.36,314.42c0,0-9.63-48.88-42.91-80.85c-32.34-31.06-34.1-77.22-3.73-87.48
	c25.81-8.72,51.72,25.68,57.72,55.35" class="st3"></path>
<path d="M215.22,236.02c0,0-27.9-31.68-2.09-46.63c25.81-14.95,38.74,25.04,38.74,25.04" class="st3"></path>
<path d="M231.05,187.38c0,0,8.03-26.19,34.36-13.68c26.33,12.5,22.17,30.76,36.16,53.02
	c14,22.26,10.57,57.04-33.36,36.85" class="st3"></path>
<path d="M256.17,170.67c0,0,2.92-11.64-9.04-29.91c-11.96-18.27-8.34-41.05,8.96-51.78s55.4-4.79,84.19,103.4
	c5.62,19.49,12.41,36.12,22.56,47.1c10.15,10.98,22.61,32.47,8.32,58.54" class="st3"></path>
</svg>
