<svg xml:space="preserve" style="enable-background:new 0 0 500 500;" viewBox="0 0 500 500" y="0px" x="0px" xmlns:xlink="http://www.w3.org/1999/xlink" xmlns="http://www.w3.org/2000/svg" id="图层_1" version="1.1">
<style type="text/css">
	.st0{fill:#F49C08;}
	.st1{fill:#FFDA01;}
	.st2{fill:#FFFFFF;}
	.st3{fill:#4D1D47;}
</style>
<g>
	<g id="XMLID_58_">
		<g>
			<path d="M294.67,187.29c20.79-16.92,47.21-19.66,59.41,0.58c16.45,27.26,41.2,121.35-83.83,173.67
				c-20.65,8.65-39.09,12.9-55.48,13.99c108.38-40.5,109.11-102.1,109.11-102.1s-13.66,11.9-23.88,20.81
				c12.83-20.65,16.74-58.77,16.74-58.77c9.46-15.5,12.58-30.09,6.2-39.07C318.5,190.13,312.13,183.05,294.67,187.29z" class="st0"></path>
			<path d="M203.95,182.32c26.73-11.96,58.8-2.36,74.31,23.36c4.83,7.99,8.25,22.07,3.14,30.32
				c-11.31,12.58-26.29,24.07-51.76,32.23c-6.1,1.95-12.01,3.12-17.65,3.7c58.04-42.54,32.44-67.62,32.44-67.62s-3,4-6.85,9.37
				c3.81-18.54-33.62-31.33-33.62-31.33L203.95,182.32z" class="st0"></path>
			<path d="M243.25,295.24c31.68-12.01,59.51-36.9,73.51-59.77c0,0-3.91,38.11-16.74,58.77
				c10.21-8.9,23.88-20.81,23.88-20.81s-0.73,61.6-109.11,102.1c-9.13,0.61-17.63,0.23-25.54-0.93
				c-79.51-55.73-66.27-99.81-65.85-101.13C125.77,297.01,182.69,318.19,243.25,295.24z" class="st1"></path>
			<path d="M237.58,213.68c3.85-5.37,6.85-9.37,6.85-9.37s25.6,25.08-32.44,67.62c-10.77,1.14-20.62,0.13-28.96-1.7
				l0.14-0.68c-7.46-8.39-11.46-18.56-12.48-29.01c-2.07-21.21,8.18-43.63,26.81-54.86c2.09-1.27,4.25-2.4,6.44-3.36l0,0.03
				C203.95,182.35,241.39,195.13,237.58,213.68z" class="st1"></path>
			<path d="M170.7,240.54c1.02,10.45,5.02,20.61,12.48,29.01l-0.14,0.68c8.34,1.83,18.19,2.84,28.96,1.7
				c5.64-0.57,11.55-1.75,17.65-3.7c25.47-8.16,40.44-19.65,51.76-32.23c5.11-8.25,1.69-22.32-3.14-30.32
				c4.65-7.2,10.28-13.41,16.41-18.39c17.46-4.24,23.83,2.84,28.29,9.11c6.38,8.99,3.26,23.57-6.2,39.07
				c-13.99,22.86-41.83,47.75-73.51,59.77c-60.56,22.95-117.48,1.77-119.86-21.77c0-0.03,0.01-0.04,0.01-0.04
				c-2.25-23.04,21.43-29.59,22.43-29.86c0.03,0,0.03,0,0.03,0C163.15,244.54,170.7,240.54,170.7,240.54z" class="st1"></path>
			<path d="M131.91,241.9c5.21,0.92,9.85,1.42,13.92,1.66c-1,0.26-24.68,6.82-22.43,29.86c0,0-0.01,0.02-0.01,0.04
				c-0.42,1.33-13.66,45.41,65.85,101.13c-64.79-9.57-88.6-71.91-88.6-71.91C87.36,274.73,103.22,236.89,131.91,241.9z" class="st2"></path>
		</g>
	</g>
	<circle r="13.77" cy="228" cx="198.13" class="st2"></circle>
	<circle r="13.77" cy="228" cx="198.13" class="st2"></circle>
	<g>
		<path d="M179.95,270.67c-3.29-3.6-6.1-7.68-8.28-12.07c-2.17-4.4-3.71-9.1-4.64-13.9
			c-1.82-9.61-1.23-19.59,1.61-28.88c2.81-9.29,7.76-17.98,14.58-25.08c3.41-3.54,7.29-6.68,11.53-9.24
			c4.18-2.52,8.66-4.57,13.33-6.06c4.67-1.5,9.52-2.4,14.41-2.73c4.89-0.34,9.82-0.13,14.65,0.7c9.68,1.57,18.93,5.54,26.83,11.35
			c3.94,2.92,7.53,6.3,10.69,10.05c0.8,0.93,1.52,1.92,2.29,2.87c0.7,1,1.43,1.99,2.1,3.01l0.98,1.55l0.49,0.78l0.49,0.86
			c0.63,1.15,1.2,2.31,1.71,3.48c2,4.68,3.17,9.58,3.38,14.73c0.08,2.58-0.08,5.22-0.72,7.88c-0.63,2.65-1.73,5.36-3.58,7.67
			l-7.06-4.47c1.05-2.87,1.1-6.44,0.49-10.11c-0.61-3.67-1.81-7.43-3.4-10.84c-0.4-0.85-0.81-1.68-1.26-2.46l-0.34-0.57l-0.4-0.63
			l-0.8-1.25c-0.54-0.83-1.14-1.62-1.71-2.43c-0.62-0.77-1.21-1.57-1.86-2.31c-2.56-3.01-5.47-5.72-8.65-8.07
			c-6.38-4.66-13.87-7.8-21.67-9.12c-3.9-0.68-7.88-0.87-11.82-0.61c-3.94,0.26-7.86,0.96-11.63,2.16
			c-3.78,1.17-7.43,2.76-10.86,4.76c-3.37,1.97-6.46,4.4-9.24,7.2c-5.53,5.61-9.71,12.66-12.12,20.28
			c-2.42,7.61-3.19,15.79-1.89,23.63c1.28,7.83,4.64,15.25,9.78,21.33L179.95,270.67z" class="st3"></path>
	</g>
	<g>
		<path d="M156.99,257.65c6.43,2.41,12.88,4.16,19.36,5.42c6.47,1.26,12.94,1.97,19.35,2.09
			c6.42,0.18,12.75-0.51,18.95-1.59c1.54-0.35,3.08-0.65,4.62-0.95c1.53-0.35,3.03-0.87,4.54-1.29c3.01-0.74,6.1-1.99,9.15-3.02
			c1.52-0.56,3.01-1.18,4.51-1.76l2.25-0.89l2.19-1c1.46-0.67,2.97-1.24,4.39-1.99c1.43-0.72,2.85-1.46,4.29-2.16
			c5.64-3.01,11.02-6.47,16.15-10.39c5.13-3.91,9.96-8.34,14.69-13.05c4.75-4.69,9.35-9.72,14.37-14.44
			c-2.89,6.24-6.06,12.27-9.77,18.13c-3.71,5.83-8.04,11.41-13.05,16.44c-5,5.04-10.69,9.44-16.74,13.19
			c-1.53,0.9-3.09,1.76-4.64,2.63c-0.77,0.45-1.56,0.85-2.36,1.23l-2.39,1.17l-2.4,1.14l-2.45,1.01c-1.64,0.66-3.26,1.37-4.91,1.98
			l-4.99,1.68c-1.63,0.59-3.39,1.05-5.15,1.49c-1.76,0.41-3.49,0.92-5.27,1.25c-1.78,0.28-3.57,0.57-5.35,0.82
			c-1.78,0.32-3.59,0.32-5.38,0.46c-1.8,0.11-3.59,0.23-5.39,0.12c-1.8-0.07-3.59-0.09-5.37-0.21l-5.32-0.64
			c-7.05-1.1-13.89-3.05-20.31-5.86C168.19,265.83,162.1,262.3,156.99,257.65z" class="st3"></path>
	</g>
	<g>
		<path d="M174,243.8c-0.38,0.2-0.51,0.24-0.73,0.35c-0.22,0.1-0.38,0.16-0.57,0.24c-0.37,0.16-0.72,0.28-1.07,0.4
			c-0.71,0.26-1.38,0.45-2.06,0.66c-1.35,0.38-2.69,0.68-4.03,0.94c-2.67,0.52-5.31,0.77-7.94,0.96c-5.26,0.31-10.44,0.1-15.56-0.42
			l-3.82-0.44l-3.79-0.58l-1.71-0.26c-0.5-0.08-1-0.12-1.5-0.17c-1-0.08-1.99-0.08-2.97-0.03c-3.92,0.23-7.63,1.62-10.83,4
			c-3.19,2.38-5.85,5.7-7.83,9.46c-1.99,3.77-3.33,7.98-4.02,12.29c-1.39,8.65-0.19,17.76,3.53,25.55l0.06,0.13l0.11,0.27
			c0.16,0.41,0.42,1.02,0.65,1.54l0.75,1.65c0.52,1.1,1.06,2.2,1.62,3.3c1.13,2.19,2.33,4.35,3.6,6.47
			c2.54,4.24,5.31,8.37,8.32,12.29c6.01,7.85,12.93,15,20.68,20.99c7.73,6.02,16.33,10.85,25.44,14.3c9.13,3.42,18.78,5.39,28.56,6
			c9.79,0.6,19.7-0.17,29.47-1.93c9.77-1.8,19.41-4.57,28.82-8.09c18.84-7.08,37.09-16.31,52.97-28.31
			c7.91-6.04,15.22-12.79,21.54-20.33c6.32-7.53,11.6-15.85,15.54-24.76c3.93-8.91,6.5-18.4,7.58-28.09
			c1.1-9.69,0.77-19.56-0.89-29.21c-0.84-4.82-1.98-9.6-3.47-14.25c-1.48-4.64-3.29-9.19-5.47-13.41c-0.54-1.06-1.12-2.07-1.7-3.07
			c-0.56-0.9-1.14-1.78-1.78-2.59c-1.27-1.63-2.71-3.06-4.32-4.24c-3.22-2.37-7.13-3.7-11.37-4.08c-4.24-0.38-8.74,0.26-13.13,1.57
			c-4.41,1.3-8.7,3.32-12.76,5.79c-8.13,4.97-15.28,11.8-21.06,19.7l-7.01-4.54c5.49-9.43,13.05-17.77,22.27-24.09
			c4.61-3.16,9.67-5.77,15.11-7.64c5.45-1.83,11.34-2.85,17.44-2.49c6.07,0.34,12.34,2.39,17.51,6.11c2.58,1.86,4.86,4.08,6.78,6.52
			c0.96,1.22,1.81,2.5,2.61,3.8c0.73,1.23,1.43,2.47,2.06,3.72c2.57,4.98,4.58,10.08,6.25,15.28c1.67,5.2,2.94,10.5,3.87,15.87
			c1.85,10.73,2.23,21.73,0.99,32.6c-1.21,10.87-4.11,21.57-8.53,31.58c-4.42,10.01-10.35,19.31-17.32,27.63
			c-6.97,8.33-14.96,15.68-23.48,22.19c-8.56,6.47-17.65,12.11-27.05,17.07c-9.43,4.92-19.03,9.26-29.03,12.95
			c-9.98,3.69-20.3,6.61-30.89,8.51c-10.59,1.86-21.45,2.66-32.31,1.95c-10.85-0.72-21.68-2.97-31.91-6.87
			c-10.22-3.91-19.83-9.38-28.38-16.11c-8.58-6.7-16.13-14.59-22.64-23.18c-3.26-4.3-6.25-8.79-8.97-13.45
			c-1.36-2.33-2.65-4.7-3.87-7.12c-0.61-1.21-1.2-2.43-1.77-3.68l-0.84-1.89c-0.28-0.66-0.53-1.24-0.83-2.04l0.17,0.4
			c-4.67-10.02-6-21.3-4.19-32.04c0.92-5.37,2.62-10.65,5.27-15.56c2.64-4.89,6.26-9.45,11-12.92c4.71-3.47,10.6-5.64,16.51-5.9
			c1.47-0.06,2.94-0.04,4.39,0.08c0.72,0.08,1.45,0.14,2.16,0.26l1.93,0.31l3.49,0.57l3.5,0.45c4.66,0.53,9.32,0.77,13.89,0.57
			c2.27-0.14,4.54-0.32,6.7-0.71c1.08-0.19,2.14-0.42,3.16-0.69c0.49-0.15,1.01-0.28,1.45-0.44c0.23-0.08,0.46-0.16,0.66-0.24
			c0.09-0.04,0.22-0.08,0.28-0.11c0.06-0.02,0.21-0.09,0.1-0.04L174,243.8z" class="st3"></path>
	</g>
	<g>
		<path d="M148.99,247.06c-0.15,0.05-0.58,0.18-0.89,0.29c-0.34,0.12-0.69,0.25-1.03,0.38
			c-0.69,0.27-1.38,0.57-2.06,0.89c-1.36,0.65-2.67,1.38-3.9,2.19c-2.47,1.62-4.59,3.59-6.22,5.78c-1.64,2.19-2.71,4.66-3.24,7.31
			c-0.25,1.33-0.41,2.69-0.37,4.1c-0.02,0.7,0.05,1.41,0.1,2.12c0.01,0.39,0.07,0.62,0.1,0.91c0.04,0.28,0.12,0.55,0.17,0.83
			c0.57,2.22,1.94,4.51,3.85,6.6c1.9,2.09,4.28,3.98,6.86,5.65c5.21,3.32,11.22,5.78,17.44,7.61c12.49,3.62,25.87,4.69,39.04,3.85
			c13.2-0.86,26.29-3.72,38.73-8.29c12.39-4.46,24.08-10.97,34.79-18.85c10.68-7.89,20.46-17.14,28.52-27.54
			c4.02-5.19,7.6-10.69,10.34-16.42c1.36-2.86,2.51-5.77,3.29-8.66c0.79-2.89,1.21-5.77,1.1-8.37c-0.08-2.62-0.76-4.86-1.91-6.7
			c-1.71-2.62-3.38-4.62-5.3-5.98c-1.93-1.34-4.29-2.2-7.11-2.49c-2.8-0.34-5.91-0.13-9.1,0.24l-1.96-8.13
			c3.53-1.21,7.31-2.06,11.42-2.15c4.06-0.09,8.64,0.78,12.58,3.11c1.97,1.13,3.74,2.55,5.22,4.08c1.5,1.54,2.72,3.08,3.86,4.64
			c1.39,1.91,2.42,4.07,3.1,6.25c0.69,2.19,1.04,4.39,1.16,6.54c0.23,4.31-0.47,8.33-1.47,12.1c-1.03,3.77-2.43,7.31-4.04,10.69
			c-3.23,6.75-7.25,12.87-11.67,18.6c-8.88,11.44-19.38,21.34-30.89,29.87c-11.53,8.48-24.21,15.59-37.83,20.48
			c-13.52,4.83-27.73,7.81-42.11,8.64c-14.37,0.79-28.94-0.45-42.98-4.64c-7.01-2.11-13.89-5-20.27-9.22
			c-3.18-2.13-6.24-4.6-8.94-7.67c-2.67-3.06-5.04-6.81-6.13-11.33c-0.11-0.57-0.24-1.13-0.32-1.71c-0.07-0.57-0.16-1.19-0.17-1.67
			c-0.06-1.01-0.13-2.02-0.09-3.05c0-2.05,0.26-4.13,0.69-6.19c0.89-4.11,2.72-8.1,5.28-11.39c2.54-3.32,5.69-5.98,9.03-8.07
			c1.68-1.05,3.41-1.96,5.2-2.75c0.89-0.4,1.79-0.77,2.72-1.1c0.46-0.17,0.93-0.33,1.41-0.48c0.51-0.16,0.9-0.29,1.59-0.46
			L148.99,247.06z" class="st3"></path>
	</g>
</g>
</svg>
