<svg viewBox="0 0 1814.17 1814.17" xmlns="http://www.w3.org/2000/svg" id="图层_1"><defs><style>.cls-1{fill:#f6b864;}.cls-2{fill:#e49c46;}.cls-12,.cls-13,.cls-3,.cls-6,.cls-9{fill:none;stroke-miterlimit:10;stroke-width:16px;}.cls-13,.cls-3{stroke:#d48633;}.cls-4{fill:#ec7873;}.cls-5{fill:#da6563;}.cls-6{stroke:#cf4d4b;}.cls-7{fill:#f7e293;}.cls-8{fill:#efd274;}.cls-9{stroke:#deb32c;}.cls-10{fill:#88cbf0;}.cls-11{fill:#77bede;}.cls-12{stroke:#357eaa;}.cls-13{stroke-linecap:round;}.cls-14{fill:#fcfbfb;}</style></defs><title>冰淇淋</title><path d="M551.68,877.23l720.07-288.37,8.83,967.83c.32,35.42-43,52.78-67.23,26.93Z" class="cls-1"></path><path d="M551.68,877.23l720.07-288.37,8.84,968.8c.32,35.07-42.61,52.26-66.58,26.66Z" class="cls-1"></path><path d="M1271.75,588.86l9,988.83c.07,8-11.5,9-12.87,1.18L1139.6,847.3S1063.53,989.17,965,916.5c0,0-49.75,42.43-82.75-11.89,0,0-67.89,174.54-206.69,104.9l-28.51-25.83-46.71-64.26,671.39-330.56" class="cls-2"></path><path d="M551.68,877.23l720.07-288.37,8.84,968.81c.32,35.07-42.6,52.26-66.58,26.66Z" class="cls-3"></path><path d="M565.74,497.64c-129.32,51.78-192.17,198.6-140.38,327.92,2.83,7.07,6.07,13.86,9.45,20.53a30.08,30.08,0,0,0,1.84,7.67l77.9,194.51A30.38,30.38,0,0,0,571,1025.68L542.7,955.14c63,32.91,139.41,39.3,210.58,10.79C882.6,914.15,945.45,767.33,893.66,638S695.06,445.85,565.74,497.64Z" class="cls-4"></path><path d="M714.15,978c170.61-43.49,234.11-214.3,175.53-349.69-31.24-72.21-124.23,14.79-197.33-3.86C834.1,718.72,714.15,978,714.15,978Z" class="cls-5"></path><path d="M565.74,497.64c-129.32,51.78-192.17,198.6-140.38,327.92,2.83,7.07,6.07,13.86,9.45,20.53a30.08,30.08,0,0,0,1.84,7.67l77.9,194.51A30.38,30.38,0,0,0,571,1025.68L542.7,955.14c63,32.91,139.41,39.3,210.58,10.79C882.6,914.15,945.45,767.33,893.66,638S695.06,445.85,565.74,497.64Z" class="cls-6"></path><path d="M930.43,325C803.56,375.81,741,518.05,787.52,645.54a30.43,30.43,0,0,0,1.09,3.77l77.9,194.51a30.38,30.38,0,0,0,56.4-22.58L907.4,782.51a254.16,254.16,0,0,0,51.87,20.09l32.49,81.14a30.38,30.38,0,0,0,56.41-22.59l-20-50A251.16,251.16,0,0,0,1118,793.3c129.31-51.79,192.17-198.6,140.38-327.92S1059.75,273.21,930.43,325Z" class="cls-7"></path><path d="M1079.55,805.15c174-44.83,235.43-209.5,176.77-344.86C1225,388.1,1162.77,334.88,1088.5,316.7,1249.94,494.48,1079.55,805.15,1079.55,805.15Z" class="cls-8"></path><path d="M933.25,332C806.38,382.85,743.77,525.09,790.34,652.57a31.09,31.09,0,0,0,1.09,3.78l77.9,194.51a30.38,30.38,0,1,0,56.4-22.59l-15.52-38.73a253.45,253.45,0,0,0,51.87,20.09l32.5,81.15A30.38,30.38,0,0,0,1051,868.19l-20-50a251,251,0,0,0,89.84-17.83c129.31-51.79,192.16-198.61,140.37-327.93S1062.57,280.25,933.25,332Z" class="cls-9"></path><path d="M696,244.85C595.59,285.08,544.62,395.72,576.78,497.23a30.1,30.1,0,0,0,1.74,6.45L644.4,668.19a30.4,30.4,0,0,0,39.5,16.91h0a30.38,30.38,0,0,0,16.91-39.5l-8.46-21.11a204.64,204.64,0,0,0,156.35,1.56C954,583.89,1005.13,464.38,963,359.12S801.3,202.69,696,244.85Z" class="cls-10"></path><path d="M817.59,636.17c141.58-36.48,191.59-170.49,143.85-280.64C936,296.77,885.31,253.47,824.87,238.67,956.25,383.35,817.59,636.17,817.59,636.17Z" class="cls-11"></path><path d="M696,244.85C595.59,285.08,544.62,395.72,576.78,497.23a30.1,30.1,0,0,0,1.74,6.45L644.4,668.19a30.4,30.4,0,0,0,39.5,16.91h0a30.38,30.38,0,0,0,16.91-39.5l-8.46-21.11a204.64,204.64,0,0,0,156.35,1.56C954,583.89,1005.13,464.38,963,359.12S801.3,202.69,696,244.85Z" class="cls-12"></path><line y2="1126.58" x2="926.96" y1="1074.24" x1="828.25" class="cls-13"></line><line y2="1147.66" x2="853.13" y1="1045.85" x1="899.14" class="cls-13"></line><line y2="1206.1" x2="915.41" y1="1104.29" x1="961.42" class="cls-13"></line><line y2="1244.36" x2="1042.38" y1="1192.02" x1="943.67" class="cls-13"></line><line y2="1265.45" x2="968.56" y1="1163.63" x1="1014.57" class="cls-13"></line><circle r="12.81" cy="411.05" cx="627.64" class="cls-14"></circle><circle r="7.82" cy="445.24" cx="623.87" class="cls-14"></circle><circle r="12.81" cy="673.77" cx="478.42" class="cls-14"></circle><circle r="7.82" cy="703.84" cx="461.73" class="cls-14"></circle></svg>