<svg xml:space="preserve" style="enable-background:new 0 0 500 500;" viewBox="0 0 500 500" y="0px" x="0px" xmlns:xlink="http://www.w3.org/1999/xlink" xmlns="http://www.w3.org/2000/svg" id="图层_1" version="1.1">
<style type="text/css">
	.st0{fill:#AECCCC;}
	.st1{fill:#5E8187;}
	.st2{fill:#74ADAC;}
	.st3{fill:#3F6D72;}
	.st4{fill:#75AAA9;}
	.st5{fill:none;stroke:#441737;stroke-width:12;stroke-linecap:round;stroke-linejoin:round;stroke-miterlimit:10;}
	.st6{fill:none;stroke:#441737;stroke-width:8;stroke-linecap:round;stroke-linejoin:round;stroke-miterlimit:10;}
	.st7{fill:none;stroke:#441737;stroke-width:8.8737;stroke-linecap:round;stroke-linejoin:round;stroke-miterlimit:10;}
	.st8{opacity:0.6;fill:none;stroke:#FFFFFF;stroke-width:8.8737;stroke-linecap:round;stroke-linejoin:round;stroke-miterlimit:10;}
</style>
<g>
	<g id="XMLID_60_">
		<g>
			<path d="M327.46,108.66c8.42-2.66,17.57,1.23,21.47,9.18c7.25,14.68,18.57,39.61,27.09,66.98
				c2.25,7.25-0.27,15.16-6.37,19.7c-1.36,1.02-2.3,1.65-2.3,1.65c-4.92-23.16-22.31-77.84-40.35-97.36L327.46,108.66z" class="st0"></path>
			<path d="M327,108.81c18.04,19.52,35.43,74.2,40.35,97.36c0.67,3.2-0.99,6.46-3.92,7.85
				c-11.8,5.58-23.16,10.51-34.06,14.8c-11.32,4.54-22.15,8.39-32.35,11.69c-50.79,16.5-87.14,19.52-101.95,20.07
				c-2.95,0.13-5.63-1.55-6.78-4.26c-0.33-0.78-0.65-1.52-0.94-2.31c-9.87-24.33-15.53-49.58-18.04-62.72
				c-0.39-2.03-0.73-3.77-0.96-5.17c-0.44-2.47,0.47-5.03,2.4-6.65c46-38.19,117.99-64.76,147.94-73.75
				c2.42-0.72,5.04-0.16,6.87,1.62C326.05,107.8,326.5,108.29,327,108.81z" class="st1"></path>
			<path d="M380.57,359.5c1.85,3.46,1.57,7.63-0.76,10.81c-3.67,5.03-9.4,13.03-14.63,20.75
				c-4.21,6.26-13.55,6.01-17.39-0.53c-14.43-24.62-25.68-55.05-33.91-82.05c-2.84-9.25-5.3-18.12-7.39-26.21
				c-6.36-24.39-9.47-41.72-9.47-41.72l-0.01-0.04c10.2-3.3,21.03-7.15,32.35-11.69l0.01,0.04
				C338.64,278.18,370.55,340.69,380.57,359.5z" class="st0"></path>
			<path d="M300.49,284.16l6.01-1.9c2.09,8.1,4.56,16.96,7.39,26.21l-0.04,0.01l-5.17,1.63L300.49,284.16z" class="st1"></path>
			<path d="M161.99,212.92c-1.98-6.28-0.48-13.11,4.01-17.98l3.31-3.66c2.51,13.14,8.17,38.39,18.04,62.72l-3.83-1.06
				c-6.07-1.62-10.86-6.25-12.75-12.23L161.99,212.92z" class="st0"></path>
		</g>
	</g>
</g>
<path d="M165.98,194.92c0,0-0.08,11.26,12.5,47.83c-1.36,2.3-7.51-1.37-9.75-8.46c5.19,12.36,8.19,20.32,17.63,19.45
	c-4.81-15.39-17.07-62.45-17.07-62.45L165.98,194.92z" class="st2"></path>
<circle r="2.53" cy="232.97" cx="175.39" class="st2"></circle>
<circle r="0.62" cy="226.12" cx="170.58" class="st2"></circle>
<path d="M342,132.55c0,0,0.87,70.45-86.63,101.52c-45.58,15.64-67.47,21.31-67.47,21.31l2.9,3.99
	c0,0,22.65,4.94,79.74-10.83s93.98-35.26,96.26-36.89C369.22,207.47,353.38,155.22,342,132.55z" class="st3"></path>
<path d="M233.01,256.1c0,0,136.48-36.73,132.65-58.82c4,7.23,4.31,15.54-8.21,20.32
	C344.93,222.37,273.16,252.53,233.01,256.1z" class="st1"></path>
<path d="M329.47,111.72c0,0-2.39-4.1-18.56,0.98c-16.17,5.08-90.77,31.43-141.44,73.48c-0.9-3.39,0.34-5.73,0.34-5.73
	s58.11-49.09,152.55-75.93C327.28,106.25,329.47,111.72,329.47,111.72z" class="st0"></path>
<path d="M299.17,112.12c0,0,25.13,42.94,45.77,110.25c-8.62,4.28-23.5,9.55-23.5,9.55s-28.39-83.98-46.46-110.67
	C286.29,116.83,299.17,112.12,299.17,112.12z" class="st2"></path>
<path d="M263.74,125.91c0,0,27.59,61.06,47.38,109.82c-4.58,1.3-11.71,3.15-11.71,3.15s-35.8-87.9-45.62-108.62
	C260.14,127.47,263.74,125.91,263.74,125.91z" class="st2"></path>
<circle r="6.39" cy="162" cx="336.93" class="st1"></circle>
<circle r="3.26" cy="177.17" cx="338.43" class="st1"></circle>
<circle r="1.49" cy="173.9" cx="349.11" class="st1"></circle>
<path d="M331.11,107.52c0,0,8.2,2.05,14.01,17.09c5.81,15.04,27.81,62,27.25,79.98c-4.37,2.55-4.37,2.55-4.37,2.55
	s-15.06-65.05-41.23-98.55C328.87,108.29,331.11,107.52,331.11,107.52z" class="st4"></path>
<circle r="3.04" cy="167.78" cx="363.31" class="st4"></circle>
<circle r="1.86" cy="156.17" cx="361.55" class="st4"></circle>
<path d="M298.6,248.52c0,0,6.82-2.12,22.05-8.21c2.78,13.75,29.64,93.84,46.1,117.34c4.79,6.28-9.97,32.63-21.14,32.8
	c6.28,3.99,13.79,8.74,22.23-3.24c8.44-11.98,14.34-23.2,14.34-23.2s-8.69-18.15-10.35-21.52S340.12,281,329.38,228.83
	c-13.63,4.84-33.21,11.99-33.21,11.99L298.6,248.52z" class="st4"></path>
<circle r="6.69" cy="369.29" cx="365.91" class="st4"></circle>
<circle r="2.07" cy="368.96" cx="351.59" class="st4"></circle>
<circle r="2.19" cy="359.29" cx="353" class="st4"></circle>
<path d="M325.57,230.03c0,0,7.38,46.27,35.29,89.23c-6.83-15.23-22.54-49.86-31.49-90.43
	C327.78,229.83,325.57,230.03,325.57,230.03z" class="st0"></path>
<g>
	<path d="M168.35,186.1c1.89,10.78,7.93,41.44,19.94,70.21c1.13,2.71,3.85,4.4,6.79,4.28
		c20.62-0.81,83.25-6.3,168.35-46.59c2.94-1.39,4.59-4.64,3.91-7.83c-5.05-23.81-23.22-80.74-41.79-98.86
		c-1.8-1.76-4.42-2.33-6.83-1.61c-29.98,8.98-101.95,35.57-147.96,73.77C168.82,181.08,167.91,183.62,168.35,186.1z" class="st5"></path>
	<path d="M326.99,108.81l0.45-0.14c8.46-2.67,17.59,1.21,21.5,9.16c7.22,14.69,18.55,39.6,27.08,66.97
		c2.26,7.24-0.27,15.17-6.35,19.7c-1.37,1.02-2.32,1.67-2.32,1.67" class="st5"></path>
	<path d="M167.3,191.29l-3.33,3.63c-4.45,4.86-5.97,11.73-3.99,18.01l8.78,27.79c1.89,5.98,6.69,10.59,12.73,12.24
		l3.84,1.05" class="st6"></path>
	<path d="M297.02,240.55c0,0,16.5,91.41,50.79,149.99c3.83,6.54,13.15,6.79,17.39,0.51c5.2-7.7,10.95-15.7,14.62-20.74
		c2.31-3.17,2.6-7.33,0.76-10.79c-10.02-18.84-41.93-81.36-51.23-130.67" class="st5"></path>
	<polyline points="306.51,282.27 300.51,284.17 308.71,310.13 313.87,308.5" class="st7"></polyline>
	<path d="M83.46,195.18L83.46,195.18c5.68,18,24.88,27.98,42.88,22.3l18.46-5.83" class="st8"></path>
	<line y2="226.75" x2="152.9" y1="240.01" x1="110.92" class="st8"></line>
	<path d="M140.82,252.33l-25.46,8.04c-5.99,1.89-9.31,8.28-7.42,14.26l0,0" class="st8"></path>
</g>
</svg>
