<svg xml:space="preserve" style="enable-background:new 0 0 500 500;" viewBox="0 0 500 500" y="0px" x="0px" xmlns:xlink="http://www.w3.org/1999/xlink" xmlns="http://www.w3.org/2000/svg" id="图层_1" version="1.1">
<style type="text/css">
	.st0{fill:#54A281;}
	.st1{fill:#ED757F;}
	.st2{fill:#E0B663;}
	.st3{fill:#7FCCA6;}
	.st4{fill:#AECCCC;}
	.st5{fill:#5E8187;}
	.st6{fill:#5D8086;}
	.st7{fill:#CCE2E1;}
	.st8{fill:#81B5B4;}
	.st9{fill:#44696D;}
	.st10{fill:#C7F9DE;}
	.st11{fill:#FFB3BC;}
	.st12{fill:#60B287;}
	.st13{fill:#DD5B6B;}
	.st14{fill:#FFE2AE;}
	.st15{fill:#DB9B3E;}
	.st16{fill:#368762;}
	.st17{fill:#436C70;}
	.st18{fill:none;stroke:#441737;stroke-width:12;stroke-linecap:round;stroke-linejoin:round;stroke-miterlimit:10;}
	.st19{fill:none;stroke:#441737;stroke-width:6;stroke-linecap:round;stroke-linejoin:round;stroke-miterlimit:10;}
	.st20{fill:none;stroke:#441737;stroke-width:4;stroke-linecap:round;stroke-linejoin:round;stroke-miterlimit:10;}
</style>
<g id="XMLID_43_">
	<g>
		<path d="M324.41,228.7c5.46,2.19,8.07,8.42,5.87,13.88c-2.19,5.4-8.36,8.07-13.82,5.87
			c-5.46-2.19-8.07-8.42-5.87-13.82C312.78,229.18,318.95,226.51,324.41,228.7z" class="st0"></path>
		<path d="M313.32,203.38c5.46,2.19,8.07,8.42,5.87,13.88c-2.19,5.4-8.36,8.07-13.82,5.87
			c-5.46-2.19-8.07-8.42-5.87-13.82C301.69,203.85,307.86,201.18,313.32,203.38z" class="st1"></path>
		<path d="M285.03,245.13c2.19-5.46,8.36-8.07,13.82-5.87c5.46,2.19,8.13,8.36,5.93,13.82
			c-2.19,5.46-8.42,8.07-13.88,5.87C285.44,256.76,282.83,250.59,285.03,245.13z" class="st2"></path>
		<path d="M288.59,214.29c5.46,2.19,8.07,8.36,5.87,13.82c-2.19,5.46-8.36,8.07-13.82,5.87
			c-5.46-2.19-8.07-8.36-5.87-13.82C276.96,214.71,283.13,212.1,288.59,214.29z" class="st3"></path>
		<path d="M200.81,195.19c4.03,1.6,8.54-0.3,10.14-4.33c0.36-0.95,0.59-1.96,0.59-2.91c0-3.08-1.84-5.99-4.86-7.24
			l-4.45-1.78c-4.03-1.6-5.93-6.17-4.33-10.14l1.78-4.45c1.6-3.97-0.3-8.48-4.27-10.14c-0.95-0.36-1.96-0.53-2.91-0.53
			c-3.08,0-5.99,1.84-7.24,4.86l-1.84,4.45c-1.6,3.97-6.11,5.93-10.08,4.33l-4.45-1.84c-4.03-1.6-8.54,0.36-10.14,4.33
			c-0.36,0.95-0.59,1.96-0.59,2.91c0,3.08,1.84,5.99,4.86,7.24l4.45,1.78c4.03,1.6,5.93,6.17,4.33,10.14l-1.78,4.45
			c-1.6,3.97,0.3,8.54,4.27,10.14c0.95,0.36,1.96,0.59,2.97,0.59c3.08,0,5.93-1.84,7.18-4.92l1.84-4.45
			c1.6-3.97,6.11-5.87,10.08-4.27L200.81,195.19z M348.55,285.4c-20.11,27.46-36.18,28.05-43.71,21.94
			c-7.53-6.11-30.72-48.04-35.47-52.25c-4.8-4.15-70.99-30.54-80.01-32.26c-9.02-1.66-55.75,17.26-66.49,12.63
			c-10.44-4.51-13.05-38.14-13.17-39.8c0-0.06,0-0.06,0-0.06c10.32-26.75,42.53-47.27,68.09-61.09c28.47-15.3,46.56-5.75,51.24,2.25
			c5.87,8.48,13.29,14.65,21.17,19.1c7,3.97,14.35,6.58,21.41,8.24c18.5,4.57,34.58,2.85,34.58,2.85
			c19.28-1.3,30.9,23.43,36.48,40.86c8.78,27.34,13.52,53.73,5.93,77.58H348.55z M310.59,234.63c-2.19,5.4,0.42,11.62,5.87,13.82
			c5.46,2.19,11.62-0.47,13.82-5.87c2.19-5.46-0.42-11.68-5.87-13.88S312.78,229.18,310.59,234.63z M299.5,209.31
			c-2.19,5.4,0.42,11.62,5.87,13.82c5.46,2.19,11.62-0.47,13.82-5.87c2.19-5.46-0.42-11.68-5.87-13.88
			C307.86,201.18,301.69,203.85,299.5,209.31z M298.85,239.26c-5.46-2.19-11.62,0.42-13.82,5.87c-2.19,5.46,0.42,11.62,5.87,13.82
			c5.46,2.19,11.68-0.42,13.88-5.87C306.97,247.62,304.3,241.46,298.85,239.26z M280.64,233.98c5.46,2.19,11.62-0.42,13.82-5.87
			c2.19-5.46-0.42-11.62-5.87-13.82c-5.46-2.19-11.62,0.42-13.82,5.87C272.57,225.62,275.18,231.79,280.64,233.98z M253.3,207.71
			c0.83-2.08-0.18-4.33-2.19-5.16l-16.01-6.46c-2.02-0.83-4.33,0.18-5.16,2.19l-0.18,0.42c-0.77,2.02,0.18,4.33,2.19,5.16
			l16.01,6.46c2.02,0.83,4.33-0.18,5.16-2.19L253.3,207.71z" class="st4"></path>
		<path d="M251.1,202.55c2.02,0.83,3.02,3.08,2.19,5.16l-0.18,0.42c-0.83,2.02-3.14,3.02-5.16,2.19l-16.01-6.46
			c-2.02-0.83-2.97-3.14-2.19-5.16l0.18-0.42c0.83-2.02,3.14-3.02,5.16-2.19L251.1,202.55z" class="st5"></path>
		<path d="M197.9,168.8c-1.6,3.97,0.3,8.54,4.33,10.14l4.45,1.78c3.02,1.25,4.86,4.15,4.86,7.24
			c0,0.95-0.24,1.96-0.59,2.91c-1.6,4.03-6.11,5.93-10.14,4.33l-4.45-1.78c-3.97-1.6-8.48,0.3-10.08,4.27l-1.84,4.45
			c-1.25,3.08-4.09,4.92-7.18,4.92c-1.01,0-2.02-0.24-2.97-0.59c-3.97-1.6-5.87-6.17-4.27-10.14l1.78-4.45
			c1.6-3.97-0.3-8.54-4.33-10.14l-4.45-1.78c-3.02-1.25-4.86-4.15-4.86-7.24c0-0.95,0.24-1.96,0.59-2.91
			c1.6-3.97,6.11-5.93,10.14-4.33l4.45,1.84c3.97,1.6,8.48-0.36,10.08-4.33l1.84-4.45c1.25-3.02,4.15-4.86,7.24-4.86
			c0.95,0,1.96,0.18,2.91,0.53c3.97,1.66,5.87,6.17,4.27,10.14L197.9,168.8z" class="st5"></path>
		<path d="M304.84,307.35c7.53,6.11,23.61,5.52,43.71-21.94h0.06c-0.95,3.2-2.19,6.35-3.68,9.43
			c-3.2,6.7-7.53,13.17-13.17,19.34c-27.76,30.49-41.58-8.96-41.58-8.96c-15.42-28.23-24.97-36.59-30.49-39.8
			c-5.46-3.14-63.46-25.27-71.94-29c-8.48-3.74-22,2.43-49.76,11.27c-27.76,8.84-36.42-11.45-30.84-42.82
			c0.53-3.14,1.42-6.23,2.55-9.19c0.12,1.66,2.73,35.29,13.17,39.8c10.74,4.63,57.47-14.29,66.49-12.63
			c9.02,1.72,75.2,28.11,80.01,32.26C274.11,259.31,297.3,301.24,304.84,307.35z" class="st6"></path>
	</g>
</g>
<path d="M186.01,130.68c0,0,24.76-6.31,34.64,7.53s30.09,37.07,83.25,34.46c6.37-0.64,23.24,3.84,36.44,32.47
	c-3.63-12.61-14.8-36.5-31.01-38.17c-17.95-1.85-58.74,4.01-80.36-28.22C224.38,130.08,206.98,120.5,186.01,130.68z" class="st7"></path>
<path d="M187.72,129.9c0,0-64.6,48.72-59.11,83.59c4.75,16.3,41.33,5.84,59.11-0.24s79.96,25.95,84.78,29.93
	c4.82,3.98,32.06,52.82,39.75,56.3c7.69,3.47,32.27-7.34,35.73-16.74c-11.41,16.5-26.48,31.99-41.43,26.54
	c-14.95-5.45-24.86-40.23-37.45-52.83c-9.78-6.48-76.92-34.41-81.94-33.68c0,0-55.58,12.63-61.62,13.42
	c-8.38,1.08-21.06-20.29-15.81-46.29C120.04,173.36,153.03,138.95,187.72,129.9z" class="st8"></path>
<circle r="6.41" cy="219.66" cx="150.17" class="st8"></circle>
<circle r="2.77" cy="205.04" cx="158.39" class="st8"></circle>
<circle r="1.38" cy="203.66" cx="145.15" class="st8"></circle>
<path d="M120.2,234.77c-1.62-0.82,15.21-1.23,35.46-7.64c8.13-2.58,27.37-7.46,32.26-7.46
	c5.27,0,55.61,19.39,75.24,28.8c4.09,1.96,7.64,4.78,10.4,8.37c12.63,16.37,26.29,44.68,33.03,49.31
	c6.92,4.76,17.26,1.14,17.26,1.14s-15.41,10.27-28.12-9.44s-27.42-42.55-27.42-42.55s-62.17-29.22-80.18-32.29
	C181.99,223.22,130.91,240.17,120.2,234.77z" class="st4"></path>
<circle r="4.74" cy="218" cx="219.02" class="st4"></circle>
<circle r="1.4" cy="228.53" cx="228.91" class="st4"></circle>
<path d="M158.39,167.92c0,0-9.25,12.47,3.71,17.19c6.04,2.75,4.28,4.83,3.19,8.02c-1.1,3.19-1.11,13.88,9.99,13.64
	c-5.6-1.56-8.23-4.75-5.93-11.99c2.31-7.25,1.74-11.72-6.15-14.17C159.25,179.18,154.68,176.21,158.39,167.92z" class="st8"></path>
<path d="M198.96,159.24c0,0-8.3-3.91-12.47,6.48s-14.39,6.54-19.44,4.01c-5.05-2.53-9.23,4.98,2.2,9.08
	c11.42,4.1,5.27,17.94,4.28,20.57c-0.99,2.64-0.66,7.49,4.67,7.65c-3.02,0.7-11.31-1.56-9.06-10.28c2.25-8.72,3.36-11.96-3.26-14.6
	c-6.62-2.64-12.11-7.91-6.73-14.23c5.38-6.32,12.05-0.73,15.19,0.1c3.15,0.83,7.94-0.92,9.11-6.98
	C184.61,154.99,193.2,149.3,198.96,159.24z" class="st9"></path>
<circle r="2.34" cy="179.54" cx="177.62" class="st9"></circle>
<circle r="1.11" cy="186.77" cx="181.07" class="st9"></circle>
<path d="M160.46,166.77c0,0-7.58,7.03,5.38,12.77c7.14,2.83,8.46,5.57,4.94,14.36c0.88-5.82,0.47-9.52-5.73-12.69
	C159.93,178.61,152.88,173.79,160.46,166.77z" class="st5"></path>
<path d="M199.34,162.26c0,0-7.25,10.54-4.06,14.94c3.19,4.39,9.23,5.49,11.09,6.81c1.87,1.32,4,6.26,1.78,9.88
	c1.6-2.1,4.77-8.89-0.76-12.02C201.87,178.74,191.98,179.4,199.34,162.26z" class="st8"></path>
<path d="M232.21,196.07c0,0-2.47,4.23,5.03,7.35s14.34,5.96,14.34,5.96s0.07,3-9.88-1.01
	C233.64,205.13,223.31,202.57,232.21,196.07z" class="st9"></path>
<circle r="1.4" cy="202.93" cx="236.74" class="st9"></circle>
<circle r="0.84" cy="202.36" cx="241.48" class="st9"></circle>
<path d="M229.52,197.7c0,0-6.21,7.12,2.93,10.5c9.14,3.38,13.01,4.95,14.62,5.52c1.61,0.57,7.57,0.38,5.21-6.69
	c-0.33,2.64-3.5,4.55-5.4,3.43c-1.9-1.11-16.9-7.04-16.9-7.04S227.25,201.21,229.52,197.7z" class="st8"></path>
<path d="M276.91,216.19c0,0-8.27,8.73-4.82,16.64c0,0,3.94,8.21,13.66,5.63c9.72-2.58,10.98-12.97,8.25-16.8
	c0.33,3.32-2.48,14.48-12.04,13.1C272.41,233.39,270.87,225.09,276.91,216.19z" class="st8"></path>
<path d="M301.63,204.81c0,0-8.27,8.73-4.82,16.64c0,0,3.94,8.21,13.66,5.63c9.72-2.58,10.98-12.97,8.25-16.8
	c0.33,3.32-2.48,14.48-12.04,13.1S295.59,213.7,301.63,204.81z" class="st8"></path>
<path d="M312.74,230.52c0,0-8.27,8.73-4.82,16.64c0,0,3.94,8.21,13.66,5.63c9.72-2.58,10.98-12.97,8.25-16.8
	c0.33,3.32-2.48,14.48-12.04,13.1C308.24,247.72,306.7,239.41,312.74,230.52z" class="st8"></path>
<path d="M287.18,240.25c0,0-8.27,8.73-4.82,16.64c0,0,3.94,8.21,13.66,5.63c9.72-2.58,10.98-12.97,8.25-16.8
	c0.33,3.32-0.22,14.62-12.04,13.1C282.65,257.59,281.14,249.14,287.18,240.25z" class="st8"></path>
<path d="M279.14,214.76c0,0,14.03-0.75,14.36,13.77C294.65,224.35,294.19,211.94,279.14,214.76z" class="st10"></path>
<path d="M302.72,204.33c0,0,15.57-2.88,14.91,14.75C319.69,215.45,320.76,199.88,302.72,204.33z" class="st11"></path>
<path d="M273.08,220.56c0,0,6.81,13.5,21.27,5.51c-0.86,4.78-7.37,10.71-14.78,7.91
	C272.16,231.18,272.85,224.1,273.08,220.56z" class="st12"></path>
<circle r="2.06" cy="227.15" cx="279.9" class="st12"></circle>
<circle r="1.05" cy="223.09" cx="283.83" class="st12"></circle>
<path d="M273.37,225.09c0,0,5.34,11.73,18.37,5.82C289.87,233.41,276.72,238.76,273.37,225.09z" class="st3"></path>
<path d="M300.29,206.42c0,0,1.11,15.21,17.34,12.65c-3.54,4.12-9.35,7.24-15.5,2.97
	C295.98,217.76,298.28,211.56,300.29,206.42z" class="st13"></path>
<circle r="2.1" cy="215.82" cx="304.99" class="st13"></circle>
<circle r="0.97" cy="213.38" cx="310.78" class="st13"></circle>
<path d="M298.15,211.3c0,0,1.96,12.3,15.05,10.73C310.88,224.18,298.6,226.27,298.15,211.3z" class="st1"></path>
<path d="M286.52,241.01c0,0,12.7-4.16,18.98,8.74C304,243.63,298.07,235.86,286.52,241.01z" class="st14"></path>
<path d="M283.72,245.6c0,0,6.32,12.77,20.73,5.11c-0.66,4.28-4.53,11.48-13.34,9.03S283.72,245.6,283.72,245.6z" class="st15"></path>
<circle r="1.81" cy="252.35" cx="291.52" class="st15"></circle>
<circle r="0.88" cy="248.45" cx="295.76" class="st15"></circle>
<path d="M284.2,252.12c0,0,7.07,9.95,17.78,3.69C300.33,257.54,289.82,265.53,284.2,252.12z" class="st2"></path>
<path d="M314.58,229.21c0,0,14.33-1.57,14.99,13.84C330.48,238.84,329.66,226.08,314.58,229.21z" class="st10"></path>
<path d="M310.05,234.06c0,0,2.4,11.43,19.78,7.49c-2.06,5.2-6.92,10.82-15.24,6.9S310.05,234.06,310.05,234.06z" class="st16"></path>
<circle r="1.52" cy="241.52" cx="316.85" class="st0"></circle>
<path d="M309.37,241.52c0,0,5.79,8.61,17,4.9C323.15,248.56,314.69,251.69,309.37,241.52z" class="st0"></path>
<path d="M108.5,205.82c0,0,1.4,28.83,15.72,30.07c14.32,1.23,51.12-13.34,63.91-12.88
	c26.36,9.01,72.55,27.54,80.18,32.29c6.64,7.85,27.07,44.43,32.35,50.03c5.27,5.6,19.66,15.6,46.47-17.99
	c-1.17,9.91-20.28,29.64-30,30.07c-9.72,0.43-20.22-7.56-34.25-31.98s-16.23-29.04-32.68-34.89l12.06,9.19
	c0,0-63.43-27.73-73.64-30.53c-10.21-2.8-37.13,8.25-53.38,11.04C118.12,243.18,102.5,237.94,108.5,205.82z" class="st17"></path>
<path d="M105.82,230.52c0,0,2.41,25.26,39.65,10.58c23.23-8.26,36.74-6.09,36.74-6.09l-38.45,12.58
	C143.77,247.58,106.38,260.66,105.82,230.52z" class="st4"></path>
<path d="M305.32,167.17c0,0-52.44,5.66-77.2-30.15c-5.47-9.82-22.75-17.57-51.21-2.24s-65.13,38.98-70.67,70.34
	c-5.54,31.36,3.08,51.63,30.87,42.81s41.26-15.02,49.76-11.27c8.5,3.75,64.53,22.47,71.96,29.01
	c32.69,28.78,41.84,79.77,72.07,48.76c28.78-29.52,23.33-67.47,10.92-106.38C336.24,190.62,326.42,165.72,305.32,167.17z" class="st18"></path>
<path d="M107.13,204.89c0,0,2.61,24.32,13.76,30.11c10.37,5.38,58.56-13.6,67.57-11.91s75.1,28.24,80.01,32.26
	c6.15,5.03,26.43,46.07,34.24,51.84c11.12,8.22,24.85,5.9,44.95-21.53" class="st19"></path>
<path d="M205.77,180.97l-4.45-1.79c-3.99-1.61-5.92-6.15-4.31-10.14l1.79-4.45c1.61-3.99-0.32-8.53-4.31-10.14l0,0
	c-3.99-1.61-8.53,0.32-10.14,4.31l-1.79,4.45c-1.61,3.99-6.15,5.92-10.14,4.31l-4.45-1.79c-3.99-1.61-8.53,0.32-10.14,4.31v0
	c-1.61,3.99,0.32,8.53,4.31,10.14l4.45,1.79c3.99,1.61,5.92,6.15,4.31,10.14l-1.79,4.45c-1.61,3.99,0.32,8.53,4.31,10.14l0,0
	c3.99,1.61,8.53-0.32,10.14-4.31l1.79-4.45c1.61-3.99,6.15-5.92,10.14-4.31l4.45,1.79c3.99,1.61,8.53-0.32,10.14-4.31v0
	C211.69,187.12,209.76,182.58,205.77,180.97z" class="st20"></path>
<path d="M247.07,210.54l-15.99-6.45c-2.03-0.82-3.01-3.13-2.19-5.16l0.17-0.43c0.82-2.03,3.13-3.01,5.16-2.19
	l15.99,6.45c2.03,0.82,3.01,3.13,2.19,5.16l-0.17,0.43C251.41,210.38,249.1,211.36,247.07,210.54z" class="st20"></path>
<circle r="10.63" cy="213.49" cx="308.45" class="st20"></circle>
<circle r="10.63" cy="249.33" cx="294" class="st20"></circle>
<circle r="10.63" cy="224.36" cx="283.72" class="st20"></circle>
<circle r="10.63" cy="238.81" cx="319.56" class="st20"></circle>
<path d="M249.33,156.12l1.65-3.04c2.77-5.11,8.98-7.27,14.32-4.99l0,0c5.45,2.32,8.17,8.48,6.22,14.07l-0.77,2.22" class="st18"></path>
<path d="M265.3,148.09c0,0,24.4-42.75,82.37-21.46s49.76,90.8,19.56,138.85s-62.6,124.03,8.93,177.37" class="st18"></path>
<ellipse ry="5.22" rx="3.59" cy="188.21" cx="301.86" class="st8" transform="matrix(0.3114 -0.9503 0.9503 0.3114 29.0052 416.4556)"></ellipse>
<ellipse ry="2.35" rx="1.62" cy="191.29" cx="283.26" class="st8" transform="matrix(0.3114 -0.9503 0.9503 0.3114 13.274 400.891)"></ellipse>
</svg>
