<?xml version="1.0" encoding="UTF-8"?>
<svg width="1080px" height="1080px" viewBox="0 0 1080 1080" version="1.1" xmlns="http://www.w3.org/2000/svg" xmlns:xlink="http://www.w3.org/1999/xlink">
    <!-- Generator: Sketch 52.5 (67469) - http://www.bohemiancoding.com/sketch -->
    <title>深圳</title>
    <desc>Created with Sketch.</desc>
    <defs>
        <path d="M119.671875,1 C122.533576,1.34886997 124.335659,2.20108351 125.078125,3.55664063 C148.956231,47.1521075 166.46582,180.047324 181.680664,396.282227 C185.391222,449.017051 185.525195,562.363489 186.03125,606.422852 C186.992839,690.142904 188.641276,769.000651 190.976563,842.996094 L0,843.996094 C1.31119792,667.957031 4.04817708,532.291667 8.2109375,437 C14.4550781,294.0625 17.7519531,269.861328 28.9140625,171.070313 C34.8080438,118.905226 58.8637695,28.659668 86.3242188,1 C87.1914063,-0.311523437 98.3072917,-0.311523437 119.671875,1 Z" id="path-1"></path>
        <path d="M69.2382813,0 C94.6529948,37.2011719 115.322591,168.961914 131.24707,395.282227 C134.957628,448.017051 135.091601,561.363489 135.597656,605.422852 C136.559245,689.142904 138.207682,768.000651 140.542969,841.996094 L0,841.996094 L0,410.734375 C9.05989583,304.023438 16.4257813,220.229167 22.0976563,159.351562 C27.7695313,98.4739583 43.4830729,45.3567708 69.2382813,0 Z" id="path-3"></path>
        <linearGradient x1="50%" y1="0%" x2="50%" y2="100%" id="linearGradient-5">
            <stop stop-color="#68B75C" offset="0%"></stop>
            <stop stop-color="#37802F" offset="100%"></stop>
        </linearGradient>
    </defs>
    <g id="深圳" stroke="none" stroke-width="1" fill="none" fill-rule="evenodd">
        <rect id="Rectangle-18" fill="#18B2C2" x="332" y="473" width="133" height="474"></rect>
        <g id="Group-3" transform="translate(348.000000, 495.000000)" fill="#F9F9F9">
            <g id="Group">
                <rect id="Rectangle-2" x="0" y="0" width="9" height="10"></rect>
                <rect id="Rectangle-2-Copy-58" x="0" y="18" width="9" height="10"></rect>
                <rect id="Rectangle-2-Copy-59" x="0" y="35" width="9" height="10"></rect>
                <polygon id="Rectangle-2-Copy-60" points="0 68 9 68 9 78 0 78"></polygon>
                <polygon id="Rectangle-2-Copy-61" points="0 87 9 87 9 97 0 97"></polygon>
                <rect id="Rectangle-2-Copy-62" x="0" y="103" width="9" height="10"></rect>
                <polygon id="Rectangle-2-Copy-63" points="0 120 9 120 9 130 0 130"></polygon>
                <polygon id="Rectangle-2-Copy-64" points="0 153 9 153 9 163 0 163"></polygon>
                <polygon id="Rectangle-2-Copy-65" points="0 171 9 171 9 181 0 181"></polygon>
                <rect id="Rectangle-2-Copy-66" x="0" y="205" width="9" height="10"></rect>
                <polygon id="Rectangle-2-Copy-67" points="0 222 9 222 9 232 0 232"></polygon>
                <rect id="Rectangle-2-Copy-68" x="0" y="238" width="9" height="10"></rect>
                <polygon id="Rectangle-2-Copy-69" points="0 256 9 256 9 266 0 266"></polygon>
                <polygon id="Rectangle-2-Copy-70" points="0 291 9 291 9 301 0 301"></polygon>
                <polygon id="Rectangle-2-Copy-71" points="0 307 9 307 9 317 0 317"></polygon>
                <polygon id="Rectangle-2-Copy-72" points="0 325 9 325 9 335 0 335"></polygon>
                <rect id="Rectangle-2-Copy" x="19" y="0" width="9" height="10"></rect>
                <polygon id="Rectangle-2-Copy-73" points="19 34 28 34 28 44 19 44"></polygon>
                <rect id="Rectangle-2-Copy-74" x="19" y="50" width="9" height="10"></rect>
                <polygon id="Rectangle-2-Copy-75" points="19 68 28 68 28 78 19 78"></polygon>
                <rect id="Rectangle-2-Copy-76" x="19" y="84" width="9" height="10"></rect>
                <rect id="Rectangle-2-Copy-77" x="19" y="103" width="9" height="10"></rect>
                <polygon id="Rectangle-2-Copy-78" points="19 137 28 137 28 147 19 147"></polygon>
                <polygon id="Rectangle-2-Copy-79" points="19 153 28 153 28 163 19 163"></polygon>
                <polygon id="Rectangle-2-Copy-80" points="19 171 28 171 28 181 19 181"></polygon>
                <polygon id="Rectangle-2-Copy-81" points="19 187 28 187 28 197 19 197"></polygon>
                <rect id="Rectangle-2-Copy-82" x="19" y="205" width="9" height="10"></rect>
                <polygon id="Rectangle-2-Copy-83" points="19 238 28 238 28 248 19 248"></polygon>
                <rect id="Rectangle-2-Copy-84" x="19" y="255" width="9" height="10"></rect>
                <rect id="Rectangle-2-Copy-85" x="19" y="272" width="9" height="10"></rect>
                <polygon id="Rectangle-2-Copy-86" points="19 307 28 307 28 317 19 317"></polygon>
                <polygon id="Rectangle-2-Copy-87" points="19 325 28 325 28 335 19 335"></polygon>
                <polygon id="Rectangle-2-Copy-2" points="38 0 47 0 47 10 38 10"></polygon>
                <polygon id="Rectangle-2-Copy-16" points="76 0 85 0 85 10 76 10"></polygon>
                <polygon id="Rectangle-2-Copy-21" points="76 18 85 18 85 28 76 28"></polygon>
                <polygon id="Rectangle-2-Copy-22" points="76 50 85 50 85 60 76 60"></polygon>
                <polygon id="Rectangle-2-Copy-23" points="76 68 85 68 85 78 76 78"></polygon>
                <polygon id="Rectangle-2-Copy-24" points="76 103 85 103 85 113 76 113"></polygon>
                <polygon id="Rectangle-2-Copy-25" points="76 138 85 138 85 148 76 148"></polygon>
                <polygon id="Rectangle-2-Copy-26" points="76 171 85 171 85 181 76 181"></polygon>
                <polygon id="Rectangle-2-Copy-27" points="76 188 85 188 85 198 76 198"></polygon>
                <polygon id="Rectangle-2-Copy-28" points="76 205 85 205 85 215 76 215"></polygon>
                <polygon id="Rectangle-2-Copy-29" points="76 222 85 222 85 232 76 232"></polygon>
                <polygon id="Rectangle-2-Copy-30" points="76 238 85 238 85 248 76 248"></polygon>
                <polygon id="Rectangle-2-Copy-31" points="76 271 85 271 85 281 76 281"></polygon>
                <polygon id="Rectangle-2-Copy-32" points="76 309 85 309 85 319 76 319"></polygon>
                <polygon id="Rectangle-2-Copy-17" points="95 0 104 0 104 10 95 10"></polygon>
                <polygon id="Rectangle-2-Copy-18" points="95 34 104 34 104 44 95 44"></polygon>
                <polygon id="Rectangle-2-Copy-19" points="95 50 104 50 104 60 95 60"></polygon>
                <polygon id="Rectangle-2-Copy-48" points="95 87 104 87 104 97 95 97"></polygon>
                <polygon id="Rectangle-2-Copy-47" points="95 103 104 103 104 113 95 113"></polygon>
                <polygon id="Rectangle-2-Copy-49" points="95 120 104 120 104 130 95 130"></polygon>
                <polygon id="Rectangle-2-Copy-50" points="95 153 104 153 104 163 95 163"></polygon>
                <polygon id="Rectangle-2-Copy-51" points="95 188 104 188 104 198 95 198"></polygon>
                <polygon id="Rectangle-2-Copy-52" points="95 223 104 223 104 233 95 233"></polygon>
                <polygon id="Rectangle-2-Copy-53" points="95 256 104 256 104 266 95 266"></polygon>
                <polygon id="Rectangle-2-Copy-54" points="95 275 104 275 104 285 95 285"></polygon>
                <polygon id="Rectangle-2-Copy-55" points="95 292 104 292 104 302 95 302"></polygon>
                <polygon id="Rectangle-2-Copy-56" points="95 307 104 307 104 317 95 317"></polygon>
                <polygon id="Rectangle-2-Copy-57" points="95 325 104 325 104 335 95 335"></polygon>
                <polygon id="Rectangle-2-Copy-3" points="38 18 47 18 47 28 38 28"></polygon>
                <rect id="Rectangle-2-Copy-20" x="57" y="18" width="9" height="10"></rect>
                <polygon id="Rectangle-2-Copy-33" points="57 34 66 34 66 44 57 44"></polygon>
                <rect id="Rectangle-2-Copy-34" x="57" y="50" width="9" height="10"></rect>
                <polygon id="Rectangle-2-Copy-35" points="57 68 66 68 66 78 57 78"></polygon>
                <rect id="Rectangle-2-Copy-36" x="57" y="103" width="9" height="10"></rect>
                <polygon id="Rectangle-2-Copy-37" points="57 120 66 120 66 130 57 130"></polygon>
                <polygon id="Rectangle-2-Copy-38" points="57 137 66 137 66 147 57 147"></polygon>
                <polygon id="Rectangle-2-Copy-39" points="57 153 66 153 66 163 57 163"></polygon>
                <polygon id="Rectangle-2-Copy-40" points="57 171 66 171 66 181 57 181"></polygon>
                <rect id="Rectangle-2-Copy-41" x="57" y="205" width="9" height="10"></rect>
                <polygon id="Rectangle-2-Copy-42" points="57 222 66 222 66 232 57 232"></polygon>
                <polygon id="Rectangle-2-Copy-43" points="57 256 66 256 66 266 57 266"></polygon>
                <polygon id="Rectangle-2-Copy-44" points="57 291 66 291 66 301 57 301"></polygon>
                <polygon id="Rectangle-2-Copy-45" points="57 307 66 307 66 317 57 317"></polygon>
                <polygon id="Rectangle-2-Copy-46" points="57 325 66 325 66 335 57 335"></polygon>
                <polygon id="Rectangle-2-Copy-4" points="38 50 47 50 47 60 38 60"></polygon>
                <polygon id="Rectangle-2-Copy-5" points="38 87 47 87 47 97 38 97"></polygon>
                <polygon id="Rectangle-2-Copy-6" points="38 120 47 120 47 130 38 130"></polygon>
                <polygon id="Rectangle-2-Copy-7" points="38 137 47 137 47 147 38 147"></polygon>
                <polygon id="Rectangle-2-Copy-8" points="38 171 47 171 47 181 38 181"></polygon>
                <polygon id="Rectangle-2-Copy-9" points="38 188 47 188 47 198 38 198"></polygon>
                <polygon id="Rectangle-2-Copy-10" points="38 222 47 222 47 232 38 232"></polygon>
                <polygon id="Rectangle-2-Copy-97" points="0 342 9 342 9 352 0 352"></polygon>
                <rect id="Rectangle-2-Copy-96" x="0" y="358" width="9" height="10"></rect>
                <polygon id="Rectangle-2-Copy-95" points="0 376 9 376 9 386 0 386"></polygon>
                <rect id="Rectangle-2-Copy-94" x="19" y="375" width="9" height="10"></rect>
                <polygon id="Rectangle-2-Copy-93" points="76 342 85 342 85 352 76 352"></polygon>
                <polygon id="Rectangle-2-Copy-92" points="76 391 85 391 85 401 76 401"></polygon>
                <polygon id="Rectangle-2-Copy-91" points="95 343 104 343 104 353 95 353"></polygon>
                <polygon id="Rectangle-2-Copy-90" points="95 376 104 376 104 386 95 386"></polygon>
                <polygon id="Rectangle-2-Copy-89" points="57 342 66 342 66 352 57 352"></polygon>
                <polygon id="Rectangle-2-Copy-88" points="38 342 47 342 47 352 38 352"></polygon>
                <polygon id="Rectangle-2-Copy-107" points="0 412 9 412 9 422 0 422"></polygon>
                <rect id="Rectangle-2-Copy-106" x="0" y="428" width="9" height="10"></rect>
                <polygon id="Rectangle-2-Copy-105" points="19 358 28 358 28 368 19 368"></polygon>
                <rect id="Rectangle-2-Copy-104" x="38" y="357" width="9" height="10"></rect>
                <polygon id="Rectangle-2-Copy-103" points="76 412 85 412 85 422 76 422"></polygon>
                <polygon id="Rectangle-2-Copy-102" points="76 374 85 374 85 384 76 384"></polygon>
                <polygon id="Rectangle-2-Copy-101" points="95 413 104 413 104 423 95 423"></polygon>
                <polygon id="Rectangle-2-Copy-100" points="95 359 104 359 104 369 95 369"></polygon>
                <polygon id="Rectangle-2-Copy-99" points="57 412 66 412 66 422 57 422"></polygon>
                <polygon id="Rectangle-2-Copy-98" points="38 412 47 412 47 422 38 422"></polygon>
                <polygon id="Rectangle-2-Copy-11" points="38 238 47 238 47 248 38 248"></polygon>
                <polygon id="Rectangle-2-Copy-12" points="38 256 47 256 47 266 38 266"></polygon>
                <polygon id="Rectangle-2-Copy-13" points="38 272 47 272 47 282 38 282"></polygon>
                <polygon id="Rectangle-2-Copy-14" points="38 291 47 291 47 301 38 301"></polygon>
                <polygon id="Rectangle-2-Copy-15" points="38 325 47 325 47 335 38 335"></polygon>
            </g>
        </g>
        <g id="Group-2" transform="translate(572.000000, 331.000000)">
            <rect id="Rectangle-18-Copy" fill="#5DD1DD" x="0" y="0" width="178" height="616"></rect>
            <polygon id="Rectangle-2" fill="#F9F9F9" points="15 17 25 17 25 28 15 28"></polygon>
            <polygon id="Rectangle-2-Copy-58" fill="#F9F9F9" points="15 36 25 36 25 47 15 47"></polygon>
            <polygon id="Rectangle-2-Copy-59" fill="#F9F9F9" points="15 54 25 54 25 65 15 65"></polygon>
            <polygon id="Rectangle-2-Copy-60" fill="#F9F9F9" points="15 89 25 89 25 100 15 100"></polygon>
            <polygon id="Rectangle-2-Copy-61" fill="#F9F9F9" points="15 110 25 110 25 121 15 121"></polygon>
            <polygon id="Rectangle-2-Copy-62" fill="#F9F9F9" points="15 127 25 127 25 138 15 138"></polygon>
            <polygon id="Rectangle-2-Copy-63" fill="#F9F9F9" points="15 145 25 145 25 156 15 156"></polygon>
            <polygon id="Rectangle-2-Copy-64" fill="#F9F9F9" points="15 180 25 180 25 191 15 191"></polygon>
            <polygon id="Rectangle-2-Copy-65" fill="#F9F9F9" points="15 199 25 199 25 210 15 210"></polygon>
            <polygon id="Rectangle-2-Copy-66" fill="#F9F9F9" points="15 235 25 235 25 246 15 246"></polygon>
            <polygon id="Rectangle-2-Copy-67" fill="#F9F9F9" points="15 253 25 253 25 264 15 264"></polygon>
            <polygon id="Rectangle-2-Copy-68" fill="#F9F9F9" points="15 270 25 270 25 281 15 281"></polygon>
            <polygon id="Rectangle-2-Copy-69" fill="#F9F9F9" points="15 289 25 289 25 300 15 300"></polygon>
            <polygon id="Rectangle-2-Copy-70" fill="#F9F9F9" points="15 327 25 327 25 338 15 338"></polygon>
            <polygon id="Rectangle-2-Copy-71" fill="#F9F9F9" points="15 344 25 344 25 355 15 355"></polygon>
            <polygon id="Rectangle-2-Copy-72" fill="#F9F9F9" points="15 363 25 363 25 374 15 374"></polygon>
            <polygon id="Rectangle-2-Copy" fill="#F9F9F9" points="35 17 45 17 45 28 35 28"></polygon>
            <polygon id="Rectangle-2-Copy-73" fill="#F9F9F9" points="35 53 45 53 45 64 35 64"></polygon>
            <polygon id="Rectangle-2-Copy-74" fill="#F9F9F9" points="35 70 45 70 45 81 35 81"></polygon>
            <polygon id="Rectangle-2-Copy-75" fill="#F9F9F9" points="35 89 45 89 45 100 35 100"></polygon>
            <polygon id="Rectangle-2-Copy-76" fill="#F9F9F9" points="35 106 45 106 45 117 35 117"></polygon>
            <polygon id="Rectangle-2-Copy-77" fill="#F9F9F9" points="35 127 45 127 45 138 35 138"></polygon>
            <polygon id="Rectangle-2-Copy-78" fill="#F9F9F9" points="35 163 45 163 45 174 35 174"></polygon>
            <polygon id="Rectangle-2-Copy-79" fill="#F9F9F9" points="35 180 45 180 45 191 35 191"></polygon>
            <polygon id="Rectangle-2-Copy-80" fill="#F9F9F9" points="35 199 45 199 45 210 35 210"></polygon>
            <polygon id="Rectangle-2-Copy-81" fill="#F9F9F9" points="35 216 45 216 45 227 35 227"></polygon>
            <polygon id="Rectangle-2-Copy-82" fill="#F9F9F9" points="35 235 45 235 45 246 35 246"></polygon>
            <polygon id="Rectangle-2-Copy-83" fill="#F9F9F9" points="35 270 45 270 45 281 35 281"></polygon>
            <polygon id="Rectangle-2-Copy-84" fill="#F9F9F9" points="35 288 45 288 45 299 35 299"></polygon>
            <polygon id="Rectangle-2-Copy-85" fill="#F9F9F9" points="35 306 45 306 45 317 35 317"></polygon>
            <polygon id="Rectangle-2-Copy-86" fill="#F9F9F9" points="35 344 45 344 45 355 35 355"></polygon>
            <polygon id="Rectangle-2-Copy-87" fill="#F9F9F9" points="35 363 45 363 45 374 35 374"></polygon>
            <polygon id="Rectangle-2-Copy-2" fill="#F9F9F9" points="56 17 66 17 66 28 56 28"></polygon>
            <polygon id="Rectangle-2-Copy-16" fill="#F9F9F9" points="96 17 106 17 106 28 96 28"></polygon>
            <polygon id="Rectangle-2-Copy-21" fill="#F9F9F9" points="96 36 106 36 106 47 96 47"></polygon>
            <polygon id="Rectangle-2-Copy-22" fill="#F9F9F9" points="96 70 106 70 106 81 96 81"></polygon>
            <polygon id="Rectangle-2-Copy-23" fill="#F9F9F9" points="96 89 106 89 106 100 96 100"></polygon>
            <polygon id="Rectangle-2-Copy-24" fill="#F9F9F9" points="96 127 106 127 106 138 96 138"></polygon>
            <polygon id="Rectangle-2-Copy-25" fill="#F9F9F9" points="96 164 106 164 106 175 96 175"></polygon>
            <polygon id="Rectangle-2-Copy-26" fill="#F9F9F9" points="96 199 106 199 106 210 96 210"></polygon>
            <polygon id="Rectangle-2-Copy-27" fill="#F9F9F9" points="96 217 106 217 106 228 96 228"></polygon>
            <polygon id="Rectangle-2-Copy-28" fill="#F9F9F9" points="96 235 106 235 106 246 96 246"></polygon>
            <polygon id="Rectangle-2-Copy-29" fill="#F9F9F9" points="96 253 106 253 106 264 96 264"></polygon>
            <polygon id="Rectangle-2-Copy-30" fill="#F9F9F9" points="96 270 106 270 106 281 96 281"></polygon>
            <polygon id="Rectangle-2-Copy-31" fill="#F9F9F9" points="96 305 106 305 106 316 96 316"></polygon>
            <polygon id="Rectangle-2-Copy-32" fill="#F9F9F9" points="96 346 106 346 106 357 96 357"></polygon>
            <polygon id="Rectangle-2-Copy-17" fill="#F9F9F9" points="116 17 126 17 126 28 116 28"></polygon>
            <polygon id="Rectangle-2-Copy-18" fill="#F9F9F9" points="116 53 126 53 126 64 116 64"></polygon>
            <polygon id="Rectangle-2-Copy-19" fill="#F9F9F9" points="116 70 126 70 126 81 116 81"></polygon>
            <polygon id="Rectangle-2-Copy-48" fill="#F9F9F9" points="116 110 126 110 126 121 116 121"></polygon>
            <polygon id="Rectangle-2-Copy-47" fill="#F9F9F9" points="116 127 126 127 126 138 116 138"></polygon>
            <polygon id="Rectangle-2-Copy-49" fill="#F9F9F9" points="116 145 126 145 126 156 116 156"></polygon>
            <polygon id="Rectangle-2-Copy-50" fill="#F9F9F9" points="116 180 126 180 126 191 116 191"></polygon>
            <polygon id="Rectangle-2-Copy-51" fill="#F9F9F9" points="116 217 126 217 126 228 116 228"></polygon>
            <polygon id="Rectangle-2-Copy-52" fill="#F9F9F9" points="116 254 126 254 126 265 116 265"></polygon>
            <polygon id="Rectangle-2-Copy-53" fill="#F9F9F9" points="116 289 126 289 126 300 116 300"></polygon>
            <polygon id="Rectangle-2-Copy-54" fill="#F9F9F9" points="116 310 126 310 126 321 116 321"></polygon>
            <polygon id="Rectangle-2-Copy-55" fill="#F9F9F9" points="116 328 126 328 126 339 116 339"></polygon>
            <polygon id="Rectangle-2-Copy-56" fill="#F9F9F9" points="116 344 126 344 126 355 116 355"></polygon>
            <polygon id="Rectangle-2-Copy-57" fill="#F9F9F9" points="116 363 126 363 126 374 116 374"></polygon>
            <polygon id="Rectangle-2-Copy-3" fill="#F9F9F9" points="56 36 66 36 66 47 56 47"></polygon>
            <polygon id="Rectangle-2-Copy-20" fill="#F9F9F9" points="76 36 86 36 86 47 76 47"></polygon>
            <polygon id="Rectangle-2-Copy-33" fill="#F9F9F9" points="76 53 86 53 86 64 76 64"></polygon>
            <polygon id="Rectangle-2-Copy-34" fill="#F9F9F9" points="76 70 86 70 86 81 76 81"></polygon>
            <polygon id="Rectangle-2-Copy-35" fill="#F9F9F9" points="76 89 86 89 86 100 76 100"></polygon>
            <polygon id="Rectangle-2-Copy-36" fill="#F9F9F9" points="76 127 86 127 86 138 76 138"></polygon>
            <polygon id="Rectangle-2-Copy-37" fill="#F9F9F9" points="76 145 86 145 86 156 76 156"></polygon>
            <polygon id="Rectangle-2-Copy-38" fill="#F9F9F9" points="76 163 86 163 86 174 76 174"></polygon>
            <polygon id="Rectangle-2-Copy-39" fill="#F9F9F9" points="76 180 86 180 86 191 76 191"></polygon>
            <polygon id="Rectangle-2-Copy-40" fill="#F9F9F9" points="76 199 86 199 86 210 76 210"></polygon>
            <polygon id="Rectangle-2-Copy-41" fill="#F9F9F9" points="76 235 86 235 86 246 76 246"></polygon>
            <polygon id="Rectangle-2-Copy-42" fill="#F9F9F9" points="76 253 86 253 86 264 76 264"></polygon>
            <polygon id="Rectangle-2-Copy-43" fill="#F9F9F9" points="76 289 86 289 86 300 76 300"></polygon>
            <polygon id="Rectangle-2-Copy-44" fill="#F9F9F9" points="76 327 86 327 86 338 76 338"></polygon>
            <polygon id="Rectangle-2-Copy-45" fill="#F9F9F9" points="76 344 86 344 86 355 76 355"></polygon>
            <polygon id="Rectangle-2-Copy-46" fill="#F9F9F9" points="76 363 86 363 86 374 76 374"></polygon>
            <polygon id="Rectangle-2-Copy-4" fill="#F9F9F9" points="56 70 66 70 66 81 56 81"></polygon>
            <polygon id="Rectangle-2-Copy-5" fill="#F9F9F9" points="56 110 66 110 66 121 56 121"></polygon>
            <polygon id="Rectangle-2-Copy-6" fill="#F9F9F9" points="56 145 66 145 66 156 56 156"></polygon>
            <polygon id="Rectangle-2-Copy-7" fill="#F9F9F9" points="56 163 66 163 66 174 56 174"></polygon>
            <polygon id="Rectangle-2-Copy-8" fill="#F9F9F9" points="56 199 66 199 66 210 56 210"></polygon>
            <polygon id="Rectangle-2-Copy-9" fill="#F9F9F9" points="56 217 66 217 66 228 56 228"></polygon>
            <polygon id="Rectangle-2-Copy-10" fill="#F9F9F9" points="56 253 66 253 66 264 56 264"></polygon>
            <polygon id="Rectangle-2-Copy-97" fill="#F9F9F9" points="15 381 25 381 25 392 15 392"></polygon>
            <polygon id="Rectangle-2-Copy-96" fill="#F9F9F9" points="15 398 25 398 25 409 15 409"></polygon>
            <polygon id="Rectangle-2-Copy-95" fill="#F9F9F9" points="15 417 25 417 25 428 15 428"></polygon>
            <polygon id="Rectangle-2-Copy-94" fill="#F9F9F9" points="35 416 45 416 45 427 35 427"></polygon>
            <polygon id="Rectangle-2-Copy-93" fill="#F9F9F9" points="96 381 106 381 106 392 96 392"></polygon>
            <polygon id="Rectangle-2-Copy-92" fill="#F9F9F9" points="96 433 106 433 106 444 96 444"></polygon>
            <polygon id="Rectangle-2-Copy-91" fill="#F9F9F9" points="116 382 126 382 126 393 116 393"></polygon>
            <polygon id="Rectangle-2-Copy-90" fill="#F9F9F9" points="116 417 126 417 126 428 116 428"></polygon>
            <polygon id="Rectangle-2-Copy-89" fill="#F9F9F9" points="76 381 86 381 86 392 76 392"></polygon>
            <polygon id="Rectangle-2-Copy-88" fill="#F9F9F9" points="56 381 66 381 66 392 56 392"></polygon>
            <polygon id="Rectangle-2-Copy-107" fill="#F9F9F9" points="15 455 25 455 25 466 15 466"></polygon>
            <polygon id="Rectangle-2-Copy-106" fill="#F9F9F9" points="15 472 25 472 25 483 15 483"></polygon>
            <polygon id="Rectangle-2-Copy-105" fill="#F9F9F9" points="35 398 45 398 45 409 35 409"></polygon>
            <polygon id="Rectangle-2-Copy-104" fill="#F9F9F9" points="56 397 66 397 66 408 56 408"></polygon>
            <polygon id="Rectangle-2-Copy-103" fill="#F9F9F9" points="96 455 106 455 106 466 96 466"></polygon>
            <polygon id="Rectangle-2-Copy-102" fill="#F9F9F9" points="96 415 106 415 106 426 96 426"></polygon>
            <polygon id="Rectangle-2-Copy-101" fill="#F9F9F9" points="116 456 126 456 126 467 116 467"></polygon>
            <polygon id="Rectangle-2-Copy-100" fill="#F9F9F9" points="116 399 126 399 126 410 116 410"></polygon>
            <polygon id="Rectangle-2-Copy-99" fill="#F9F9F9" points="76 455 86 455 86 466 76 466"></polygon>
            <polygon id="Rectangle-2-Copy-98" fill="#F9F9F9" points="56 455 66 455 66 466 56 466"></polygon>
            <polygon id="Rectangle-2-Copy-179" fill="#F9F9F9" points="96 475 106 475 106 486 96 486"></polygon>
            <polygon id="Rectangle-2-Copy-178" fill="#F9F9F9" points="116 476 126 476 126 487 116 487"></polygon>
            <polygon id="Rectangle-2-Copy-177" fill="#F9F9F9" points="76 475 86 475 86 486 76 486"></polygon>
            <polygon id="Rectangle-2-Copy-176" fill="#F9F9F9" points="56 475 66 475 66 486 56 486"></polygon>
            <polygon id="Rectangle-2-Copy-11" fill="#F9F9F9" points="56 270 66 270 66 281 56 281"></polygon>
            <polygon id="Rectangle-2-Copy-12" fill="#F9F9F9" points="56 289 66 289 66 300 56 300"></polygon>
            <polygon id="Rectangle-2-Copy-13" fill="#F9F9F9" points="56 306 66 306 66 317 56 317"></polygon>
            <polygon id="Rectangle-2-Copy-14" fill="#F9F9F9" points="56 327 66 327 66 338 56 338"></polygon>
            <polygon id="Rectangle-2-Copy-15" fill="#F9F9F9" points="56 363 66 363 66 374 56 374"></polygon>
            <polygon id="Rectangle-2-Copy-141" fill="#F9F9F9" points="136 17 146 17 146 28 136 28"></polygon>
            <polygon id="Rectangle-2-Copy-140" fill="#F9F9F9" points="136 36 146 36 146 47 136 47"></polygon>
            <polygon id="Rectangle-2-Copy-139" fill="#F9F9F9" points="156 36 166 36 166 47 156 47"></polygon>
            <polygon id="Rectangle-2-Copy-138" fill="#F9F9F9" points="156 53 166 53 166 64 156 64"></polygon>
            <polygon id="Rectangle-2-Copy-137" fill="#F9F9F9" points="156 70 166 70 166 81 156 81"></polygon>
            <polygon id="Rectangle-2-Copy-136" fill="#F9F9F9" points="156 89 166 89 166 100 156 100"></polygon>
            <polygon id="Rectangle-2-Copy-135" fill="#F9F9F9" points="156 127 166 127 166 138 156 138"></polygon>
            <polygon id="Rectangle-2-Copy-134" fill="#F9F9F9" points="156 145 166 145 166 156 156 156"></polygon>
            <polygon id="Rectangle-2-Copy-133" fill="#F9F9F9" points="156 163 166 163 166 174 156 174"></polygon>
            <polygon id="Rectangle-2-Copy-132" fill="#F9F9F9" points="156 180 166 180 166 191 156 191"></polygon>
            <polygon id="Rectangle-2-Copy-131" fill="#F9F9F9" points="156 199 166 199 166 210 156 210"></polygon>
            <polygon id="Rectangle-2-Copy-130" fill="#F9F9F9" points="156 235 166 235 166 246 156 246"></polygon>
            <polygon id="Rectangle-2-Copy-129" fill="#F9F9F9" points="156 253 166 253 166 264 156 264"></polygon>
            <polygon id="Rectangle-2-Copy-128" fill="#F9F9F9" points="156 289 166 289 166 300 156 300"></polygon>
            <polygon id="Rectangle-2-Copy-127" fill="#F9F9F9" points="156 327 166 327 166 338 156 338"></polygon>
            <polygon id="Rectangle-2-Copy-126" fill="#F9F9F9" points="156 344 166 344 166 355 156 355"></polygon>
            <polygon id="Rectangle-2-Copy-125" fill="#F9F9F9" points="156 363 166 363 166 374 156 374"></polygon>
            <polygon id="Rectangle-2-Copy-124" fill="#F9F9F9" points="136 70 146 70 146 81 136 81"></polygon>
            <polygon id="Rectangle-2-Copy-123" fill="#F9F9F9" points="136 110 146 110 146 121 136 121"></polygon>
            <polygon id="Rectangle-2-Copy-122" fill="#F9F9F9" points="136 145 146 145 146 156 136 156"></polygon>
            <polygon id="Rectangle-2-Copy-121" fill="#F9F9F9" points="136 163 146 163 146 174 136 174"></polygon>
            <polygon id="Rectangle-2-Copy-120" fill="#F9F9F9" points="136 199 146 199 146 210 136 210"></polygon>
            <polygon id="Rectangle-2-Copy-119" fill="#F9F9F9" points="136 217 146 217 146 228 136 228"></polygon>
            <polygon id="Rectangle-2-Copy-118" fill="#F9F9F9" points="136 253 146 253 146 264 136 264"></polygon>
            <polygon id="Rectangle-2-Copy-117" fill="#F9F9F9" points="156 381 166 381 166 392 156 392"></polygon>
            <polygon id="Rectangle-2-Copy-116" fill="#F9F9F9" points="136 381 146 381 146 392 136 392"></polygon>
            <polygon id="Rectangle-2-Copy-115" fill="#F9F9F9" points="136 397 146 397 146 408 136 408"></polygon>
            <polygon id="Rectangle-2-Copy-114" fill="#F9F9F9" points="156 455 166 455 166 466 156 466"></polygon>
            <polygon id="Rectangle-2-Copy-113" fill="#F9F9F9" points="136 455 146 455 146 466 136 466"></polygon>
            <polygon id="Rectangle-2-Copy-112" fill="#F9F9F9" points="136 270 146 270 146 281 136 281"></polygon>
            <polygon id="Rectangle-2-Copy-175" fill="#F9F9F9" points="15 492 25 492 25 503 15 503"></polygon>
            <polygon id="Rectangle-2-Copy-174" fill="#F9F9F9" points="15 511 25 511 25 522 15 522"></polygon>
            <polygon id="Rectangle-2-Copy-173" fill="#F9F9F9" points="15 547 25 547 25 558 15 558"></polygon>
            <polygon id="Rectangle-2-Copy-172" fill="#F9F9F9" points="15 565 25 565 25 576 15 576"></polygon>
            <polygon id="Rectangle-2-Copy-171" fill="#F9F9F9" points="15 582 25 582 25 593 15 593"></polygon>
            <polygon id="Rectangle-2-Copy-170" fill="#F9F9F9" points="35 492 45 492 45 503 35 503"></polygon>
            <polygon id="Rectangle-2-Copy-169" fill="#F9F9F9" points="35 511 45 511 45 522 35 522"></polygon>
            <polygon id="Rectangle-2-Copy-168" fill="#F9F9F9" points="35 528 45 528 45 539 35 539"></polygon>
            <polygon id="Rectangle-2-Copy-167" fill="#F9F9F9" points="35 547 45 547 45 558 35 558"></polygon>
            <polygon id="Rectangle-2-Copy-166" fill="#F9F9F9" points="35 582 45 582 45 593 35 593"></polygon>
            <polygon id="Rectangle-2-Copy-165" fill="#F9F9F9" points="96 511 106 511 106 522 96 522"></polygon>
            <polygon id="Rectangle-2-Copy-164" fill="#F9F9F9" points="96 529 106 529 106 540 96 540"></polygon>
            <polygon id="Rectangle-2-Copy-163" fill="#F9F9F9" points="96 547 106 547 106 558 96 558"></polygon>
            <polygon id="Rectangle-2-Copy-162" fill="#F9F9F9" points="96 565 106 565 106 576 96 576"></polygon>
            <polygon id="Rectangle-2-Copy-161" fill="#F9F9F9" points="96 582 106 582 106 593 96 593"></polygon>
            <polygon id="Rectangle-2-Copy-160" fill="#F9F9F9" points="116 492 126 492 126 503 116 503"></polygon>
            <polygon id="Rectangle-2-Copy-159" fill="#F9F9F9" points="116 529 126 529 126 540 116 540"></polygon>
            <polygon id="Rectangle-2-Copy-158" fill="#F9F9F9" points="116 566 126 566 126 577 116 577"></polygon>
            <polygon id="Rectangle-2-Copy-157" fill="#F9F9F9" points="76 492 86 492 86 503 76 503"></polygon>
            <polygon id="Rectangle-2-Copy-156" fill="#F9F9F9" points="76 511 86 511 86 522 76 522"></polygon>
            <polygon id="Rectangle-2-Copy-155" fill="#F9F9F9" points="76 547 86 547 86 558 76 558"></polygon>
            <polygon id="Rectangle-2-Copy-154" fill="#F9F9F9" points="76 565 86 565 86 576 76 576"></polygon>
            <polygon id="Rectangle-2-Copy-153" fill="#F9F9F9" points="56 511 66 511 66 522 56 522"></polygon>
            <polygon id="Rectangle-2-Copy-152" fill="#F9F9F9" points="56 529 66 529 66 540 56 540"></polygon>
            <polygon id="Rectangle-2-Copy-151" fill="#F9F9F9" points="56 565 66 565 66 576 56 576"></polygon>
            <polygon id="Rectangle-2-Copy-150" fill="#F9F9F9" points="56 582 66 582 66 593 56 593"></polygon>
            <polygon id="Rectangle-2-Copy-149" fill="#F9F9F9" points="156 492 166 492 166 503 156 503"></polygon>
            <polygon id="Rectangle-2-Copy-148" fill="#F9F9F9" points="156 511 166 511 166 522 156 522"></polygon>
            <polygon id="Rectangle-2-Copy-147" fill="#F9F9F9" points="156 547 166 547 166 558 156 558"></polygon>
            <polygon id="Rectangle-2-Copy-146" fill="#F9F9F9" points="156 565 166 565 166 576 156 576"></polygon>
            <polygon id="Rectangle-2-Copy-145" fill="#F9F9F9" points="136 511 146 511 146 522 136 522"></polygon>
            <polygon id="Rectangle-2-Copy-144" fill="#F9F9F9" points="136 529 146 529 146 540 136 540"></polygon>
            <polygon id="Rectangle-2-Copy-143" fill="#F9F9F9" points="136 565 146 565 146 576 136 576"></polygon>
            <polygon id="Rectangle-2-Copy-142" fill="#F9F9F9" points="136 582 146 582 146 593 136 593"></polygon>
            <polygon id="Rectangle-2-Copy-111" fill="#F9F9F9" points="136 289 146 289 146 300 136 300"></polygon>
            <polygon id="Rectangle-2-Copy-110" fill="#F9F9F9" points="136 306 146 306 146 317 136 317"></polygon>
            <polygon id="Rectangle-2-Copy-109" fill="#F9F9F9" points="136 327 146 327 146 338 136 338"></polygon>
            <polygon id="Rectangle-2-Copy-108" fill="#F9F9F9" points="136 363 146 363 146 374 136 374"></polygon>
        </g>
        <g id="Path-26-+-Path-26-Copy-+-Path-26-Copy-3-+-Path-26-Copy-2-Mask" transform="translate(430.000000, 103.000000)">
            <mask id="mask-2" fill="white">
                <use xlink:href="#path-1"></use>
            </mask>
            <use id="Mask" fill="#5C89BE" xlink:href="#path-1"></use>
            <path d="M42.9765625,844.071167 L40.9985352,844.071167 L44.5458984,545.976562 C44.9674303,474.260808 45.7450996,424.259831 46.8789062,395.973633 C51.0833313,291.081677 57.4125645,232.039079 59.0859375,218.025391 C62.6113281,188.501953 72.473251,89.8395008 95.2402344,45.8408203 C100.330078,35.1943359 101.72346,31.5786918 104.501953,26.6533203 C111.122609,14.9170327 116.099172,6.26143374 119.431641,0.686523438 L122.524414,0.686523438 C116.261549,11.2608425 111.753411,18.9327175 109,23.7021484 C104.528979,31.4468058 100.360072,40.5600712 97.7119141,45.8408203 C91.1869312,58.8524283 82.2614746,84.8144531 73.6689453,129.189453 C66.4252165,166.598748 62.9436299,201.080535 61.7128906,218.025391 C60.4887984,234.878729 53.833561,293.414811 49.4892578,393.521484 C48.2418794,422.265082 47.3717622,473.083442 46.8789062,545.976562 L42.9765625,844.071167 Z" id="Path-26" fill="#2B324E" mask="url(#mask-2)"></path>
            <path d="M35.9765625,844.071167 L33.9985352,844.071167 L37.5458984,545.976562 C37.9674303,474.260808 38.7450996,424.259831 39.8789062,395.973633 C44.0833313,291.081677 50.4125645,232.039079 52.0859375,218.025391 C55.6113281,188.501953 65.473251,89.8395008 88.2402344,45.8408203 C93.3300781,35.1943359 94.7234604,31.5786918 97.5019531,26.6533203 C104.122609,14.9170327 109.432505,6.26143374 113.431641,0.686523438 L116.524414,0.686523438 C109.594883,11.2608425 104.753411,18.9327175 102,23.7021484 C97.5289789,31.4468058 93.3600723,40.5600712 90.7119141,45.8408203 C84.1869312,58.8524283 75.2614746,84.8144531 66.6689453,129.189453 C59.4252165,166.598748 55.9436299,201.080535 54.7128906,218.025391 C53.4887984,234.878729 46.833561,293.414811 42.4892578,393.521484 C41.2418794,422.265082 40.3717622,473.083442 39.8789062,545.976562 L35.9765625,844.071167 Z" id="Path-26-Copy" fill="#2B324E" mask="url(#mask-2)"></path>
            <path d="M22.9765625,844.071167 L20.9985352,844.071167 L24.5458984,545.766227 C24.9674303,473.999869 25.7450996,423.963612 26.8789062,395.657455 C31.0833313,290.691488 37.4125645,231.607228 39.0859375,217.583652 C42.6113281,188.039383 52.473251,89.3073145 75.2402344,45.2775884 C80.3300781,34.6235919 81.7234604,31.0053966 84.5019531,26.0765497 C91.122609,14.331981 96.0991715,5.67027462 99.4316406,0.0914306641 L102.524414,0.0914306641 C96.2615492,10.673211 91.7534112,18.3504993 89,23.1232955 C84.5289789,30.8734175 80.3600723,39.9931132 77.7119141,45.2775884 C71.1869312,58.2983774 62.2614746,84.2787211 53.6689453,128.685032 C46.4252165,166.120723 42.9436299,200.62684 41.7128906,217.583652 C40.4887984,234.448883 33.833561,293.026267 29.4892578,393.203576 C28.2418794,421.967456 27.3717622,472.821672 26.8789062,545.766227 L22.9765625,844.071167 Z" id="Path-26-Copy-3" fill="#2B324E" mask="url(#mask-2)"></path>
            <path d="M15.9765625,844.071167 L13.9985352,844.071167 L17.5458984,545.766227 C17.9674303,473.999869 18.7450996,423.963612 19.8789062,395.657455 C24.0833313,290.691488 30.4125645,231.607228 32.0859375,217.583652 C35.6113281,188.039383 45.473251,89.3073145 68.2402344,45.2775884 C73.3300781,34.6235919 74.7234604,31.0053966 77.5019531,26.0765497 C84.122609,14.331981 89.4325049,5.67027462 93.4316406,0.0914306641 L96.5244141,0.0914306641 C89.5948826,10.673211 84.7534112,18.3504993 82,23.1232955 C77.5289789,30.8734175 73.3600723,39.9931132 70.7119141,45.2775884 C64.1869312,58.2983774 55.2614746,84.2787211 46.6689453,128.685032 C39.4252165,166.120723 35.9436299,200.62684 34.7128906,217.583652 C33.4887984,234.448883 26.833561,293.026267 22.4892578,393.203576 C21.2418794,421.967456 20.3717622,472.821672 19.8789062,545.766227 L15.9765625,844.071167 Z" id="Path-26-Copy-2" fill="#2B324E" mask="url(#mask-2)"></path>
        </g>
        <g id="Combined-Shape" transform="translate(486.000000, 104.000000)">
            <mask id="mask-4" fill="white">
                <use xlink:href="#path-3"></use>
            </mask>
            <use id="Mask" fill="#2FB1DE" xlink:href="#path-3"></use>
            <path d="M55.7426975,14.3535156 L83.6882928,21.9428711 L83.6882928,27.1542969 L55.7426975,19.4125977 L55.7426975,14.3535156 Z M53.0740602,24 L89.7407183,34.5893555 L89.7407183,39.8007812 L51.0350344,29.300293 L53.0740602,24 Z M50.0204947,33 L96.8723355,46.5893555 L96.8723355,51.8007812 L47.9814688,38.300293 L50.0204947,33 Z M46.9649398,42 L93.8167807,55.5893555 L93.8167807,60.8007812 L44.925914,47.300293 L46.9649398,42 Z M42.2121723,52 L107.057518,70.5893555 L107.057518,75.8007812 L39.8333226,57.300293 L42.2121723,52 Z M40.1751357,61 L105.020482,79.5893555 L105.020482,84.8007812 L37.796286,66.300293 L40.1751357,61 Z M37.1195809,72 L101.964927,90.5893555 L101.964927,95.8007812 L34.7407312,77.300293 L37.1195809,72 Z M34.064026,82 L105.020482,102.589355 L105.020482,107.800781 L31.6851763,87.300293 L34.064026,82 Z M32.0269895,92 L102.983445,112.589355 L102.983445,117.800781 L29.6481398,97.300293 L32.0269895,92 Z M29.9899529,101 L109.094555,123.589355 L109.094555,128.800781 L27.6111032,106.300293 L29.9899529,101 Z M28.9714346,112 L108.076037,134.589355 L108.076037,139.800781 L26.5925849,117.300293 L28.9714346,112 Z M26.9343981,122 L110.113073,145.589355 L110.113073,150.800781 L24.5555484,127.300293 L26.9343981,122 Z M24.8973615,131 L108.076037,154.589355 L108.076037,159.800781 L22.5185118,136.300293 L24.8973615,131 Z M22.8603249,142 L116.224183,167.589355 L116.224183,172.800781 L20.4814753,147.300293 L22.8603249,142 Z M19.8047701,152 L113.168628,177.589355 L113.168628,182.800781 L17.4259204,157.300293 L19.8047701,152 Z M19.8047701,161 L113.168628,186.589355 L113.168628,191.800781 L17.4259204,166.300293 L19.8047701,161 Z M18.7862518,172 L114.187146,198.589355 L114.187146,203.800781 L16.4074022,177.300293 L18.7862518,172 Z M17.7677335,182 L117.242701,209.589355 L117.242701,214.800781 L15.3888839,187.300293 L17.7677335,182 Z M16.7492153,193 L117.242701,220.589355 L116.224183,225.800781 L14.3703656,198.300293 L16.7492153,193 Z M15.730697,204 L118.261219,231.589355 L117.242701,236.800781 L13.3518473,209.300293 L15.730697,204 Z M14.7121787,213 L127.427884,244.589355 L126.409366,249.800781 L12.333329,218.300293 L14.7121787,213 Z M13.6936604,223 L126.409366,254.589355 L125.390847,259.800781 L11.3148108,228.300293 L13.6936604,223 Z M11.6566239,233 L124.372329,264.589355 L123.353811,269.800781 L9.27777419,238.300293 L11.6566239,233 Z M10.6381056,250 L123.353811,276.589355 L122.335293,281.800781 L8.25925591,255.300293 L10.6381056,250 Z M8.60106902,268 L126.040352,291.263184 L125.021833,296.474609 L6.22221936,273.300293 L8.60106902,268 Z M8.60106902,288 L126.040352,311.263184 L125.021833,316.474609 L6.22221936,293.300293 L8.60106902,288 Z M7.58255074,304 L129.107842,324.946777 L128.089324,330.158203 L5.20370108,309.300293 L7.58255074,304 Z M7.58255074,322 L129.107842,342.946777 L128.089324,348.158203 L5.20370108,327.300293 L7.58255074,322 Z M5.54551418,339 L131.343808,361.028809 L130.32529,366.240234 L79.178251,357.415327 L3.16666452,344.300293 L5.54551418,339 Z M3.50847762,357 L132.885511,378.655273 L131.866992,383.866699 L77.1412145,375.415327 L1.12962796,362.300293 L3.50847762,357 Z M0.452922786,392 L134.760917,414.961426 L133.742399,420.172852 L74.0856596,410.415327 L-1.92592688,397.300293 L0.452922786,392 Z M0.452922786,409 L134.760917,431.961426 L133.742399,437.172852 L74.0856596,427.415327 L-1.92592688,414.300293 L0.452922786,409 Z M-1.43457138,435.02832 L138.069112,452.514648 L137.050594,457.726074 L-3.09612879,440.109863 L-1.43457138,435.02832 Z M-2.30140603,455 L137.202278,472.486328 L136.183759,477.697754 L-3.96296344,460.081543 L-2.30140603,455 Z M-1.28288775,475 L138.220796,492.486328 L137.202278,497.697754 L-2.94444516,480.081543 L-1.28288775,475 Z M-2.30140603,495 L137.202278,512.486328 L136.183759,517.697754 L-3.96296344,500.081543 L-2.30140603,495 Z M-2.30140603,536 L137.202278,553.486328 L136.183759,558.697754 L-3.96296344,541.081543 L-2.30140603,536 Z M-2.83602866,565.856934 L138.13078,579.476074 L137.112262,584.6875 L-4.49758607,570.938477 L-2.83602866,565.856934 Z M-3.31992431,588 L137.646885,601.619141 L136.628366,606.830566 L-4.98148172,593.081543 L-3.31992431,588 Z M-3.31992431,611 L137.646885,624.619141 L136.628366,629.830566 L-4.98148172,616.081543 L-3.31992431,611 Z M-3.31992431,635 L137.646885,648.619141 L136.628366,653.830566 L-4.98148172,640.081543 L-3.31992431,635 Z M-4.33844259,662 L139.721718,670.619629 L138.7032,675.831055 L-6,667.081543 L-4.33844259,662 Z M-3.31992431,720 L140.740236,728.619629 L139.721718,733.831055 L-4.98148172,725.081543 L-3.31992431,720 Z M-4.33844259,748 L139.721718,756.619629 L138.7032,761.831055 L-6,753.081543 L-4.33844259,748 Z M-3.42977291,775.243652 L140.75888,781.347772 L139.831469,786.57618 L-5.0023921,780.35342 L-3.42977291,775.243652 Z M-3.31549908,810.71762 L140.998348,811.78591 L140.253971,817.043498 L-4.70883198,815.879158 L-3.31549908,810.71762 Z M45.1825031,693.968731 L94.2266687,695.681391 C96.9864103,695.777763 99.1454977,698.093101 99.0491254,700.852843 C98.9527531,703.612584 96.6374153,705.771672 93.8776737,705.675299 L44.8335081,703.962639 C42.0737665,703.866267 39.9146792,701.550929 40.0110515,698.791188 C40.1074238,696.031446 42.4227615,693.872359 45.1825031,693.968731 Z M44.1810678,522.120762 L95.2294,523.903409 C97.4357063,523.980455 99.1618128,525.831477 99.0847669,528.037784 C99.007721,530.24409 97.1566983,531.970197 94.9503921,531.893151 L43.9020599,530.110504 C41.6957536,530.033458 39.9696471,528.182435 40.046693,525.976129 C40.1237389,523.769823 41.9747616,522.043716 44.1810678,522.120762 Z M42.5952044,381.926936 L93.2939143,388.151955 C95.4851099,388.421 97.0433209,390.415419 96.7742759,392.606615 C96.5052309,394.79781 94.5108118,396.356021 92.3196162,396.086976 L41.6209063,389.861957 C39.4297107,389.592912 37.8714998,387.598493 38.1405447,385.407298 C38.4095897,383.216102 40.4040088,381.657891 42.5952044,381.926936 Z" fill="#177E8C" mask="url(#mask-4)"></path>
        </g>
        <g id="Group-5" transform="translate(149.000000, 703.000000)">
            <circle id="Oval-2" fill="#336D2C" cx="85" cy="97" r="56"></circle>
            <path d="M85,126 L85,126 C87.209139,126 89,127.790861 89,130 L89,227 L81,227 L81,130 C81,127.790861 82.790861,126 85,126 Z" id="Rectangle-6-Copy" fill="#6E5B21"></path>
            <circle id="Combined-Shape" fill="url(#linearGradient-5)" cx="65.5" cy="65.5" r="65.5"></circle>
            <path d="M67,53 L67,53 C69.209139,53 71,54.790861 71,57 L71,227 L63,227 L63,57 C63,54.790861 64.790861,53 67,53 Z" id="Rectangle-6" fill="#6E5B21"></path>
            <path d="M66.0415088,80.1408685 L105.784859,80.1408685 C107.441713,80.1408685 108.784859,81.4840142 108.784859,83.1408685 L108.784859,84.1408685 C108.784859,85.7977227 107.441713,87.1408685 105.784859,87.1408685 L66.0415088,87.1408685 C64.3846545,87.1408685 63.0415088,85.7977227 63.0415088,84.1408685 L63.0415088,83.1408685 C63.0415088,81.4840142 64.3846545,80.1408685 66.0415088,80.1408685 Z" id="Rectangle-7" fill="#6E5B21" transform="translate(85.913184, 83.640868) rotate(-36.000000) translate(-85.913184, -83.640868) "></path>
        </g>
        <g id="Group-5-Copy" transform="translate(821.000000, 703.000000)">
            <circle id="Oval-2" fill="#336D2C" cx="85" cy="97" r="56"></circle>
            <path d="M85,126 L85,126 C87.209139,126 89,127.790861 89,130 L89,227 L81,227 L81,130 C81,127.790861 82.790861,126 85,126 Z" id="Rectangle-6-Copy" fill="#6E5B21"></path>
            <circle id="Combined-Shape" fill="url(#linearGradient-5)" cx="65.5" cy="65.5" r="65.5"></circle>
            <path d="M67,53 L67,53 C69.209139,53 71,54.790861 71,57 L71,227 L63,227 L63,57 C63,54.790861 64.790861,53 67,53 Z" id="Rectangle-6" fill="#6E5B21"></path>
            <path d="M66.0415088,80.1408685 L105.784859,80.1408685 C107.441713,80.1408685 108.784859,81.4840142 108.784859,83.1408685 L108.784859,84.1408685 C108.784859,85.7977227 107.441713,87.1408685 105.784859,87.1408685 L66.0415088,87.1408685 C64.3846545,87.1408685 63.0415088,85.7977227 63.0415088,84.1408685 L63.0415088,83.1408685 C63.0415088,81.4840142 64.3846545,80.1408685 66.0415088,80.1408685 Z" id="Rectangle-7" fill="#6E5B21" transform="translate(85.913184, 83.640868) rotate(-36.000000) translate(-85.913184, -83.640868) "></path>
        </g>
        <rect id="Rectangle" fill="#63577E" x="78" y="930" width="898" height="31"></rect>
    </g>
</svg>