<?xml version="1.0" encoding="utf-8"?>
<!-- Generator: Adobe Illustrator 22.0.0, SVG Export Plug-In . SVG Version: 6.00 Build 0)  -->
<svg version="1.1" id="图层_1" xmlns="http://www.w3.org/2000/svg" xmlns:xlink="http://www.w3.org/1999/xlink" x="0px" y="0px"
	 viewBox="0 0 240 240" style="enable-background:new 0 0 240 240;" xml:space="preserve">
<style type="text/css">
	.st0{fill:#E45050;}
	.st1{fill:#FFC433;}
	.st2{fill:#FFFFFF;}
</style>
<polygon class="st0" points="116.6,223.6 14.8,115.9 126.5,11.2 232.2,119.9 "/>
<polygon class="st0" points="131.4,7.3 234.1,116.9 245,107 135.3,3.3 "/>
<polygon class="st0" points="13.8,110 123.5,7.3 113.6,-3.6 9.9,106 "/>
<polygon class="st0" points="114.6,227.5 11.9,117.9 1,127.8 110.7,231.5 "/>
<polygon class="st0" points="233.1,124.8 123.5,227.5 133.4,238.4 237.1,128.8 "/>
<g>
	<path class="st1" d="M162.7,104.4c-0.4-0.2-0.8-0.2-1.2-0.2l-1.2-0.1l-4.7-0.2c-3.1-0.2-6.3-0.3-9.4-0.4
		c-6.3-0.3-12.5-0.4-18.8-0.5c-2.2,0-4.4,0-6.6,0c1-2.2,1.8-4.5,2.6-6.8l2,0.2c4,0.4,7.9,0.7,11.9,1l5.9,0.4l3,0.2
		c0.5,0,1,0.1,1.5-0.1c0.5-0.2,1-0.5,1.5-1.3v-6.8c-0.5-0.8-1-1.1-1.5-1.4c-0.5-0.2-1-0.2-1.5-0.2l-3,0.1l-5.9,0.2
		c-3.9,0.1-7.8,0.3-11.7,0.5c0.2-0.8,0.4-1.6,0.6-2.4c0.2-0.8,0.4-1.5,0.5-2.3c3.7,0.2,7.3,0.3,11.1,0.1c2.1-0.1,4.2-0.4,6.3-0.8
		c0.6-0.1,1.1-0.2,1.6-0.4c0.6-0.2,1.1-0.3,1.7-0.5c0.6-0.2,1.2-0.4,1.8-0.7c0.3-0.2,0.5-0.6,0.6-1.3c0-0.2,0-0.4,0-0.6l0-0.3
		c0-0.1,0-0.2-0.1-0.4c-0.1-0.3-0.1-0.5-0.2-0.8c0-0.1-0.1-0.3-0.1-0.4l-0.2-0.5l-0.5-0.8l-0.6-0.7c-0.2-0.2-0.4-0.4-0.5-0.6
		l-0.7-0.9c-0.3-0.5-0.6-0.7-0.8-0.7c-0.3,0.1-0.7,0.2-1,0.3c-0.4,0.1-0.8,0.2-1.2,0.2l-1.3,0.2c-1.8,0.3-3.6,0.4-5.5,0.6
		c-2.9,0.3-5.8,0.5-8.8,0.7c0.1-0.6,0.2-1.1,0.3-1.7c0.1-0.8,0.2-1.6,0.1-2.5c-0.1-0.9-0.2-1.7-0.5-2.6c-0.3-0.9-0.7-1.8-1.4-2.7
		l-1-0.1c-0.9,0.7-1.6,1.4-2.1,2.1c-0.6,0.7-1,1.4-1.3,2.1c-0.4,0.7-0.6,1.5-0.8,2.2c-0.2,0.7-0.4,1.5-0.7,2.2
		c-0.2,0.5-0.4,1.1-0.5,1.6c-2.2,0.2-4.4,0.3-6.7,0.4c-2,0.1-4,0.2-6,0.3c-1,0.1-2,0-3,0.2c-1,0.2-2,0.5-3.1,1.3l-0.1,1
		c0.9,0.9,1.9,1.3,2.9,1.7c1,0.3,2,0.4,3,0.6c2,0.3,4,0.6,6,0.8c1.5,0.2,2.9,0.4,4.4,0.5c-0.1,0.1-0.1,0.3-0.2,0.4
		c-0.8,1.9-1.6,3.8-2.5,5.7l-1.7,0.1c-4,0.3-7.9,0.6-11.9,1.1l-0.1,3c3.6,0.6,7.3,1,10.9,1.4c-0.9,1.8-1.9,3.6-2.9,5.3
		c-0.5,0.9-1.1,1.9-1.6,2.8c-2.9,0.1-5.9,0.1-8.8,0.2l-4.7,0.1l-2.3,0.1c-0.4,0-0.8,0.3-1.2,0.7c-0.4,0.5-0.8,1.1-1.2,2.2l0,1
		c0.4,1.2,0.8,1.7,1.1,2.2c0.4,0.4,0.8,0.7,1.2,0.7l2.3,0.1l4.7,0.3c1.3,0.1,2.5,0.1,3.8,0.2c-1,1.5-2.1,3-3.2,4.4
		c-1.8,2.4-3.7,4.7-5.8,6.8l-1.5,1.6l-0.8,0.8c-0.3,0.3-0.5,0.5-0.7,0.9c-0.8,1.4-1.2,3.1-0.4,6.7l0.6,0.8c0.4,0.2,0.8,0.4,1.2,0.5
		c0.4,0.2,0.7,0.2,1.1,0.3c0.7,0.2,1.3,0.3,1.9,0.3c0.3,0,0.6,0,0.8,0c0.3,0,0.5,0,0.8-0.1c0.5-0.1,0.9-0.3,1.3-0.5
		c1.5-0.9,2.7-2.2,4-3.3c0.6-0.6,1.3-1.2,1.8-1.8c0.6-0.6,1.2-1.2,1.8-1.8c1.1-1.3,2.3-2.5,3.4-3.9c2.2-2.7,4.1-5.4,5.9-8.3
		c0.6-0.9,1.1-1.9,1.6-2.8c0.4,0,0.9,0,1.3,0.1c3.1,0.1,6.3,0.2,9.4,0.3c6.3,0.1,12.5,0.1,18.8,0c3.1,0,6.3-0.1,9.4-0.2l4.7-0.1
		l1.2,0c0.4,0,0.8,0,1.2-0.2c0.8-0.4,1.6-1.1,2.4-3l0-1C164.2,105.6,163.5,104.9,162.7,104.4z"/>
	<path class="st1" d="M160,124.3c-0.2-0.5-0.4-1-0.5-1.3c-0.3-0.7-0.4-1.1-0.6-1.2c-0.4-0.2-1-0.5-1.6-0.7c-0.6-0.3-1.3-0.6-2-1
		L153,119c-1.6-0.7-3.3-1.6-5-2.5c-0.8-0.5-1.7-1-2.5-1.5c-0.4-0.3-0.9-0.5-1.5-0.6c-0.6-0.1-1.3-0.1-2.3,0.2l-0.8,0.6
		c-0.4,1-0.4,1.7-0.3,2.4c0.1,0.6,0.3,1.2,0.6,1.6c0.6,0.9,1.2,1.8,1.8,2.7c0.2,0.3,0.5,0.7,0.7,1l-0.3-0.3
		c-0.3-0.6-0.5-0.7-0.8-0.7l-0.8,0L140,122l-3.3,0.1c-2.2,0.1-4.5,0.2-6.7,0.3c-2.2,0.1-4.5,0.2-6.7,0.4c-2.2,0.2-4.5,0.3-6.7,0.5
		c-0.2,0-0.4,0.2-0.4,0.4c0,0.3,0.1,0.5,0.4,0.6c2.2,0.4,4.4,0.7,6.6,1c2.2,0.3,4.4,0.6,6.6,0.9c2.2,0.3,4.4,0.5,6.6,0.8l3.3,0.3
		l1.4,0.1l0,0.7l-0.3,3.3l-0.6,6.7c-0.2,2.2-0.4,4.4-0.5,6.7l-0.2,3.3c0,0.2,0,0.4,0,0.7c-1,0-2,0-3,0l-6.7-0.1
		c-2.2,0-4.4,0-6.7,0.2c-2.2,0.3-4.4-0.2-6.6,2c0.1-1.3,0.2-2.5,0.2-3.8c0.1-2,0.1-4,0.1-6c0.2,0.1,0.5,0.2,0.7,0.2
		c0.7,0.1,1.4,0.1,2.1,0.1c1.4,0,2.8,0,4.2-0.2c1.4-0.1,2.8-0.4,4.2-0.6c1.4-0.3,2.8-0.1,4.2-1.6v-1c-1.4-1.5-2.8-1.3-4.2-1.6
		c-1.4-0.2-2.8-0.4-4.2-0.6c-1.4-0.2-2.8-0.2-4.2-0.2c-0.7,0-1.4,0.1-2.1,0.1c-0.3,0-0.5,0.1-0.8,0.2c-0.1-1.9-0.2-3.9-0.3-5.8
		c-0.2-2.8-0.6-5.6-1.2-8.4l-3.5-0.1c-0.8,2.8-1.3,5.6-1.7,8.4c-0.4,2.8-0.7,5.6-0.9,8.4c-0.2,2.8-0.3,5.6-0.4,8.4
		c0,1.4,0,2.8,0,4.2c0,0.7,0.2,1.4,0.7,2.1c0.5,0.7,1.2,1.4,2.5,2.2l1,0c1.4-0.7,2.1-1.3,2.7-2c0.4-0.5,0.6-1,0.7-1.5
		c0,0,0,0.1,0.1,0.1c2.2,2.3,4.4,1.8,6.7,2.1c2.2,0.1,4.4,0.2,6.7,0.2l6.7-0.1c1.1,0,2.2,0,3.3,0l1.7,0c0.6,0,1.1,0,1.7,0.4
		c0.1,0,0.1,0.1,0.2,0.1c0.6,0.3,1.3,0.1,1.6-0.5l1.4-2.7c0.6-1.1,0.6-2.2,0.5-3.3l-0.2-3.3c-0.1-2.2-0.3-4.4-0.5-6.7l-0.6-6.7
		l-0.3-3.3l-0.1-1.7l-0.1-0.8c0-0.2-0.1-0.4,0.1-0.6c0.6,0.7,1.2,1.4,1.9,2.1c1.6,1.6,3.6,3,6,3.9c1.2,0.5,2.6,0.8,4.1,0.9
		c0.4,0,0.8-0.1,1.2-0.2c0.4-0.2,0.8-0.4,1.2-0.8c0.4-0.4,0.7-0.9,1-1.4c0.3-0.6,0.5-1.3,0.5-2.2l-0.2-1
		C160.5,125.5,160.2,124.9,160,124.3z M141.3,125l-0.2-0.2C141.2,124.9,141.3,125,141.3,125z"/>
</g>
<ellipse class="st1" cx="203.7" cy="114.6" rx="1.4" ry="1.1"/>
<ellipse class="st1" cx="182.4" cy="86.1" rx="1.4" ry="1.1"/>
<ellipse class="st1" cx="82.8" cy="71.9" rx="1.4" ry="1.1"/>
<ellipse class="st1" cx="82.8" cy="167.9" rx="1.4" ry="1.1"/>
<ellipse class="st1" cx="82.8" cy="118.1" rx="1.4" ry="1.1"/>
<ellipse class="st1" cx="97" cy="153.7" rx="1.4" ry="1.1"/>
<ellipse class="st1" cx="175.3" cy="146.6" rx="1.4" ry="1.1"/>
<ellipse class="st1" cx="33" cy="111" rx="1.4" ry="1.1"/>
<ellipse class="st2" cx="175.3" cy="120.2" rx="1.4" ry="1.1"/>
<ellipse class="st2" cx="72.8" cy="98.9" rx="1.4" ry="1.1"/>
<ellipse class="st2" cx="125.5" cy="34.9" rx="1.4" ry="1.1"/>
<ellipse class="st2" cx="153.9" cy="91.8" rx="1.4" ry="1.1"/>
<ellipse class="st2" cx="141.1" cy="184.3" rx="1.4" ry="1.1"/>
<ellipse class="st2" cx="153.9" cy="162.9" rx="1.4" ry="1.1"/>
<ellipse class="st2" cx="104.1" cy="63.3" rx="1.4" ry="1.1"/>
<ellipse class="st2" cx="132.6" cy="63.3" rx="1.4" ry="1.1"/>
<ellipse class="st2" cx="132.6" cy="141.6" rx="1.4" ry="1.1"/>
<ellipse class="st2" cx="61.5" cy="141.6" rx="1.4" ry="1.1"/>
<ellipse class="st1" cx="112" cy="180.7" rx="1.4" ry="1.1"/>
</svg>
