<?xml version="1.0" encoding="utf-8"?>
<!-- Generator: Adobe Illustrator 22.0.0, SVG Export Plug-In . SVG Version: 6.00 Build 0)  -->
<svg version="1.1" id="图层_1" xmlns="http://www.w3.org/2000/svg" xmlns:xlink="http://www.w3.org/1999/xlink" x="0px" y="0px"
	 viewBox="0 0 240 240" style="enable-background:new 0 0 240 240;" xml:space="preserve">
<style type="text/css">
	.st0{fill:#51C6D6;}
	.st1{fill:#FFD371;}
	.st2{fill:#D8525F;}
</style>
<ellipse class="st0" cx="148.3" cy="112.4" rx="37.6" ry="46.3"/>
<ellipse class="st1" cx="98.5" cy="60.6" rx="47.5" ry="58.6"/>
<path class="st2" d="M188.5,112.5c0-26.6-17.5-48.3-39.2-48.9c0-1,0.1-1.9,0.1-2.9c0-34.1-22.8-61.9-50.9-61.9
	c-28,0-50.9,27.8-50.9,61.9c0,30.3,17.9,55.5,41.5,60.8c-0.1,0.1-0.1,0.1-0.2,0.2l-1.6,2.2c-0.9,1.3,0,3,1.6,3h5.7
	c-3.8,5.8-10.3,18.3-4.8,31.2c2.8,6.6,8.8,13,14.5,19.1c8,8.6,16.3,17.5,14.1,25.1c-0.5,1.8,0.5,3.6,2.3,4.1
	c0.3,0.1,0.6,0.1,0.9,0.1c1.4,0,2.8-0.9,3.2-2.4c3.2-11.2-6.4-21.5-15.6-31.4c-5.4-5.7-10.9-11.7-13.3-17.2
	c-5.7-13.3,5.9-27.3,6.1-27.5c0.3-0.3,0.5-0.7,0.6-1h7.1c4.2,16.6,15.5,29.4,29.5,33.3l-1.6,2.3c-0.7,1,0,2.4,1.2,2.4h5.3
	c-1.2,3.7-3.6,12.4-3.1,23c0.1,1.2,0.1,2.5,0.2,3.9c1,15.3,2.8,43.6-13.9,48.7c-1.4,0.4-2.2,1.9-1.7,3.3c0.3,1.1,1.4,1.9,2.5,1.9
	c0.3,0,0.5,0,0.8-0.1c20.6-6.3,18.6-37.4,17.6-54.1c-0.1-1.4-0.2-2.7-0.2-3.9c-0.7-12.5,3.3-22.5,3.4-22.6c0,0,0-0.1,0-0.1h5.9
	c1.2,0,2-1.4,1.2-2.4l-1.3-1.8c0-0.1-0.1-0.1-0.1-0.2C174.3,156.3,188.5,136.4,188.5,112.5z M108.1,114.6c-3.1,0.9-6.3,1.3-9.6,1.3
	c-24.4,0-44.2-24.8-44.2-55.3c0-30.5,19.8-55.3,44.2-55.3c24.4,0,44.2,24.8,44.2,55.3c0,1.1,0,2.3-0.1,3.4c-0.1,1.8-0.2,3.6-0.5,5.4
	c-2.6,20.1-13.9,36.6-28.9,43.3C111.6,113.5,109.9,114.1,108.1,114.6z M148.3,156.1c-17.3,0-31.7-15.8-34.5-36.5
	c18.5-7.1,32.5-26.8,35.2-50.9c19,0.5,34.3,19.9,34.3,43.7C183.3,136.5,167.6,156.1,148.3,156.1z"/>
</svg>
