<svg xml:space="preserve" style="enable-background:new 0 0 500 500;" viewBox="0 0 500 500" y="0px" x="0px" xmlns:xlink="http://www.w3.org/1999/xlink" xmlns="http://www.w3.org/2000/svg" id="图层_1" version="1.1">
<style type="text/css">
	.st0{fill:#FB854B;}
	.st1{fill:#F9DBD0;}
	.st2{fill:#EDB29F;}
	.st3{fill:#F2BE5D;}
	.st4{fill:#EF6629;}
	.st5{fill:none;stroke:#441737;stroke-width:12;stroke-linecap:round;stroke-linejoin:round;stroke-miterlimit:10;}
	.st6{fill:#441737;}
</style>
<g id="XMLID_254_">
	<g>
		<path d="M347.36,261.9c16.46-26.98,39.53,6.07,30.49,38.45c-7.29,26.17-44.39,70.56-102.94,87.29
			c-58.42,16.73-61.38-31.7-35.89-35.75c1.48-0.4,2.83-0.94,4.32-1.48c0.4-0.13,0.54-0.13,0.54-0.13
			C327.66,322.2,347.36,261.9,347.36,261.9z" class="st0"></path>
		<path d="M347.36,261.9c0,0-19.7,60.31-103.48,88.37c0,0-0.13,0-0.54,0.13c-5.4,0.81-46,5.4-70.69-39.53
			c-9.44-17.13-17.13-30.22-23.2-37.51c-4.86-5.67-9.85-12.14-14.71-18.75l38.05-12.68c4.18,5.8,9.98,11.6,17.67,17.13
			c40.34,29.41,67.05,4.72,58.69-19.7c13.36,3.64,21.72-2.83,26.85-11.06c4.86-7.96-1.35-31.3-16.19-49.24
			c1.62-3.1-0.13-80.68,50.05-69.07c21.59,4.99,15.78,39.39,10.52,73.93C317,206.72,352.89,214.95,347.36,261.9z" class="st1"></path>
		<path d="M199.09,187.16c-1.08-6.88,0.27-12.68,2.56-17.27c4.72-9.58,15.38-14.3,25.9-11.87
			c13.22,2.97,24.01,11.06,32.24,21.05c14.84,17.94,21.05,41.28,16.19,49.24c-5.13,8.23-13.49,14.71-26.85,11.06v-0.13
			c-9.04-2.43-20.37-9.85-34.54-24.69C204.62,204.02,200.17,194.85,199.09,187.16z" class="st1"></path>
		<path d="M199.09,187.16c1.08,7.69,5.53,16.86,15.51,27.39c14.17,14.84,25.5,22.26,34.54,24.69v0.13
			c8.36,24.42-18.35,49.11-58.69,19.7c-7.69-5.53-13.49-11.33-17.67-17.13c-6.88-9.58-9.58-19.02-9.58-27.52
			c0-13.22,6.48-23.74,13.09-26.98C187.89,181.76,197.06,186.08,199.09,187.16z" class="st1"></path>
		<path d="M172.78,241.93l-38.05,12.68c-21.72-30.09-39.66-67.05-16.73-84.05c14.98-9.58,33.46,8.36,43.98,43.85h1.21
			C163.2,222.91,165.9,232.35,172.78,241.93z" class="st1"></path>
	</g>
</g>
<path d="M139.61,176.56c0,0-23.01-3.02-14.61,29.46c8.39,32.48,34.88,52.37,44.37,68.41
	c9.49,16.04,42.47,67,83.94,52.51c41.47-14.49,86.72-57.06,86.58-101.48c6.73,21.55,15.2,61.76-36.94,96.11
	s-93.39,41.07-117.25,7.45s-43.73-65.18-59.51-83.59S80.65,163.63,139.61,176.56z" class="st2"></path>
<circle r="12.74" cy="314.2" cx="206.09" class="st2"></circle>
<circle r="6" cy="307.45" cx="238.32" class="st2"></circle>
<path d="M165.99,228.52c0,0-5.07,24.62,12.64,41.79c17.72,17.16,52.69,31.05,77.18,8.12
	c8.49-8.12,8.49-19.49,8.49-19.49s34.94-8.63,13.72-55.75c-0.5,17.35-2.01,40.97-27.35,38.65
	C250.31,257.99,224.96,301.48,165.99,228.52z" class="st2"></path>
<path d="M181.27,187.38c0,0,2.94,47.12,52.73,62.61c8.92,3-2.75,19.19-23.2,16.84c18.02,5.64,40.72,2.8,39.87-25.01
	c-29.35-17.76-57.32-57.22-57.32-57.22L181.27,187.38z" class="st2"></path>
<path d="M240.82,167.98c0,0,43.83,73.23-6.82,63.63c5.32,8.38,26.35,15.59,38.14,2.58S271.8,185.91,240.82,167.98z" class="st2"></path>
<path d="M242.92,187.38c0,0-17.14-2.58-20.12,17.27C225.33,199.52,242.92,187.38,242.92,187.38z" class="st2"></path>
<path d="M198.95,230.51c0,0-13.1,2.63-13.1,16.3C188.85,240.5,198.95,230.51,198.95,230.51z" class="st2"></path>
<path d="M276.57,117.58c0,0,40.96-9.99,33.08,28.98c-7.88,38.97-4.1,56.86,30.24,78.9
	c-18.13-26.65-19.62-29.06-17.14-57.47S319.83,91.1,276.57,117.58z" class="st3"></path>
<path d="M347.04,270.3c0,0,24.92-23.31,25.05,43.9C384.72,288.47,360.32,222.16,347.04,270.3z" class="st3"></path>
<path d="M347.04,270.3c0,0-7.33,65.7-91.75,94.9c-12.37,4.71-15.01,14.14,0,12.92c15.01-1.21,58.98-20.2,75.97-51.18
	c-1,13.99-2.5,16.49-2.5,16.49s24.82-9.99,45.64-35.98c-11.66,30.48-74.62,97.97-144.57,81.96c-2.78-5.87-24.06-24.82,9.14-37.54
	S298.86,344.58,347.04,270.3z" class="st4"></path>
<path d="M346.47,263.93c0,0-20.57,62.6-108.43,89.94c-25.48,4-22.49,52.53,35.98,35.76
	c58.46-16.77,95.69-61.06,102.93-87.23C385.94,269.93,362.95,236.95,346.47,263.93z" class="st5"></path>
<path d="M242.99,352.26c0,0-44.84,8.76-71.31-39.46c-9.38-17.08-17.07-30.15-23.23-37.49
	c-26.2-31.21-59.45-81.95-31.33-102.83c14.99-9.49,33.48,8.49,43.97,43.97" class="st5"></path>
<path d="M198.56,189.48c0,0-9.91-6.5-23.19,0c-13.28,6.5-26.27,42.35,14.2,71.64s67.09,4.57,58.59-19.91" class="st5"></path>
<path d="M226.63,159.99c-10.46-2.35-21.17,2.33-25.95,11.93c-4.88,9.82-5.8,24.97,12.99,44.63
	c35.01,36.63,52.84,27.47,61.33,13.69C282.57,217.98,263.63,168.3,226.63,159.99z" class="st5"></path>
<path d="M258.86,181.04c1.62-3.1-0.15-80.7,50.13-69.01c21.49,5,15.68,39.28,10.49,73.84
	c-3.43,22.87,32.48,31.09,26.98,78.06" class="st5"></path>
<g>
	<path d="M375.67,210.51c2.77,0.17,5.4,1.18,7.87,2.43l1.81,1.04c0.62,0.34,1.14,0.79,1.72,1.19
		c0.57,0.41,1.14,0.82,1.67,1.28c0.51,0.47,1.04,0.93,1.55,1.42c4.06,3.9,7.06,8.87,8.96,14.13c0.42,1.33,0.83,2.67,1.2,4.01
		c0.21,0.67,0.26,1.36,0.4,2.04c0.11,0.68,0.24,1.36,0.33,2.05l0.28,2.05c0.11,0.68,0.07,1.37,0.1,2.05c0.04,1.37,0.03,2.74,0,4.09
		c-0.01,0.34,0,0.68-0.03,1.02l-0.13,1.01c-0.09,0.67-0.17,1.35-0.28,2.01c-0.2,1.34-0.44,2.67-0.7,3.98
		c-0.76,2.61-1.62,5.17-2.8,7.61c-0.81-2.67-1.28-5.23-1.7-7.74c-0.3-1.25-0.58-2.49-0.82-3.72c-0.28-1.22-0.38-2.45-0.72-3.64
		c-0.67-2.37-0.96-4.77-1.72-7.03c-0.35-1.14-0.55-2.31-0.94-3.42c-0.39-1.1-0.76-2.21-1.11-3.33c-1.58-4.38-3.45-8.59-5.88-12.64
		C382.29,218.34,379.43,214.43,375.67,210.51z" class="st6"></path>
</g>
<g>
	<path d="M119.66,280.41c0.7,3.94,1.71,7.59,3.28,10.9c1.54,3.31,3.49,6.28,5.82,8.9c2.32,2.62,4.99,4.91,7.87,6.95
		c1.41,1.05,2.95,1.97,4.47,2.9c1.78,1.11,3.69,2.4,5.3,3.81c3.29,2.84,5.99,6.14,8.27,9.61c2.25,3.49,4.12,7.14,5.6,10.9
		c1.49,3.76,2.65,7.61,3.47,11.51c0.8,3.91,1.37,7.87,1.32,11.88c-3.75-7.02-7.29-13.8-11.24-20.17
		c-3.92-6.34-8.26-12.3-13.41-16.79l-0.97-0.83l-1-0.77c-0.33-0.27-0.67-0.49-1.02-0.72l-1.08-0.74c-1.72-1.21-3.47-2.34-5.06-3.76
		c-3.22-2.72-6.14-5.91-8.36-9.58c-2.22-3.65-3.73-7.75-4.31-11.89c-0.18-1.03-0.2-2.08-0.28-3.11c0.02-1.04-0.03-2.06,0.1-3.09
		C118.6,284.3,119.01,282.3,119.66,280.41z" class="st6"></path>
</g>
<g>
	<path d="M124.07,337.32c4.23,1.23,7.67,3.97,10.51,7.1c2.82,3.18,5.05,6.92,6.43,10.97c1.39,4.04,2.13,8.34,1.83,12.59
		c-0.04,2.12-0.5,4.22-1.01,6.27c-0.23,1.02-0.68,2.02-1.09,3c-0.42,0.98-0.91,1.94-1.46,2.86c-0.9-2.06-1.34-4-1.95-5.88
		c-0.64-1.88-1.02-3.71-1.65-5.48c-0.98-3.57-2.17-6.94-3.31-10.32c-1.14-3.38-2.45-6.71-3.84-10.14L124.07,337.32z" class="st6"></path>
</g>
</svg>
