<svg viewBox="0 0 247.9 247.9" xmlns:xlink="http://www.w3.org/1999/xlink" xmlns="http://www.w3.org/2000/svg"><defs><style>.cls-1,.cls-11,.cls-15,.cls-16{fill:none;}.cls-2{isolation:isolate;}.cls-21,.cls-3,.cls-5{fill:#ffb24d;}.cls-21,.cls-3{stroke:#ef802e;}.cls-10,.cls-11,.cls-12,.cls-14,.cls-15,.cls-16,.cls-17,.cls-18,.cls-21,.cls-3{stroke-miterlimit:10;}.cls-14,.cls-3{stroke-width:1.59px;}.cls-10,.cls-4{fill:#fff2e9;}.cls-6{clip-path:url(#clip-path);}.cls-7{fill:#ef802e;}.cls-8{fill:#fff;}.cls-9{fill:#8c3c2f;}.cls-10,.cls-11,.cls-12,.cls-17,.cls-18{stroke:#661e10;}.cls-10{stroke-width:0.79px;}.cls-11{stroke-width:0.74px;}.cls-12,.cls-17{fill:#db525f;}.cls-12{stroke-width:0.79px;}.cls-13{fill:#5e0e06;}.cls-14{fill:#513a39;stroke:#383331;}.cls-15,.cls-16{stroke:#fff;stroke-linecap:round;}.cls-15{stroke-width:2.24px;}.cls-16{stroke-width:2.38px;}.cls-17{stroke-width:0.73px;}.cls-18{fill:#932238;stroke-width:0.33px;}.cls-19{fill:#9b2939;}.cls-20{fill:#ffb761;opacity:0.5;mix-blend-mode:multiply;}.cls-21{stroke-width:1.43px;}</style><clipPath id="clip-path"><path d="M90.72,64.22S153,44.74,199.24,72.05c0,0,51.78,42,17.52,96.72C186.47,208.21,75,202.16,55.32,157.31,30.16,99.89,90.72,64.22,90.72,64.22Z" class="cls-1"></path></clipPath></defs><title>未标题-2</title><g class="cls-2"><g data-name="图层 1" id="图层_1"><path d="M58.41,116.74c-.41-.55-15.59-19.55-11.84-52.91,0,0,31.47-8.87,57.54.19Z" class="cls-3"></path><path d="M58.52,107.12S49.79,87.46,53.37,73c0,0,15.39-8.59,38.76-5Z" class="cls-4"></path><path d="M223.9,119.36c.42-.54,13.25-21.66,10.45-55.1,0,0-31.64-10.09-58-1.69Z" class="cls-3"></path><path d="M188.25,67s24.34-2.81,37.63,2.15a122.73,122.73,0,0,1-2.48,36.37Z" class="cls-4"></path><path d="M90.72,64.22S153,44.74,199.24,72.05c0,0,51.78,42,17.52,96.72C186.47,208.21,75,202.16,55.32,157.31,30.16,99.89,90.72,64.22,90.72,64.22Z" class="cls-5"></path><g class="cls-6"><path d="M35.29,119.15a52.19,52.19,0,0,0,7.64,4.58,67,67,0,0,0,8,3.38c.34.11.68.24,1,.33l1.05.26,1.06.24a9.81,9.81,0,0,0,1.05.22,19.55,19.55,0,0,1,2.07.51l.51.17.51.16c.33.1.67.23,1,.36l1,.41.49.23.51.19c.67.28,1.34.58,2,.92s1.36.66,2,1c.35.19.7.38,1,.61a12.25,12.25,0,0,1,1.06.71l0,.59a17.9,17.9,0,0,1-9.6,1.06c-.39-.07-.79-.13-1.18-.21a7.78,7.78,0,0,1-1.15-.3,20,20,0,0,1-2.21-.89c-.73-.32-1.41-.75-2.11-1.12s-1.39-.75-2.08-1.15a45.06,45.06,0,0,1-7.75-5.24,39,39,0,0,1-6.43-6.66Z" class="cls-7"></path><path d="M31.44,135.63a53.48,53.48,0,0,0,8.37,3.05,65.5,65.5,0,0,0,8.54,1.79c.36.05.71.12,1.08.14l1.08,0,1.08,0a9.73,9.73,0,0,0,1.08,0,18.75,18.75,0,0,1,2.13.11l.53.07c.17,0,.35,0,.52.06.36,0,.71.1,1.06.16l1.05.22.53.13.54.1c.71.14,1.43.31,2.15.52s1.46.4,2.21.64c.38.12.75.25,1.14.4s.77.31,1.16.5l.07.6a18,18,0,0,1-9.22,2.84c-.4,0-.8,0-1.2,0a7.84,7.84,0,0,1-1.19-.08,20.55,20.55,0,0,1-2.34-.45c-.77-.18-1.53-.47-2.28-.71s-1.51-.47-2.26-.73a45.22,45.22,0,0,1-8.6-3.69,38.69,38.69,0,0,1-7.58-5.32Z" class="cls-7"></path><path d="M31.18,150.23a53,53,0,0,0,8.56,2.43,64.29,64.29,0,0,0,8.66,1.17c.36,0,.71.06,1.08.06l1.08,0,1.08,0c.36,0,.72,0,1.08-.06a18.93,18.93,0,0,1,2.13,0l.53,0a4.61,4.61,0,0,1,.53,0c.36,0,.71,0,1.07.08L58,154l.54.09.54.06c.72.09,1.45.21,2.19.37s1.48.28,2.25.47c.38.1.77.19,1.16.32s.79.25,1.2.41l.11.59a17.87,17.87,0,0,1-9,3.51c-.4,0-.79.09-1.19.11a7.89,7.89,0,0,1-1.19,0,23.23,23.23,0,0,1-2.37-.28c-.79-.13-1.56-.36-2.33-.54s-1.54-.36-2.3-.57a45.47,45.47,0,0,1-8.86-3,39.11,39.11,0,0,1-7.94-4.75Z" class="cls-7"></path></g><path d="M82.14,183s-21.29-47.4,34.64-53.85c0,0,72.61,1.95,55.64,63.23,0,0-29.53,6.51-54.7.79C117.72,193.14,101.84,195,82.14,183Z" class="cls-4"></path><path d="M195.61,97.61s-20.24-11.12-34.52-9-24,17.6-20.31,37.7A31.9,31.9,0,0,0,170,136.76S195.87,132.4,195.61,97.61Z" class="cls-7"></path><circle r="22.35" cy="113.22" cx="164.52" class="cls-8"></circle><circle r="16.19" cy="118.93" cx="163.1" class="cls-9"></circle><path d="M219.26,96.49A74.46,74.46,0,0,1,227,115.33a70,70,0,0,1,2.27,20.29,59.07,59.07,0,0,1-4.37,20,57.22,57.22,0,0,1-4.73,9.13A62.71,62.71,0,0,1,214,173c-.55.66-1.13,1.29-1.74,1.9s-1.18,1.24-1.79,1.85a37.19,37.19,0,0,1-3.95,3.37,53.42,53.42,0,0,1-8.84,5.34,94.43,94.43,0,0,1-19.4,6.72,158.31,158.31,0,0,1-40.71,3.78,156.13,156.13,0,0,1-40.36-6.52,101.51,101.51,0,0,1-18.94-7.91A60.72,60.72,0,0,1,62,168.89a43.39,43.39,0,0,1-5.93-8.47A38.07,38.07,0,0,1,54,155.71c-.61-1.59-1.29-3.17-1.76-4.82a66.81,66.81,0,0,1-3.45-20.16c-.09-1.71.1-3.42.17-5.13,0-.86.18-1.7.26-2.55s.2-1.7.34-2.54a63.75,63.75,0,0,1,2.5-9.92,71.44,71.44,0,0,1,9.25-18.12,75,75,0,0,0-8.76,18.28,64.14,64.14,0,0,0-2.26,9.87c-.12.84-.18,1.68-.27,2.52s-.21,1.67-.21,2.52c0,1.68-.18,3.37-.06,5.05a66.13,66.13,0,0,0,3.66,19.79c.48,1.61,1.18,3.16,1.8,4.72a36.92,36.92,0,0,0,2.12,4.55,41.91,41.91,0,0,0,5.83,8.11A61.54,61.54,0,0,0,79.06,180,99.13,99.13,0,0,0,97.7,187.7,154.87,154.87,0,0,0,137.6,194a156.24,156.24,0,0,0,40.24-3.56,91.71,91.71,0,0,0,19.07-6.51,53.18,53.18,0,0,0,8.6-5.12,36.7,36.7,0,0,0,3.84-3.19c.6-.58,1.18-1.19,1.77-1.78s1.18-1.21,1.73-1.84a60.78,60.78,0,0,0,6.14-8,54.39,54.39,0,0,0,4.75-8.87,58.49,58.49,0,0,0,4.56-19.56A74.23,74.23,0,0,0,219.26,96.49Z" class="cls-7"></path><path d="M101.84,132c7.85-3.14,13.76-2.88,23.77-1.09,0,0,13.55,12.13,8.39,21.83-3.37,6.35-28.66,8.76-37,1.35S101.84,132,101.84,132Z" class="cls-10"></path><path d="M110.23,137.21a24.1,24.1,0,0,0,0,15.1" class="cls-11"></path><path d="M101.85,132.11c.41,3.38,2.82,6.77,7.77,7.56,5.52,0,13.12-3.76,15.63-8.93C125.25,130.74,111.09,127.45,101.85,132.11Z" class="cls-12"></path><path d="M112.59,99.87a87.84,87.84,0,0,0-9.33-11.38,75.4,75.4,0,0,0-11-9.63,55.46,55.46,0,0,0-12.85-6.72,45,45,0,0,0-7-1.86,43.08,43.08,0,0,0-7.29-.48l0-.16a29.37,29.37,0,0,1,7.44-.46,34.58,34.58,0,0,1,7.38,1.46A44.51,44.51,0,0,1,93,77.83,77.31,77.31,0,0,1,103.85,88a90.42,90.42,0,0,1,8.88,11.83Z" class="cls-13"></path><path d="M94.62,70.45a12.74,12.74,0,0,1,3.83,1.87c.6.38,1.14.84,1.71,1.27s1.08.94,1.58,1.43a33,33,0,0,1,5.08,6.77,67.65,67.65,0,0,1,3.91,7.44l1.58,3.88,1.39,4-.15,0-1.68-3.81L110,89.58a68.25,68.25,0,0,0-4.26-7.09,66.42,66.42,0,0,0-5.16-6.37c-.91-1-1.85-2-2.84-2.93a23.53,23.53,0,0,0-3.2-2.59Z" class="cls-13"></path><path d="M136.58,98.49a88.69,88.69,0,0,1,9-10.55,72,72,0,0,1,10.73-8.88,48.33,48.33,0,0,1,6.1-3.49c1.06-.51,2.16-.93,3.27-1.35s2.26-.69,3.43-.92a23.94,23.94,0,0,1,7.06-.43A21.25,21.25,0,0,1,183,74.66l-.05.14a30.21,30.21,0,0,0-6.77-.83,28.87,28.87,0,0,0-6.68.88,38,38,0,0,0-6.4,2.16A45.53,45.53,0,0,0,157,80.13a70.9,70.9,0,0,0-10.87,8.38,88.09,88.09,0,0,0-9.43,10.07Z" class="cls-13"></path><path d="M135,96.17a73.58,73.58,0,0,1,7.24-13.59,30.21,30.21,0,0,1,5-6,14,14,0,0,1,7-3.54l0,.15a24.26,24.26,0,0,0-5.92,4.55,68.78,68.78,0,0,0-5,5.57,73.17,73.17,0,0,0-4.32,6.26c-1.36,2.16-2.64,4.37-3.79,6.64Z" class="cls-13"></path><path d="M38.33,154.08a5.92,5.92,0,0,1,.69-2c.17-.31.33-.63.53-.93l.64-.85a16.19,16.19,0,0,1,3.14-2.88c.29-.21.56-.44.86-.63l.93-.52c.62-.34,1.23-.71,1.87-1l1.95-.82a18.4,18.4,0,0,1,2-.77c1.35-.38,2.69-.84,4.06-1.15l4.14-.78c1.38-.22,2.78-.32,4.16-.48l2.09-.23c.69-.06,1.39-.07,2.09-.1,2.78-.13,5.56-.31,8.34-.22l4.17,0c1.39,0,2.78.14,4.17.2,5.55.24,11.06.9,16.58,1.46l0,.16c-5.53-.35-11-.8-16.59-.83-1.38,0-2.77-.12-4.15-.08l-4.14.09c-2.77,0-5.52.25-8.27.45-.68.07-1.37.1-2.06.18l-2,.3c-1.36.21-2.73.35-4.07.62l-4,.84c-1.34.28-2.63.71-4,1.06a14.64,14.64,0,0,0-1.94.63l-1.92.69c-.62.26-1.21.59-1.83.88l-.91.44c-.3.15-.58.35-.87.52a15.29,15.29,0,0,0-3.21,2.44l-.71.72c-.22.26-.4.54-.61.81a6.81,6.81,0,0,0-.92,1.8Z" class="cls-13"></path><path d="M61.61,154.05a11.31,11.31,0,0,1,3.63-3.78,19.34,19.34,0,0,1,2.26-1.36,23.45,23.45,0,0,1,2.39-1.1A41.11,41.11,0,0,1,80,145.46c1.71-.2,3.44-.36,5.16-.48s3.44-.18,5.16-.17,3.44,0,5.15.11l5.14.3v.16l-5.14,0c-1.71,0-3.42.14-5.13.21s-3.4.27-5.1.4-3.38.43-5,.7a70,70,0,0,0-9.78,2.58c-3.13,1.12-6.32,2.41-8.7,4.84Z" class="cls-13"></path><path d="M124.92,141.74c5.73-.51,11.47-.77,17.22-.89s11.51,0,17.27.35a113.17,113.17,0,0,1,17.18,2.07c5.62,1.28,11.28,3,16.21,6l-.07.14a76.93,76.93,0,0,0-16.45-4.6c-5.61-1-11.26-1.84-17-2.36s-11.43-.75-17.16-.83-11.48,0-17.21.25Z" class="cls-13"></path><path d="M57.82,98.66S73.15,87.82,84,89.89,102.15,107,99.35,126.6c0,0-8.07,13.14-22.09,10.17C77.26,136.77,57.62,132.52,57.82,98.66Z" class="cls-7"></path><ellipse ry="21.76" rx="16.93" cy="113.85" cx="81.36" class="cls-8"></ellipse><ellipse ry="15.76" rx="12.26" cy="119.36" cx="82.81" class="cls-9"></ellipse><ellipse ry="10.2" rx="7.93" cy="119.36" cx="82.81" class="cls-14"></ellipse><ellipse ry="4.1" rx="3.84" cy="129.76" cx="87.44" class="cls-8"></ellipse><path d="M71.87,108.46s-.15,2.93,5.16,9" class="cls-15"></path><circle r="10.19" cy="119.02" cx="159.89" class="cls-14"></circle><circle r="4.51" cy="128.82" cx="170.88" class="cls-8"></circle><path d="M147.72,109.74a23,23,0,0,0,7,7.24" class="cls-16"></path><path d="M125.06,143.93a159,159,0,0,1,21.81.85,61.61,61.61,0,0,1,10.81,1.94,30.62,30.62,0,0,1,5.16,2A14.61,14.61,0,0,1,167.3,152l-.11.11a30.89,30.89,0,0,0-9.93-3.87c-3.48-.83-7-1.65-10.56-2.21s-7.17-1-10.78-1.27-7.23-.57-10.86-.68Z" class="cls-13"></path><path d="M90.72,64.22a149.88,149.88,0,0,1,26.07-5.95,163.84,163.84,0,0,1,26.75-1.58c2.23.05,4.47.22,6.7.35s4.46.38,6.67.69a111.35,111.35,0,0,1,13.2,2.4,107.73,107.73,0,0,1,12.81,3.95L186,65.33c1,.44,2,.92,3.05,1.37,2.06.88,4,2,6,3a113.8,113.8,0,0,0-25.16-8.65c-2.16-.51-4.35-.85-6.53-1.28s-4.38-.7-6.58-.93-4.42-.43-6.63-.63-4.43-.26-6.65-.29a175,175,0,0,0-26.58,1.28c-4.41.52-8.81,1.21-13.18,2S95,63.05,90.72,64.22Z" class="cls-7"></path><path d="M117.44,59.15a16,16,0,0,0-1,5,14.78,14.78,0,0,0,0,2.49,19.46,19.46,0,0,0,.26,2.42,12.19,12.19,0,0,0,.73,2.34,6.89,6.89,0,0,1,.44,2.34,14.19,14.19,0,0,1-.2,2.61,11.58,11.58,0,0,1-.8,3.06l-.55.22a8.67,8.67,0,0,1-2.66-2A10.37,10.37,0,0,1,112,75.1c-.88-1.86-.36-4-.13-6a24.25,24.25,0,0,1,.58-2.94,18.9,18.9,0,0,1,1-2.78A13.45,13.45,0,0,1,117,58.76Z" class="cls-7"></path><path d="M130.22,57.53a16.91,16.91,0,0,0-2.33,6.2,27.41,27.41,0,0,0-.48,3.27c-.11,1.09-.21,2.18-.22,3.29-.09,2.21.6,4.43.1,6.61a19.5,19.5,0,0,1-.83,3.35,14.1,14.1,0,0,1-1.59,3.53l-.59,0a12.82,12.82,0,0,1-2-3.41,16.94,16.94,0,0,1-.93-3.59,10.67,10.67,0,0,1,.18-3.65c.33-1.21.62-2.4,1-3.59s.67-2.37,1.07-3.53a34.23,34.23,0,0,1,1.55-3.37,15.1,15.1,0,0,1,4.75-5.62Z" class="cls-7"></path><path d="M147.1,57.72a53.81,53.81,0,0,0-3.87,5.52l-.85,1.42-.79,1.45c-.52,1-1,1.91-1.47,2.9-.94,1.95-1.17,4.16-2.35,5.89a24.33,24.33,0,0,1-4.41,5.44l-.58-.11a10.16,10.16,0,0,1-.91-3.84c0-.63,0-1.26,0-1.89a16.36,16.36,0,0,1,.34-1.83,9.48,9.48,0,0,1,1.53-3.32c.77-1,1.53-1.93,2.29-2.86s1.53-1.85,2.32-2.73l1.27-1.26L141,61.3a32.85,32.85,0,0,1,5.76-4Z" class="cls-7"></path><path d="M214.91,124.81a39,39,0,0,1-6.44,6.66c-1.19,1-2.45,1.91-3.73,2.82l-2,1.26c-.67.41-1.36.77-2,1.17s-1.38.76-2.08,1.14-1.38.8-2.11,1.13a15,15,0,0,1-4.54,1.39,18,18,0,0,1-9.59-1l-.05-.6a27.12,27.12,0,0,1,4.14-2.36c1.34-.68,2.69-1.2,4-1.76a24.92,24.92,0,0,1,4.09-1.19c.71-.11,1.4-.31,2.11-.47a17,17,0,0,0,2.08-.59c.68-.24,1.37-.46,2.05-.73l2-.82c1.34-.56,2.69-1.16,4-1.83a53.47,53.47,0,0,0,7.63-4.57Z" class="cls-7"></path><path d="M218.67,141.36a39,39,0,0,1-7.57,5.33c-1.37.74-2.77,1.41-4.2,2.06l-2.18.86c-.74.28-1.49.51-2.23.76s-1.5.49-2.26.74-1.51.52-2.28.7a14.76,14.76,0,0,1-4.72.52,17.88,17.88,0,0,1-9.23-2.85l.07-.59a26.77,26.77,0,0,1,4.51-1.54c1.45-.42,2.87-.67,4.27-1a24.07,24.07,0,0,1,4.24-.4c.72,0,1.44,0,2.16-.06a17.33,17.33,0,0,0,2.16-.19c.71-.11,1.43-.2,2.14-.33l2.14-.42c1.42-.31,2.85-.64,4.27-1a53.74,53.74,0,0,0,8.36-3.05Z" class="cls-7"></path><path d="M218.9,156a39.15,39.15,0,0,1-7.94,4.76c-1.42.64-2.87,1.21-4.34,1.75l-2.24.7c-.75.22-1.51.39-2.28.6s-1.53.37-2.3.56-1.54.41-2.33.54a14.84,14.84,0,0,1-4.75.17,18,18,0,0,1-9-3.52l.11-.58a26.06,26.06,0,0,1,4.61-1.21c1.48-.31,2.91-.45,4.34-.65A24.13,24.13,0,0,1,197,159c.72.08,1.44.06,2.16.1a15.72,15.72,0,0,0,2.17,0c.71-.05,1.44-.09,2.16-.16l2.16-.27c1.44-.2,2.89-.42,4.33-.73a52.05,52.05,0,0,0,8.56-2.44Z" class="cls-7"></path><path d="M97.46,151.31a13.94,13.94,0,0,0,4.38,5.21,41.38,41.38,0,0,0,17.9,1.85c4.9-1,6.89-3.53,7.55-6.08C117.21,147.36,101.77,150.33,97.46,151.31Z" class="cls-17"></path><path d="M127.29,152.29a12.16,12.16,0,0,0-.6-7,43.08,43.08,0,0,1-29.38.33,7.12,7.12,0,0,0,.15,5.68C101.77,150.33,117.21,147.36,127.29,152.29Z" class="cls-18"></path><rect ry="9.66" rx="9.66" height="86.92" width="245.33" y="162.12" x="0.91" class="cls-19"></rect><path d="M24.88,168.55s.37-25.35,29.56-19.21c20.33,4.28,22,21.35,22,21.35s-8,9.33-27.65,9.33C22.49,180,24.88,168.55,24.88,168.55Z" class="cls-20"></path><path d="M24.88,165.47s.37-25.35,29.56-19.21c20.33,4.28,22,21.34,22,21.34s-8,9.34-27.65,9.34C22.49,176.94,24.88,165.47,24.88,165.47Z" class="cls-21"></path><path d="M38.22,153.36s-8.3,8-4.92,21.57" class="cls-21"></path><path d="M47.15,155.53s-8.16,9.21-3.7,21.23" class="cls-21"></path><path d="M57.64,158.53s-7.14,4.32-4.47,18.41" class="cls-21"></path><path d="M154.31,169.68s.36-25.35,29.55-19.21c20.33,4.28,22,21.35,22,21.35s-8,9.33-27.66,9.33C151.92,181.15,154.31,169.68,154.31,169.68Z" class="cls-20"></path><path d="M154.31,166.66s.36-25.35,29.55-19.21c20.33,4.27,22,21.34,22,21.34s-8,9.33-27.66,9.33C151.92,178.12,154.31,166.66,154.31,166.66Z" class="cls-21"></path><path d="M167.65,154.54s-8.3,8-4.93,21.58" class="cls-21"></path><path d="M176.58,156.72s-8.16,9.21-3.71,21.23" class="cls-21"></path><path d="M187.06,159.72s-7.14,4.31-4.47,18.4" class="cls-21"></path><circle r="122.02" cy="123.16" cx="130.35" class="cls-1"></circle></g></g></svg>