<svg xml:space="preserve" style="enable-background:new 0 0 500 500;" viewBox="0 0 500 500" y="0px" x="0px" xmlns:xlink="http://www.w3.org/1999/xlink" xmlns="http://www.w3.org/2000/svg" id="图层_1" version="1.1">
<style type="text/css">
	.st0{fill:#ED767F;}
	.st1{fill:#F2F1F5;}
	.st2{fill:#CADDE5;}
	.st3{fill:#FFECAE;}
	.st4{fill:#D03D52;}
	.st5{fill:none;stroke:#441737;stroke-width:12;stroke-linecap:round;stroke-linejoin:round;stroke-miterlimit:10;}
</style>
<g>
	<g id="XMLID_54_">
		<g>
			<path d="M264.89,220.9l6.21-3.32c18.83-10.27,42.48-3.21,52.76,15.62c3.21,5.89,4.71,12.31,4.71,18.51
				c0,13.91-7.38,27.29-20.44,34.35l-6.53,3.42l-68.16,36.92l-0.86-1.28l-39.81-73.41c-3.21-5.89-4.71-12.31-4.71-18.51
				c0-13.8,7.38-27.29,20.44-34.24c18.94-10.27,42.59-3.21,52.76,15.62l3.42,6.42h0.11L264.89,220.9z" class="st0"></path>
			<path d="M271.09,217.58l-6.21,3.32l-0.11,0.11h-0.11l-3.42-6.42c-10.17-18.83-33.81-25.9-52.76-15.62
				c-13.06,6.96-20.44,20.44-20.44,34.24c0,6.21,1.5,12.63,4.71,18.51l39.81,73.41l0.86,1.28l68.16-36.92l6.53-3.42
				c13.06-7.06,20.44-20.44,20.44-34.35c0-6.21-1.5-12.63-4.71-18.51C313.58,214.37,289.93,207.31,271.09,217.58z M255.47,119.67
				c72.23,0,130.76,58.53,130.76,130.76S327.7,381.2,255.47,381.2c-9.84,0-19.48-1.18-28.68-3.21l0.54,0.21l-61.64,33.17
				l10.59-56.93l0.64,0.32c-31.67-23.86-52.22-61.64-52.22-104.33C124.71,178.2,183.24,119.67,255.47,119.67z" class="st1"></path>
		</g>
	</g>
</g>
<path d="M219.02,125.86c0,0-97.86,84.51-38.25,227.74c-25.8-16.01-74.73-72.95-52.49-134.33
	S219.02,125.86,219.02,125.86z" class="st2"></path>
<circle r="18.24" cy="289.1" cx="166.09" class="st2"></circle>
<circle r="3.11" cy="252.63" cx="174.98" class="st2"></circle>
<path d="M287.52,123.19c0,0,153.9,79.18,48.04,228.63c16.9-8.9,59.6-50.71,49.82-130.77S287.52,123.19,287.52,123.19z" class="st3"></path>
<path d="M241.26,197.03c0,0-35.58,10.68-24.02,52.49s16.9,74.73,16.9,74.73l-41.81-79.18
	C192.33,245.07,177.21,186.35,241.26,197.03z" class="st4"></path>
<circle r="14.23" cy="272.64" cx="225.25" class="st4"></circle>
<circle r="6.67" cy="231.28" cx="234.59" class="st4"></circle>
<path d="M267.95,219.27c0,0,61.38-8.01,50.71,61.38c10.68-11.57,16.01-33.81,5.34-51.6S287.52,208.59,267.95,219.27z" class="st3"></path>
<path d="M256.38,119.63c-72.22,0-130.77,58.55-130.77,130.77c0,42.71,20.57,80.51,52.23,104.38l-0.64-0.3l-10.68,56.94
	l61.68-33.21l-0.52-0.24c9.24,2.07,18.83,3.21,28.69,3.21c72.23,0,130.77-58.55,130.77-130.77S328.61,119.63,256.38,119.63z" class="st5"></path>
<g>
	<path d="M265.74,220.9l6.21-3.36c18.91-10.24,42.54-3.2,52.77,15.71l0,0c10.24,18.91,3.2,42.54-15.71,52.77l-6.51,3.52
		l-68.15,36.89" class="st5"></path>
	<path d="M265.7,221.13l-3.52-6.51c-10.24-18.91-33.86-25.94-52.77-15.71l0,0c-18.91,10.24-25.94,33.86-15.71,52.77
		l39.76,73.46" class="st5"></path>
</g>
</svg>
