<svg xmlns="http://www.w3.org/2000/svg" viewBox="0 0 208.3 199.39"><defs><style>.cls-1{fill:#152c39;}.cls-2{fill:#e3b99a;}.cls-3{fill:#c15962;}.cls-4{fill:#fff;}</style></defs><g id="图层_2" data-name="图层 2"><g id="图层_1-2" data-name="图层 1"><path class="cls-1" d="M180.45,78.65V114.7A71.13,71.13,0,0,1,162,162.25a.1.1,0,0,1,0,.05C147,179,124.39,189.64,99.08,189.64a85,85,0,0,1-55-19.67h0c-16.23-13.71-26.41-33.39-26.41-55.27v-36a69,69,0,0,1,3.26-21A72.86,72.86,0,0,1,36.24,31c.9-1,1.83-2,2.78-2.94a81.23,81.23,0,0,1,22.66-16c1.11-.53,2.23-1,3.37-1.51a86.88,86.88,0,0,1,34-6.85,88,88,0,0,1,12,.81,85.7,85.7,0,0,1,23.7,6.77c1,.44,1.94.89,2.88,1.37h0c.72.35,1.42.71,2.12,1.09a81.14,81.14,0,0,1,16.83,11.91l.08.07c.62.57,1.24,1.16,1.85,1.77C172.13,40.89,180.45,58.87,180.45,78.65Z"/><ellipse class="cls-1" cx="21.3" cy="127.9" rx="21.3" ry="20.03"/><ellipse class="cls-1" cx="35.43" cy="104.87" rx="27.22" ry="25.6"/><rect class="cls-1" x="7.16" y="134.45" width="28.27" height="25.6" rx="12.17"/><rect class="cls-1" x="9.95" y="154.22" width="22.69" height="23.86" rx="11.34"/><rect class="cls-1" x="20.23" y="137.78" width="22.69" height="23.86" rx="11.34"/><ellipse class="cls-1" cx="187" cy="123.43" rx="21.3" ry="20.03"/><ellipse class="cls-1" cx="172.46" cy="99.67" rx="27.22" ry="25.6"/><ellipse class="cls-1" cx="161.29" cy="69.59" rx="27.22" ry="25.6"/><rect class="cls-1" x="177.66" y="132.81" width="28.27" height="25.6" rx="12.17" transform="translate(383.59 291.22) rotate(180)"/><rect class="cls-1" x="180.45" y="152.57" width="22.69" height="23.86" rx="11.34" transform="translate(383.59 329.01) rotate(180)"/><rect class="cls-1" x="170.17" y="136.14" width="22.69" height="23.86" rx="11.34" transform="translate(363.02 296.14) rotate(-180)"/><path class="cls-2" d="M96.24,39.28h9.51A62.21,62.21,0,0,1,168,101.49v30.94a67,67,0,0,1-67,67h0a67,67,0,0,1-67-67V101.49A62.21,62.21,0,0,1,96.24,39.28Z"/><rect class="cls-3" x="68.89" y="153.04" width="1.96" height="13.1" rx="0.98" transform="translate(139.73 319.19) rotate(180)"/><rect class="cls-3" x="64.93" y="149.27" width="1.96" height="13.1" rx="0.98" transform="translate(131.81 311.63) rotate(180)"/><rect class="cls-3" x="60.97" y="153.04" width="1.96" height="13.1" rx="0.98" transform="translate(123.9 319.19) rotate(180)"/><rect class="cls-3" x="56.28" y="148.5" width="1.96" height="13.1" rx="0.98" transform="translate(114.52 310.1) rotate(-180)"/><rect class="cls-3" x="139.51" y="153.04" width="1.96" height="13.1" rx="0.98" transform="translate(280.97 319.19) rotate(-180)"/><rect class="cls-3" x="135.55" y="149.27" width="1.96" height="13.1" rx="0.98" transform="translate(273.05 311.63) rotate(180)"/><rect class="cls-3" x="131.59" y="153.04" width="1.96" height="13.1" rx="0.98" transform="translate(265.14 319.19) rotate(180)"/><rect class="cls-3" x="126.9" y="148.5" width="1.96" height="13.1" rx="0.98" transform="translate(255.76 310.1) rotate(180)"/><path class="cls-1" d="M120.29,91.7l22.65-3.59A2.7,2.7,0,0,1,146,90.47h0a2.8,2.8,0,0,1-2.25,3.2l-22.65,3.6a2.7,2.7,0,0,1-3-2.37h0A2.8,2.8,0,0,1,120.29,91.7Z"/><path class="cls-1" d="M60,95.25l17.36.83A2.76,2.76,0,0,1,79.91,99h0a2.73,2.73,0,0,1-2.79,2.68l-17.36-.83a2.75,2.75,0,0,1-2.55-2.94h0A2.73,2.73,0,0,1,60,95.25Z"/><path class="cls-3" d="M90.33,176l17.28-1.82a2.72,2.72,0,0,1,2.93,2.52h0a2.77,2.77,0,0,1-2.39,3.08l-17.29,1.83a2.73,2.73,0,0,1-2.93-2.52h0A2.79,2.79,0,0,1,90.33,176Z"/><rect class="cls-3" x="91.3" y="139.29" width="11.18" height="18.41" rx="5.59"/><path class="cls-4" d="M69.21,106.61l1-.1c6.61-.7,12.5,4.37,13.16,11.32l.7,7.33c.87,9.12-5.45,17.25-14.12,18.16l-.48.05c-8.67.91-16.4-5.73-17.27-14.85h0C51.12,117.52,58.75,107.72,69.21,106.61Z"/><path class="cls-4" d="M130.62,106.58l4.54,1c8.83,1.85,14.56,10.87,12.8,20.15l-.49,2.57c-1.72,9.13-10.16,15.05-18.83,13.23h0c-8.68-1.81-14.31-10.68-12.59-19.8l1.5-7.92A11.15,11.15,0,0,1,130.62,106.58Z"/><path class="cls-2" d="M161.29,133l-14.16,23c13,8.81,30,5.67,37.78-7s3.49-30.27-9.47-39.08a29.42,29.42,0,0,0-9-4.13Z"/><path class="cls-3" d="M168.11,137.78l-3.91,13.75a13,13,0,0,0,3.91.6c7.49,0,13.65-6.47,13.65-14.35a14.3,14.3,0,0,0-10-13.82Z"/><path class="cls-2" d="M38.33,132.86l12.73,23.92A25.83,25.83,0,0,1,15,146.59a28.65,28.65,0,0,1,10.6-37.65,26.56,26.56,0,0,1,8.83-3.27Z"/><path class="cls-3" d="M31.58,136.93l3.24,13.89a12.37,12.37,0,0,1-3.79.25c-7.2-.67-12.88-7.59-12.58-15.34.25-6.32,4.4-11.55,10.12-12.73Z"/><ellipse class="cls-1" cx="70.84" cy="130.47" rx="7.41" ry="7.81"/><ellipse class="cls-1" cx="128.94" cy="129.25" rx="7.41" ry="7.81"/><path class="cls-1" d="M132.57,14.82c.87.42,1.75.87,2.6,1.34h0a68.83,68.83,0,0,1-2.6,13,68,68,0,0,1-6.79,15.32,69.12,69.12,0,0,1-17.21,19.35,68.74,68.74,0,0,1-42.1,14.32V13.89h1.68a4.51,4.51,0,0,1,1.37.21,73.74,73.74,0,0,1,63.05.72Z"/><path class="cls-1" d="M137.09,14.07v64.8a34.12,34.12,0,0,1-28.52-15.78,37.51,37.51,0,0,1-6.08-20.61V12.07a7.34,7.34,0,0,1,7.15-7.52h1.5a70.14,70.14,0,0,1,21.43,7c.87.45,1.75.91,2.6,1.4h0C135.82,13.31,136.45,13.68,137.09,14.07Z"/><path class="cls-1" d="M154.05,28.26V76.43c-6.89,0-13-5.5-17-14.05a51.19,51.19,0,0,1-4.25-16.6q-.27-2.81-.27-5.73V11.54c.87.45,1.75.91,2.6,1.4h0c.65.36,1.28.73,1.92,1.12a74.3,74.3,0,0,1,15.22,12.3l.07.07C152.94,27,153.5,27.64,154.05,28.26Z"/><path class="cls-1" d="M173.86,81.07v9.71A14.11,14.11,0,0,1,166,88.26c-5.38-3.59-9.7-10.76-11.94-19.76a55.42,55.42,0,0,1-1.21-6.57,61.52,61.52,0,0,1-.46-7.53v-28c.56.59,1.12,1.2,1.67,1.82A79.27,79.27,0,0,1,173.86,81.07Z"/><path class="cls-1" d="M73.92,20.12V49.61a40.65,40.65,0,0,1-7.45,24C61.37,80.53,54.08,84.88,46,84.88V30.58a73.91,73.91,0,0,1,20.49-16V12.83h1.68a4.51,4.51,0,0,1,1.37.21C72.05,13.82,73.92,16.7,73.92,20.12Z"/><path class="cls-1" d="M47,39.43V69.85a71.83,71.83,0,0,1-1,12.29C44.07,93.36,39.59,102,34,105.05a9.12,9.12,0,0,1-4.38,1.17V59.35A78.36,78.36,0,0,1,43.47,31.91c1,0,1.87.9,2.51,2.28A12.73,12.73,0,0,1,47,39.43Z"/><path class="cls-1" d="M134.53,52.88l14.24-2.78c2-.4,3.29-3.11,2.77-6.05l-3.8-21.54C145.23,8.28,135.16-1.69,125.25.24h0Z"/><path class="cls-1" d="M95.53,52.51,88.85,39.19c-1-1.91,1.09-5,4.58-7L119,18c16.91-9.37,34.38-9.45,39-.17h0Z"/></g></g></svg>